<svg viewBox="0 0 20 20" fill="none" xmlns="http://www.w3.org/2000/svg">
<path fill-rule="evenodd" clip-rule="evenodd" d="M7.5 2C7.92261 2 8.2996 2.26567 8.44174 2.66366L12.5 14.0268L14.0583 9.66366C14.2004 9.26567 14.5774 9 15 9H18C18.5523 9 19 9.44772 19 10C19 10.5523 18.5523 11 18 11H15.7047L13.4417 17.3363C13.2996 17.7343 12.9226 18 12.5 18C12.0774 18 11.7004 17.7343 11.5583 17.3363L7.5 5.97322L5.94176 10.3363C5.79962 10.7343 5.42263 11 5.00002 11H2C1.44772 11 1 10.5523 1 10C1 9.44772 1.44772 9 2 9H4.2953L6.55826 2.66367C6.7004 2.26567 7.07738 2 7.5 2Z" fill="#8C8CA1"/>
</svg>
