<svg width="22" height="18" viewBox="0 0 22 18" fill="none" xmlns="http://www.w3.org/2000/svg">
<path d="M4 9C4 5.13401 7.13401 2 11 2C13.5897 2 15.8523 3.40581 17.0641 5.50073C17.3407 5.97879 17.9524 6.14215 18.4305 5.86561C18.9085 5.58906 19.0719 4.97733 18.7953 4.49927C17.2407 1.81178 14.3325 0 11 0C6.36745 0 2.55237 3.50005 2.05493 8H1C0.447715 8 0 8.44772 0 9C0 9.55229 0.447715 10 1 10H2.05493C2.55237 14.5 6.36745 18 11 18C14.3325 18 17.2407 16.1882 18.7953 13.5007C19.0719 13.0227 18.9085 12.4109 18.4305 12.1344C17.9524 11.8579 17.3407 12.0212 17.0641 12.4993C15.8523 14.5942 13.5897 16 11 16C7.13401 16 4 12.866 4 9Z" fill="currentColor"/>
<path fill-rule="evenodd" clip-rule="evenodd" d="M11 4C8.23858 4 6 6.23858 6 9C6 11.7614 8.23858 14 11 14C13.419 14 15.4367 12.2822 15.9 10H21C21.5523 10 22 9.55229 22 9C22 8.44772 21.5523 8 21 8H15.9C15.4367 5.71776 13.419 4 11 4ZM8 9C8 7.34315 9.34315 6 11 6C12.6569 6 14 7.34315 14 9C14 10.6569 12.6569 12 11 12C9.34315 12 8 10.6569 8 9Z" fill="currentColor"/>
</svg>
