<svg width="24" height="24" viewBox="0 0 24 24" fill="currentColor" xmlns="http://www.w3.org/2000/svg">
  <path d="M3.75 6C3.33579 6 3 6.33579 3 6.75C3 7.16421 3.33579 7.5 3.75 7.5V6ZM20.25 7.5C20.6642 7.5 21 7.16421 21 6.75C21 6.33579 20.6642 6 20.25 6V7.5ZM5.75 11.25C5.33579 11.25 5 11.5858 5 12C5 12.4142 5.33579 12.75 5.75 12.75V11.25ZM18.25 12.75C18.6642 12.75 19 12.4142 19 12C19 11.5858 18.6642 11.25 18.25 11.25V12.75ZM7.75 16.5C7.33579 16.5 7 16.8358 7 17.25C7 17.6642 7.33579 18 7.75 18V16.5ZM16.25 18C16.6642 18 17 17.6642 17 17.25C17 16.8358 16.6642 16.5 16.25 16.5V18ZM3.75 7.5H20.25V6H3.75V7.5ZM5.75 12.75H18.25V11.25H5.75V12.75ZM7.75 18H16.25V16.5H7.75V18Z" />
</svg>
