<svg width="24" height="24" viewBox="0 0 24 24" fill="none" xmlns="http://www.w3.org/2000/svg">
  <path d="M15 17H20L18.5951 15.5951C18.2141 15.2141 18 14.6973 18 14.1585V11C18 8.38757 16.3304 6.16509 14 5.34142V5C14 3.89543 13.1046 3 12 3C10.8954 3 10 3.89543 10 5V5.34142C7.66962 6.16509 6 8.38757 6 11V14.1585C6 14.6973 5.78595 15.2141 5.40493 15.5951L4 17H9M15 17V18C15 19.6569 13.6569 21 12 21C10.3431 21 9 19.6569 9 18V17M15 17H9" stroke="currentColor" stroke-width="2" stroke-linecap="round" stroke-linejoin="round" />
  <path d="M18.364 18.364L17.6569 19.0711H17.6569L18.364 18.364ZM15.5355 15.5355L14.8284 16.2426L14.8284 16.2427L15.5355 15.5355ZM3.70711 2.29289C3.31658 1.90237 2.68342 1.90237 2.29289 2.29289C1.90237 2.68342 1.90237 3.31658 2.29289 3.70711L3.70711 2.29289ZM12.7071 12.7071L13.4142 12L13.4142 12L12.7071 12.7071ZM20.2929 21.7071C20.6834 22.0976 21.3166 22.0976 21.7071 21.7071C22.0976 21.3166 22.0976 20.6834 21.7071 20.2929L20.2929 21.7071ZM2.29289 3.70711L10.5858 12L12 10.5858L3.70711 2.29289L2.29289 3.70711ZM10.5858 12L12 13.4142L13.4142 12L12 10.5858L10.5858 12ZM12 13.4142L14.8284 16.2426L16.2426 14.8284L13.4142 12L12 13.4142ZM14.8284 16.2427L17.6569 19.0711L19.0711 17.6569L16.2426 14.8284L14.8284 16.2427ZM17.6569 19.0711L20.2929 21.7071L21.7071 20.2929L19.0711 17.6569L17.6569 19.0711Z" fill="currentColor" />
</svg>
