<svg xmlns="http://www.w3.org/2000/svg" width="24" height="24" fill="none" viewBox="0 0 24 24">
  <path stroke="currentColor" stroke-linecap="round" stroke-linejoin="round" stroke-width="2"
    d="M16 6v1a1 1 0 0 0 1 1h1m-2-2V5a1 1 0 0 1 1-1h2a1 1 0 0 1 1 1v2a1 1 0 0 1-1 1h-1m-2-2H8M6 8v8m2 2h8m2-2V8m-6 2v2m0 0v2m0-2h2m-2 0h-2m10 7v-2a1 1 0 0 0-1-1h-2a1 1 0 0 0-1 1v2a1 1 0 0 0 1 1h2a1 1 0 0 0 1-1ZM5 20h2a1 1 0 0 0 1-1v-2a1 1 0 0 0-1-1H5a1 1 0 0 0-1 1v2a1 1 0 0 0 1 1ZM5 8h2a1 1 0 0 0 1-1V5a1 1 0 0 0-1-1H5a1 1 0 0 0-1 1v2a1 1 0 0 0 1 1Z" />
</svg>