<svg xmlns="http://www.w3.org/2000/svg" width="24" height="24" fill="none" viewBox="0 0 24 24">
  <path
    d="M8 1C8.55228 1 9 1.44772 9 2V5C9 5.55228 8.55228 6 8 6C7.44772 6 7 5.55228 7 5V2C7 1.44772 7.44772 1 8 1Z"
    fill="currentColor" />
  <path
    d="M13.1716 5.17135C14.7337 3.60925 17.2663 3.60925 18.8284 5.17135C20.3905 6.73345 20.3905 9.26611 18.8284 10.8282L17.8284 11.8283C17.4379 12.2188 17.4379 12.852 17.8285 13.2425C18.219 13.633 18.8522 13.633 19.2427 13.2425L20.2426 12.2424C22.5858 9.89927 22.5858 6.10028 20.2426 3.75714C17.8995 1.41399 14.1005 1.41399 11.7574 3.75714L10.7751 4.73937C10.3846 5.1299 10.3846 5.76306 10.7751 6.15358C11.1657 6.54411 11.7988 6.54411 12.1893 6.15358L13.1716 5.17135Z"
    fill="currentColor" />
  <path
    d="M13.2604 19.225C13.6509 18.8345 13.6509 18.2013 13.2604 17.8108C12.8699 17.4202 12.2367 17.4202 11.8462 17.8108L10.8284 18.8285C9.26631 20.3906 6.73365 20.3906 5.17155 18.8285C3.60945 17.2664 3.60945 14.7338 5.17155 13.1717L6.17156 12.1716C6.56208 11.7811 6.56206 11.1479 6.17152 10.7574C5.78098 10.3669 5.14782 10.3669 4.75731 10.7574L3.75733 11.7575C1.41421 14.1006 1.4142 17.8996 3.75733 20.2427C6.10048 22.5859 9.89947 22.5859 12.2426 20.2428L13.2604 19.225Z"
    fill="currentColor" />
  <path
    d="M2 7C1.44772 7 1 7.44772 1 8C1 8.55228 1.44772 9 2 9H5C5.55228 9 6 8.55228 6 8C6 7.44772 5.55228 7 5 7H2Z"
    fill="currentColor" />
  <path
    d="M16 18C16.5523 18 17 18.4477 17 19V22C17 22.5523 16.5523 23 16 23C15.4477 23 15 22.5523 15 22V19C15 18.4477 15.4477 18 16 18Z"
    fill="currentColor" />
  <path
    d="M19 15C18.4477 15 18 15.4477 18 16C18 16.5523 18.4477 17 19 17H22C22.5523 17 23 16.5523 23 16C23 15.4477 22.5523 15 22 15H19Z"
    fill="currentColor" />
</svg>