<svg xmlns="http://www.w3.org/2000/svg" width="24" height="24" fill="none" viewBox="0 0 24 24">
  <path stroke="currentColor" stroke-linejoin="round" stroke-width="2"
    d="M5 8v11a2 2 0 0 0 2 2h10a2 2 0 0 0 2-2V8M5 8V5a2 2 0 0 1 2-2h10a2 2 0 0 1 2 2v3M5 8h14" />
  <path fill="currentColor" stroke="currentColor" stroke-width=".75"
    d="M9.75 13.125a.875.875 0 1 0 0-1.75.875.875 0 0 0 0 1.75Zm0 4.5a.875.875 0 1 0 0-1.75.875.875 0 0 0 0 1.75Zm4.5-4.5a.875.875 0 1 0 0-1.75.875.875 0 0 0 0 1.75Zm0 4.5a.875.875 0 1 0 0-1.75.875.875 0 0 0 0 1.75Z" />
</svg>