<svg width="24" height="24" viewBox="0 0 24 24" fill="currentColor" xmlns="http://www.w3.org/2000/svg">
  <path d="M6.96967 13.667C6.67678 13.9599 6.67678 14.4347 6.96967 14.7276C7.26256 15.0205 7.73744 15.0205 8.03033 14.7276L6.96967 13.667ZM10.5 11.1973L11.0303 10.667C10.7374 10.3741 10.2626 10.3741 9.96967 10.667L10.5 11.1973ZM12.6476 13.3449L12.1173 13.8752C12.2742 14.0322 12.4927 14.1116 12.7138 14.092C12.9349 14.0724 13.136 13.9558 13.2629 13.7737L12.6476 13.3449ZM16.8755 10.4519C17.2341 10.2445 17.3566 9.78569 17.1492 9.42714C16.9418 9.0686 16.483 8.94608 16.1245 9.15348L16.8755 10.4519ZM8.03033 14.7276L11.0303 11.7276L9.96967 10.667L6.96967 13.667L8.03033 14.7276ZM9.96967 11.7276L12.1173 13.8752L13.1779 12.8146L11.0303 10.667L9.96967 11.7276ZM13.2629 13.7737C14.207 12.4189 15.4414 11.2815 16.8755 10.4519L16.1245 9.15348C14.4993 10.0936 13.1014 11.3817 12.0322 12.9161L13.2629 13.7737ZM6 4.5H18V3H6V4.5ZM19.5 6V18H21V6H19.5ZM18 19.5H6V21H18V19.5ZM4.5 18V6H3V18H4.5ZM6 19.5C5.17157 19.5 4.5 18.8284 4.5 18H3C3 19.6569 4.34315 21 6 21V19.5ZM19.5 18C19.5 18.8284 18.8284 19.5 18 19.5V21C19.6569 21 21 19.6569 21 18H19.5ZM18 4.5C18.8284 4.5 19.5 5.17157 19.5 6H21C21 4.34315 19.6569 3 18 3V4.5ZM6 3C4.34315 3 3 4.34315 3 6H4.5C4.5 5.17157 5.17157 4.5 6 4.5V3Z" />
</svg>