<svg width="20" height="20" viewBox="0 0 20 20" fill="none" xmlns="http://www.w3.org/2000/svg">
<path fill-rule="evenodd" clip-rule="evenodd" d="M3.33301 4.16663C3.33301 2.78591 4.4523 1.66663 5.83301 1.66663H14.9997C15.9201 1.66663 16.6663 2.41282 16.6663 3.33329V15C16.6663 15.4602 16.2932 15.8333 15.833 15.8333H5.41634C5.18622 15.8333 4.99967 16.0198 4.99967 16.25C4.99967 16.4801 5.18622 16.6666 5.41634 16.6666H15.833C16.2932 16.6666 16.6663 17.0397 16.6663 17.5C16.6663 17.9602 16.2932 18.3333 15.833 18.3333H5.41634C4.26575 18.3333 3.33301 17.4006 3.33301 16.25V4.16663ZM4.99967 14.2083C5.1343 14.181 5.27365 14.1666 5.41634 14.1666H14.9997V3.33329H5.83301C5.37277 3.33329 4.99967 3.70639 4.99967 4.16663V14.2083ZM8.54134 7.29163C8.54134 6.48621 9.19426 5.83329 9.99967 5.83329C10.8051 5.83329 11.458 6.48621 11.458 7.29163C11.458 8.09704 10.8051 8.74996 9.99967 8.74996C9.19426 8.74996 8.54134 8.09704 8.54134 7.29163ZM8.27615 9.59374C8.69111 9.32304 9.2549 9.16663 9.99967 9.16663C10.7444 9.16663 11.3082 9.32304 11.7232 9.59374C12.1467 9.87 12.3458 10.2202 12.4329 10.4752C12.6712 11.1732 12.0727 11.6666 11.5743 11.6666H8.42509C7.92667 11.6666 7.3281 11.1732 7.56645 10.4752C7.65351 10.2202 7.85265 9.87 8.27615 9.59374Z" fill="currentColor" />
</svg>
