<svg width="20" height="20" viewBox="0 0 20 20" fill="none" xmlns="http://www.w3.org/2000/svg">
<path d="M10.0826 16.6666H10.7677C13.1051 16.6666 15 14.7717 15 12.4343V12.4343V8.8383V8.33325C15 5.57183 12.7614 3.33325 10 3.33325V3.33325C7.23858 3.33325 5 5.57183 5 8.33325V8.8383V12.4343" stroke="#8C8CA1" stroke-width="2" stroke-linecap="round" stroke-linejoin="round"/>
<path d="M3.66669 13.4999H5.00002V9.33325H3.66669C2.56212 9.33325 1.66669 10.2287 1.66669 11.3333V11.4999C1.66669 12.6045 2.56212 13.4999 3.66669 13.4999Z" stroke="#8C8CA1" stroke-width="2" stroke-linecap="round" stroke-linejoin="round"/>
<path d="M9.33331 16.6667H10.6666" stroke="#8C8CA1" stroke-width="3.6" stroke-linecap="round" stroke-linejoin="round"/>
<path d="M16.3333 9.33325H15V13.4999H16.3333C17.4379 13.4999 18.3333 12.6045 18.3333 11.4999V11.3333C18.3333 10.2287 17.4379 9.33325 16.3333 9.33325Z" stroke="#8C8CA1" stroke-width="2" stroke-linecap="round" stroke-linejoin="round"/>
</svg>
