<svg width="24" height="24" viewBox="0 0 24 24" stroke="currentColor" fill="currentColor" xmlns="http://www.w3.org/2000/svg">
<path fill-rule="evenodd" clip-rule="evenodd" d="M8.28058 4.04456C6.38327 4.19408 4.64361 4.53105 4.25402 4.82442C3.96201 5.04444 3.34561 6.18234 2.90411 7.31665C1.83173 10.0719 1.00309 14.1703 1.00079 16.731L1 17.5618L1.31101 17.9684C2.13427 19.0445 3.7955 20.1088 5.5832 20.7054C6.50538 21.0131 7.14322 21.0791 7.36932 20.8902C7.44766 20.8248 8.02568 20.1323 8.65378 19.3515L9.79573 17.9318L10.2054 17.9937C10.7244 18.0721 13.2438 18.0745 13.8201 17.9972L14.2554 17.9388L15.3165 19.2923C16.6797 21.0315 16.6589 21.0123 17.1703 20.9971C17.6433 20.983 19.0543 20.5321 19.8688 20.1348C20.9713 19.5971 22.2058 18.6466 22.7203 17.9396L23 17.5552L22.9984 16.6877C22.9922 13.1502 21.5887 7.61163 20.1042 5.26653C19.8059 4.79529 19.6266 4.68448 18.8453 4.48906C17.4002 4.12758 16.1581 4.03195 12.554 4.00488C10.6606 3.99067 8.73759 4.00856 8.28058 4.04456ZM14.9281 5.72292C16.3122 5.8073 17.9322 5.99506 18.4369 6.12965C18.7266 6.20693 18.7604 6.25219 19.1634 7.10383C20.2294 9.35665 21.1003 13.0566 21.301 16.1852L21.3551 17.029L20.9746 17.3669C20.1964 18.0579 19.1648 18.646 18.0748 19.02C17.7652 19.1262 17.4885 19.2131 17.46 19.2131C17.405 19.2131 16.036 17.5012 16.036 17.4325C16.036 17.4102 16.2585 17.2863 16.5306 17.1571C17.2876 16.7975 17.8371 16.3228 17.9023 15.9723C17.9788 15.5612 17.7759 15.1665 17.4088 15.0118C17.067 14.8677 16.8066 14.9183 16.4851 15.1912C14.682 16.7217 9.4791 16.7363 7.56368 15.2163C7.18825 14.9184 6.93889 14.8652 6.5956 15.0098C6.30342 15.133 6.06475 15.4794 6.06475 15.7804C6.06475 16.233 6.63706 16.7782 7.55434 17.1993L8.02845 17.4169L7.39693 18.2152C6.50182 19.3468 6.64387 19.2611 6.01394 19.0497C4.85973 18.6622 3.69666 17.9955 2.98744 17.315L2.64683 16.9881L2.69796 16.2844C2.89477 13.5775 3.30304 11.4804 4.14062 8.87503C4.51122 7.72227 5.20801 6.23096 5.40237 6.17468C6.8926 5.74335 11.6004 5.52007 14.9281 5.72292ZM7.92945 9.85096C7.31337 10.0093 6.82952 10.6841 6.83016 11.3843C6.83079 12.0646 7.18643 12.5941 7.82301 12.8623C8.8616 13.3 10.0496 12.354 9.9138 11.1974C9.80142 10.2403 8.87109 9.60907 7.92945 9.85096ZM14.945 9.95809C14.294 10.2918 13.9178 11.1598 14.1357 11.8256C14.3396 12.449 15.0336 12.9828 15.6403 12.9828C16.2717 12.9828 16.9755 12.4197 17.147 11.7772C17.4861 10.5069 16.1031 9.36439 14.945 9.95809Z" stroke-width="0.5"/>
</svg>
