<svg width="24" height="24" viewBox="0 0 24 24" fill="currentColor" xmlns="http://www.w3.org/2000/svg">
  <path d="M5.4494 19.5766L5.70046 18.8699L5.70045 18.8699L5.4494 19.5766ZM5.30926 19.5277L5.07059 20.2388L5.07061 20.2388L5.30926 19.5277ZM5.72464 19.6642L5.55999 20.3959H5.55999L5.72464 19.6642ZM6.1478 19.6031L6.53524 20.2453H6.53524L6.1478 19.6031ZM6.51969 19.2417L7.09727 19.7201L7.09728 19.7201L6.51969 19.2417ZM6.85348 18.8225L7.44343 19.2856L7.44344 19.2856L6.85348 18.8225ZM7.08141 18.533L6.49324 18.0676L6.49323 18.0676L7.08141 18.533ZM6.85528 18.8202L6.26534 18.3571L6.26532 18.3571L6.85528 18.8202ZM12.0733 17.5516L12.0754 18.3016L12.0733 17.5516ZM9.19654 17.2372L9.02155 17.9665H9.02155L9.19654 17.2372ZM14.9276 17.2209L14.7457 16.4933H14.7457L14.9276 17.2209ZM17.0551 18.6813L16.4694 19.1498L16.4694 19.1498L17.0551 18.6813ZM16.5246 18.0038L15.9133 18.4383C15.9179 18.4447 15.9226 18.4511 15.9273 18.4574L16.5246 18.0038ZM17.5971 19.3446L18.1707 18.8614L18.1707 18.8614L17.5971 19.3446ZM17.7892 19.5664L17.2344 20.0711L17.7892 19.5664ZM17.8568 19.6371L17.3369 20.1776C17.3565 20.1965 17.3773 20.2144 17.3989 20.231L17.8568 19.6371ZM17.9269 19.6911L18.2909 19.0353L18.2894 19.0345L17.9269 19.6911ZM18.0372 19.7199V20.4699C18.0989 20.4699 18.1604 20.4622 18.2203 20.4472L18.0372 19.7199ZM18.7885 19.4944L19.0318 20.2039L19.0319 20.2039L18.7885 19.4944ZM18.3266 19.647L18.5097 20.3743C18.5237 20.3708 18.5376 20.3669 18.5513 20.3626L18.3266 19.647ZM22.0701 17.6231L22.568 18.184L22.5681 18.1839L22.0701 17.6231ZM20.12 6.01662L19.4421 6.33745L19.4421 6.33747L20.12 6.01662ZM22.5047 16.1378L23.2531 16.0898L23.2531 16.0898L22.5047 16.1378ZM19.6488 5.11954L20.25 4.67112L20.25 4.67111L19.6488 5.11954ZM19.4241 4.91401L19.7934 4.26128L19.7934 4.26128L19.4241 4.91401ZM19.1743 4.82096L19.3676 4.09628L19.3676 4.09628L19.1743 4.82096ZM17.5675 4.5693L17.4811 5.31432L17.5675 4.5693ZM15.2506 4.36421L15.2963 3.6156L15.2963 3.6156L15.2506 4.36421ZM9.19768 4.35085L9.16216 3.60169L9.19768 4.35085ZM4.64179 4.87198L4.43331 4.15154L4.43322 4.15157L4.64179 4.87198ZM4.50906 4.94966L5.01097 5.50696L5.01098 5.50696L4.50906 4.94966ZM4.42561 5.04057L3.8379 4.57463L3.8379 4.57463L4.42561 5.04057ZM4.26265 5.28455L3.61786 4.90148L3.61786 4.90148L4.26265 5.28455ZM3.87895 6.02848L4.55842 6.34601L4.55842 6.34601L3.87895 6.02848ZM3.09806 8.00178L2.38406 7.7722L2.38406 7.7722L3.09806 8.00178ZM1.49267 16.2456L0.744641 16.1912L0.744638 16.1913L1.49267 16.2456ZM1.87995 17.5598L2.39918 17.0186L2.39917 17.0186L1.87995 17.5598ZM7.95185 17.4328L8.54002 17.8982C8.68286 17.7176 8.73488 17.4815 8.68111 17.2577L7.95185 17.4328ZM22.5705 17.1788L23.0685 17.7396C23.1539 17.6638 23.2208 17.5694 23.2642 17.4638L22.5705 17.1788ZM22.5712 17.1769L23.265 17.4619C23.3083 17.3565 23.327 17.2427 23.3197 17.129L22.5712 17.1769ZM1.42871 17.1258L0.680683 17.0714C0.672696 17.1814 0.689035 17.2917 0.728539 17.3946L1.42871 17.1258ZM1.4294 17.1276L0.729232 17.3964C0.768777 17.4994 0.830561 17.5924 0.910179 17.6688L1.4294 17.1276ZM7.95102 17.4293L7.32395 17.0179C7.2104 17.191 7.17342 17.4032 7.22176 17.6045L7.95102 17.4293ZM17.5869 16.7925C17.9027 16.5245 17.9414 16.0512 17.6734 15.7354C17.4054 15.4196 16.9321 15.3808 16.6163 15.6488L17.5869 16.7925ZM8.26172 16.9558L8.52307 16.2528H8.52307L8.26172 16.9558ZM7.42243 15.6655C7.09795 15.408 6.62619 15.4623 6.36874 15.7868C6.11129 16.1113 6.16564 16.5831 6.49012 16.8405L7.42243 15.6655ZM5.70045 18.8699C5.65567 18.854 5.60238 18.835 5.5479 18.8167L5.07061 20.2388C5.11057 20.2522 5.15151 20.2667 5.19834 20.2833L5.70045 18.8699ZM5.88929 18.9325C5.86517 18.9271 5.81736 18.9114 5.70046 18.8699L5.19833 20.2833C5.28491 20.3141 5.42842 20.3663 5.55999 20.3959L5.88929 18.9325ZM5.76037 18.9609C5.76653 18.9572 5.77806 18.9511 5.79454 18.9454C5.81117 18.9396 5.82887 18.9356 5.84635 18.9336C5.88162 18.9294 5.90009 18.935 5.88929 18.9325L5.55999 20.3959C5.84136 20.4593 6.18681 20.4555 6.53524 20.2453L5.76037 18.9609ZM5.9421 18.7633C5.87989 18.8384 5.83507 18.8889 5.79916 18.9248C5.76304 18.9609 5.7514 18.9663 5.76037 18.9609L6.53524 20.2453C6.77942 20.0979 6.96811 19.8761 7.09727 19.7201L5.9421 18.7633ZM6.26353 18.3594C6.12734 18.5329 6.025 18.6632 5.9421 18.7633L7.09728 19.7201C7.1956 19.6014 7.31181 19.4533 7.44343 19.2856L6.26353 18.3594ZM6.49323 18.0676C6.40985 18.173 6.33385 18.2698 6.26534 18.3571L7.44523 19.2833C7.51388 19.1959 7.58822 19.1012 7.66959 18.9983L6.49323 18.0676ZM6.26532 18.3571L6.26352 18.3594L7.44344 19.2856L7.44524 19.2833L6.26532 18.3571ZM12.0712 16.8016C11.1307 16.8043 10.1932 16.7051 9.37153 16.5079L9.02155 17.9665C9.97571 18.1955 11.0339 18.3045 12.0754 18.3016L12.0712 16.8016ZM14.7457 16.4933C13.9409 16.6945 13.0119 16.799 12.0712 16.8016L12.0754 18.3016C13.1167 18.2987 14.1686 18.1838 15.1095 17.9486L14.7457 16.4933ZM17.6408 18.2129C17.4494 17.9735 17.2612 17.7335 17.1219 17.5501L15.9273 18.4574C16.0768 18.6542 16.2734 18.9047 16.4694 19.1498L17.6408 18.2129ZM18.1707 18.8614C18.0241 18.6874 17.8322 18.4522 17.6408 18.2129L16.4694 19.1498C16.6654 19.3948 16.8659 19.6407 17.0235 19.8278L18.1707 18.8614ZM18.344 19.0617C18.3036 19.0173 18.2446 18.9491 18.1707 18.8614L17.0235 19.8278C17.1012 19.9201 17.1747 20.0054 17.2344 20.0711L18.344 19.0617ZM18.3768 19.0966C18.3771 19.0968 18.3742 19.0941 18.3677 19.0873C18.3615 19.0807 18.3536 19.0723 18.344 19.0617L17.2344 20.0711C17.2625 20.102 17.299 20.1412 17.3369 20.1776L18.3768 19.0966ZM18.2894 19.0345C18.2981 19.0393 18.3056 19.0437 18.3115 19.0472C18.3174 19.0508 18.3225 19.054 18.3266 19.0566C18.3347 19.0617 18.341 19.066 18.3451 19.0688C18.3529 19.0742 18.3581 19.0781 18.3594 19.079C18.3612 19.0804 18.3618 19.0808 18.3609 19.0802C18.3601 19.0796 18.3588 19.0785 18.3569 19.077C18.3528 19.0737 18.3483 19.0701 18.343 19.0657C18.3409 19.064 18.3373 19.0611 18.3346 19.0589C18.3331 19.0576 18.3309 19.0559 18.3284 19.0539C18.3272 19.0529 18.3255 19.0515 18.3235 19.0499C18.3216 19.0485 18.3186 19.046 18.3148 19.0431L17.3989 20.231C17.3904 20.2245 17.3839 20.2191 17.3877 20.2222C17.389 20.2233 17.3903 20.2243 17.3939 20.2273C17.4 20.2322 17.4097 20.2402 17.4204 20.2487C17.4304 20.2567 17.4452 20.2684 17.4614 20.2805C17.4695 20.2866 17.481 20.295 17.4944 20.3043C17.5048 20.3114 17.5307 20.329 17.5644 20.3477L18.2894 19.0345ZM18.0372 18.9699C18.109 18.9699 18.1671 18.9843 18.207 18.998C18.2276 19.0051 18.2455 19.0127 18.2605 19.0198C18.2681 19.0234 18.2749 19.0268 18.2807 19.0299C18.2866 19.0329 18.2912 19.0355 18.2909 19.0353L17.5629 20.3468C17.6031 20.3692 17.7836 20.4699 18.0372 20.4699V18.9699ZM18.5453 18.785C18.3774 18.8426 18.2198 18.8944 18.1019 18.9315L18.5513 20.3626C18.6843 20.3208 18.8546 20.2647 19.0318 20.2039L18.5453 18.785ZM21.5722 17.0622C20.7694 17.7749 19.6914 18.3918 18.5452 18.785L19.0319 20.2039C20.3457 19.7532 21.6017 19.0418 22.568 18.184L21.5722 17.0622ZM19.4421 6.33747C20.586 8.75444 21.5375 12.7768 21.7562 16.1858L23.2531 16.0898C23.0253 12.5385 22.0409 8.32199 20.7979 5.69577L19.4421 6.33747ZM19.0476 5.56796C19.113 5.65564 19.2078 5.84245 19.4421 6.33745L20.7979 5.6958C20.5964 5.27007 20.4279 4.9096 20.25 4.67112L19.0476 5.56796ZM19.0547 5.56674C19.0513 5.5648 19.0475 5.56242 19.0439 5.55973C19.0402 5.55705 19.0375 5.55475 19.036 5.55332C19.0328 5.55042 19.0367 5.55329 19.0476 5.56797L20.25 4.67111C20.1354 4.51757 19.9904 4.37276 19.7934 4.26128L19.0547 5.56674ZM18.9811 5.54563C19.0182 5.55554 19.0369 5.56109 19.0503 5.56581C19.0622 5.56998 19.0617 5.57073 19.0547 5.56674L19.7934 4.26128C19.6201 4.16318 19.4507 4.11844 19.3676 4.09628L18.9811 5.54563ZM19.3676 4.09628C19.0102 4.001 18.3548 3.90552 17.6538 3.82429L17.4811 5.31432C18.1945 5.39699 18.7448 5.48262 18.9811 5.54563L19.3676 4.09628ZM17.6538 3.82429C16.9282 3.7402 16.0801 3.66337 15.2963 3.6156L15.205 5.11282C15.9602 5.15885 16.7812 5.2332 17.4811 5.31432L17.6538 3.82429ZM15.2963 3.6156C13.4142 3.50089 11.1567 3.50711 9.16216 3.60169L9.2332 5.10001C11.186 5.00741 13.388 5.00208 15.205 5.11282L15.2963 3.6156ZM9.16216 3.60169C7.20404 3.69454 5.38181 3.87706 4.43331 4.15154L4.85028 5.59242C5.6063 5.37364 7.26053 5.19355 9.2332 5.10001L9.16216 3.60169ZM4.43322 4.15157C4.21074 4.21598 4.06436 4.34083 4.00715 4.39236L5.01098 5.50696C5.00646 5.51102 4.9909 5.52477 4.96665 5.54029C4.94242 5.5558 4.90344 5.57703 4.85037 5.5924L4.43322 4.15157ZM4.00715 4.39235C3.93496 4.45737 3.87806 4.52398 3.8379 4.57463L5.01332 5.50651C5.01796 5.50066 5.02041 5.49791 5.02081 5.49746C5.02132 5.4969 5.01805 5.50059 5.01097 5.50696L4.00715 4.39235ZM3.8379 4.57463C3.75683 4.67689 3.68223 4.79312 3.61786 4.90148L4.90744 5.66762C4.95643 5.58515 4.99197 5.53345 5.01332 5.50651L3.8379 4.57463ZM3.61786 4.90148C3.48612 5.12321 3.34162 5.4068 3.19949 5.71094L4.55842 6.34601C4.69009 6.06426 4.81105 5.82985 4.90744 5.66762L3.61786 4.90148ZM3.19949 5.71094C2.9141 6.32162 2.60322 7.09062 2.38406 7.7722L3.81205 8.23136C4.00919 7.61827 4.29568 6.90822 4.55842 6.34601L3.19949 5.71094ZM2.38406 7.7722C1.43435 10.7258 0.967938 13.1206 0.744641 16.1912L2.24069 16.3C2.45526 13.3495 2.8986 11.0722 3.81206 8.23136L2.38406 7.7722ZM1.36071 18.101C2.26994 18.9734 3.69009 19.7754 5.07059 20.2388L5.54792 18.8167C4.32835 18.4074 3.11527 17.7057 2.39918 17.0186L1.36071 18.101ZM7.36369 16.9675L6.49324 18.0676L7.66958 18.9983L8.54002 17.8982L7.36369 16.9675ZM22.0725 16.618L21.5721 17.0623L22.5681 18.1839L23.0685 17.7396L22.0725 16.618ZM21.7562 16.1857L21.8228 17.2249L23.3197 17.129L23.2531 16.0898L21.7562 16.1857ZM0.744638 16.1913L0.680683 17.0714L2.17674 17.1802L2.24069 16.3L0.744638 16.1913ZM0.910179 17.6688L1.36072 18.1011L2.39917 17.0186L1.94863 16.5864L0.910179 17.6688ZM0.728539 17.3946L0.729232 17.3964L2.12958 16.8588L2.12888 16.857L0.728539 17.3946ZM23.2642 17.4638L23.265 17.4619L21.8775 16.892L21.8767 16.8938L23.2642 17.4638ZM8.68111 17.2577L8.68028 17.2542L7.22176 17.6045L7.22259 17.608L8.68111 17.2577ZM16.6163 15.6488C16.3495 15.8752 15.9794 16.0815 15.5168 16.2556L16.0451 17.6595C16.6149 17.4451 17.1509 17.1625 17.5869 16.7925L16.6163 15.6488ZM15.5168 16.2556C15.2779 16.3455 15.0194 16.4249 14.7457 16.4933L15.1095 17.9486C15.4317 17.868 15.7457 17.7722 16.0451 17.6595L15.5168 16.2556ZM17.1359 17.5692L16.3922 16.523L15.1696 17.3921L15.9133 18.4383L17.1359 17.5692ZM9.37153 16.5079C9.07023 16.4357 8.78562 16.3504 8.52307 16.2528L8.00036 17.6588C8.32654 17.7801 8.6696 17.8821 9.02155 17.9665L9.37153 16.5079ZM8.52307 16.2528C8.07094 16.0847 7.70008 15.8857 7.42243 15.6655L6.49012 16.8405C6.92452 17.1852 7.44619 17.4528 8.00036 17.6588L8.52307 16.2528ZM8.57809 17.8408L8.88878 17.3673L7.63465 16.5444L7.32395 17.0179L8.57809 17.8408ZM18.2203 20.4472L18.5097 20.3743L18.1435 18.9197L17.8541 18.9926L18.2203 20.4472ZM9.24997 11C9.24997 11.6904 8.69033 12.25 7.99997 12.25V13.75C9.51875 13.75 10.75 12.5188 10.75 11H9.24997ZM7.99997 12.25C7.30962 12.25 6.74997 11.6904 6.74997 11H5.24997C5.24997 12.5188 6.48119 13.75 7.99997 13.75V12.25ZM6.74997 11C6.74997 10.3096 7.30962 9.75 7.99997 9.75V8.25C6.48119 8.25 5.24997 9.48122 5.24997 11H6.74997ZM7.99997 9.75C8.69033 9.75 9.24997 10.3096 9.24997 11H10.75C10.75 9.48122 9.51875 8.25 7.99997 8.25V9.75ZM17.25 11C17.25 11.6904 16.6903 12.25 16 12.25V13.75C17.5188 13.75 18.75 12.5188 18.75 11H17.25ZM16 12.25C15.3096 12.25 14.75 11.6904 14.75 11H13.25C13.25 12.5188 14.4812 13.75 16 13.75V12.25ZM14.75 11C14.75 10.3096 15.3096 9.75 16 9.75V8.25C14.4812 8.25 13.25 9.48122 13.25 11H14.75ZM16 9.75C16.6903 9.75 17.25 10.3096 17.25 11H18.75C18.75 9.48122 17.5188 8.25 16 8.25V9.75Z" />
</svg>
