<svg width="24" height="24" viewBox="0 0 24 24" fill="none" stroke="currentColor" xmlns="http://www.w3.org/2000/svg">
  <path d="M19.4116 19.4376C19.7859 19.0636 19.9963 18.5563 19.9963 18.0273M19.4116 19.4376C19.7819 19.0677 19.9963 18.5505 19.9963 18.0273M19.4116 19.4376C19.0413 19.8076 18.5237 20 18 20M19.4116 19.4376C19.0372 19.8117 18.5294 20 18 20M19.9963 18.0273V16.0437M18 20H16.0146M15 15C15 15 14 16 12 16C10 16 9 15 9 15M11 12H11.5C11.8961 12 12 11.9303 12 11.5V9M4.58611 4.59961C4.95639 4.22965 5.45859 4.02182 5.98224 4.02182M4.58611 4.59961C4.21583 4.96956 4.00781 5.47132 4.00781 5.99451M4.58611 4.59961C4.21174 4.97365 4.00781 5.46553 4.00781 5.99451M4.58611 4.59961C4.96048 4.22556 5.4528 4.02182 5.98224 4.02182M5.98224 4.02182L7.9676 4M4.00781 5.99451V7.9781M4 16.033L4.00768 18.0273M4.00768 18.0273C4.00768 18.5505 4.2157 19.0523 4.58597 19.4222M4.00768 18.0273C4.00768 18.5563 4.2116 19.0482 4.58597 19.4222M4.58597 19.4222C4.95625 19.7922 5.45846 20 5.98211 20M4.58597 19.4222C4.96035 19.7963 5.45267 20 5.98211 20M5.98211 20H7.96746M16.0077 4.00767L18.0037 4M18.0037 4C18.5332 4 19.0409 4.21013 19.4153 4.58418M18.0037 4C18.5274 4 19.045 4.21423 19.4153 4.58418M19.4153 4.58418C19.7897 4.95822 20 5.46553 20 5.99451M19.4153 4.58418C19.7856 4.95413 20 5.47132 20 5.99451M20 5.99451V7.9781M16 9V10M8 9V10" stroke-width="2" stroke-linecap="round" stroke-linejoin="round" />
</svg>