<svg width="24" height="24" viewBox="0 0 24 24" fill="none" xmlns="http://www.w3.org/2000/svg">
  <path d="M15 15C15 15 14 16 12 16C10 16 9 15 9 15M16.25 10.2539V8.75M7.75 10.25V8.75M12 8.75V11.75C12 12.1803 11.8961 12.25 11.5 12.25H10.75M7.5 3.75H6C4.75736 3.75 3.75 4.75736 3.75 6V7.5M16.5 3.75H18C19.2426 3.75 20.25 4.75736 20.25 6V7.5M20.25 16.5V18C20.25 19.2426 19.2426 20.25 18 20.25H16.5M7.5 20.25H6C4.75736 20.25 3.75 19.2426 3.75 18V16.5" stroke="currentColor" stroke-width="1.5" stroke-linecap="round" stroke-linejoin="round" />
</svg>