<svg width="24" height="24" viewBox="0 0 24 24" fill="none" xmlns="http://www.w3.org/2000/svg">
<path fill-rule="evenodd" clip-rule="evenodd" d="M6 5C5.73478 5 5.48043 5.10536 5.29289 5.29289C5.10536 5.48043 5 5.73478 5 6V8C5 8.55228 4.55228 9 4 9C3.44772 9 3 8.55228 3 8V6C3 5.20435 3.31607 4.44129 3.87868 3.87868C4.44129 3.31607 5.20435 3 6 3H8C8.55228 3 9 3.44772 9 4C9 4.55228 8.55228 5 8 5H6Z" fill="#8C8CA1"/>
<path fill-rule="evenodd" clip-rule="evenodd" d="M4 15C4.55228 15 5 15.4477 5 16V18C5 18.2652 5.10536 18.5196 5.29289 18.7071C5.48043 18.8946 5.73478 19 6 19H8C8.55228 19 9 19.4477 9 20C9 20.5523 8.55228 21 8 21H6C5.20435 21 4.44129 20.6839 3.87868 20.1213C3.31607 19.5587 3 18.7956 3 18V16C3 15.4477 3.44772 15 4 15Z" fill="#8C8CA1"/>
<path fill-rule="evenodd" clip-rule="evenodd" d="M15 4C15 3.44772 15.4477 3 16 3H18C18.7956 3 19.5587 3.31607 20.1213 3.87868C20.6839 4.44129 21 5.20435 21 6V8C21 8.55228 20.5523 9 20 9C19.4477 9 19 8.55228 19 8V6C19 5.73478 18.8946 5.48043 18.7071 5.29289C18.5196 5.10536 18.2652 5 18 5H16C15.4477 5 15 4.55228 15 4Z" fill="#8C8CA1"/>
<path fill-rule="evenodd" clip-rule="evenodd" d="M20 15C20.5523 15 21 15.4477 21 16V18C21 18.7957 20.6839 19.5587 20.1213 20.1213C19.5587 20.6839 18.7957 21 18 21H16C15.4477 21 15 20.5523 15 20C15 19.4477 15.4477 19 16 19H18C18.2652 19 18.5196 18.8946 18.7071 18.7071C18.8946 18.5196 19 18.2652 19 18V16C19 15.4477 19.4477 15 20 15Z" fill="#8C8CA1"/>
<path fill-rule="evenodd" clip-rule="evenodd" d="M15.5 8C16.0523 8 16.5 8.44772 16.5 9L16.5 10C16.5 10.5523 16.0523 11 15.5 11C14.9477 11 14.5 10.5523 14.5 10L14.5 9C14.5 8.44772 14.9477 8 15.5 8Z" fill="#8C8CA1"/>
<path fill-rule="evenodd" clip-rule="evenodd" d="M8.5 8C9.05228 8 9.5 8.44772 9.5 9L9.5 10C9.5 10.5523 9.05228 11 8.5 11C7.94772 11 7.5 10.5523 7.5 10L7.5 9C7.5 8.44772 7.94772 8 8.5 8Z" fill="#8C8CA1"/>
<path fill-rule="evenodd" clip-rule="evenodd" d="M9.64737 14.3628C9.23166 14.0095 8.60788 14.0546 8.24744 14.4665C7.88375 14.8821 7.92587 15.5139 8.34151 15.8776L9.00001 15.125C8.34151 15.8776 8.34188 15.8779 8.34225 15.8782L8.34302 15.8789L8.34462 15.8803L8.34813 15.8833L8.35633 15.8903L8.37751 15.908C8.39374 15.9213 8.41423 15.9377 8.43898 15.9566C8.48846 15.9945 8.55507 16.0428 8.63886 16.0978C8.80639 16.2077 9.04313 16.3448 9.34919 16.4787C9.96392 16.7476 10.8499 17 12 17C13.1502 17 14.0361 16.7476 14.6508 16.4787C14.9569 16.3448 15.1936 16.2077 15.3612 16.0978C15.445 16.0428 15.5116 15.9945 15.561 15.9566C15.5858 15.9377 15.6063 15.9213 15.6225 15.908L15.6437 15.8903L15.6519 15.8833L15.6554 15.8803L15.657 15.8789L15.6578 15.8782C15.6582 15.8779 15.6585 15.8776 15 15.125L15.6585 15.8776C16.0742 15.5139 16.1163 14.8821 15.7526 14.4665C15.3921 14.0546 14.7684 14.0095 14.3527 14.3628C14.3512 14.364 14.3487 14.3659 14.3452 14.3686C14.3322 14.3786 14.3051 14.3986 14.2639 14.4257C14.1814 14.4798 14.0431 14.5615 13.8492 14.6463C13.4639 14.8149 12.8499 15 12 15C11.1502 15 10.5361 14.8149 10.1508 14.6463C9.95689 14.5615 9.81864 14.4798 9.73617 14.4257C9.69496 14.3986 9.66782 14.3786 9.6548 14.3686C9.65129 14.3659 9.64881 14.364 9.64737 14.3628C9.64737 14.3628 9.64737 14.3628 9.64737 14.3628Z" fill="#8C8CA1"/>
<path fill-rule="evenodd" clip-rule="evenodd" d="M12 8C12.5523 8 13 8.44772 13 9V12C13 12.8284 12.3284 13.5 11.5 13.5H11C10.4477 13.5 10 13.0523 10 12.5C10 11.9477 10.4477 11.5 11 11.5V9C11 8.44772 11.4477 8 12 8Z" fill="#8C8CA1"/>
</svg>
