<svg xmlns="http://www.w3.org/2000/svg" width="24" height="24" fill="none" viewBox="0 0 24 24">
  <path stroke="currentColor" stroke-linecap="round" stroke-linejoin="round" stroke-width="2"
    d="M4 7.2c0-1.12 0-1.68.218-2.108a2 2 0 0 1 .874-.874C5.52 4 6.08 4 7.2 4H10v4H4v-.8ZM14 16h6v.8c0 1.12 0 1.68-.218 2.108a2 2 0 0 1-.874.874C18.48 20 17.92 20 16.8 20H14v-4ZM4 12h6v8H7.2c-1.12 0-1.68 0-2.108-.218a2 2 0 0 1-.874-.874C4 18.48 4 17.92 4 16.8V12Zm10-8h2.8c1.12 0 1.68 0 2.108.218a2 2 0 0 1 .874.874C20 5.52 20 6.08 20 7.2V12h-6V4Z" />
</svg>