<svg width="24" height="24" viewBox="0 0 24 24" fill="none" xmlns="http://www.w3.org/2000/svg">
<path d="M14.9322 11.313H9.06779C8.47807 11.313 8 11.7911 8 12.3808V15.6874C8 16.2771 8.47807 16.7552 9.06779 16.7552H14.9322C15.522 16.7552 16 16.2771 16 15.6874V12.3808C16 11.7911 15.522 11.313 14.9322 11.313Z" stroke="#8C8CA1" stroke-width="2" stroke-miterlimit="10" stroke-linecap="square"/>
<path d="M10 11.0469V8.4492C10.0016 7.91926 10.2128 7.41148 10.5875 7.03675C10.9623 6.66202 11.47 6.4508 12 6.44922C12.5299 6.4508 13.0377 6.66202 13.4124 7.03675C13.7872 7.41148 13.9984 7.91926 14 8.4492L14 11.0469" stroke="#8C8CA1" stroke-width="2" stroke-miterlimit="10" stroke-linecap="square"/>
<path d="M21 13.5C21 15.887 20.0518 18.1761 18.364 19.864C16.6761 21.5518 14.387 22.5 12 22.5C9.61305 22.5 7.32387 21.5518 5.63604 19.864C3.94821 18.1761 3 15.887 3 13.5V4.35655C3 3.85608 3.3476 3.42276 3.83616 3.31419L11.7684 1.55147C11.9209 1.51757 12.0791 1.51757 12.2316 1.55147L20.1638 3.31419C20.6524 3.42276 21 3.85608 21 4.35655V13.5Z" stroke="#8C8CA1" stroke-width="2" stroke-miterlimit="10" stroke-linecap="square"/>
</svg>
