<svg xmlns="http://www.w3.org/2000/svg" width="24" height="24" fill="currentColor"
  viewBox="0 0 24 24">
  <path fill-rule="evenodd"
    d="M6 5a1 1 0 0 0-1 1v4a1 1 0 1 1-2 0V6a3 3 0 0 1 3-3h13a3 3 0 0 1 3 3v7a3 3 0 0 1-3 3h-4a1 1 0 1 1 0-2h4a1 1 0 0 0 1-1V6a1 1 0 0 0-1-1H6Zm7 3a1 1 0 1 1 2 0v.586l1.293-1.293a1 1 0 1 1 1.414 1.414L16.414 10H17a1 1 0 1 1 0 2h-3a1 1 0 0 1-1-1V8ZM2 16a3 3 0 0 1 3-3h4a3 3 0 0 1 3 3v3a3 3 0 0 1-3 3H5a3 3 0 0 1-3-3v-3Zm3-1a1 1 0 0 0-1 1v3a1 1 0 0 0 1 1h4a1 1 0 0 0 1-1v-3a1 1 0 0 0-1-1H5Z"
    clip-rule="evenodd" />
</svg>