<svg width="24" height="24" viewBox="0 0 24 24" fill="currentColor" xmlns="http://www.w3.org/2000/svg">
<path d="M5.25 15.75C4.83579 15.75 4.5 16.0858 4.5 16.5C4.5 16.9142 4.83579 17.25 5.25 17.25V15.75ZM11.25 17.25C11.6642 17.25 12 16.9142 12 16.5C12 16.0858 11.6642 15.75 11.25 15.75V17.25ZM5.25 13.5C4.83579 13.5 4.5 13.8358 4.5 14.25C4.5 14.6642 4.83579 15 5.25 15V13.5ZM8.25 15C8.66421 15 9 14.6642 9 14.25C9 13.8358 8.66421 13.5 8.25 13.5V15ZM4.5 5.25H19.5V3.75H4.5V5.25ZM21 6.75V17.25H22.5V6.75H21ZM19.5 18.75H4.5V20.25H19.5V18.75ZM3 17.25V6.75H1.5V17.25H3ZM4.5 18.75C3.67157 18.75 3 18.0784 3 17.25H1.5C1.5 18.9069 2.84315 20.25 4.5 20.25V18.75ZM21 17.25C21 18.0784 20.3284 18.75 19.5 18.75V20.25C21.1569 20.25 22.5 18.9069 22.5 17.25H21ZM19.5 5.25C20.3284 5.25 21 5.92157 21 6.75H22.5C22.5 5.09315 21.1569 3.75 19.5 3.75V5.25ZM4.5 3.75C2.84315 3.75 1.5 5.09315 1.5 6.75H3C3 5.92157 3.67157 5.25 4.5 5.25V3.75ZM5.25 17.25H11.25V15.75H5.25V17.25ZM5.25 15H8.25V13.5H5.25V15Z" />
</svg>
