<svg viewBox="0 0 24 24" fill="none" xmlns="http://www.w3.org/2000/svg">
<path d="M7 11C6.44772 11 6 11.4477 6 12C6 12.5523 6.44772 13 7 13V11ZM8 13C8.55228 13 9 12.5523 9 12C9 11.4477 8.55228 11 8 11V13ZM7 14C6.44772 14 6 14.4477 6 15C6 15.5523 6.44772 16 7 16V14ZM12 16C12.5523 16 13 15.5523 13 15C13 14.4477 12.5523 14 12 14V16ZM17.0002 8C16.4479 8 16.0002 8.44772 16.0002 9C16.0002 9.55228 16.4479 10 17.0002 10V8ZM17.0102 10C17.5624 10 18.0102 9.55228 18.0102 9C18.0102 8.44772 17.5624 8 17.0102 8V10ZM6 6H18V4H6V6ZM20 8V16H22V8H20ZM18 18H6V20H18V18ZM4 16V8H2V16H4ZM6 18C4.89543 18 4 17.1046 4 16H2C2 18.2091 3.79086 20 6 20V18ZM20 16C20 17.1046 19.1046 18 18 18V20C20.2091 20 22 18.2091 22 16H20ZM18 6C19.1046 6 20 6.89543 20 8H22C22 5.79086 20.2091 4 18 4V6ZM6 4C3.79086 4 2 5.79086 2 8H4C4 6.89543 4.89543 6 6 6V4ZM7 13H8V11H7V13ZM7 16H12V14H7V16ZM17.0002 10H17.0102V8H17.0002V10Z" fill="currentColor"/>
</svg>
