<svg width="24" height="24" viewBox="0 0 24 24" fill="currentColor" xmlns="http://www.w3.org/2000/svg">
  <path fill-rule="evenodd" clip-rule="evenodd" d="M5.70038 5.70038C4.42712 6.97363 3.75 8.98853 3.75 12C3.75 15.0115 4.42712 17.0264 5.70038 18.2996C6.97363 19.5729 8.98853 20.25 12 20.25C15.0115 20.25 17.0264 19.5729 18.2996 18.2996C19.5729 17.0264 20.25 15.0115 20.25 12C20.25 8.98853 19.5729 6.97363 18.2996 5.70038C17.0264 4.42712 15.0115 3.75 12 3.75C8.98853 3.75 6.97363 4.42712 5.70038 5.70038ZM4.63972 4.63972C6.31316 2.96627 8.79826 2.25 12 2.25C15.2017 2.25 17.6868 2.96627 19.3603 4.63972C21.0337 6.31316 21.75 8.79826 21.75 12C21.75 15.2017 21.0337 17.6868 19.3603 19.3603C17.6868 21.0337 15.2017 21.75 12 21.75C8.79826 21.75 6.31316 21.0337 4.63972 19.3603C2.96627 17.6868 2.25 15.2017 2.25 12C2.25 8.79826 2.96627 6.31316 4.63972 4.63972Z" />
  <path d="M12.8132 6.81632H10.3094L9.87018 8.14452H11.2608V10.9423H12.8132V6.81632Z" />
  <path fill-rule="evenodd" clip-rule="evenodd" d="M14.8555 14.3283C14.8555 15.9053 13.5771 17.1837 12.0001 17.1837C10.4231 17.1837 9.14465 15.9053 9.14465 14.3283C9.14465 12.7513 10.4231 11.4728 12.0001 11.4728C13.5771 11.4728 14.8555 12.7513 14.8555 14.3283ZM13.5592 14.3283C13.5592 15.1893 12.8611 15.8873 12.0001 15.8873C11.139 15.8873 10.441 15.1893 10.441 14.3283C10.441 13.4672 11.139 12.7692 12.0001 12.7692C12.8611 12.7692 13.5592 13.4672 13.5592 14.3283Z" />
</svg>