<svg xmlns="http://www.w3.org/2000/svg" width="24" height="24" fill="currentColor"
  viewBox="0 0 24 24">
  <path fill-rule="evenodd"
    d="M3 6a3 3 0 0 1 3-3h12a3 3 0 0 1 3 3v12a3 3 0 0 1-3 3H6a3 3 0 0 1-3-3V6Zm16 12a1 1 0 0 1-1 1H6a1 1 0 0 1-1-1V6a1 1 0 0 1 1-1h12a1 1 0 0 1 1 1v12Z"
    clip-rule="evenodd" />
  <path
    d="M16 17.25a1.25 1.25 0 1 0 0-2.5 1.25 1.25 0 0 0 0 2.5Zm-6.75-9a1.25 1.25 0 1 1-2.5 0 1.25 1.25 0 0 1 2.5 0ZM12 9.5A1.25 1.25 0 1 0 12 7a1.25 1.25 0 0 0 0 2.5Zm4 0A1.25 1.25 0 1 0 16 7a1.25 1.25 0 0 0 0 2.5Zm-6.75 2.75a1.25 1.25 0 1 1-2.5 0 1.25 1.25 0 0 1 2.5 0ZM12 13.5a1.25 1.25 0 1 0 0-2.5 1.25 1.25 0 0 0 0 2.5Zm4 0a1.25 1.25 0 1 0 0-2.5 1.25 1.25 0 0 0 0 2.5Zm-4 3.75a1.25 1.25 0 1 0 0-2.5 1.25 1.25 0 0 0 0 2.5ZM9.25 16a1.25 1.25 0 1 1-2.5 0 1.25 1.25 0 0 1 2.5 0Z" />
</svg>