<svg width="24" height="24" viewBox="0 0 24 24" fill="none" xmlns="http://www.w3.org/2000/svg">
<path fill-rule="evenodd" clip-rule="evenodd" d="M12 2C8.96243 2 6.5 4.46243 6.5 7.5C6.5 10.1961 8.43988 12.4391 11 12.9093V14.1449C9.87111 14.4809 8.98091 15.3711 8.64494 16.5H7.85506C7.42479 15.0543 6.08551 14 4.5 14C2.567 14 1 15.567 1 17.5C1 19.433 2.567 21 4.5 21C6.08551 21 7.42479 19.9457 7.85506 18.5H8.64494C9.07521 19.9457 10.4145 21 12 21C13.5855 21 14.9248 19.9457 15.3551 18.5H16.1449C16.5752 19.9457 17.9145 21 19.5 21C21.433 21 23 19.433 23 17.5C23 15.567 21.433 14 19.5 14C17.9145 14 16.5752 15.0543 16.1449 16.5H15.3551C15.0191 15.3711 14.1289 14.4809 13 14.1449V12.9093C15.5601 12.4391 17.5 10.1961 17.5 7.5C17.5 4.46243 15.0376 2 12 2ZM8.5 7.5C8.5 5.567 10.067 4 12 4C13.933 4 15.5 5.567 15.5 7.5C15.5 9.433 13.933 11 12 11C10.067 11 8.5 9.433 8.5 7.5ZM3 17.5C3 16.6716 3.67157 16 4.5 16C5.32843 16 6 16.6716 6 17.5C6 18.3284 5.32843 19 4.5 19C3.67157 19 3 18.3284 3 17.5ZM10.5 17.5C10.5 16.6716 11.1716 16 12 16C12.8284 16 13.5 16.6716 13.5 17.5C13.5 18.3284 12.8284 19 12 19C11.1716 19 10.5 18.3284 10.5 17.5ZM18 17.5C18 16.6716 18.6716 16 19.5 16C20.3284 16 21 16.6716 21 17.5C21 18.3284 20.3284 19 19.5 19C18.6716 19 18 18.3284 18 17.5Z"  fill="currentColor" />
</svg>
