<svg width="32" height="32" viewBox="0 0 32 32" xmlns="http://www.w3.org/2000/svg">
<path d="M16 10.6672C14.1591 10.6672 12.6667 12.1595 12.6667 14.0005C12.6667 15.3674 13.4894 16.5421 14.6667 17.0565V20.0005C14.6667 20.7369 15.2636 21.3338 16 21.3338C16.7364 21.3338 17.3333 20.7369 17.3333 20.0005V17.0565C18.5106 16.5421 19.3333 15.3674 19.3333 14.0005C19.3333 12.1595 17.8409 10.6672 16 10.6672Z" fill="currentColor" fill-opacity="0.608"/>
<path fill-rule="evenodd" clip-rule="evenodd" d="M17.3003 3.03757C16.4576 2.74789 15.5424 2.74789 14.6997 3.03757L6.69968 5.78757C5.08447 6.34279 4 7.86234 4 9.57031V15.8836C4 19.6259 5.53188 22.3229 7.75 24.4229C9.84656 26.4077 12.5931 27.8887 15.1575 29.2715L15.3669 29.3845C15.7621 29.5977 16.2379 29.5977 16.6331 29.3845L16.8425 29.2716C19.4069 27.8888 22.1534 26.4077 24.25 24.4229C26.4681 22.3229 28 19.6259 28 15.8836V9.57031C28 7.86234 26.9155 6.34279 25.3003 5.78757L17.3003 3.03757ZM15.5666 5.5594C15.8475 5.46284 16.1525 5.46284 16.4334 5.5594L24.4334 8.3094C24.9718 8.49447 25.3333 9.00099 25.3333 9.57031V15.8836C25.3333 18.7712 24.1985 20.7994 22.4167 22.4864C20.7152 24.0972 18.4637 25.3629 16 26.6958C13.5363 25.3629 11.2848 24.0972 9.58333 22.4864C7.80146 20.7994 6.66667 18.7712 6.66667 15.8836V9.57031C6.66667 9.00099 7.02816 8.49447 7.56656 8.3094L15.5666 5.5594Z" fill="currentColor" fill-opacity="0.608"/>
</svg>
