<svg xmlns="http://www.w3.org/2000/svg" width="24" height="24" fill="none" viewBox="0 0 24 24">
  <path fill="currentColor" fill-rule="evenodd"
    d="M15 18a1 1 0 0 1-1 1H3a1 1 0 1 1 0-2h11a1 1 0 0 1 1 1Zm0-6a1 1 0 0 1-1 1H3a1 1 0 1 1 0-2h11a1 1 0 0 1 1 1Zm0-6a1 1 0 0 1-1 1H3a1 1 0 1 1 0-2h11a1 1 0 0 1 1 1Z"
    clip-rule="evenodd" />
  <path fill="currentColor"
    d="M22 9.78v4.44c0 .836-.914 1.322-1.572.837l-3.01-2.22a1.049 1.049 0 0 1 0-1.674l3.01-2.22c.658-.486 1.572.001 1.572.837Z" />
</svg>