<svg width="24" height="24" viewBox="0 0 24 24" xmlns="http://www.w3.org/2000/svg">
  <path fill-rule="evenodd" clip-rule="evenodd"
    d="M15.755 4.16936C15.2724 3.68672 14.4587 3.81876 14.1535 4.42926L13.1444 6.44738C12.8974 6.94136 12.2968 7.14158 11.8028 6.89459C11.3088 6.6476 11.1086 6.04693 11.3556 5.55295L12.3646 3.53483C13.2804 1.70333 15.7213 1.30723 17.1692 2.75515L21.245 6.83092C22.6929 8.27885 22.2968 10.7198 20.4653 11.6355L18.4472 12.6446C17.9533 12.8915 17.3526 12.6913 17.1056 12.1973C16.8586 11.7034 17.0588 11.1027 17.5528 10.8557L19.5709 9.84666C20.1814 9.54141 20.3134 8.72777 19.8308 8.24513L15.755 4.16936ZM2.29289 2.29303C2.68342 1.90251 3.31658 1.90251 3.70711 2.29303L21.7071 20.293C22.0976 20.6836 22.0976 21.3167 21.7071 21.7072C21.3166 22.0978 20.6834 22.0978 20.2929 21.7072L16.1907 17.605L15.8532 18.8872C15.264 21.1264 12.4679 21.8823 10.8307 20.2451L8 17.4144L4.70711 20.7072C4.31658 21.0978 3.68342 21.0978 3.29289 20.7072C2.90237 20.3167 2.90237 19.6836 3.29289 19.293L6.58579 16.0001L3.75509 13.1694C2.11788 11.5322 2.87379 8.73615 5.11293 8.1469L6.39513 7.80948L2.29289 3.70725C1.90237 3.31672 1.90237 2.68356 2.29289 2.29303ZM8.03237 9.44672L5.62192 10.0811C4.87554 10.2775 4.62357 11.2095 5.16931 11.7552L12.2449 18.8308C12.7906 19.3766 13.7227 19.1246 13.9191 18.3782L14.5534 15.9678L8.03237 9.44672Z"
    fill="currentColor" />
</svg>