<svg width="24" height="24" viewBox="0 0 24 24" xmlns="http://www.w3.org/2000/svg">
  <path fill-rule="evenodd" clip-rule="evenodd"
    d="M15.755 4.16936C15.2724 3.68672 14.4587 3.81876 14.1535 4.42926L12.7991 7.13794C12.4132 7.90969 11.7138 8.47793 10.8793 8.69752L5.62191 10.0811C4.87553 10.2775 4.62356 11.2095 5.1693 11.7552L12.2449 18.8308C12.7906 19.3766 13.7227 19.1246 13.9191 18.3782L15.3026 13.1208C15.5222 12.2864 16.0904 11.5869 16.8622 11.201L19.5709 9.84667C20.1814 9.54142 20.3134 8.72777 19.8308 8.24513L15.755 4.16936ZM7.99999 17.4144L10.8307 20.2451C12.4679 21.8823 15.264 21.1264 15.8532 18.8872L17.2368 13.6298C17.31 13.3516 17.4994 13.1185 17.7566 12.9899L20.4653 11.6355C22.2968 10.7198 22.6929 8.27885 21.245 6.83092L17.1692 2.75515C15.7213 1.30723 13.2804 1.70333 12.3646 3.53483L11.0103 6.24351C10.8816 6.50076 10.6485 6.69018 10.3703 6.76337L5.11292 8.1469C2.87378 8.73615 2.11787 11.5322 3.75508 13.1694L6.58578 16.0001L3.29288 19.293C2.90236 19.6836 2.90236 20.3167 3.29288 20.7072C3.68341 21.0978 4.31657 21.0978 4.7071 20.7072L7.99999 17.4144Z"
    fill="currentColor" />
</svg>