<svg width="24" height="24" viewBox="0 0 24 24" fill="none" stroke="currentColor" xmlns="http://www.w3.org/2000/svg">
<path d="M22 3.81487C21.1294 4.42894 20.1656 4.8986 19.1455 5.20578C18.5979 4.57624 17.8703 4.13004 17.0609 3.92753C16.2516 3.72501 15.3995 3.77595 14.6201 4.07346C13.8406 4.37097 13.1713 4.90069 12.7027 5.59097C12.2341 6.28126 11.9888 7.09881 12 7.93305V8.84214C10.4024 8.88356 8.81934 8.52924 7.39183 7.81073C5.96431 7.09221 4.73665 6.03181 3.81818 4.72396C3.81818 4.72396 0.181818 12.9058 8.36364 16.5421C6.49139 17.813 4.26105 18.4503 2 18.3603C10.1818 22.9058 20.1818 18.3603 20.1818 7.90578C20.181 7.65255 20.1566 7.39995 20.1091 7.15123C21.0369 6.23622 21.6917 5.08097 22 3.81487Z" stroke-width="2" stroke-linecap="round" stroke-linejoin="round"/>
</svg>
