<svg width="24" height="24" viewBox="0 0 24 24" fill="none" stroke="currentColor" xmlns="http://www.w3.org/2000/svg">
  <path d="M22 7.26751L20.1208 6.46182L21.1051 4.31332L18.8143 5.07425C18.0847 4.39383 17.1272 4.01069 16.1298 4C15.0625 4.00236 14.0396 4.42755 13.285 5.18252C12.5303 5.93748 12.1053 6.96076 12.1029 8.02844V8.92365C8.93512 9.57715 6.17002 7.8494 3.60179 4.89521C3.15436 7.28243 3.60179 9.07285 4.94407 10.2665L2 9.81886C2.11374 10.7671 2.55691 11.6451 3.25206 12.2996C3.94722 12.9542 4.85016 13.3435 5.80313 13.3997L3.34228 14.2949C4.23714 16.0853 5.86577 16.3628 8.04027 16.5329C6.26293 17.7457 4.15085 18.3717 2 18.3233C13.4183 23.3992 20.1208 15.9421 20.1208 9.37125V8.62823L22 7.26751Z" stroke-width="1.5" stroke-linecap="round" stroke-linejoin="round" />
</svg>