<svg xmlns="http://www.w3.org/2000/svg" fill="none" viewBox="0 0 24 24" stroke-width="1.5"
  stroke="currentColor" aria-hidden="true">
  <path
    d="M10.5 6V7.5M13.5 6V7.5M16.5 10.5H7.5V3.75C7.5 3.55109 7.57902 3.36032 7.71967 3.21967C7.86032 3.07902 8.05109 3 8.25 3H15.75C15.9489 3 16.1397 3.07902 16.2803 3.21967C16.421 3.36032 16.5 3.55109 16.5 3.75V10.5ZM14.25 21.0001H9.75C8.55653 21.0001 7.41193 20.526 6.56802 19.6821C5.72411 18.8382 5.25 17.6936 5.25 16.5001V12C5.25 11.6022 5.40804 11.2206 5.68934 10.9393C5.97064 10.658 6.35218 10.5 6.75 10.5H17.25C17.6478 10.5 18.0294 10.658 18.3107 10.9393C18.592 11.2206 18.75 11.6022 18.75 12V16.5001C18.75 17.6936 18.2759 18.8382 17.432 19.6821C16.5881 20.526 15.4435 21.0001 14.25 21.0001Z"
    stroke-linecap="round" stroke-linejoin="round" />
</svg>