<svg viewBox="0 0 24 24" fill="none" stroke="currentColor" xmlns="http://www.w3.org/2000/svg">
  <path d="M11.5 13C11.5989 13 11.6956 13.0293 11.7778 13.0843C11.86 13.1392 11.9241 13.2173 11.9619 13.3087C11.9998 13.4 12.0097 13.5006 11.9904 13.5975C11.9711 13.6945 11.9235 13.7836 11.8536 13.8536C11.7836 13.9235 11.6945 13.9711 11.5975 13.9904C11.5006 14.0097 11.4 13.9998 11.3087 13.9619C11.2173 13.9241 11.1392 13.86 11.0843 13.7778C11.0293 13.6956 11 13.5989 11 13.5C11 13.3674 11.0527 13.2402 11.1464 13.1464C11.2402 13.0527 11.3674 13 11.5 13" stroke-width="2" stroke-linecap="round" stroke-linejoin="round" />
  <path d="M3.66346 3.82713L13.7607 6.69717C14.4449 6.92188 15.0425 7.35335 15.4711 7.93206C15.8996 8.51076 16.1381 9.20819 16.1535 9.92815V19.9232C16.1823 20.2295 16.1361 20.5382 16.0188 20.8226C15.9015 21.107 15.7167 21.3586 15.4803 21.5556C15.244 21.7526 14.9633 21.889 14.6624 21.9531C14.3615 22.0172 14.0495 22.0071 13.7534 21.9236L5.40081 19.6527C4.71653 19.4398 4.11655 19.017 3.6858 18.4443C3.25505 17.8716 3.01536 17.1779 3.00065 16.4614V5.59679C2.98549 4.92624 3.23612 4.2769 3.69786 3.79042C4.15961 3.30395 4.795 3.01981 5.46543 3H18.2306C18.9651 3 19.6695 3.29178 20.1888 3.81114C20.7082 4.33051 21 5.03492 21 5.76941V14.0343C20.9967 14.4076 20.9198 14.7767 20.7737 15.1203C20.6275 15.4639 20.415 15.7752 20.1483 16.0365C19.8816 16.2978 19.5659 16.5039 19.2194 16.643C18.8729 16.7821 18.5024 16.8515 18.129 16.8471H16.1535M21 9.92334H16.1535" stroke-width="2" stroke-linecap="round" stroke-linejoin="round" />
</svg>