<svg xmlns="http://www.w3.org/2000/svg" width="24" height="24" fill="none" viewBox="0 0 24 24">
  <path fill="currentColor" d="M15.5 15.75a1.25 1.25 0 1 0 0-2.5 1.25 1.25 0 0 0 0 2.5Z" />
  <path fill="currentColor" fill-rule="evenodd"
    d="M3 6.5A3.5 3.5 0 0 1 6.5 3h8.088A2.412 2.412 0 0 1 17 5.412V8h1a3 3 0 0 1 3 3v7a3 3 0 0 1-3 3H7a4 4 0 0 1-4-4V6.5Zm2 3.163V17a2 2 0 0 0 2 2h11a1 1 0 0 0 1-1v-7a1 1 0 0 0-1-1H6.5c-.537 0-1.045-.12-1.5-.337ZM5 6.5A1.5 1.5 0 0 0 6.5 8H15V5.412A.412.412 0 0 0 14.588 5H6.5A1.5 1.5 0 0 0 5 6.5Z"
    clip-rule="evenodd" />
</svg>