<svg viewBox="0 0 48 48" fill="none" xmlns="http://www.w3.org/2000/svg">
<path d="M23.5 26C23.6978 26 23.8911 26.0586 24.0556 26.1685C24.22 26.2784 24.3482 26.4346 24.4239 26.6173C24.4996 26.8 24.5194 27.0011 24.4808 27.1951C24.4422 27.3891 24.347 27.5673 24.2071 27.7071C24.0673 27.847 23.8891 27.9422 23.6951 27.9808C23.5011 28.0194 23.3 27.9996 23.1173 27.9239C22.9346 27.8482 22.7784 27.72 22.6685 27.5556C22.5586 27.3911 22.5 27.1978 22.5 27C22.5 26.7348 22.6054 26.4804 22.7929 26.2929C22.9804 26.1054 23.2348 26 23.5 26" stroke="#8C8CA1" stroke-width="2" stroke-linecap="round" stroke-linejoin="round"/>
<path d="M7.82693 7.65426L28.0215 13.3943C29.3898 13.8438 30.585 14.7067 31.4421 15.8641C32.2993 17.0215 32.7762 18.4164 32.807 19.8563V39.8463C32.8646 40.4589 32.7721 41.0764 32.5375 41.6452C32.303 42.2141 31.9334 42.7172 31.4607 43.1112C30.988 43.5051 30.4265 43.778 29.8247 43.9062C29.2229 44.0345 28.5989 44.0142 28.0067 43.8472L11.3016 39.3054C9.93306 38.8796 8.7331 38.0341 7.8716 36.8886C7.01011 35.7432 6.53072 34.3558 6.5013 32.9228V11.1936C6.47098 9.85247 6.97224 8.5538 7.89573 7.58085C8.81922 6.6079 10.09 6.03963 11.4309 6H36.9611C38.4301 6 39.839 6.58355 40.8777 7.62228C41.9164 8.66102 42.5 10.0698 42.5 11.5388V28.0685C42.4935 28.8153 42.3397 29.5534 42.0474 30.2405C41.7551 30.9277 41.33 31.5505 40.7966 32.0731C40.2632 32.5957 39.6319 33.0079 38.9389 33.2861C38.2459 33.5642 37.5048 33.7029 36.7581 33.6941H32.807M42.5 19.8467H32.8071" stroke="#8C8CA1" stroke-width="2" stroke-linecap="round" stroke-linejoin="round"/>
</svg>
