<svg xmlns="http://www.w3.org/2000/svg" fill="none" viewBox="0 0 24 24" stroke="currentColor">
  <path d="M8.5 14C8.59889 14 8.69556 14.0293 8.77779 14.0843C8.86001 14.1392 8.9241 14.2173 8.96194 14.3087C8.99978 14.4 9.00968 14.5006 8.99039 14.5975C8.9711 14.6945 8.92348 14.7836 8.85355 14.8536C8.78363 14.9235 8.69454 14.9711 8.59755 14.9904C8.50056 15.0097 8.40002 14.9998 8.30866 14.9619C8.2173 14.9241 8.13921 14.86 8.08427 14.7778C8.02932 14.6956 8 14.5989 8 14.5C8 14.3674 8.05268 14.2402 8.14645 14.1464C8.24021 14.0527 8.36739 14 8.5 14" stroke-width="2" stroke-linecap="round" stroke-linejoin="round" />
  <path d="M2.66346 4.82713L10.6072 7.69717C11.2914 7.92188 11.8889 8.35335 12.3175 8.93206C12.7461 9.51076 12.9845 10.2849 13 11.0048L13 16.8471M2.66346 4.82713C2.22358 5.3093 1.98587 5.94299 2.00065 6.59679V16.4614C2.01536 17.1779 2.25505 17.8716 2.6858 18.4443C3.11655 19.017 3.71653 19.4398 4.40081 19.6527L10.5998 21.9236C10.8959 22.0071 11.2079 22.0172 11.5088 21.9531C11.8097 21.889 12.0905 21.7526 12.3268 21.5556C12.5631 21.3586 12.7479 21.107 12.8652 20.8226C12.9825 20.5382 13.0288 20.2295 13 19.9232V16.8471M2.66346 4.82713C2.67474 4.81477 2.68633 4.80258 2.69786 4.79042C3.15961 4.30395 3.795 4.01981 4.46543 4H12M13 16.8471H16.129C16.5024 16.8515 16.8729 16.7821 17.2194 16.643C17.5659 16.5039 17.8816 16.2978 18.1483 16.0365C18.415 15.7752 18.6275 15.4639 18.7737 15.1203C18.9198 14.7767 18.9967 14.4076 19 14.0343L19 11M19 1V4M19 4V7M19 4H22M19 4H16" stroke-width="2" stroke-linecap="round" stroke-linejoin="round" />
</svg>