<svg xmlns="http://www.w3.org/2000/svg" width="24" height="24" fill="none" viewBox="0 0 24 24">
  <path fill="#000" fill-rule="evenodd" d="M6.309 2.161a1 1 0 0 1 1.343.237c.834 1.107 1.3 2.295 1.085 3.506-.204 1.146-.973 2.065-2.042 2.8.423.986.36 2.122.002 3.297a.999.999 0 0 1-.134.28c.665.638 1.085 1.535 1.33 2.57a.997.997 0 0 1 .01.404 4.113 4.113 0 0 1 2.547 1.21c.698.71 1.153 1.711 1.03 2.773-.127 1.104-.852 2.051-2.073 2.658a1 1 0 0 1-.89-1.792c.605-.3.848-.638.937-.913-.734.456-1.533.687-2.382.597-1.09-.115-2.06-.739-2.918-1.647a1 1 0 0 1 .022-1.396c.175-.174.353-.332.535-.475a3.525 3.525 0 0 1-1.18-.416c-1.068-.613-1.686-1.728-2.004-3.076a1 1 0 0 1 .686-1.188 7.49 7.49 0 0 1 .754-.186 3.434 3.434 0 0 1-.547-.708c-.618-1.064-.59-2.339-.187-3.663a1 1 0 0 1 1.183-.683c.25.058.492.126.724.205a3.53 3.53 0 0 1-.057-1.47C4.298 3.873 5.145 2.916 6.31 2.16Zm-.08 4.342c.335-.347.489-.667.539-.949.05-.28.016-.631-.177-1.069-.335.347-.488.667-.538.95-.05.28-.017.63.177 1.068Zm-1.245 3.899c.03-.473-.06-.812-.203-1.059-.145-.248-.4-.498-.834-.71-.03.472.06.812.202 1.058.145.249.4.498.835.71Zm3.472 7.054a2.087 2.087 0 0 0-.894-.218 2.308 2.308 0 0 0-1.084.263c.302.185.57.274.805.298.33.035.715-.043 1.173-.343ZM16.35 2.398a1 1 0 0 1 1.343-.237c1.163.756 2.01 1.713 2.225 2.923.088.496.062.988-.057 1.471a7.54 7.54 0 0 1 .724-.205 1 1 0 0 1 1.183.683c.403 1.324.432 2.6-.187 3.663a3.434 3.434 0 0 1-.547.708c.249.047.5.11.754.186a1 1 0 0 1 .686 1.188c-.318 1.348-.935 2.463-2.003 3.075-.37.213-.766.348-1.18.417.18.143.36.3.535.475a1 1 0 0 1 .022 1.396c-.859.908-1.829 1.532-2.918 1.647-.85.09-1.649-.14-2.383-.597.09.275.332.613.937.913a1 1 0 0 1-.89 1.792c-1.221-.607-1.946-1.554-2.073-2.658-.123-1.062.332-2.063 1.03-2.774a4.112 4.112 0 0 1 2.547-1.21.997.997 0 0 1 .011-.403c.245-1.035.665-1.932 1.33-2.57a1 1 0 0 1-.135-.28c-.358-1.175-.42-2.311.003-3.296-1.07-.736-1.839-1.655-2.043-2.801-.215-1.211.252-2.4 1.086-3.506Zm1.422 4.105c.193-.437.226-.788.177-1.069-.05-.282-.204-.602-.538-.949-.194.438-.227.789-.177 1.07.05.281.203.601.538.948Zm1.246 3.899c.434-.213.69-.462.834-.711.143-.246.232-.586.203-1.059-.435.213-.69.463-.835.711-.143.247-.232.586-.202 1.059Zm-3.473 7.054c.459.3.843.378 1.174.343.234-.024.502-.113.804-.298a2.308 2.308 0 0 0-1.084-.263 2.087 2.087 0 0 0-.894.218Zm2.854-3.134c.48.03.826-.06 1.077-.204.249-.142.496-.391.708-.811-.48-.03-.825.059-1.076.203-.25.143-.497.391-.709.812Zm-14.58-1.015c.211.42.459.669.707.811.252.144.597.233 1.077.204-.212-.42-.46-.67-.708-.812-.252-.144-.597-.233-1.077-.203Z" clip-rule="evenodd"/>
</svg>
