<svg width="16" height="16" viewBox="0 0 16 16" fill="none" xmlns="http://www.w3.org/2000/svg">
<path d="M5.38272 12L6.53968 9.99647L7.69665 8L8.84656 5.99647L9.03704 5.67901L9.12169 5.99647L9.47443 7.3157L9.07936 8L7.9224 9.99647L6.77249 12H8.1552L9.31217 9.99647L9.91182 8.95944L10.194 9.99647L10.7302 12H11.9718L11.4356 9.99647L10.8995 8L10.7584 7.48501L11.619 5.99647H10.3633L10.321 5.84832L9.8836 4.21164L9.82716 4H8.62081L8.59259 4.04233L7.46384 5.99647L6.30688 8L5.15697 9.99647L4 12H5.38272V12Z" fill="#8C8CA1"/>
</svg>
