<svg width="16" height="16" viewBox="0 0 16 16" fill="none" xmlns="http://www.w3.org/2000/svg">
<g clip-path="url(#clip0_1206_724)">
<path d="M10.7446 6.37078H9.86C9.75777 6.37078 9.65971 6.32696 9.59086 6.24977L9.232 5.845C9.17776 5.78449 9.10265 5.74902 9.02128 5.74902C8.93991 5.74902 8.8648 5.78449 8.81056 5.845L8.50177 6.19343C8.40163 6.3061 8.25558 6.37286 8.10536 6.37286H3.26288C3.12518 6.76303 3.03547 7.17822 3 7.61011H7.57125C7.65262 7.61011 7.72773 7.57673 7.78406 7.51831L8.20968 7.0739C8.26184 7.01757 8.33695 6.98627 8.41206 6.98627H8.42875C8.51012 6.98627 8.58523 7.02174 8.63947 7.08225L8.99833 7.48702C9.06718 7.56421 9.16524 7.60803 9.26747 7.60803H12.9979C12.9624 7.17822 12.8727 6.76094 12.735 6.36869L10.7446 6.37078Z" fill="#8C8CA1"/>
<path d="M5.76653 10.2143C5.8479 10.2143 5.92301 10.1809 5.97934 10.1225L6.40496 9.67809C6.45921 9.62175 6.53223 9.59046 6.60943 9.59046H6.62612C6.70749 9.59046 6.78468 9.62592 6.83684 9.68434L7.1957 10.0891C7.26455 10.1663 7.36261 10.2101 7.46484 10.2101H12.5222C12.7121 9.81788 12.8498 9.3985 12.9332 8.95827H8.07824C7.976 8.95827 7.87794 8.91445 7.80909 8.83726L7.45024 8.43666C7.39599 8.37616 7.32088 8.34277 7.23951 8.34277C7.15814 8.34277 7.08095 8.37824 7.02879 8.43666L6.72001 8.7851C6.61986 8.89985 6.47381 8.96453 6.32151 8.96453H3.06885C3.1523 9.40476 3.29 9.82413 3.47986 10.2164L5.76653 10.2143Z" fill="#8C8CA1"/>
<path d="M9.35298 5.01677C9.43434 5.01677 9.50945 4.98339 9.56579 4.92497L9.99141 4.48056C10.0436 4.42423 10.1187 4.39293 10.1959 4.39293H10.2126C10.2939 4.39293 10.369 4.4284 10.4233 4.48891L10.7821 4.89576C10.851 4.97296 10.9491 5.01677 11.0513 5.01677H12.0131C11.0972 3.7983 9.64089 3.01172 8.001 3.01172C6.36111 3.01172 4.90274 3.7983 3.98682 5.01677H9.35298Z" fill="#8C8CA1"/>
<path d="M7.42306 11.4556H6.10865C6.00641 11.4556 5.90836 11.4118 5.8395 11.3346L5.48065 10.9298C5.4264 10.8693 5.35129 10.8359 5.26992 10.8359C5.18856 10.8359 5.11136 10.8714 5.0592 10.9298L4.75042 11.2783C4.65027 11.393 4.50422 11.4577 4.35192 11.4577H4.33105C5.24697 12.4383 6.55096 13.0538 8.00099 13.0538C9.45102 13.0538 10.7529 12.4383 11.6709 11.4577L7.42306 11.4556Z" fill="#8C8CA1"/>
</g>
<defs>
<clipPath id="clip0_1206_724">
<rect width="10" height="10.0399" fill="white" transform="translate(3 3.01172)"/>
</clipPath>
</defs>
</svg>
