<svg width="16" height="16" viewBox="0 0 16 16" fill="none" xmlns="http://www.w3.org/2000/svg">
<g clip-path="url(#clip0_149_639)">
<path d="M8.0791 9.38364L9.38103 11.4276L10.5837 10.7304L8.87385 8.03467L8.0791 9.38364Z" fill="#8C8CA1"/>
<path d="M11.6791 9.91075L11.6782 9.35213L9.80985 6.44141L9.1167 7.61788L10.9203 10.5356L11.5724 10.1576C11.6364 10.1056 11.6751 10.0294 11.6792 9.94709L11.6791 9.91075Z" fill="#8C8CA1"/>
<path d="M3.84961 10.4377L4.77051 10.9685L7.83508 6.05254L7.31497 6.03881C6.87181 6.03255 6.39444 6.14779 6.17534 6.50553L4.43508 9.20354L3.84961 10.1033V10.4377V10.4377Z" fill="#8C8CA1"/>
<path d="M9.60438 6.05225L8.2336 6.05722L5.13232 11.1762L6.21632 11.8004L6.5111 11.3004L9.60438 6.05225Z" fill="#8C8CA1"/>
<path d="M12.257 6.04521C12.2455 5.75846 12.0903 5.49596 11.8472 5.34314L8.43938 3.38291C8.19888 3.26178 7.89844 3.26162 7.6575 3.38283C7.62902 3.3972 4.34349 5.30314 4.34349 5.30314C4.29802 5.32495 4.25422 5.35093 4.21302 5.38043C3.99598 5.53602 3.86369 5.77781 3.8501 6.04344V10.103L4.43556 9.20325L4.43045 6.07087C4.43113 6.05942 4.43257 6.04814 4.43461 6.03702C4.44785 5.96332 4.48899 5.89757 4.55093 5.85314C4.56638 5.84207 7.90804 3.90732 7.91866 3.90201C7.9972 3.86256 8.09703 3.86209 8.17567 3.90079L11.5394 5.83609C11.619 5.88678 11.6688 5.97273 11.6733 6.06669V9.94694C11.6692 10.0292 11.6367 10.1055 11.5727 10.1574L10.9206 10.5354L10.5841 10.7305L9.38142 11.4277L8.16175 12.1346C8.09605 12.1584 8.01924 12.157 7.9541 12.1306L6.51103 11.3004L6.21624 11.8004L7.51308 12.5473C7.55596 12.5717 7.59417 12.5933 7.62552 12.6109C7.67407 12.6381 7.70716 12.6564 7.71884 12.662C7.81101 12.7068 7.94364 12.7329 8.06314 12.7329C8.17271 12.7329 8.27956 12.7127 8.38065 12.6731L11.9233 10.621C12.1266 10.4634 12.2462 10.2258 12.257 9.96833V6.04521Z" fill="#8C8CA1"/>
</g>
<defs>
<clipPath id="clip0_149_639">
<rect width="9.14286" height="10" fill="white" transform="translate(3.45703 3)"/>
</clipPath>
</defs>
</svg>
