<svg viewBox="0 0 69 36" fill="currentColor" xmlns="http://www.w3.org/2000/svg">
  <path d="M22.791 28.0644C24.9095 27.2829 26.264 26.1889 27.7053 25.2338C33.5921 21.3267 39.531 17.5411 45.7304 14.1549C50.61 11.498 55.507 8.91056 60.6645 6.80938C61.4632 6.47944 62.5051 6.28843 62.5051 4.93395C61.7237 4.93395 60.9423 4.88185 60.1782 4.95131C58.4591 5.1076 56.7399 5.3507 55.0034 5.52435C54.3088 5.59381 53.6142 5.61118 52.9196 5.57645C51.3393 5.50699 50.6447 5.02076 50.5753 4.04831C50.5058 3.04113 51.1657 2.36389 52.5896 2.12078C53.8399 1.89503 55.1076 1.75612 56.3579 1.54774C59.1016 1.09625 61.8279 0.610021 64.5716 0.158526C65.1447 0.0716999 65.7177 -0.0151302 66.2908 0.00223497C67.8363 0.0543305 68.8608 1.25253 68.6524 2.78066C68.5656 3.45791 68.3398 4.13514 68.0273 4.74292C67.2111 6.39261 66.2039 7.95549 65.4572 9.63991C64.3979 12.071 63.5123 14.5716 62.5572 17.0548C62.1405 18.1315 61.8279 19.2602 61.307 20.2674C61.0812 20.7015 60.4387 21.1009 59.9525 21.153C59.2231 21.2572 58.6675 20.7189 58.3723 20.0417C57.9034 18.9303 57.9555 17.7842 58.2159 16.6381C58.5112 15.3183 58.8064 13.9812 59.1189 12.5399C57.9555 12.1058 57.1914 12.7136 56.4273 13.0956C49.1687 16.6902 42.1011 20.6494 35.3113 25.0602C30.4664 28.2033 25.6562 31.4158 20.8287 34.5937C20.5335 34.7847 20.2557 35.0973 19.9431 35.1146C19.2832 35.1494 18.4497 35.2709 17.9982 34.941C17.5641 34.611 17.2689 33.7254 17.3383 33.135C17.4599 32.1278 17.9114 31.1554 18.2239 30.1655C18.988 27.6302 19.8215 25.0949 20.4814 22.5249C20.7419 21.5524 20.7072 20.4584 20.6203 19.4339C20.4988 18.1489 19.7 17.6279 18.4497 17.8015C17.9982 17.871 17.5293 17.9405 17.0952 18.0967C12.615 19.677 8.3258 21.6566 4.22762 24.1051C3.35936 24.626 3.30726 25.2686 3.53301 26.1195C2.4911 26.6925 1.44916 27.2829 0.424616 26.1542C-0.339452 25.3033 -0.0616004 24.053 1.17133 22.7853C1.72701 22.2123 2.35218 21.674 3.01205 21.2225C7.1276 18.3746 11.5557 16.1171 16.3138 14.589C21.2802 12.9914 24.2497 15.2315 24.1802 20.441C24.1628 22.0386 23.7634 23.6362 23.503 25.2338C23.364 25.9805 23.1209 26.7446 22.791 28.0644Z" />
</svg>