<svg width="38" height="62" viewBox="0 0 38 62" fill="none" stroke="currentColor" xmlns="http://www.w3.org/2000/svg">
  <path d="M29.4767 2.16644C26.4741 6.70052 24.4378 11.2745 24.1392 16.0201M24.1392 16.0201C23.9273 19.3874 24.5904 22.8412 26.4042 26.4285C27.8751 29.3379 31.4579 32.24 32.5169 27.0648C33.4933 22.2934 28.8359 16.7329 24.1392 16.0201ZM24.1392 16.0201C24.1038 16.0147 24.0684 16.0096 24.0329 16.0047C16.9313 15.038 12.6829 21.7406 11.0096 27.8391C8.42075 37.2743 6.63744 46.9394 6.71691 56.7197C6.72159 57.296 7.39933 56.8992 8.28395 56.1151M8.28395 56.1151C10.4578 54.1882 13.8809 49.9224 11.6353 52.0089C10.2601 53.2867 9.22683 54.6481 8.28395 56.1151ZM8.28395 56.1151C7.69788 57.0269 7.14674 57.9795 6.57012 58.9782C5.4869 60.8544 5.55052 59.2912 5.24596 57.6641C4.751 55.0197 3.30662 51.8671 1.35232 49.9774" stroke-width="2.13126" stroke-linecap="round" />
</svg>