<svg width="16" height="16" viewBox="0 0 16 16" fill="none" xmlns="http://www.w3.org/2000/svg">
<g clip-path="url(#clip0_1206_831)">
<rect width="16" height="16" rx="8" fill="#303040"/>
<path d="M15.9795 7.45733C15.68 3.04883 11.864 -0.280748 7.45684 0.0187168C5.26138 0.168316 3.33339 1.19098 1.9878 2.72297L1.9838 2.7203C1.9742 2.73257 1.96593 2.74483 1.95766 2.7571C0.621404 4.29869 -0.130592 6.34694 0.0187404 8.54293C0.032607 8.75252 0.0571403 8.95786 0.0872734 9.16159C0.0872734 9.17146 0.0899401 9.17946 0.0912734 9.18906C0.111807 9.32319 0.135273 9.45759 0.16114 9.58905C0.185659 9.71057 0.213044 9.83149 0.243273 9.95172C1.16754 13.636 4.61899 16.2453 8.5427 15.9783C12.9499 15.6786 16.2808 11.8629 15.9811 7.45467L15.9795 7.45733ZM14.2381 7.57627C14.2752 8.11866 14.2408 8.64986 14.1437 9.16186C14.1437 9.15919 14.1411 9.15652 14.1411 9.15359C13.5603 7.73653 12.4131 6.71254 11.4054 6.14694C11.6094 3.74563 10.7947 2.73257 9.87203 2.5683C9.69325 2.53471 9.50949 2.53803 9.33203 2.57804C9.15458 2.61806 8.98718 2.69392 8.84012 2.80098C8.69305 2.90804 8.56942 3.04404 8.47682 3.20061C8.38422 3.35719 8.3246 3.53104 8.30164 3.71149C8.27916 3.88557 8.29125 4.06236 8.3372 4.23176C8.38314 4.40116 8.46205 4.55983 8.56941 4.69869C8.67676 4.83755 8.81045 4.95387 8.96282 5.04099C9.11518 5.12811 9.28324 5.18433 9.45736 5.20642C9.52163 5.21468 9.58456 5.21735 9.64616 5.21602C9.65065 5.30172 9.65297 5.38753 9.6531 5.47335C8.80003 5.26268 8.00324 5.22002 7.27631 5.28588C7.00295 5.30382 6.73091 5.3381 6.46164 5.38855C6.55231 4.57789 6.85738 3.66616 7.44751 3.00083C8.01817 2.35603 8.86723 1.98777 9.79256 2.08217C9.96803 2.10004 10.1555 2.14377 10.3238 2.20004C10.332 2.2027 10.3403 2.20537 10.3472 2.2067C12.4912 3.0803 14.0699 5.11602 14.2368 7.57627H14.2381ZM8.6619 8.79759C8.6619 8.79759 8.6619 8.79892 8.66057 8.80026C8.45831 9.09093 8.22912 9.3619 7.97604 9.60959C7.59274 9.2047 7.26824 8.74798 7.01204 8.2528C6.99977 8.22666 6.98617 8.20346 6.97364 8.17733V8.17466C6.82351 7.85375 6.70344 7.51961 6.61498 7.17654C7.18297 7.0424 7.7403 6.99307 8.2731 7.0192L8.3579 7.0232H8.36057C8.6947 7.05067 9.04243 7.11227 9.40243 7.21094C9.23531 7.77284 8.98623 8.30703 8.66323 8.79626L8.6619 8.79759ZM5.92911 2.0987L5.92511 2.10404C4.98725 3.31443 4.67499 4.81895 4.68885 5.97441C2.50646 6.9984 2.0382 8.21013 2.3558 9.09172C2.3638 9.11652 2.37366 9.13972 2.38326 9.16319C2.52009 9.49004 2.7811 9.7492 3.10892 9.88371C3.43674 10.0182 3.80455 10.0171 4.13152 9.88052C4.45838 9.74369 4.71754 9.48268 4.85204 9.15486C4.98655 8.82705 4.9854 8.45924 4.84885 8.13226C4.824 8.0742 4.79522 8.01789 4.76272 7.96373C4.83125 7.9184 4.90512 7.8736 4.98458 7.82693C5.22805 8.67173 5.58831 9.38505 6.00858 9.98185C6.16058 10.2077 6.32484 10.4253 6.50404 10.6349C5.75658 10.9621 4.81472 11.1538 3.94246 10.9757C3.09926 10.8034 2.3558 10.253 1.97393 9.40399C1.90078 9.23747 1.84571 9.06359 1.80967 8.88532C1.78715 8.73222 1.77025 8.57834 1.759 8.42399C1.56433 5.55841 3.34166 3.00776 5.92911 2.0987ZM8.4235 14.2384C6.72191 14.3546 5.13098 13.7744 3.92886 12.7418C5.44592 12.9488 6.90537 12.4666 7.8995 11.8768C9.87763 13.2554 11.1619 13.0554 11.767 12.3394C11.8855 12.2012 11.9745 12.0403 12.0286 11.8664C12.0827 11.6926 12.1007 11.5095 12.0815 11.3285C12.0622 11.1474 12.0062 10.9722 11.9168 10.8136C11.8274 10.655 11.7065 10.5163 11.5616 10.4061C11.422 10.2997 11.2628 10.2218 11.0931 10.177C10.9234 10.1321 10.7465 10.1211 10.5726 10.1446C10.3986 10.1682 10.231 10.2257 10.0794 10.3141C9.92767 10.4024 9.79487 10.5198 9.68856 10.6594C9.65043 10.7101 9.61603 10.765 9.5859 10.8197C9.51336 10.7826 9.43656 10.7416 9.3587 10.6965C9.91607 10.1215 10.3728 9.45684 10.7099 8.73039C10.8306 8.48451 10.9366 8.23172 11.0275 7.97333C11.6848 8.45813 12.3227 9.17679 12.6048 10.0213C12.8773 10.8373 12.7731 11.7573 12.2283 12.512C12.1207 12.6584 11.9976 12.7928 11.8614 12.913L11.856 12.9184C10.8715 13.6938 9.67555 14.1535 8.4251 14.237L8.4235 14.2384Z" fill="#E2E2E8"/>
<g opacity="0.9">
<path d="M9.87215 2.56724C9.72209 2.53874 9.56818 2.53694 9.41749 2.56191C10.1831 2.9779 10.7401 4.13763 10.4473 6.42668C10.3504 7.17113 10.1317 7.89456 9.79989 8.568C9.51397 9.18255 9.14187 9.75318 8.69482 10.2627C8.90675 10.4221 9.12853 10.568 9.35882 10.6995C9.91627 10.1245 10.3731 9.45997 10.7103 8.7336C11.0428 8.06047 11.2616 7.3369 11.3577 6.59228C11.7071 3.86776 10.85 2.74244 9.87242 2.56831L9.87215 2.56724Z" fill="#E2E2E8"/>
</g>
<g opacity="0.8">
<path d="M10.4471 6.4251C10.7402 4.13711 10.1829 2.97632 9.41753 2.56006C9.3874 2.56406 9.35887 2.57099 9.32847 2.57792C10.0775 3.00912 10.6167 4.16725 10.3279 6.4251C10.231 7.16954 10.0122 7.89297 9.68046 8.56642C9.40489 9.15923 9.04873 9.71111 8.62207 10.2064C8.6466 10.2256 8.67007 10.2435 8.6946 10.2611C9.14127 9.75126 9.51325 9.18059 9.7994 8.56615C10.1321 7.89304 10.3509 7.16974 10.4471 6.4251Z" fill="#E2E2E8"/>
</g>
<g opacity="0.5">
<path d="M7.53766 11.6152C7.46513 11.5605 7.3966 11.5029 7.327 11.4453C6.1974 11.9165 4.63234 12.212 3.07715 11.8506C3.33042 12.175 3.61519 12.4736 3.92728 12.7418C5.44434 12.9488 6.9038 12.4666 7.89793 11.8768C7.77575 11.7914 7.65519 11.7038 7.53633 11.6138L7.53766 11.6152Z" fill="#E2E2E8"/>
</g>
<g opacity="0.6">
<path d="M7.32789 11.4455C7.29376 11.4167 7.25829 11.3882 7.22549 11.3594C6.08763 11.8138 4.51457 12.0863 2.96338 11.6988C3.00178 11.7495 3.04018 11.8015 3.07831 11.8508C4.63244 12.2122 6.1983 11.9167 7.32789 11.4455Z" fill="#E2E2E8"/>
</g>
<g opacity="0.9">
<path d="M2.3573 9.09368C2.3653 9.11821 2.37517 9.14168 2.38477 9.16488C2.43543 9.28541 2.50103 9.39341 2.5805 9.49074C2.55863 8.62008 3.28423 7.55609 5.41169 6.66623C6.10481 6.37793 6.84072 6.20585 7.58981 6.1569C8.26518 6.09667 8.9457 6.13358 9.6106 6.26649C9.645 5.97903 9.6586 5.71077 9.65593 5.4737C8.87936 5.2782 8.07542 5.21483 7.27781 5.28624C6.52865 5.3353 5.79268 5.50738 5.09942 5.79556C2.56557 6.85529 2.01917 8.16008 2.35757 9.09501V9.09368H2.3573Z" fill="#E2E2E8"/>
</g>
<g opacity="0.8">
<path d="M5.41175 6.66747C3.2843 7.5576 2.55843 8.62132 2.58057 9.49198C2.59977 9.51518 2.6203 9.53732 2.64083 9.55918C2.63923 8.69519 3.3731 7.64933 5.47202 6.77013C6.16515 6.48185 6.90105 6.30977 7.65014 6.2608C8.30133 6.20321 8.95735 6.23551 9.59973 6.3568C9.60405 6.32675 9.6077 6.29661 9.61067 6.2664C8.94567 6.13427 8.26525 6.09745 7.58988 6.15707C6.84081 6.20618 6.10493 6.37826 5.41175 6.6664V6.66747Z" fill="#E2E2E8"/>
</g>
<g opacity="0.4">
<path d="M11.3604 6.5907C11.3497 6.6811 11.3345 6.76857 11.3193 6.85763C12.2913 7.59976 13.3305 8.80855 13.7961 10.3349C13.95 9.95301 14.066 9.55689 14.1425 9.15229C13.5633 7.73523 12.4161 6.7123 11.4084 6.14697C11.3961 6.29097 11.3809 6.43737 11.3617 6.5907H11.3604Z" fill="#E2E2E8"/>
</g>
<g opacity="0.5">
<path d="M11.3194 6.85791C11.3111 6.90164 11.3042 6.94698 11.2959 6.99071C12.2586 7.7491 13.2812 8.9747 13.7207 10.512C13.7466 10.4534 13.7714 10.3942 13.7946 10.3355C13.3292 8.80883 12.2914 7.60137 11.3178 6.85791H11.3194Z" fill="#E2E2E8"/>
</g>
<g opacity="0.9">
<path d="M11.7671 12.3382C11.866 12.2217 11.9447 12.0893 11.9999 11.9468C11.2564 12.4012 9.97325 12.3041 8.13752 10.906C7.54077 10.4501 7.02356 9.89869 6.60686 9.27398C6.21698 8.71936 5.90852 8.11178 5.69087 7.46973C5.42527 7.58333 5.1858 7.70653 4.98047 7.82706C5.19993 8.59725 5.54696 9.3252 6.00713 9.98064C6.41779 10.594 6.92979 11.1486 7.53779 11.6126C9.72285 13.2774 11.1263 13.098 11.7655 12.338H11.7671V12.3382Z" fill="#E2E2E8"/>
</g>
<g opacity="0.8">
<path d="M8.13868 10.9062C9.97307 12.3038 11.2573 12.4011 12.0005 11.9465C12.0115 11.9179 12.0211 11.8891 12.0293 11.8617C11.2819 12.2958 10.0085 12.1819 8.19868 10.8035C7.60193 10.3477 7.08473 9.79624 6.66802 9.17154C6.29254 8.63661 5.99265 8.05244 5.77683 7.43555C5.74803 7.44781 5.72083 7.45875 5.69336 7.47101C5.91091 8.11315 6.21928 8.72082 6.60909 9.27554C7.01975 9.88886 7.53175 10.4435 8.13975 10.9075L8.13841 10.9062H8.13868Z" fill="#E2E2E8"/>
</g>
<g opacity="0.3">
<path d="M5.09825 5.79247C5.18171 5.75807 5.26518 5.72661 5.34998 5.69514C5.50625 4.48208 6.03318 2.97756 7.1233 1.8125C6.71531 1.87117 6.31398 1.96717 5.92518 2.10263C4.98705 3.31302 4.67505 4.81755 4.68892 5.97327C4.81878 5.91194 4.95451 5.85141 5.09691 5.79274L5.09825 5.79247Z" fill="#E2E2E8"/>
</g>
<g opacity="0.4">
<path d="M5.34961 5.69553C5.39228 5.68059 5.43334 5.66406 5.47574 5.64913C5.65094 4.4358 6.20134 2.93821 7.31173 1.78809C7.2488 1.79502 7.1856 1.80329 7.12267 1.81155C6.03281 2.97794 5.50588 4.48113 5.34988 5.69419V5.69553H5.34961Z" fill="#E2E2E8"/>
</g>
<g opacity="0.4">
<path d="M7.45696 0.0192358C5.26097 0.168568 3.33351 1.19123 1.98765 2.72322L1.95752 2.75735C2.21885 3.01762 3.07591 3.52961 3.42231 3.74321C4.11258 2.99957 4.97356 2.43523 5.93083 2.09896C5.99803 2.01122 6.06897 1.92509 6.1431 1.84162C7.04656 0.821631 8.28016 0.283501 9.71215 0.283501C9.87108 0.283501 10.1956 0.309634 10.2023 0.309634C9.31123 0.0533094 8.3822 -0.0450634 7.45723 0.0189691L7.45696 0.0192358Z" fill="#E2E2E8"/>
</g>
<g opacity="0.4">
<path d="M8.42339 14.2399C6.7218 14.3562 5.13087 13.7759 3.92875 12.7436C3.81585 12.7289 3.70351 12.7101 3.59195 12.6874C2.25702 12.4148 1.17276 11.6154 0.458096 10.3765C0.379404 10.2395 0.307668 10.0987 0.243164 9.95459C1.16743 13.6388 4.61888 16.2484 8.54126 15.9812C8.55912 15.5775 8.43993 14.6399 8.42206 14.2399H8.42339Z" fill="#E2E2E8"/>
</g>
<g opacity="0.4">
<path d="M15.9798 7.45768C15.7334 7.43288 14.5339 7.52755 14.2384 7.57661C14.2752 8.11901 14.2411 8.65021 14.1438 9.1622C14.1848 9.26354 14.2246 9.36754 14.26 9.47287C14.6915 10.7654 14.5408 12.103 13.8262 13.3432C13.7471 13.4799 13.6612 13.6125 13.5688 13.7406C13.5688 13.7406 13.5728 13.7376 13.5742 13.735C15.1995 12.1537 16.1454 9.8974 15.9798 7.45902V7.45768Z" fill="#E2E2E8"/>
</g>
<g opacity="0.5">
<path d="M9.79438 2.08079C9.96957 2.09865 10.157 2.14239 10.3256 2.19865C10.3336 2.20132 10.3421 2.20398 10.3488 2.20532C11.0355 2.48562 11.6673 2.8852 12.2149 3.38558C12.2149 3.38558 12.2176 3.38691 12.2189 3.38824C12.4818 3.08851 12.9869 2.75865 12.9869 2.75865C12.9869 2.75865 12.2136 1.96719 11.0293 1.72079C10.201 1.54826 8.33225 1.38266 7.15332 3.38824L7.16425 3.37758C7.25199 3.24584 7.34372 3.11731 7.44905 2.99945C8.01998 2.35465 8.86878 1.98612 9.79438 2.08079Z" fill="#E2E2E8"/>
</g>
<g opacity="0.5">
<path d="M12.2283 12.5134C12.1206 12.6598 11.9976 12.7943 11.8613 12.9145C11.856 12.9198 11.8491 12.9254 11.8435 12.931C11.2573 13.3853 10.5955 13.7324 9.88854 13.9563C9.88721 13.9563 9.88588 13.9563 9.88428 13.9577C10.0131 14.3355 10.0459 14.9379 10.0459 14.9379C10.0459 14.9379 11.1179 14.6643 11.9232 13.7619C12.4859 13.1307 13.5645 11.5947 12.4171 9.57129C12.4171 9.57129 12.4187 9.57796 12.4213 9.58622C12.4925 9.72756 12.5568 9.87235 12.6061 10.0217C12.8787 10.8377 12.7744 11.7577 12.2296 12.5121L12.2283 12.5134Z" fill="#E2E2E8"/>
</g>
<g opacity="0.5">
<path d="M1.97658 9.40742C1.90331 9.24084 1.84815 9.06686 1.81204 8.88849C1.81071 8.88049 1.80804 8.87196 1.80671 8.86369C1.70538 8.12583 1.73818 7.37837 1.89578 6.65838V6.65411C1.50404 6.57731 0.96618 6.30371 0.96618 6.30371C0.96618 6.30371 0.667515 7.37037 1.04698 8.51756C1.31258 9.32102 2.10244 11.0229 4.4283 11.0407C4.4283 11.0407 4.42163 11.0391 4.41336 11.0365C4.25603 11.0269 4.0987 11.0106 3.94403 10.9791C3.10057 10.8066 2.35711 10.2562 1.97498 9.40742H1.97658Z" fill="#E2E2E8"/>
</g>
<g opacity="0.6">
<path d="M9.4575 5.20554C9.52177 5.21354 9.5847 5.21621 9.6463 5.21487C9.6463 5.21487 9.6039 4.38394 9.50256 3.95675C9.3999 3.53088 9.24923 3.24742 9.08497 3.08742C8.96603 2.97249 8.59217 2.82982 8.30204 3.70875C8.27953 3.88282 8.29157 4.05963 8.33749 4.22904C8.3834 4.39845 8.46228 4.55714 8.56961 4.69603C8.67694 4.83492 8.81061 4.95127 8.96296 5.03842C9.11532 5.12558 9.28337 5.18182 9.4575 5.20394V5.20527V5.20554Z" fill="#E2E2E8"/>
</g>
<g opacity="0.5">
<path d="M4.85068 8.13506C4.82573 8.07708 4.79686 8.02086 4.76428 7.9668C4.76428 7.9668 4.06455 8.41853 3.74695 8.71959C3.42935 9.02092 3.25949 9.29345 3.20349 9.51639C3.16376 9.67665 3.22669 10.071 4.13308 9.88332C4.45994 9.74649 4.7191 9.48548 4.85361 9.15766C4.98811 8.82984 4.98697 8.46203 4.85041 8.13506H4.85068Z" fill="#E2E2E8"/>
</g>
<g opacity="0.6">
<path d="M9.69007 10.6584C9.65167 10.7091 9.61754 10.764 9.5874 10.8184C9.5874 10.8184 10.3282 11.1979 10.7485 11.3224C11.1687 11.4472 11.489 11.4582 11.7095 11.395C11.8685 11.3499 12.1778 11.0966 11.5629 10.4067C11.4233 10.3003 11.2641 10.2225 11.0944 10.1776C10.9247 10.1328 10.7479 10.1218 10.574 10.1454C10.4001 10.1689 10.2325 10.2264 10.0808 10.3148C9.92916 10.4031 9.79638 10.5204 9.69007 10.66V10.6584Z" fill="#E2E2E8"/>
</g>
<g opacity="0.3">
<path d="M9.4026 7.2124C9.2346 7.77107 8.99887 8.27906 8.71007 8.72653C8.69487 8.74973 8.67994 8.77319 8.6634 8.79773C8.6634 8.79773 8.6634 8.79906 8.66207 8.80039C8.45981 9.09106 8.23062 9.36203 7.97754 9.60972C8.161 9.80412 8.35807 9.99292 8.57594 10.1724C8.82335 10.367 9.08506 10.5427 9.35887 10.698C9.91632 10.123 10.3732 9.45851 10.7103 8.73213C10.8309 8.48615 10.9369 8.23327 11.0277 7.9748C10.7458 7.76813 10.461 7.60253 10.1983 7.49027C9.93939 7.3793 9.67307 7.28646 9.40127 7.2124H9.40287H9.4026Z" fill="#E2E2E8"/>
</g>
<g opacity="0.3">
<path d="M3.92938 12.7435C5.44618 12.9502 6.90564 12.4683 7.89977 11.8782C7.77759 11.7928 7.65703 11.7052 7.53817 11.6152C7.16008 11.326 6.8133 10.998 6.50351 10.6366C5.75578 10.9635 4.81391 11.1552 3.94165 10.9771C3.09845 10.8048 2.35499 10.2544 1.97286 9.40565C1.89969 9.23905 1.84462 9.06508 1.80859 8.88672C2.02913 10.4336 2.80939 11.7835 3.92805 12.7432L3.92938 12.7435Z" fill="#E2E2E8"/>
</g>
<g opacity="0.3">
<path d="M7.97729 9.60954C7.59411 9.20472 7.2697 8.74809 7.01356 8.25302C7.0013 8.22688 6.98743 8.20368 6.97516 8.17755V8.17488C6.82503 7.85397 6.70496 7.51983 6.6165 7.17676C6.35623 7.23836 6.0949 7.31516 5.83197 7.41382C5.54008 7.53046 5.25726 7.66861 4.98584 7.82715C5.22957 8.67195 5.58957 9.38528 6.00984 9.98207C6.16183 10.2079 6.32637 10.4255 6.50583 10.6351C6.82583 10.4954 7.11223 10.3298 7.3405 10.1586C7.56536 9.98973 7.77856 9.80584 7.97863 9.60821L7.97729 9.60954Z" fill="#E2E2E8"/>
</g>
<g opacity="0.3">
<path d="M5.92567 2.10438C4.9878 3.31478 4.67554 4.8193 4.6894 5.97476C4.82457 5.91129 4.96104 5.85066 5.09874 5.79289C5.53759 5.60957 5.99462 5.47326 6.4622 5.38623C6.55286 4.57557 6.85793 3.66384 7.44806 2.99851C8.01872 2.35372 8.86778 1.98519 9.79338 2.07985C9.96858 2.09772 10.156 2.14145 10.3246 2.19772C10.3326 2.20038 10.3408 2.20305 10.3478 2.20438C9.46926 1.8459 8.52021 1.69374 7.57366 1.75959C6.99873 1.79932 6.44833 1.91559 5.92807 2.09905C5.92673 2.10038 5.9254 2.10305 5.92407 2.10438H5.92567Z" fill="#E2E2E8"/>
</g>
<g opacity="0.3">
<path d="M14.1426 9.15118C13.5624 7.73412 12.4149 6.70986 11.4072 6.14453C11.3949 6.28853 11.38 6.43626 11.3592 6.59093C11.2981 7.06255 11.1875 7.52644 11.0293 7.97492C11.6866 8.45972 12.3245 9.17838 12.6066 10.0232C12.8789 10.8392 12.7749 11.7592 12.2301 12.5136C12.1225 12.66 11.9994 12.7944 11.8632 12.9146L11.8578 12.92C13.0325 11.9973 13.8632 10.6666 14.1482 9.16078C14.1482 9.15811 14.1455 9.15518 14.1455 9.15251L14.1426 9.15118Z" fill="#E2E2E8"/>
</g>
<g opacity="0.3">
<path d="M6.45797 6.34977C6.49147 6.62868 6.54404 6.90497 6.6153 7.1767C7.18357 7.04257 7.74063 6.99323 8.27343 7.01937L8.35823 7.02337H8.36089C8.69503 7.05083 9.04276 7.11243 9.40302 7.2111C9.47956 6.9551 9.54409 6.68924 9.59049 6.41271C9.64116 6.06791 9.65609 5.74871 9.65476 5.47084C8.80196 5.26018 8.00516 5.21751 7.27823 5.28338C7.00487 5.3013 6.73283 5.33558 6.46357 5.38605C6.42517 5.73378 6.42357 6.06364 6.4593 6.34871L6.45797 6.34977Z" fill="#E2E2E8"/>
</g>
</g>
<rect x="0.5" y="0.5" width="15" height="15" rx="7.5" stroke="#1E1E2A"/>
<defs>
<clipPath id="clip0_1206_831">
<rect width="16" height="16" rx="8" fill="white"/>
</clipPath>
</defs>
</svg>
