<svg width="16" height="16" viewBox="0 0 16 16" fill="none" xmlns="http://www.w3.org/2000/svg">
<path fill-rule="evenodd" clip-rule="evenodd" d="M5.83982 11H4.32422C4.00575 11 3.84843 11 3.75252 10.9386C3.64891 10.8715 3.58561 10.7602 3.57793 10.6374C3.57217 10.5243 3.65084 10.3861 3.80815 10.1098L7.55035 3.51367C7.70959 3.23357 7.79016 3.09352 7.89184 3.04173C8.00119 2.98609 8.13165 2.98609 8.24101 3.04173C8.34268 3.09352 8.42326 3.23357 8.58249 3.51367L9.35181 4.85661L9.35573 4.86346C9.52772 5.16396 9.61493 5.31634 9.65301 5.47627C9.69521 5.65086 9.69521 5.83503 9.65301 6.00961C9.61464 6.17076 9.52831 6.32425 9.35372 6.62929L7.38804 10.1041L7.38295 10.113C7.20983 10.4159 7.1221 10.5695 7.00051 10.6853C6.86813 10.812 6.70889 10.904 6.53431 10.9559C6.37507 11 6.19666 11 5.83982 11ZM9.66721 11H11.8389C12.1593 11 12.3204 11 12.4164 10.9368C12.52 10.8696 12.5852 10.7564 12.591 10.6337C12.5965 10.5242 12.5196 10.3914 12.3688 10.1312C12.3636 10.1223 12.3584 10.1133 12.3531 10.1041L11.2653 8.24318L11.2529 8.22223C11.1001 7.96374 11.0229 7.8332 10.9238 7.78275C10.8145 7.7271 10.6859 7.7271 10.5766 7.78275C10.4768 7.83454 10.3962 7.97076 10.237 8.2451L9.15305 10.106L9.14934 10.1124C8.99066 10.3863 8.91136 10.5232 8.91708 10.6355C8.92475 10.7583 8.98806 10.8715 9.09165 10.9386C9.18567 11 9.34682 11 9.66721 11Z" fill="#8C8CA1"/>
</svg>
