<svg width="16" height="16" viewBox="0 0 16 16" fill="none" xmlns="http://www.w3.org/2000/svg">
<path fill-rule="evenodd" clip-rule="evenodd" d="M8.03653 9.32591L6.66992 7.95938L8.03653 6.59277L9.40313 7.95938L8.03653 9.32591Z" fill="#8C8CA1"/>
<path fill-rule="evenodd" clip-rule="evenodd" d="M11.142 7.95924L11.1362 7.96495L12.4037 9.23239L13.6769 7.95924L12.395 6.67725L11.1274 7.94469L11.142 7.95924Z" fill="#8C8CA1"/>
<path fill-rule="evenodd" clip-rule="evenodd" d="M5.83971 7.05025L8.03623 4.85373L10.2651 7.08256L11.5325 5.81512L8.03623 2.31885L4.57227 5.78281L5.83971 7.05025Z" fill="#8C8CA1"/>
<path fill-rule="evenodd" clip-rule="evenodd" d="M10.2741 8.82715L8.03647 11.0648L5.81871 8.84692L4.55127 10.1144L8.03647 13.5996L11.5415 10.0946L10.2741 8.82715Z" fill="#8C8CA1"/>
<path fill-rule="evenodd" clip-rule="evenodd" d="M4.93088 7.95933L4.97768 7.91253L3.71023 6.64502L2.396 7.95933L3.68899 9.25232L4.95644 7.98488L4.93088 7.95933Z" fill="#8C8CA1"/>
</svg>
