<svg width="16" height="16" viewBox="0 0 16 16" fill="none" xmlns="http://www.w3.org/2000/svg">
<path d="M6.62537 8.92468C6.41523 8.92468 6.23777 8.77394 6.20241 8.56559L5.00623 1.50315C4.98689 1.38926 5.01291 1.27537 5.07962 1.18158C5.14633 1.08779 5.24507 1.02548 5.35782 1.00606C5.59131 0.96653 5.81347 1.12463 5.8535 1.35911L7.04967 8.42156C7.06902 8.53545 7.043 8.64933 6.97629 8.74313C6.90957 8.83692 6.81084 8.89922 6.69809 8.91865C6.67474 8.92267 6.65006 8.92468 6.62537 8.92468Z" fill="#8C8CA1"/>
<path d="M6.62537 8.92468C6.41523 8.92468 6.23777 8.77394 6.20241 8.56559L5.00623 1.50315C4.98689 1.38926 5.01291 1.27537 5.07962 1.18158C5.14633 1.08779 5.24507 1.02548 5.35782 1.00606C5.59131 0.96653 5.81347 1.12463 5.8535 1.35911L7.04967 8.42156C7.06902 8.53545 7.043 8.64933 6.97629 8.74313C6.90957 8.83692 6.81084 8.89922 6.69809 8.91865C6.67474 8.92267 6.65006 8.92468 6.62537 8.92468Z" fill="#8C8CA1"/>
<path d="M8.63045 5.66748C7.94663 5.66748 7.31085 5.87315 6.77914 6.22621L6.92391 7.08104C7.3809 6.68109 7.97799 6.4379 8.63045 6.4379C10.0655 6.4379 11.2329 7.61029 11.2329 9.05132C11.2329 10.4923 10.0655 11.6647 8.63045 11.6647C7.19544 11.6647 6.02795 10.4923 6.02795 9.05132C6.02795 8.85905 6.0493 8.67213 6.08866 8.49192L5.85783 7.13129C5.48156 7.67728 5.26074 8.33918 5.26074 9.05199C5.26074 10.9178 6.77247 12.4358 8.63045 12.4358C10.4884 12.4358 12.0002 10.9178 12.0002 9.05199C12.0002 7.18622 10.4891 5.66748 8.63045 5.66748Z" fill="#8C8CA1"/>
<path d="M8.44629 11.0263C8.69979 11.0263 8.90528 10.82 8.90528 10.5654C8.90528 10.3109 8.69979 10.1045 8.44629 10.1045C8.1928 10.1045 7.9873 10.3109 7.9873 10.5654C7.9873 10.82 8.1928 11.0263 8.44629 11.0263Z" fill="#8C8CA1"/>
<path d="M9.87989 10.4897C10.1334 10.4897 10.3389 10.2833 10.3389 10.0288C10.3389 9.77423 10.1334 9.56787 9.87989 9.56787C9.6264 9.56787 9.4209 9.77423 9.4209 10.0288C9.4209 10.2833 9.6264 10.4897 9.87989 10.4897Z" fill="#8C8CA1"/>
<path d="M8.75342 9.50142C9.00692 9.50142 9.21241 9.29506 9.21241 9.0405C9.21241 8.78595 9.00692 8.57959 8.75342 8.57959C8.49993 8.57959 8.29443 8.78595 8.29443 9.0405C8.29443 9.29506 8.49993 9.50142 8.75342 9.50142Z" fill="#8C8CA1"/>
<path d="M7.32813 9.97261C7.58162 9.97261 7.78712 9.76625 7.78712 9.5117C7.78712 9.25714 7.58162 9.05078 7.32813 9.05078C7.07464 9.05078 6.86914 9.25714 6.86914 9.5117C6.86914 9.76625 7.07464 9.97261 7.32813 9.97261Z" fill="#8C8CA1"/>
<path d="M10.1733 9.02925C10.4268 9.02925 10.6323 8.82289 10.6323 8.56834C10.6323 8.31378 10.4268 8.10742 10.1733 8.10742C9.91985 8.10742 9.71436 8.31378 9.71436 8.56834C9.71436 8.82289 9.91985 9.02925 10.1733 9.02925Z" fill="#8C8CA1"/>
<path d="M9.05958 7.97652C9.31307 7.97652 9.51857 7.77016 9.51857 7.5156C9.51857 7.26105 9.31307 7.05469 9.05958 7.05469C8.80608 7.05469 8.60059 7.26105 8.60059 7.5156C8.60059 7.77016 8.80608 7.97652 9.05958 7.97652Z" fill="#8C8CA1"/>
<path d="M7.6211 8.51216C7.87459 8.51216 8.08009 8.3058 8.08009 8.05125C8.08009 7.79669 7.87459 7.59033 7.6211 7.59033C7.36761 7.59033 7.16211 7.79669 7.16211 8.05125C7.16211 8.3058 7.36761 8.51216 7.6211 8.51216Z" fill="#8C8CA1"/>
</svg>
