<svg viewBox="0 0 27 27" fill="none" xmlns="http://www.w3.org/2000/svg">
  <path d="M13.4589 19.2721C14.7466 19.2721 15.7904 18.2283 15.7904 16.9406C15.7904 15.6529 14.7466 14.6091 13.4589 14.6091C12.1713 14.6091 11.1274 15.6529 11.1274 16.9406C11.1274 18.2283 12.1713 19.2721 13.4589 19.2721Z" fill="#00B812" />
  <path fill-rule="evenodd" clip-rule="evenodd" d="M13.4588 26.9177C22.7502 26.9177 26.9177 22.7502 26.9177 13.4588C26.9177 4.16745 22.7502 0 13.4588 0C4.16745 0 0 4.16745 0 13.4588C0 22.7502 4.16745 26.9177 13.4588 26.9177ZM10.9307 5.70703H14.6749V11.8771H12.3535V7.69327H10.2738L10.9307 5.70703ZM13.4589 21.2107C15.8172 21.2107 17.729 19.2989 17.729 16.9406C17.729 14.5823 15.8172 12.6705 13.4589 12.6705C11.1006 12.6705 9.18887 14.5823 9.18887 16.9406C9.18887 19.2989 11.1006 21.2107 13.4589 21.2107Z" fill="#00B812" />
</svg>