<svg viewBox="0 0 27 27" fill="none" xmlns="http://www.w3.org/2000/svg">
  <path d="M26.9177 13.4588C26.9177 22.7502 22.7502 26.9177 13.4588 26.9177C4.16745 26.9177 0 22.7502 0 13.4588C0 4.16745 4.16745 0 13.4588 0C22.7502 0 26.9177 4.16745 26.9177 13.4588Z" fill="#00B812" />
  <path d="M10.9303 5.70703H14.6745V11.8771H12.3531V7.69327H10.2734L10.9303 5.70703Z" fill="#fff" />
  <path fill-rule="evenodd" clip-rule="evenodd" d="M13.4585 21.2107C15.8168 21.2107 17.7286 19.2989 17.7286 16.9406C17.7286 14.5823 15.8168 12.6705 13.4585 12.6705C11.1002 12.6705 9.18848 14.5823 9.18848 16.9406C9.18848 19.2989 11.1002 21.2107 13.4585 21.2107ZM15.79 16.9406C15.79 18.2282 14.7462 19.2721 13.4585 19.2721C12.1709 19.2721 11.127 18.2282 11.127 16.9406C11.127 15.6529 12.1709 14.6091 13.4585 14.6091C14.7462 14.6091 15.79 15.6529 15.79 16.9406Z" fill="#fff" />
</svg>
