<svg width="16" height="16" viewBox="0 0 16 16" fill="none" xmlns="http://www.w3.org/2000/svg">
<path d="M5.75931 7.97453C5.74824 8.16735 5.81417 8.35667 5.94261 8.5009C6.07105 8.64513 6.25149 8.73248 6.44429 8.74375H6.48402C6.62602 8.74359 6.76486 8.70186 6.88341 8.62371C7.00197 8.54555 7.09504 8.4344 7.15115 8.30396C7.20726 8.17352 7.22395 8.0295 7.19915 7.88969C7.17436 7.74988 7.10917 7.62038 7.01163 7.51719C6.91409 7.414 6.78847 7.34162 6.65027 7.309C6.51208 7.27638 6.36735 7.28493 6.23396 7.33361C6.10057 7.38229 5.98435 7.46896 5.89965 7.58293C5.81495 7.69689 5.76547 7.83317 5.75732 7.97493L5.75931 7.97453Z" fill="#8C8CA1"/>
<path d="M3.04774 7.79041C3.00139 7.78781 2.95531 7.79902 2.91532 7.82261C2.87533 7.84619 2.84323 7.88111 2.82308 7.92293C2.80293 7.96476 2.79563 8.01162 2.8021 8.05759C2.80857 8.10357 2.82853 8.14659 2.85944 8.18123C2.89036 8.21586 2.93085 8.24055 2.9758 8.25219C3.02074 8.26382 3.06813 8.26186 3.11197 8.24657C3.1558 8.23128 3.19412 8.20333 3.22208 8.16627C3.25004 8.12921 3.26639 8.08468 3.26905 8.03833C3.27088 8.00751 3.26659 7.97662 3.25645 7.94746C3.2463 7.91829 3.23049 7.89141 3.20992 7.86838C3.18936 7.84534 3.16445 7.82659 3.13661 7.81321C3.10878 7.79983 3.07858 7.79208 3.04774 7.79041V7.79041Z" fill="#8C8CA1"/>
<path d="M5.71278 3.755C5.75407 3.7338 5.78816 3.70086 5.81076 3.66032C5.83337 3.61979 5.84347 3.57347 5.83981 3.52721C5.83615 3.48094 5.81889 3.43679 5.79019 3.40032C5.76149 3.36384 5.72264 3.33667 5.67854 3.32223C5.63443 3.30778 5.58704 3.30671 5.54232 3.31914C5.49761 3.33157 5.45757 3.35696 5.42725 3.39209C5.39693 3.42723 5.37768 3.47055 5.37193 3.51661C5.36618 3.56266 5.37418 3.60938 5.39492 3.6509C5.40887 3.67869 5.42818 3.70344 5.45173 3.72374C5.47529 3.74403 5.50263 3.75946 5.53218 3.76913C5.56172 3.77881 5.59289 3.78254 5.62389 3.78012C5.65489 3.77769 5.6851 3.76915 5.71278 3.755V3.755Z" fill="#8C8CA1"/>
<path d="M6.45054 5.0409C6.51465 5.00856 6.56774 4.95793 6.60309 4.89542C6.63844 4.83291 6.65446 4.76132 6.64913 4.68971C6.6438 4.61809 6.61735 4.54966 6.57314 4.49308C6.52892 4.43649 6.46892 4.39428 6.40072 4.37179C6.33252 4.3493 6.25919 4.34753 6.18998 4.36671C6.12078 4.38589 6.05881 4.42516 6.01192 4.47955C5.96503 4.53395 5.93532 4.60102 5.92655 4.67229C5.91777 4.74357 5.93033 4.81585 5.96263 4.87999C5.98408 4.9226 6.01373 4.96057 6.04987 4.99172C6.086 5.02288 6.12793 5.0466 6.17324 5.06155C6.21855 5.07649 6.26636 5.08236 6.31394 5.07882C6.36152 5.07527 6.40794 5.06239 6.45054 5.0409V5.0409Z" fill="#8C8CA1"/>
<path d="M3.96781 5.92562C4.01726 5.95815 4.07525 5.97527 4.13444 5.97482C4.19363 5.97438 4.25136 5.95638 4.30032 5.92312C4.34928 5.88986 4.38727 5.84282 4.40949 5.78796C4.43171 5.7331 4.43716 5.67288 4.42515 5.61492C4.41313 5.55696 4.3842 5.50387 4.342 5.46236C4.2998 5.42085 4.24624 5.39279 4.18809 5.38173C4.12994 5.37067 4.06982 5.37711 4.01533 5.40023C3.96084 5.42335 3.91444 5.46211 3.88198 5.51161C3.83852 5.57791 3.82315 5.65875 3.83924 5.73638C3.85533 5.814 3.90157 5.88207 3.96781 5.92562V5.92562Z" fill="#8C8CA1"/>
<path d="M4.40998 7.6578C4.33828 7.65376 4.267 7.67106 4.20514 7.70752C4.14327 7.74398 4.09361 7.79796 4.06241 7.86264C4.03122 7.92732 4.01991 7.9998 4.0299 8.07091C4.03989 8.14201 4.07074 8.20857 4.11855 8.26215C4.16635 8.31573 4.22897 8.35393 4.29849 8.37194C4.368 8.38994 4.44129 8.38692 4.5091 8.36328C4.5769 8.33963 4.63617 8.29642 4.67942 8.23909C4.72267 8.18177 4.74795 8.11291 4.75207 8.04122C4.7575 7.94502 4.72451 7.85061 4.66037 7.77872C4.59623 7.70683 4.50617 7.66334 4.40998 7.6578V7.6578Z" fill="#8C8CA1"/>
<path d="M4.00749 10.0991C3.95469 10.1257 3.91099 10.1675 3.88191 10.219C3.85282 10.2705 3.83967 10.3295 3.8441 10.3885C3.84854 10.4475 3.87036 10.5039 3.90682 10.5504C3.94328 10.597 3.99273 10.6318 4.04893 10.6503C4.10513 10.6688 4.16555 10.6702 4.22255 10.6543C4.27955 10.6385 4.33057 10.6061 4.36917 10.5613C4.40777 10.5164 4.43222 10.4612 4.43941 10.4025C4.4466 10.3437 4.43622 10.2842 4.40958 10.2314C4.39188 10.1963 4.36744 10.165 4.33765 10.1393C4.30786 10.1137 4.2733 10.0942 4.23596 10.0819C4.19862 10.0696 4.15922 10.0648 4.12002 10.0677C4.08082 10.0707 4.04258 10.0813 4.00749 10.0991V10.0991Z" fill="#8C8CA1"/>
<path d="M5.41941 6.90716C5.49013 6.9535 5.573 6.97784 5.65754 6.97709C5.74209 6.97634 5.82451 6.95053 5.8944 6.90294C5.96428 6.85535 6.01848 6.7881 6.05015 6.7097C6.08181 6.63131 6.08952 6.54528 6.0723 6.46251C6.05508 6.37973 6.0137 6.30392 5.95339 6.24466C5.89308 6.1854 5.81656 6.14535 5.7335 6.12957C5.65043 6.1138 5.56455 6.12301 5.48672 6.15605C5.40889 6.18908 5.3426 6.24445 5.29624 6.31515C5.26539 6.36209 5.24411 6.41465 5.23361 6.46983C5.22311 6.52501 5.22359 6.58171 5.23503 6.6367C5.24647 6.69169 5.26864 6.74389 5.30028 6.7903C5.33192 6.8367 5.3724 6.87642 5.41941 6.90716V6.90716Z" fill="#8C8CA1"/>
<path d="M9.89799 5.01228C9.9582 5.05156 10.0287 5.0721 10.1006 5.07131C10.1725 5.07053 10.2425 5.04845 10.3019 5.00786C10.3612 4.96728 10.4072 4.91001 10.434 4.84331C10.4608 4.7766 10.4672 4.70345 10.4524 4.63309C10.4376 4.56274 10.4023 4.49834 10.351 4.44804C10.2996 4.39774 10.2345 4.3638 10.1638 4.35051C10.0932 4.33721 10.0202 4.34516 9.95406 4.37335C9.88793 4.40154 9.83164 4.4487 9.79231 4.50888C9.76612 4.54885 9.74807 4.59359 9.73921 4.64055C9.73035 4.68751 9.73084 4.73575 9.74066 4.78252C9.75048 4.82928 9.76943 4.87365 9.79643 4.91308C9.82343 4.95251 9.85794 4.98622 9.89799 5.01228V5.01228Z" fill="#8C8CA1"/>
<path d="M10.6434 3.72978C10.6823 3.7553 10.7279 3.76869 10.7744 3.76827C10.821 3.76785 10.8663 3.75364 10.9048 3.72743C10.9432 3.70123 10.9731 3.66421 10.9905 3.62105C11.0079 3.57789 11.0121 3.53054 11.0026 3.48499C10.9931 3.43944 10.9703 3.39773 10.937 3.36515C10.9038 3.33256 10.8617 3.31056 10.8159 3.30193C10.7702 3.2933 10.723 3.29843 10.6801 3.31667C10.6373 3.3349 10.6009 3.36543 10.5754 3.40438C10.5413 3.45655 10.5293 3.52013 10.5421 3.58114C10.5548 3.64215 10.5912 3.69562 10.6434 3.72978V3.72978Z" fill="#8C8CA1"/>
<path d="M9.95506 7.28245C9.8597 7.27697 9.76421 7.29033 9.67401 7.32175C9.58382 7.35318 9.5007 7.40207 9.4294 7.46562C9.28541 7.59397 9.1983 7.77426 9.18723 7.96683C9.17617 8.15941 9.24206 8.34849 9.37041 8.49249C9.49875 8.63648 9.67904 8.72359 9.87162 8.73466C9.88553 8.73466 9.89983 8.73466 9.91374 8.73466C10.054 8.73459 10.1913 8.69394 10.309 8.61761C10.4267 8.54128 10.5198 8.43253 10.5771 8.30448C10.6344 8.17642 10.6534 8.03453 10.6319 7.89591C10.6103 7.75728 10.5491 7.62785 10.4557 7.52322C10.3924 7.45187 10.3155 7.39382 10.2296 7.35249C10.1436 7.31115 10.0503 7.28734 9.95506 7.28245V7.28245Z" fill="#8C8CA1"/>
<path d="M6.68934 6.85653C6.7497 6.97712 6.84253 7.07846 6.95737 7.14915C7.07221 7.21984 7.2045 7.25706 7.33936 7.25663C7.46368 7.25666 7.58594 7.22482 7.69447 7.16416C7.80299 7.1035 7.89416 7.01604 7.95927 6.91013C8.02438 6.80421 8.06126 6.68338 8.06639 6.55916C8.07152 6.43494 8.04473 6.31148 7.98858 6.20055C7.92779 6.08051 7.83479 5.97976 7.71999 5.90959C7.60519 5.83942 7.47311 5.80259 7.33856 5.80323C7.21462 5.80344 7.09278 5.83532 6.98461 5.89583C6.87644 5.95634 6.78553 6.04349 6.7205 6.149C6.65546 6.25452 6.61846 6.37489 6.61301 6.49872C6.60756 6.62254 6.63383 6.74571 6.68934 6.85653V6.85653Z" fill="#8C8CA1"/>
<path d="M12.391 5.92517C12.4438 5.89852 12.4875 5.85681 12.5167 5.80532C12.5458 5.75382 12.559 5.69486 12.5546 5.63586C12.5502 5.57687 12.5284 5.52051 12.492 5.47389C12.4556 5.42728 12.4062 5.3925 12.35 5.37396C12.2938 5.35542 12.2334 5.35395 12.1764 5.36973C12.1194 5.38552 12.0683 5.41784 12.0297 5.46263C11.991 5.50742 11.9665 5.56266 11.9593 5.62137C11.952 5.68007 11.9623 5.73961 11.9889 5.79246C12.0247 5.86335 12.0871 5.91714 12.1625 5.94202C12.2379 5.96691 12.3201 5.96084 12.391 5.92517V5.92517Z" fill="#8C8CA1"/>
<path d="M10.5472 6.15667C10.4717 6.1947 10.4092 6.25428 10.3675 6.32786C10.3258 6.40144 10.3069 6.48572 10.3132 6.57004C10.3194 6.65437 10.3505 6.73495 10.4026 6.80159C10.4546 6.86824 10.5252 6.91796 10.6055 6.94446C10.6858 6.97097 10.7722 6.97307 10.8536 6.9505C10.9351 6.92793 11.0081 6.8817 11.0633 6.81766C11.1185 6.75362 11.1535 6.67465 11.1638 6.59073C11.1742 6.50681 11.1594 6.42171 11.1214 6.34619C11.0961 6.29601 11.0613 6.2513 11.0188 6.21461C10.9763 6.17792 10.9269 6.14997 10.8736 6.13237C10.8203 6.11476 10.764 6.10785 10.708 6.11202C10.652 6.11619 10.5974 6.13136 10.5472 6.15667V6.15667Z" fill="#8C8CA1"/>
<path d="M8.17182 3.62034C8.23091 3.62371 8.28967 3.60947 8.34066 3.57944C8.39166 3.5494 8.4326 3.50492 8.45831 3.45161C8.48402 3.39831 8.49334 3.33857 8.4851 3.27997C8.47685 3.22136 8.45141 3.16652 8.41199 3.12237C8.37257 3.07823 8.32095 3.04677 8.26365 3.03197C8.20634 3.01717 8.14594 3.01969 8.09007 3.03923C8.03421 3.05877 7.98539 3.09443 7.9498 3.14172C7.91421 3.189 7.89344 3.24578 7.89012 3.30487C7.88567 3.38405 7.91285 3.46176 7.96567 3.52092C8.01849 3.58007 8.09264 3.61583 8.17182 3.62034Z" fill="#8C8CA1"/>
<path d="M8.1687 5.50329C8.2531 5.50802 8.33701 5.48763 8.40982 5.44469C8.48263 5.40174 8.54107 5.33818 8.57777 5.26203C8.61446 5.18588 8.62776 5.10056 8.61598 5.01686C8.6042 4.93315 8.56786 4.85482 8.51157 4.79175C8.45528 4.72869 8.38156 4.68373 8.29973 4.66256C8.21789 4.64138 8.13162 4.64494 8.05181 4.67279C7.97199 4.70063 7.90223 4.75151 7.85132 4.819C7.80042 4.88648 7.77066 4.96754 7.76582 5.05193C7.75942 5.16521 7.79826 5.27638 7.87381 5.36102C7.94936 5.44566 8.05543 5.49683 8.1687 5.50329V5.50329Z" fill="#8C8CA1"/>
<path d="M5.8524 9.86737C5.92791 9.8293 5.99043 9.76969 6.03206 9.69609C6.07369 9.62248 6.09256 9.53818 6.08628 9.45385C6.07999 9.36953 6.04884 9.28895 5.99676 9.22233C5.94468 9.15571 5.87402 9.10603 5.7937 9.07957C5.71338 9.05311 5.62702 9.05107 5.54554 9.07369C5.46406 9.09632 5.39113 9.14261 5.33595 9.20669C5.28078 9.27077 5.24585 9.34978 5.23558 9.43372C5.22532 9.51765 5.24017 9.60275 5.27827 9.67824C5.32935 9.77944 5.41852 9.85621 5.52618 9.89168C5.63384 9.92714 5.75119 9.9184 5.8524 9.86737V9.86737Z" fill="#8C8CA1"/>
<path d="M8.44511 6.12692C8.35644 6.26224 8.31543 6.42326 8.32858 6.5845C8.34172 6.74574 8.40826 6.898 8.51767 7.01717C8.62708 7.13634 8.7731 7.21562 8.93264 7.24246C9.09217 7.2693 9.2561 7.24217 9.39848 7.16536C9.54087 7.08855 9.65356 6.96645 9.71874 6.81838C9.78392 6.67032 9.79786 6.50474 9.75835 6.34786C9.71884 6.19098 9.62814 6.05176 9.5006 5.95223C9.37307 5.8527 9.21598 5.79855 9.0542 5.79834C8.93338 5.79826 8.81444 5.82825 8.70811 5.88561C8.60177 5.94298 8.51139 6.02591 8.44511 6.12692V6.12692Z" fill="#8C8CA1"/>
<path d="M9.70932 9.16777C9.65107 9.05225 9.56305 8.95437 9.45434 8.88422C9.34564 8.81408 9.22018 8.7742 9.09092 8.76872C8.96166 8.76324 8.83328 8.79234 8.71903 8.85303C8.60477 8.91372 8.50877 9.00379 8.44095 9.11396C8.37312 9.22413 8.33591 9.3504 8.33317 9.47975C8.33043 9.6091 8.36225 9.73683 8.42534 9.84978C8.48844 9.96272 8.58053 10.0568 8.69211 10.1223C8.8037 10.1877 8.93073 10.2223 9.0601 10.2223C9.17391 10.2215 9.28599 10.1943 9.38749 10.1428C9.55919 10.0559 9.68945 9.90449 9.74977 9.72175C9.81009 9.53901 9.79555 9.33981 9.70932 9.16777V9.16777Z" fill="#8C8CA1"/>
<path d="M10.98 9.11651C10.9093 9.07011 10.8265 9.04571 10.7419 9.0464C10.6574 9.04709 10.5749 9.07283 10.505 9.12038C10.4351 9.16793 10.3808 9.23514 10.3491 9.31352C10.3174 9.3919 10.3096 9.47792 10.3268 9.56072C10.3439 9.64351 10.3853 9.71935 10.4456 9.77865C10.5058 9.83795 10.5823 9.87805 10.6654 9.89387C10.7485 9.90969 10.8343 9.90053 10.9122 9.86754C10.9901 9.83454 11.0564 9.77921 11.1028 9.70852C11.1648 9.61368 11.1867 9.49812 11.1637 9.38716C11.1407 9.2762 11.0746 9.17888 10.98 9.11651V9.11651Z" fill="#8C8CA1"/>
<path d="M12.3722 8.02472C12.3763 7.95303 12.359 7.88175 12.3225 7.81988C12.286 7.75802 12.2321 7.70835 12.1674 7.67716C12.1027 7.64597 12.0302 7.63465 11.9591 7.64465C11.888 7.65464 11.8214 7.68549 11.7679 7.73329C11.7143 7.7811 11.6761 7.84372 11.6581 7.91323C11.6401 7.98275 11.6431 8.05604 11.6667 8.12384C11.6904 8.19165 11.7336 8.25092 11.7909 8.29417C11.8482 8.33742 11.9171 8.3627 11.9888 8.36682C12.085 8.37224 12.1794 8.33926 12.2513 8.27512C12.3232 8.21097 12.3667 8.12091 12.3722 8.02472V8.02472Z" fill="#8C8CA1"/>
<path d="M13.3781 7.76601C13.3317 7.76334 13.2855 7.7745 13.2454 7.79808C13.2053 7.82166 13.1731 7.8566 13.1528 7.89849C13.1326 7.94038 13.1252 7.98733 13.1317 8.0334C13.1381 8.07947 13.1581 8.1226 13.189 8.15733C13.22 8.19206 13.2605 8.21684 13.3055 8.22852C13.3506 8.2402 13.3981 8.23826 13.442 8.22296C13.4859 8.20765 13.5243 8.17966 13.5524 8.14253C13.5804 8.10539 13.5968 8.06078 13.5994 8.01434C13.6029 7.95209 13.5816 7.891 13.5401 7.84445C13.4986 7.79791 13.4404 7.7697 13.3781 7.76601V7.76601Z" fill="#8C8CA1"/>
<path d="M12.4309 10.0982C12.3814 10.0658 12.3234 10.0488 12.2642 10.0493C12.2051 10.0499 12.1474 10.0679 12.0985 10.1012C12.0496 10.1345 12.0117 10.1816 11.9895 10.2365C11.9674 10.2913 11.962 10.3515 11.974 10.4094C11.9861 10.4674 12.0151 10.5204 12.0572 10.5619C12.0994 10.6034 12.153 10.6314 12.2111 10.6424C12.2692 10.6535 12.3293 10.647 12.3838 10.6239C12.4383 10.6008 12.4846 10.5621 12.5171 10.5126C12.5387 10.4798 12.5535 10.443 12.5609 10.4043C12.5682 10.3657 12.5679 10.326 12.5599 10.2876C12.5519 10.2491 12.5363 10.2125 12.5142 10.1801C12.4921 10.1476 12.4638 10.1198 12.4309 10.0982V10.0982Z" fill="#8C8CA1"/>
<path d="M5.75586 12.2939C5.71697 12.2684 5.67138 12.255 5.62487 12.2554C5.57836 12.2558 5.533 12.2699 5.49454 12.2961C5.45607 12.3222 5.42623 12.3592 5.40878 12.4023C5.39133 12.4455 5.38706 12.4928 5.3965 12.5383C5.40594 12.5839 5.42868 12.6256 5.46183 12.6582C5.49498 12.6909 5.53707 12.7129 5.58276 12.7216C5.62845 12.7303 5.6757 12.7253 5.71854 12.7072C5.76137 12.689 5.79786 12.6586 5.8234 12.6197C5.84037 12.5939 5.85208 12.565 5.85787 12.5346C5.86365 12.5043 5.8634 12.4731 5.85713 12.4428C5.85086 12.4126 5.83869 12.3839 5.82131 12.3583C5.80393 12.3328 5.78169 12.3109 5.75586 12.2939V12.2939Z" fill="#8C8CA1"/>
<path d="M10.686 12.2694C10.6444 12.2904 10.61 12.3232 10.5871 12.3637C10.5642 12.4042 10.5538 12.4505 10.5573 12.4969C10.5607 12.5433 10.5779 12.5877 10.6065 12.6243C10.6352 12.661 10.674 12.6883 10.7182 12.7029C10.7624 12.7174 10.8099 12.7186 10.8548 12.7061C10.8996 12.6937 10.9397 12.6682 10.9701 12.633C11.0004 12.5977 11.0197 12.5543 11.0253 12.5081C11.031 12.4619 11.0228 12.4151 11.0019 12.3735C10.988 12.3459 10.9688 12.3213 10.9454 12.3012C10.922 12.281 10.8949 12.2656 10.8655 12.2559C10.8362 12.2463 10.8052 12.2425 10.7744 12.2448C10.7436 12.2471 10.7136 12.2555 10.686 12.2694Z" fill="#8C8CA1"/>
<path d="M7.95391 9.89612C8.04259 9.76079 8.0836 9.59975 8.07044 9.43849C8.05729 9.27723 7.99072 9.12497 7.88129 9.0058C7.77185 8.88663 7.62579 8.80737 7.46624 8.78056C7.30668 8.75375 7.14274 8.78092 7.00036 8.85778C6.85799 8.93464 6.74531 9.05678 6.68018 9.20489C6.61504 9.35299 6.60116 9.51859 6.64074 9.67547C6.68032 9.83235 6.77109 9.97154 6.89869 10.071C7.02629 10.1705 7.18342 10.2246 7.34521 10.2247C7.46604 10.2251 7.58505 10.1953 7.69137 10.1379C7.7977 10.0805 7.88796 9.99736 7.95391 9.89612Z" fill="#8C8CA1"/>
<path d="M6.50092 11.0119C6.44083 10.9726 6.37043 10.952 6.29863 10.9527C6.22682 10.9533 6.15683 10.9753 6.09751 11.0158C6.03818 11.0562 5.99218 11.1134 5.96532 11.18C5.93846 11.2466 5.93195 11.3196 5.94661 11.3899C5.96127 11.4602 5.99644 11.5246 6.04768 11.5749C6.09892 11.6252 6.16392 11.6592 6.23447 11.6726C6.30503 11.686 6.37796 11.6781 6.44406 11.6501C6.51015 11.622 6.56645 11.575 6.60582 11.5149C6.65855 11.4343 6.67713 11.336 6.65746 11.2417C6.63779 11.1474 6.58149 11.0647 6.50092 11.0119V11.0119Z" fill="#8C8CA1"/>
<path d="M8.19605 12.4038C8.13699 12.4004 8.07825 12.4147 8.02726 12.4447C7.97628 12.4747 7.93534 12.5192 7.90962 12.5725C7.88391 12.6257 7.87457 12.6855 7.88278 12.744C7.891 12.8026 7.9164 12.8575 7.95578 12.9016C7.99516 12.9458 8.04675 12.9773 8.10402 12.9921C8.16129 13.007 8.22168 13.0045 8.27755 12.985C8.33342 12.9655 8.38226 12.9299 8.41789 12.8827C8.45353 12.8355 8.47436 12.7787 8.47776 12.7197C8.48001 12.6804 8.47451 12.6411 8.46157 12.604C8.44864 12.5669 8.42851 12.5327 8.40235 12.5034C8.37619 12.474 8.34451 12.4501 8.30911 12.4331C8.27371 12.416 8.2353 12.406 8.19605 12.4038Z" fill="#8C8CA1"/>
<path d="M8.19955 10.5213C8.11507 10.5162 8.03098 10.5362 7.95791 10.5789C7.88484 10.6216 7.82609 10.685 7.7891 10.7611C7.75211 10.8373 7.73854 10.9226 7.75011 11.0065C7.76168 11.0903 7.79787 11.1688 7.8541 11.2321C7.91032 11.2953 7.98406 11.3405 8.06596 11.3618C8.14786 11.3831 8.23424 11.3796 8.31416 11.3518C8.39409 11.324 8.46396 11.273 8.51492 11.2055C8.56588 11.1379 8.59565 11.0567 8.60044 10.9723C8.60696 10.8593 8.56841 10.7484 8.49325 10.6639C8.41809 10.5793 8.31246 10.5281 8.19955 10.5213V10.5213Z" fill="#8C8CA1"/>
<path d="M9.94807 10.983C9.88392 11.0155 9.83086 11.0664 9.79562 11.1291C9.76039 11.1918 9.74455 11.2636 9.75011 11.3353C9.75568 11.407 9.7824 11.4755 9.82689 11.532C9.87139 11.5886 9.93165 11.6306 10.0001 11.6529C10.0685 11.6751 10.1419 11.6766 10.2112 11.6571C10.2804 11.6376 10.3423 11.598 10.389 11.5433C10.4358 11.4886 10.4652 11.4212 10.4736 11.3498C10.482 11.2783 10.4691 11.206 10.4364 11.1419C10.4148 11.0994 10.385 11.0615 10.3488 11.0305C10.3125 10.9995 10.2705 10.9759 10.2252 10.9612C10.1798 10.9464 10.132 10.9407 10.0845 10.9445C10.0369 10.9482 9.99056 10.9613 9.94807 10.983V10.983Z" fill="#8C8CA1"/>
</svg>
