<svg width="16" height="16" viewBox="0 0 16 16" fill="none" xmlns="http://www.w3.org/2000/svg">
<g clip-path="url(#clip0_149_671)">
<path d="M6.94737 11.9476C8.54611 11.9476 9.84211 10.6516 9.84211 9.05284C9.84211 7.4541 8.54611 6.1581 6.94737 6.1581C5.34863 6.1581 4.05263 7.4541 4.05263 9.05284C4.05263 10.6516 5.34863 11.9476 6.94737 11.9476ZM6.94737 13.0002C4.76737 13.0002 3 11.2328 3 9.05284C3 6.87284 4.76737 5.10547 6.94737 5.10547C9.12737 5.10547 10.8947 6.87284 10.8947 9.05284C10.8947 11.2328 9.12737 13.0002 6.94737 13.0002Z" fill="#8C8CA1"/>
<path d="M9.05284 9.84211C10.6516 9.84211 11.9476 8.54611 11.9476 6.94737C11.9476 5.34863 10.6516 4.05263 9.05284 4.05263C7.4541 4.05263 6.1581 5.34863 6.1581 6.94737C6.1581 8.54611 7.4541 9.84211 9.05284 9.84211ZM9.05284 10.8947C6.87284 10.8947 5.10547 9.12737 5.10547 6.94737C5.10547 4.76737 6.87284 3 9.05284 3C11.2328 3 13.0002 4.76737 13.0002 6.94737C13.0002 9.12737 11.2328 10.8947 9.05284 10.8947Z" fill="#8C8CA1"/>
<path d="M9.18326 10.8949C9.45695 10.5633 9.65313 10.1746 9.75747 9.75747C10.1746 9.65317 10.5633 9.45703 10.8949 9.18336C10.8798 9.66649 10.7758 10.1427 10.588 10.5881C10.1426 10.7758 9.66638 10.8799 9.18326 10.8949ZM6.24294 6.24294C5.82577 6.34724 5.43716 6.54338 5.10547 6.81705C5.12059 6.33392 5.22465 5.85772 5.41242 5.41231C5.85783 5.22458 6.33403 5.12056 6.81715 5.10547C6.54346 5.43715 6.34728 5.82577 6.24294 6.24294V6.24294Z" fill="#8C8CA1"/>
</g>
<defs>
<clipPath id="clip0_149_671">
<rect width="10" height="10" fill="white" transform="translate(3 3)"/>
</clipPath>
</defs>
</svg>
