<svg width="16" height="16" viewBox="0 0 16 16" fill="none" xmlns="http://www.w3.org/2000/svg">
<path fill-rule="evenodd" clip-rule="evenodd" d="M6.74268 8.01631C6.74268 4.86914 7.31304 2.31787 8.01643 2.31787C8.71983 2.31787 9.29019 4.86914 9.29019 8.01631C9.29019 11.1635 8.71983 13.7148 8.01643 13.7148C7.31304 13.7148 6.74268 11.1635 6.74268 8.01631ZM7.94354 13.4199C7.94354 13.4199 8.02398 13.5004 8.10441 13.3931C8.10441 13.3931 8.48226 13.0711 8.75203 11.5426C8.75203 11.5426 9.10251 9.53139 9.04886 7.73471C9.04886 7.73471 9.10251 5.66987 8.51015 3.47095C8.51015 3.47095 8.30955 2.76218 8.07037 2.59271C8.03056 2.56439 7.97615 2.56879 7.9414 2.60313C7.77657 2.76614 7.29217 3.5004 7.02589 6.60864C7.02589 6.60864 6.89102 10.5238 7.45763 12.3473C7.45763 12.3473 7.6196 13.0446 7.94354 13.4199Z" fill="#8C8CA1"/>
<path fill-rule="evenodd" clip-rule="evenodd" d="M7.38102 6.91143C10.1122 5.34533 12.6088 4.57035 12.959 5.1807C13.3089 5.79078 11.3824 7.55524 8.65124 9.12135C5.92007 10.6875 3.42322 11.4622 3.07327 10.8521C2.72332 10.242 4.64985 8.47754 7.38102 6.91143ZM3.29249 10.641C3.29249 10.641 3.2622 10.7512 3.39628 10.7681H3.39633C3.39633 10.7681 3.86347 10.9357 5.3236 10.4095C5.3236 10.4095 7.24252 9.71312 8.77428 8.77216C8.77428 8.77216 10.5921 7.79096 12.2036 6.18227C12.2036 6.18227 12.7198 5.65575 12.7466 5.36382C12.7517 5.31504 12.7209 5.26972 12.6736 5.25653C12.4508 5.19517 11.5723 5.13966 8.74399 6.45553C8.74399 6.45553 5.28064 8.28683 3.98035 9.6858C3.98035 9.6858 3.45696 10.1733 3.29249 10.641Z" fill="#8C8CA1"/>
<path fill-rule="evenodd" clip-rule="evenodd" d="M8.65613 6.91307C11.3777 8.49096 13.2994 10.2635 12.9465 10.8722C12.5939 11.4821 10.1007 10.6974 7.37757 9.11955C4.65443 7.54166 2.73306 5.77016 3.08567 5.16039C3.43828 4.55062 5.93455 5.33518 8.65613 6.91307ZM3.3778 5.24231C3.3778 5.24231 3.26775 5.27207 3.31988 5.39567L3.32024 5.39703C3.32024 5.39703 3.40949 5.88482 4.59744 6.88504C4.59744 6.88504 6.16084 8.19717 7.74191 9.04992C7.74191 9.04992 9.50157 10.1308 11.7018 10.7208C11.7018 10.7208 12.4157 10.9026 12.6823 10.7806C12.7268 10.7604 12.7504 10.711 12.738 10.6637C12.6793 10.44 12.2873 9.65219 9.73116 7.86353C9.73116 7.86353 6.41122 5.78394 4.54938 5.35996C4.54938 5.35996 3.86501 5.1503 3.3778 5.24231Z" fill="#8C8CA1"/>
<circle cx="8.00292" cy="8.00292" r="0.670399" fill="#8C8CA1"/>
<ellipse cx="10.7516" cy="5.42861" rx="0.388842" ry="0.402239" fill="#8C8CA1"/>
<ellipse cx="4.36931" cy="6.79628" rx="0.388842" ry="0.402239" fill="#8C8CA1"/>
<ellipse cx="7.2116" cy="11.7309" rx="0.388842" ry="0.402239" fill="#8C8CA1"/>
</svg>
