<svg width="16" height="16" viewBox="0 0 16 16" fill="none" xmlns="http://www.w3.org/2000/svg">
<path d="M3.2 10.9851V5.14903L8.25548 2.23093L13.311 5.14903V10.9851L8.25548 13.9032L3.2 10.9851Z" stroke="#8C8CA1" stroke-width="0.4"/>
<path d="M10.3043 4.62109H6.17972L5.70074 6.72329H10.8099L10.3043 4.62109ZM6.91149 9.61047V8.21345L5.68743 7.44176L4.30371 8.46624L6.19302 11.7526H6.95141L7.84284 10.9144V10.5019L6.91149 9.61047Z" fill="#8C8CA1"/>
<path d="M9.58581 7.04248H6.9248L7.36387 8.21332L7.23082 9.53052H9.27979L9.14674 8.21332L9.58581 7.04248Z" fill="#8C8CA1"/>
<path d="M10.81 7.42822L9.5992 8.21322V9.61025L8.68115 10.5017V10.9141L9.57259 11.739H10.3177L12.1937 8.46601L10.81 7.42822Z" fill="#8C8CA1"/>
</svg>
