<svg width="16" height="16" viewBox="0 0 16 16" fill="none" xmlns="http://www.w3.org/2000/svg">
<path fill-rule="evenodd" clip-rule="evenodd" d="M6.624 7.305H8.781V8.448H6.624V10.857H7.9845C8.523 10.857 8.9635 10.7845 9.3065 10.6385C9.6495 10.493 9.9185 10.2915 10.114 10.0335C10.309 9.776 10.442 9.4735 10.512 9.126C10.582 8.7785 10.617 8.4035 10.617 8C10.617 7.5965 10.582 7.2215 10.512 6.874C10.4501 6.54515 10.314 6.23476 10.114 5.9665C9.9185 5.7085 9.649 5.507 9.3065 5.3615C8.9635 5.2155 8.523 5.143 7.9845 5.143H6.624V7.3055V7.305ZM5.241 8.448H4.5V7.3055H5.241V4H8.5155C9.1205 4 9.644 4.105 10.0865 4.3135C10.529 4.523 10.89 4.8085 11.1705 5.171C11.4505 5.533 11.659 5.957 11.7955 6.4425C11.932 6.928 12 7.4475 12 8C12.0034 8.52611 11.9345 9.05019 11.795 9.5575C11.659 10.0425 11.4505 10.467 11.17 10.829C10.89 11.1915 10.529 11.477 10.0865 11.6865C9.644 11.8955 9.12 12 8.5155 12H5.241V8.448Z" fill="#8C8CA1"/>
</svg>
