<svg width="16" height="16" viewBox="0 0 16 16" fill="none" xmlns="http://www.w3.org/2000/svg">
<rect x="0.5" y="0.5" width="15" height="15" rx="7.5" fill="#303040"/>
<path d="M8.06953 3L8.00244 3.22789V9.84009L8.06953 9.90703L11.1388 8.09277L8.06953 3Z" fill="#E2E2E8"/>
<path d="M8.06933 3L5 8.09277L8.06933 9.90703V6.69765V3Z" fill="#E2E2E8"/>
<path d="M8.06955 10.4881L8.03174 10.5342V12.8896L8.06955 13L11.1407 8.6748L8.06955 10.4881Z" fill="#E2E2E8"/>
<path d="M8.06933 13V10.4881L5 8.6748L8.06933 13Z" fill="#E2E2E8"/>
<path d="M8.06934 9.90714L11.1386 8.09288L8.06934 6.69775V9.90714Z" fill="#E2E2E8"/>
<path d="M5 8.09288L8.06933 9.90714V6.69775L5 8.09288Z" fill="#E2E2E8"/>
<rect x="0.5" y="0.5" width="15" height="15" rx="7.5" stroke="#1E1E2A"/>
</svg>
