<svg width="16" height="16" viewBox="0 0 16 16" fill="none" xmlns="http://www.w3.org/2000/svg">
<rect x="0.5" y="0.5" width="15" height="15" rx="7.5" fill="#303040"/>
<g clip-path="url(#clip0_1208_1351)">
<path d="M4 8.04741L8 1.38623V6.36492L4 8.04741Z" fill="#E2E2E8"/>
<path d="M12 8.04741L8 1.38623V6.36492L12 8.04741Z" fill="#E2E2E8"/>
<path d="M8 6.34912L4 8.0369L8 10.3702V6.34912Z" fill="#E2E2E8"/>
<path d="M8 6.34912L12 8.0369L8 10.3702V6.34912Z" fill="#E2E2E8"/>
<path d="M4 8.81494L8 14.6137V11.1535L4 8.81494Z" fill="#E2E2E8"/>
<path d="M12 8.81494L8 14.6137V11.1535L12 8.81494Z" fill="#E2E2E8"/>
<path fill-rule="evenodd" clip-rule="evenodd" d="M6.34936 5.09019C6.34936 5.34787 6.15128 5.55929 5.89908 5.58049L6.05885 8.50295L6.06384 8.50293C6.16489 8.50293 6.25882 8.53339 6.33696 8.58562L7.69325 6.75635C7.58331 6.66611 7.51318 6.52916 7.51318 6.37584C7.51318 6.10409 7.73349 5.88379 8.00525 5.88379C8.27701 5.88379 8.49731 6.10409 8.49731 6.37584C8.49731 6.55052 8.40628 6.70395 8.26906 6.79126L9.58796 8.5701C9.66085 8.52741 9.74572 8.50293 9.8363 8.50293L9.8407 8.50295L10.0006 5.5775C9.76133 5.54413 9.57715 5.33867 9.57715 5.09019C9.57715 4.81844 9.79745 4.59814 10.0692 4.59814C10.341 4.59814 10.5613 4.81844 10.5613 5.09019C10.5613 5.36194 10.341 5.58224 10.0692 5.58224C10.0621 5.58224 10.0551 5.58209 10.0481 5.5818L9.88824 8.50564C10.1356 8.53159 10.3284 8.74077 10.3284 8.99498C10.3284 9.26673 10.1081 9.48703 9.8363 9.48703C9.56454 9.48703 9.34424 9.26673 9.34424 8.99498C9.34424 8.8309 9.42455 8.68558 9.54801 8.59618L8.22739 6.81501C8.16066 6.84883 8.08518 6.86789 8.00525 6.86789C7.90392 6.86789 7.80974 6.83726 7.73147 6.78476L6.37523 8.61397C6.48551 8.7042 6.5559 8.84137 6.5559 8.99498C6.5559 9.26673 6.3356 9.48703 6.06384 9.48703C5.79208 9.48703 5.57178 9.26673 5.57178 8.99498C5.57178 8.74097 5.76425 8.53192 6.01131 8.5057L5.85149 5.58221C5.58241 5.5791 5.36523 5.36001 5.36523 5.09019C5.36523 4.81844 5.58554 4.59814 5.8573 4.59814C6.12906 4.59814 6.34936 4.81844 6.34936 5.09019Z" fill="#8C8CA1"/>
</g>
<rect x="0.5" y="0.5" width="15" height="15" rx="7.5" stroke="#1E1E2A"/>
<defs>
<clipPath id="clip0_1208_1351">
<rect width="8" height="13.2271" fill="white" transform="translate(4 1.38623)"/>
</clipPath>
</defs>
</svg>
