<svg width="24" height="24" viewBox="0 0 24 24" fill="none" xmlns="http://www.w3.org/2000/svg">
<path d="M4 8V6C4 5.46957 4.21071 4.96086 4.58579 4.58579C4.96086 4.21071 5.46957 4 6 4H8" stroke="#8C8CA1" stroke-width="2" stroke-linecap="round" stroke-linejoin="round"/>
<path d="M4 16V18C4 18.5304 4.21071 19.0391 4.58579 19.4142C4.96086 19.7893 5.46957 20 6 20H8" stroke="#8C8CA1" stroke-width="2" stroke-linecap="round" stroke-linejoin="round"/>
<path d="M16 4H18C18.5304 4 19.0391 4.21071 19.4142 4.58579C19.7893 4.96086 20 5.46957 20 6V8" stroke="#8C8CA1" stroke-width="2" stroke-linecap="round" stroke-linejoin="round"/>
<path d="M16 20H18C18.5304 20 19.0391 19.7893 19.4142 19.4142C19.7893 19.0391 20 18.5304 20 18V16" stroke="#8C8CA1" stroke-width="2" stroke-linecap="round" stroke-linejoin="round"/>
<path d="M15.5 9L15.5 10" stroke="#8C8CA1" stroke-width="2" stroke-linecap="round" stroke-linejoin="round"/>
<path d="M8.5 9L8.5 10" stroke="#8C8CA1" stroke-width="2" stroke-linecap="round" stroke-linejoin="round"/>
<path d="M9.00049 15.125C9.00049 15.125 10.0005 16 12.0005 16C14.0005 16 15.0005 15.125 15.0005 15.125" stroke="#8C8CA1" stroke-width="2" stroke-linecap="round" stroke-linejoin="round"/>
<path d="M12.0005 9V12C12.0005 12.2761 11.7766 12.5 11.5005 12.5H11.0005" stroke="#8C8CA1" stroke-width="2" stroke-linecap="round" stroke-linejoin="round"/>
</svg>
