<svg width="16" height="16" viewBox="0 0 16 16" fill="none" xmlns="http://www.w3.org/2000/svg">
<path fill-rule="evenodd" clip-rule="evenodd" d="M7.45679 3.09653C7.70898 2.96782 8.09272 2.96782 8.34491 3.09653L10.9183 4.40985C11.0702 4.48736 11.1536 4.60287 11.1685 4.7221H11.171V11.3235C11.1677 11.4536 11.0834 11.5828 10.9183 11.6671L8.34491 12.9804C8.09272 13.1091 7.70898 13.1091 7.45679 12.9804L4.88341 11.6671C4.71895 11.5832 4.64002 11.453 4.63612 11.3235C4.63573 11.3108 4.63568 11.3001 4.63605 11.2913L4.63604 4.76451C4.63578 4.75736 4.63575 4.75022 4.63596 4.74311L4.63612 4.7221L4.63727 4.7221C4.6487 4.60155 4.72833 4.489 4.88341 4.40985L7.45679 3.09653ZM10.7659 8.405L8.3449 9.64054C8.09271 9.76925 7.70898 9.76925 7.45679 9.64054L5.04111 8.40776V11.3105L7.45679 12.5368C7.59319 12.6072 7.73477 12.6759 7.87321 12.6846L7.90085 12.6855C8.03638 12.6859 8.1682 12.6235 8.30143 12.5604L8.32717 12.5482L10.7659 11.2999V8.405ZM4.30838 11.7163C4.24798 11.5991 4.21755 11.4329 4.21755 11.18H3.8125L3.81254 11.1976C3.81542 11.7752 3.96121 12.0528 4.35213 12.3074C4.3887 12.3313 4.42791 12.3555 4.47521 12.3837L4.50271 12.4L4.66631 12.4955L4.87595 12.1606L4.72978 12.0754L4.68218 12.0472C4.64182 12.0231 4.60866 12.0025 4.57856 11.9829L4.57073 11.9778C4.43356 11.8875 4.35845 11.8134 4.30838 11.7163ZM7.69826 6.63563C7.67953 6.64185 7.66197 6.64903 7.64596 6.65721L5.07258 7.97053L5.06485 7.97461L5.06267 7.97584L5.06671 7.97807L5.07258 7.98115L7.64596 9.29447C7.66197 9.30264 7.67953 9.30982 7.69826 9.31604V6.63563ZM8.10344 9.31604V6.63563C8.12217 6.64185 8.13973 6.64903 8.15574 6.65721L10.7291 7.97053L10.735 7.9736L10.739 7.97584L10.7368 7.97706L10.7291 7.98115L8.15574 9.29447C8.13973 9.30264 8.12217 9.30982 8.10344 9.31604ZM10.7659 5.19039L8.45741 6.36853L10.7659 7.54666V5.19039ZM7.34423 6.36852L5.04111 7.54389V5.19314L7.34423 6.36852ZM8.15573 3.4426C8.02191 3.37431 7.77979 3.37431 7.64596 3.4426L5.07258 4.75593L5.06485 4.76001L5.06267 4.76123L5.06671 4.76347L5.07258 4.76655L7.64596 6.07987C7.77979 6.14816 8.02191 6.14816 8.15573 6.07987L10.7291 4.76655L10.7368 4.76245L10.739 4.76123L10.735 4.759L10.7291 4.75593L8.15573 3.4426ZM11.3098 3.68211L11.1462 3.58664L10.9365 3.92152L11.0827 4.00675L11.1303 4.03492C11.1707 4.05907 11.2038 4.07961 11.2339 4.09922L11.2418 4.10434C11.3789 4.19461 11.4541 4.26879 11.5041 4.36586C11.5645 4.48298 11.5949 4.64922 11.5949 4.90215H12L11.9999 4.88455C11.9971 4.30699 11.8513 4.02935 11.4604 3.77469C11.4238 3.75087 11.3846 3.72663 11.3373 3.69842L11.3098 3.68211Z" fill="#8C8CA1"/>
</svg>
