<svg width="16" height="16" viewBox="0 0 16 16" fill="none" xmlns="http://www.w3.org/2000/svg">
<path d="M6.4456 3.99805H7.39896V4.99287H6.4456V3.99805ZM4.04145 3.99805H5.03627V4.99287H4.04145V3.99805ZM4.99482 6.40221V7.39704H4V6.40221H4.99482ZM4.74611 11.8738H4.33161V11.5007H4.70466V11.8738H4.74611ZM5.03627 9.88411H4.04145V8.93073H5.03627V9.88411ZM7.15026 11.8738H6.7772V11.5007H7.15026V11.8738ZM7.15026 9.5525H6.7772V9.17944H7.15026V9.5525ZM7.44041 7.43849H6.4456V6.44366H7.44041V7.43849ZM9.5544 11.8738H9.18135V11.5007H9.5544V11.8738ZM9.5544 9.5525H9.18135V9.17944H9.5544V9.5525ZM9.5544 7.10688H9.18135V6.73382H9.5544V7.10688ZM9.88601 4.99287H8.89119V3.99805H9.88601V4.99287ZM12 11.8738H11.6269V11.5007H12V11.8738ZM12 9.5525H11.6269V9.17944H12V9.5525ZM12 7.10688H11.6269V6.73382H12V7.10688ZM12 4.70272H11.6269V4.32966H12V4.70272Z" fill="#8C8CA1"/>
</svg>
