<svg width="16" height="16" viewBox="0 0 16 16" fill="none" xmlns="http://www.w3.org/2000/svg">
<path fill-rule="evenodd" clip-rule="evenodd" d="M8.69398 7.06183L8.45604 8.34349L10.7165 8.66391L10.5579 9.26469L8.33706 8.94427C8.17843 9.46495 8.09911 10.0257 7.90082 10.5063C7.70253 11.067 7.50424 11.6278 7.26629 12.1484C6.94903 12.8293 6.39381 13.3099 5.64031 13.4301C5.20407 13.5102 4.72817 13.4701 4.37125 13.1898C4.25228 13.1097 4.1333 12.9495 4.1333 12.8293C4.1333 12.6691 4.21262 12.4688 4.33159 12.3887C4.41091 12.3487 4.6092 12.3887 4.72817 12.4288C4.84715 12.5489 4.96612 12.7092 5.04544 12.8694C5.28339 13.1898 5.60065 13.2298 5.91792 12.9895C6.27484 12.6691 6.47313 12.2285 6.5921 11.788C6.83005 10.8267 7.068 9.90552 7.26629 8.94427V8.78406L5.16441 8.46365L5.24373 7.86287L7.42492 8.18328L7.70253 6.94167L5.44202 6.5812L5.52133 5.94037L7.86116 6.26079C7.94048 6.02048 7.98014 5.82022 8.05945 5.61996C8.25774 4.89902 8.45604 4.17808 8.93193 3.53725C9.40783 2.89642 9.96304 2.4959 10.7959 2.53595C11.1528 2.53595 11.5097 2.65611 11.7477 2.93647C11.7873 2.97652 11.8666 3.05663 11.8666 3.13673C11.8666 3.29694 11.8666 3.4972 11.7477 3.61736C11.589 3.73751 11.3907 3.69746 11.2321 3.53725C11.1131 3.4171 11.0338 3.29694 10.9148 3.17678C10.6769 2.85637 10.32 2.81632 10.0424 3.09668C9.84407 3.29694 9.64578 3.5773 9.5268 3.85767C9.2492 4.69876 9.05091 5.5799 8.7733 6.46105L10.9545 6.78146L10.7959 7.38224L8.69398 7.06183" fill="#8C8CA1"/>
</svg>
