<svg width="16" height="16" viewBox="0 0 16 16" fill="none" xmlns="http://www.w3.org/2000/svg">
<path d="M2.00016 12.6667V2.66667C2.00016 2.48986 2.0704 2.32029 2.19542 2.19526C2.32045 2.07024 2.49002 2 2.66683 2H8.66683C8.84364 2 9.01321 2.07024 9.13823 2.19526C9.26326 2.32029 9.3335 2.48986 9.3335 2.66667V8H10.6668C11.0205 8 11.3596 8.14048 11.6096 8.39052C11.8597 8.64057 12.0002 8.97971 12.0002 9.33333V12C12.0002 12.1768 12.0704 12.3464 12.1954 12.4714C12.3204 12.5964 12.49 12.6667 12.6668 12.6667C12.8436 12.6667 13.0132 12.5964 13.1382 12.4714C13.2633 12.3464 13.3335 12.1768 13.3335 12V7.33333H12.0002C11.8234 7.33333 11.6538 7.2631 11.5288 7.13807C11.4037 7.01305 11.3335 6.84348 11.3335 6.66667V4.276L10.2288 3.17133L11.1715 2.22867L14.4715 5.52867C14.5335 5.59049 14.5827 5.66396 14.6162 5.74484C14.6497 5.82573 14.6669 5.91244 14.6668 6V12C14.6668 12.5304 14.4561 13.0391 14.081 13.4142C13.706 13.7893 13.1973 14 12.6668 14C12.1364 14 11.6277 13.7893 11.2526 13.4142C10.8775 13.0391 10.6668 12.5304 10.6668 12V9.33333H9.3335V12.6667H10.0002V14H1.3335V12.6667H2.00016ZM3.3335 3.33333V7.33333H8.00016V3.33333H3.3335Z" fill="currentColor"/>
</svg>
