<svg width="16" height="16" viewBox="0 0 16 16" fill="none" xmlns="http://www.w3.org/2000/svg">
<rect x="0.5" y="0.5" width="15" height="15" rx="7.5" fill="#303040"/>
<path d="M5.32735 8.89817C5.71554 8.89817 6.07388 8.76882 6.36255 8.54494L3.99353 6.17676C3.76956 6.46035 3.64016 6.81856 3.64016 7.2116C3.63519 8.14194 4.39169 8.89817 5.32735 8.89817Z" fill="#E2E2E8"/>
<path d="M12.3747 7.20669C12.3747 6.81865 12.2453 6.46044 12.0214 6.17188L9.65234 8.54003C9.93605 8.76391 10.2944 8.89326 10.6875 8.89326C11.6182 8.89823 12.3747 8.14203 12.3747 7.20669Z" fill="#E2E2E8"/>
<path d="M13.5691 4.63428L12.519 5.68404C12.8674 6.10193 13.0764 6.6293 13.0764 7.21639C13.0764 8.53477 12.0064 9.60444 10.6875 9.60444C10.1052 9.60444 9.57262 9.39548 9.15456 9.04722L8.00488 10.1965L6.8552 9.04722C6.43715 9.39548 5.90958 9.60444 5.32231 9.60444C4.0034 9.60444 2.93336 8.53477 2.93336 7.21639C2.93336 6.63428 3.1424 6.10193 3.49079 5.68404L2.95328 5.14673L2.44064 4.63428C1.84342 5.61936 1.5 6.76863 1.5 8.00246C1.5 11.5945 4.41151 14.5 7.99991 14.5C11.5883 14.5 14.4998 11.5895 14.4998 8.00246C14.5098 6.76365 14.1663 5.61438 13.5691 4.63428Z" fill="#E2E2E8"/>
<path d="M12.7081 3.51492C11.5285 2.27612 9.85627 1.5 8.00486 1.5C6.15342 1.5 4.48615 2.27612 3.30162 3.51492C3.14238 3.68409 2.9881 3.8632 2.84375 4.04726L7.99988 9.20148L13.156 4.04229C13.0266 3.86317 12.8723 3.67911 12.7081 3.51492ZM8.00486 2.34577C9.5278 2.34577 10.9413 2.93284 12.0013 4.0025L8.00486 7.99753L4.00835 4.0025C5.07343 2.93284 6.48191 2.34577 8.00486 2.34577Z" fill="#E2E2E8"/>
<rect x="0.5" y="0.5" width="15" height="15" rx="7.5" stroke="#1E1E2A"/>
</svg>
