<svg width="122" height="148" viewBox="0 0 122 148" fill="none" xmlns="http://www.w3.org/2000/svg">
  <path
    d="M0 2.65037C6.14938 -1.37392 12.2988 -0.103094 17.812 1.80315C25.4458 4.55662 32.8674 8.1573 39.6529 12.3934C70.3998 32.7267 88.8479 61.744 96.4816 97.539C98.39 106.647 99.0262 116.178 100.299 126.556C108.78 121.685 113.233 112.154 121.715 106.647C122.776 110.883 120.655 113.636 118.959 115.966C111.961 125.497 104.752 135.028 97.3299 144.348C93.7251 148.796 90.9684 149.219 87.1515 145.407C79.0937 137.57 74.2167 128.039 72.7323 117.025C72.7323 116.601 73.3684 115.966 74.2166 114.907C83.3347 117.237 81.2142 128.886 89.06 133.122C92.4527 118.508 89.9082 104.529 86.0913 90.973C82.0624 76.7821 76.7612 63.2266 68.2793 51.1537C60.0095 39.2926 49.6191 29.7614 38.1686 20.8656C26.93 11.758 14.2072 6.03925 0 2.65037Z"
    fill="currentColor" />
</svg>