<svg width="16" height="16" viewBox="0 0 16 16" fill="none" xmlns="http://www.w3.org/2000/svg">
<path fill-rule="evenodd" clip-rule="evenodd" d="M11.9338 12.3248C11.9703 12.3248 11.9999 12.2953 11.9999 12.2588L11.9999 8.82573C11.5215 9.6878 10.7504 10.365 9.82084 10.7231V11.9286C9.82084 12.1474 9.99822 12.3248 10.217 12.3248H11.9338ZM9.82084 6.77825C9.82084 7.617 9.14089 8.29695 8.30213 8.29695H7.83992C7.25644 8.29695 6.78343 8.76996 6.78343 9.35344V10.4099C6.78343 10.4464 6.81299 10.476 6.84946 10.476H8.30213C10.3443 10.476 11.9999 8.82044 11.9999 6.77825V4.07099C11.9999 3.85218 11.8225 3.6748 11.6037 3.6748L9.82084 3.6748L9.82084 6.77825ZM4.1422 3.67481C4.10573 3.67481 4.07617 3.70437 4.07617 3.74084V7.1739C4.55454 6.31182 5.32562 5.63462 6.25518 5.27652V4.07099C6.25518 3.85218 6.07781 3.67481 5.859 3.67481H4.1422ZM6.25518 9.22138C6.25518 8.38262 6.93513 7.70268 7.77389 7.70268H8.2361C8.81959 7.70268 9.29259 7.22967 9.29259 6.64619V5.58969C9.29259 5.55323 9.26303 5.52366 9.22656 5.52366H7.77389C5.7317 5.52366 4.07617 7.17919 4.07617 9.22138V11.9286C4.07617 12.1474 4.25355 12.3248 4.47236 12.3248H6.25518V9.22138Z" fill="#8C8CA1"/>
</svg>
