<svg width="20" height="18" viewBox="0 0 20 18" fill="none" xmlns="http://www.w3.org/2000/svg">
<path d="M17.4997 12.4993H19.9997V13.7492C19.9997 14.7438 19.6047 15.6976 18.9013 16.4009C18.198 17.104 17.2442 17.4991 16.2499 17.4991H3.74988C2.75552 17.4991 1.80171 17.104 1.09839 16.4009C0.395077 15.6976 0 14.7438 0 13.7492H5.62482C5.95629 13.7492 6.27414 13.6174 6.50851 13.383L8.12482 11.7667L9.74112 13.383C9.97528 13.6176 10.2934 13.7492 10.6248 13.7492C10.9562 13.7492 11.2741 13.6176 11.5085 13.383L14.4674 10.4242L16.719 12.2252C16.9404 12.4027 17.2157 12.4994 17.4995 12.4994L17.4997 12.4993ZM19.9997 3.74979V9.99977L17.9379 9.99956L15.1555 7.77368C14.9155 7.58117 14.6129 7.48428 14.3057 7.50123C13.9985 7.51818 13.7085 7.64813 13.4913 7.86597L10.6251 10.7322L9.00877 9.11586C8.77441 8.88149 8.45652 8.74966 8.12509 8.74966C7.79365 8.74966 7.47555 8.88149 7.24119 9.11586L5.10761 11.2496H0.000267293V3.74988C0.000267293 2.75531 0.395345 1.8015 1.09866 1.09818C1.80198 0.395077 2.75579 0 3.75015 0H16.2501C17.2445 0 18.1983 0.395077 18.9016 1.09818C19.6049 1.8015 20 2.75531 20 3.74988L19.9997 3.74979ZM7.49977 5.62473C7.49977 5.12732 7.30223 4.6504 6.95068 4.29888C6.59912 3.94735 6.12222 3.74979 5.62482 3.74979C5.12763 3.74979 4.65071 3.94733 4.29919 4.29888C3.94743 4.65043 3.74988 5.12733 3.74988 5.62473C3.74988 6.12192 3.94742 6.59884 4.29919 6.95036C4.65074 7.30213 5.12764 7.49967 5.62482 7.49967C6.12223 7.49967 6.59915 7.30213 6.95068 6.95036C7.30223 6.59881 7.49977 6.12191 7.49977 5.62473V5.62473Z" fill="#8C8CA1"/>
</svg>
