<svg width="16" height="16" viewBox="0 0 16 16" fill="none" xmlns="http://www.w3.org/2000/svg">
<g clip-path="url(#clip0_1210_1640)">
<path fill-rule="evenodd" clip-rule="evenodd" d="M12.7889 7.99064C12.7889 10.6407 10.6406 12.7889 7.99064 12.7889C5.34063 12.7889 3.19238 10.6407 3.19238 7.99064C3.19238 5.34063 5.34063 3.19238 7.99064 3.19238C10.6406 3.19238 12.7889 5.34063 12.7889 7.99064Z" stroke="#8C8CA1" stroke-width="0.384615"/>
<path fill-rule="evenodd" clip-rule="evenodd" d="M9.97645 6.79184L8.70741 6.73929L9.56926 5.80588L9.22249 5.45911L8.28803 6.31924L8.23739 5.0498H7.74692L7.6944 6.31881L6.76103 5.45696L6.41419 5.80377L7.27436 6.73823L6.00488 6.78886V7.2793L7.27392 7.33186L6.41207 8.26526L6.75888 8.61211L7.67897 7.76511L7.71901 9.82094L6.98503 9.87463V10.3314L7.73007 10.388L7.74397 11.102H8.23441L8.24882 10.389L9.00166 10.3319V9.87514L8.26033 9.8209L8.30186 7.76609L9.22034 8.61418L9.56722 8.26737L8.70701 7.33291L9.97645 7.28228V6.79184Z" fill="#8C8CA1"/>
</g>
<defs>
<clipPath id="clip0_1210_1640">
<rect width="10" height="10" fill="white" transform="translate(3 3)"/>
</clipPath>
</defs>
</svg>
