<svg width="16" height="16" viewBox="0 0 16 16" fill="none" xmlns="http://www.w3.org/2000/svg">
<path d="M12.454 4.89161C12.3027 4.77234 12.1223 4.60943 11.7936 4.5687C11.4852 4.52797 11.1711 4.73452 10.9587 4.87125C10.7463 5.00797 10.3449 5.40943 10.1791 5.53161C10.0132 5.65379 9.58852 5.76725 8.90488 6.17743C8.22125 6.58761 5.53907 8.30979 5.53907 8.30979L6.23725 8.31852L3.12452 9.92143H3.43579L2.98779 10.2618C2.98779 10.2618 3.38343 10.3665 3.71507 10.1571V10.2531C3.71507 10.2531 7.42125 8.7927 8.13688 9.17088L7.70052 9.29888C7.73834 9.29888 8.44234 9.34543 8.44234 9.34543C8.45943 9.49121 8.50843 9.63144 8.58586 9.75613C8.66329 9.88082 8.76725 9.98692 8.89034 10.0669C9.31507 10.3462 9.32379 10.5003 9.32379 10.5003C9.32379 10.5003 9.1027 10.5905 9.1027 10.704C9.1027 10.704 9.42852 10.6051 9.73107 10.6138C9.92308 10.6211 10.1135 10.6514 10.2983 10.704C10.2983 10.704 10.2751 10.5818 9.98125 10.5003C9.68743 10.4189 9.39652 10.0989 9.25397 9.92434C9.16666 9.81323 9.10976 9.68133 9.08884 9.54158C9.06793 9.40183 9.08374 9.25904 9.1347 9.12725C9.23652 8.86252 9.59143 8.71706 10.3245 8.33888C11.1885 7.89088 11.3863 7.55925 11.5085 7.30034C11.6307 7.04143 11.8111 6.52652 11.9129 6.28506C12.0409 5.97379 12.198 5.80797 12.3289 5.70906C12.4598 5.61015 13.0416 5.39197 13.0416 5.39197C13.0416 5.39197 12.5965 5.00506 12.454 4.89161Z" fill="#8C8CA1"/>
</svg>
