<svg viewBox="0 0 32 32" fill="none" xmlns="http://www.w3.org/2000/svg">
<path fill-rule="evenodd" clip-rule="evenodd" d="M16 0C7.16344 0 0 7.16344 0 16C0 24.8366 7.16344 32 16 32C24.8366 32 32 24.8366 32 16C32 7.16344 24.8366 0 16 0ZM12.9946 6.78456H17.4457V14.1196H14.686V9.14581H12.2137L12.9946 6.78456ZM16.0002 25.2154C18.8037 25.2154 21.0765 22.9427 21.0765 20.1391C21.0765 17.3356 18.8037 15.0628 16.0002 15.0628C13.1966 15.0628 10.9239 17.3356 10.9239 20.1391C10.9239 22.9427 13.1966 25.2154 16.0002 25.2154ZM16.0002 22.9108C17.5309 22.9108 18.7719 21.6699 18.7719 20.1391C18.7719 18.6083 17.5309 17.3674 16.0002 17.3674C14.4694 17.3674 13.2284 18.6083 13.2284 20.1391C13.2284 21.6699 14.4694 22.9108 16.0002 22.9108Z" fill="currentColor"/>
</svg>
