<svg width="82" height="25" viewBox="0 0 82 25" fill="none" xmlns="http://www.w3.org/2000/svg">
<path d="M32.8347 18.4085C31.8676 18.4085 30.9796 18.1785 30.1704 17.7184C29.3613 17.2583 28.7199 16.6233 28.2463 15.8132C27.7727 14.9931 27.5358 14.0679 27.5358 13.0378C27.5358 12.0177 27.7727 11.1026 28.2463 10.2925C28.7199 9.47235 29.3613 8.83227 30.1704 8.37222C30.9796 7.91216 31.8676 7.68213 32.8347 7.68213C33.8115 7.68213 34.6996 7.91216 35.4989 8.37222C36.308 8.83227 36.9444 9.47235 37.4082 10.2925C37.8819 11.1026 38.1187 12.0177 38.1187 13.0378C38.1187 14.0679 37.8819 14.9931 37.4082 15.8132C36.9444 16.6233 36.308 17.2583 35.4989 17.7184C34.6897 18.1785 33.8017 18.4085 32.8347 18.4085ZM32.8347 16.5332C33.4563 16.5332 34.004 16.3932 34.4776 16.1132C34.9512 15.8232 35.3213 15.4131 35.5877 14.883C35.8541 14.353 35.9873 13.7379 35.9873 13.0378C35.9873 12.3377 35.8541 11.7276 35.5877 11.2076C35.3213 10.6775 34.9512 10.2725 34.4776 9.99242C34.004 9.71238 33.4563 9.57237 32.8347 9.57237C32.213 9.57237 31.6604 9.71238 31.1769 9.99242C30.7033 10.2725 30.3333 10.6775 30.0668 11.2076C29.8004 11.7276 29.6672 12.3377 29.6672 13.0378C29.6672 13.7379 29.8004 14.353 30.0668 14.883C30.3333 15.4131 30.7033 15.8232 31.1769 16.1132C31.6604 16.3932 32.213 16.5332 32.8347 16.5332Z" fill="#8C8CA1"/>
<path d="M43.4642 9.8724C44.4411 9.8724 45.2305 10.1874 45.8324 10.8175C46.4343 11.4376 46.7353 12.3077 46.7353 13.4279V18.3035H44.6631V13.7129C44.6631 13.0528 44.5003 12.5477 44.1747 12.1977C43.849 11.8377 43.405 11.6576 42.8426 11.6576C42.2702 11.6576 41.8163 11.8377 41.4808 12.1977C41.1552 12.5477 40.9924 13.0528 40.9924 13.7129V18.3035H38.9202V9.99242H40.9924V11.0276C41.2687 10.6675 41.619 10.3875 42.0433 10.1874C42.4775 9.97742 42.9511 9.8724 43.4642 9.8724Z" fill="#8C8CA1"/>
<path d="M55.7363 13.9679C55.7363 14.268 55.7166 14.538 55.6771 14.778H49.6827C49.732 15.3781 49.9392 15.8482 50.3043 16.1882C50.6694 16.5282 51.1184 16.6983 51.6512 16.6983C52.4209 16.6983 52.9685 16.3632 53.2941 15.6931H55.5291C55.2923 16.4932 54.8384 17.1533 54.1674 17.6734C53.4964 18.1835 52.6725 18.4385 51.6956 18.4385C50.9062 18.4385 50.1958 18.2635 49.5642 17.9134C48.9426 17.5534 48.4542 17.0483 48.0989 16.3982C47.7536 15.7481 47.5809 14.9981 47.5809 14.1479C47.5809 13.2878 47.7536 12.5327 48.0989 11.8827C48.4443 11.2326 48.9278 10.7325 49.5494 10.3825C50.1711 10.0324 50.8865 9.8574 51.6956 9.8574C52.4751 9.8574 53.1708 10.0274 53.7826 10.3675C54.4042 10.7075 54.8828 11.1926 55.2183 11.8227C55.5637 12.4427 55.7363 13.1578 55.7363 13.9679ZM53.5902 13.3678C53.5803 12.8278 53.3879 12.3977 53.0129 12.0777C52.638 11.7476 52.1791 11.5826 51.6364 11.5826C51.1233 11.5826 50.6891 11.7426 50.3339 12.0627C49.9885 12.3727 49.7764 12.8078 49.6975 13.3678H53.5902Z" fill="#8C8CA1"/>
<path d="M62.6364 18.3035L58.8769 13.6379V18.3035H56.8048V7.83215H58.8769V12.5277L62.6364 7.83215H65.1378L60.8751 13.0228L65.2562 18.3035H62.6364Z" fill="#8C8CA1"/>
<path d="M72.6137 13.9679C72.6137 14.268 72.594 14.538 72.5545 14.778H66.56C66.6094 15.3781 66.8166 15.8482 67.1817 16.1882C67.5468 16.5282 67.9957 16.6983 68.5286 16.6983C69.2982 16.6983 69.8459 16.3632 70.1715 15.6931H72.4065C72.1697 16.4932 71.7158 17.1533 71.0448 17.6734C70.3738 18.1835 69.5499 18.4385 68.573 18.4385C67.7836 18.4385 67.0731 18.2635 66.4416 17.9134C65.82 17.5534 65.3315 17.0483 64.9763 16.3982C64.6309 15.7481 64.4583 14.9981 64.4583 14.1479C64.4583 13.2878 64.6309 12.5327 64.9763 11.8827C65.3217 11.2326 65.8052 10.7325 66.4268 10.3825C67.0485 10.0324 67.7639 9.8574 68.573 9.8574C69.3525 9.8574 70.0482 10.0274 70.66 10.3675C71.2816 10.7075 71.7602 11.1926 72.0957 11.8227C72.441 12.4427 72.6137 13.1578 72.6137 13.9679ZM70.4675 13.3678C70.4577 12.8278 70.2653 12.3977 69.8903 12.0777C69.5153 11.7476 69.0565 11.5826 68.5138 11.5826C68.0007 11.5826 67.5665 11.7426 67.2113 12.0627C66.8659 12.3727 66.6538 12.8078 66.5748 13.3678H70.4675Z" fill="#8C8CA1"/>
<path d="M81.2308 9.99242L76.1539 22.234H73.9486L75.7247 18.0934L72.4389 9.99242H74.7626L76.8792 15.7982L79.0254 9.99242H81.2308Z" fill="#8C8CA1"/>
<path fill-rule="evenodd" clip-rule="evenodd" d="M11.8011 24.7549C19.948 24.7549 23.6022 21.0766 23.6022 12.8759C23.6022 4.6751 19.948 0.996826 11.8011 0.996826C3.65413 0.996826 0 4.6751 0 12.8759C0 21.0766 3.65413 24.7549 11.8011 24.7549ZM9.58422 6.03628H12.8672V11.4821H10.8317V7.78937H9.00826L9.58422 6.03628ZM11.801 19.7201C13.8689 19.7201 15.5451 18.0327 15.5451 15.9513C15.5451 13.8698 13.8689 12.1824 11.801 12.1824C9.73323 12.1824 8.05693 13.8698 8.05693 15.9513C8.05693 18.0327 9.73323 19.7201 11.801 19.7201ZM11.801 18.0091C12.9301 18.0091 13.8454 17.0878 13.8454 15.9512C13.8454 14.8147 12.9301 13.8934 11.801 13.8934C10.672 13.8934 9.7567 14.8147 9.7567 15.9512C9.7567 17.0878 10.672 18.0091 11.801 18.0091Z" fill="#8C8CA1"/>
</svg>
