<svg width="16" height="16" viewBox="0 0 16 16" fill="none" xmlns="http://www.w3.org/2000/svg">
<path fill-rule="evenodd" clip-rule="evenodd" d="M8.6192 4.05639L8.92759 2.0712C8.62277 2.024 8.31077 2 7.99998 2H7.9952V6.05H7.99998C8.17077 6.05 8.33959 6.072 8.50238 6.11518L9.02638 4.14161C8.89238 4.106 8.75638 4.078 8.61959 4.05639H8.6192ZM7.02359 6.31161L6.01559 4.57518H6.01519C5.89637 4.64439 5.78037 4.71918 5.66958 4.8L4.46598 3.15079C4.71919 2.966 4.9888 2.8 5.26719 2.6572L6.18319 4.44518C6.36919 4.35039 6.56198 4.27 6.76038 4.20518L6.13719 2.2952C6.43519 2.198 6.74319 2.1236 7.05319 2.0744L7.37359 4.09079C7.23798 4.11239 7.10319 4.142 6.97038 4.17761L7.49198 6.11639C7.32838 6.16039 7.17077 6.22639 7.02359 6.31161ZM2.65001 5.28124L4.46961 6.20764C4.37601 6.39164 4.29643 6.58445 4.23282 6.78085L2.29001 6.15245C2.38641 5.85406 2.50761 5.56085 2.65001 5.28124ZM11.4236 6.01358L9.68763 7.02239C9.77323 7.16958 9.83884 7.32718 9.88284 7.49079L11.8216 6.96839C11.8572 7.10118 11.8868 7.236 11.9084 7.37118L13.9248 7.05C13.8756 6.74 13.8012 6.432 13.7036 6.134L11.794 6.75839C11.7292 6.56 11.6488 6.36718 11.5536 6.18118L13.3412 5.264C13.1984 4.98558 13.0324 4.71639 12.8472 4.46318L11.1984 5.66758C11.2792 5.77839 11.3544 5.89439 11.4232 6.01318L11.4236 6.01358ZM10.7154 2.64833L10.7156 2.64841V2.64801L10.7154 2.64833ZM9.84402 2.28881C10.1424 2.38519 10.4355 2.50596 10.7154 2.64833L9.79041 4.46839C9.60602 4.37482 9.4132 4.29521 9.21681 4.232L9.84402 2.28881ZM9.99078 4.53964L8.97117 6.30885C9.11878 6.39403 9.25478 6.49803 9.37599 6.61885L12.2352 3.75003C12.0136 3.52885 11.7724 3.32364 11.5192 3.14004L10.34 4.76603C10.2276 4.68442 10.1112 4.60885 9.99078 4.53964ZM6.30962 7.02764L4.54079 6.00721H4.5404C4.61001 5.88721 4.68561 5.77082 4.76722 5.65842L3.1416 4.47842C3.32561 4.22521 3.53079 3.98442 3.752 3.76282L6.62001 6.62282C6.49922 6.74403 6.3948 6.88003 6.30962 7.02764ZM4.1424 6.97164L6.11562 7.49685H6.11519C6.07201 7.65964 6.05001 7.82885 6.05001 8.00006H2C2 7.68846 2.0244 7.37524 2.072 7.06924L4.05722 7.37845C4.0784 7.24167 4.10679 7.10564 4.1424 6.97164ZM11.5304 9.79236L13.35 10.7188C13.4924 10.4392 13.6136 10.146 13.71 9.84755L11.7672 9.21915C11.7036 9.41558 11.624 9.60836 11.5304 9.79236ZM8.97638 9.68839L9.98438 11.4248L9.98478 11.4252C10.1036 11.356 10.2196 11.2812 10.3304 11.2004L11.534 12.8496C11.2808 13.0344 11.0112 13.2004 10.7328 13.3432L9.81678 11.5552C9.63078 11.65 9.43799 11.7304 9.23959 11.7952L9.86278 13.7052C9.56478 13.8024 9.25678 13.8768 8.94678 13.926L8.62638 11.9092C8.76199 11.8876 8.89678 11.858 9.02959 11.8224L8.50799 9.88361C8.67159 9.83961 8.82917 9.77361 8.97638 9.68839ZM4.5764 9.98639L6.31241 8.97761C6.2268 8.83039 6.16122 8.67279 6.11722 8.50918L4.1784 9.03161C4.14279 8.89879 4.11322 8.764 4.09161 8.62879L2.07481 8.95C2.12401 9.26 2.19841 9.568 2.296 9.866L4.20561 9.24161C4.2704 9.44 4.35079 9.63279 4.44601 9.81879L2.6584 10.736C2.80121 11.0144 2.96721 11.2836 3.15241 11.5368L4.80122 10.3324C4.7204 10.2216 4.64522 10.1056 4.5764 9.98679V9.98639ZM5.28452 13.3517L5.28437 13.3516V13.352L5.28452 13.3517ZM5.28452 13.3517C5.56449 13.494 5.85762 13.6148 6.15598 13.7112L6.78316 11.768C6.58677 11.7048 6.39398 11.6252 6.20956 11.5316L5.28452 13.3517ZM6.00919 11.4604L6.00928 11.4602L6.00959 11.4604H6.00919ZM6.00928 11.4602L7.0288 9.69118C6.88119 9.60597 6.74519 9.50197 6.62398 9.38118L3.76519 12.25C3.98679 12.4712 4.22798 12.6764 4.48119 12.86L5.66037 11.234C5.77271 11.3155 5.88898 11.3911 6.00928 11.4602ZM9.69081 8.97236L11.4596 9.99276V9.99315C11.39 10.1132 11.3144 10.2296 11.2328 10.342L12.8584 11.522C12.6744 11.7752 12.4692 12.016 12.248 12.2375L9.38041 9.37715C9.5012 9.25597 9.60559 9.11997 9.69081 8.97236ZM7.49759 9.88479V9.88491L7.4972 9.88479H7.49759ZM7.49759 9.88491L6.97359 11.8584C7.10759 11.894 7.24359 11.922 7.38041 11.9436L7.07201 13.9288C7.3768 13.976 7.6888 14 7.99959 14H8.00441V9.95H7.99959C7.82892 9.95 7.66026 9.92803 7.49759 9.88491ZM9.88481 8.50318C9.92796 8.34052 9.94996 8.17145 9.94999 8.00039H14C14 8.312 13.9756 8.62518 13.928 8.93118L11.9432 8.62158C11.922 8.75839 11.8936 8.89439 11.858 9.02839L9.88481 8.50318Z" fill="#8C8CA1"/>
</svg>
