<svg viewBox="0 0 35 33" fill="none" xmlns="http://www.w3.org/2000/svg">
  <path d="M32.6478 0.950684L19.5137 10.669L21.9561 4.94167L32.6478 0.950684Z" fill="#E17726" stroke="#E17726" stroke-width="0.25" stroke-linecap="round" stroke-linejoin="round" />
  <path d="M2.35254 0.950684L15.3697 10.7597L13.0443 4.94166L2.35254 0.950684Z" fill="#E27625" stroke="#E27625" stroke-width="0.25" stroke-linecap="round" stroke-linejoin="round" />
  <path d="M27.9184 23.4841L24.4238 28.8227L31.9067 30.883L34.0503 23.6008L27.9184 23.4841Z" fill="#E27625" stroke="#E27625" stroke-width="0.25" stroke-linecap="round" stroke-linejoin="round" />
  <path d="M0.961914 23.6008L3.09245 30.883L10.5624 28.8227L7.08074 23.4841L0.961914 23.6008Z" fill="#E27625" stroke="#E27625" stroke-width="0.25" stroke-linecap="round" stroke-linejoin="round" />
  <path d="M10.1596 14.4655L8.08105 17.6013L15.486 17.9382L15.2392 9.96924L10.1596 14.4655Z" fill="#E27625" stroke="#E27625" stroke-width="0.25" stroke-linecap="round" stroke-linejoin="round" />
  <path d="M24.84 14.4657L19.6826 9.87866L19.5137 17.9384L26.9186 17.6015L24.84 14.4657Z" fill="#E27625" stroke="#E27625" stroke-width="0.25" stroke-linecap="round" stroke-linejoin="round" />
  <path d="M10.5625 28.8227L15.0444 26.6588L11.1861 23.6526L10.5625 28.8227Z" fill="#E27625" stroke="#E27625" stroke-width="0.25" stroke-linecap="round" stroke-linejoin="round" />
  <path d="M19.9551 26.6588L24.424 28.8227L23.8134 23.6526L19.9551 26.6588Z" fill="#E27625" stroke="#E27625" stroke-width="0.25" stroke-linecap="round" stroke-linejoin="round" />
  <path d="M24.424 28.8228L19.9551 26.6589L20.3188 29.5614L20.2798 30.7924L24.424 28.8228Z" fill="#D5BFB2" stroke="#D5BFB2" stroke-width="0.25" stroke-linecap="round" stroke-linejoin="round" />
  <path d="M10.5625 28.8228L14.7197 30.7924L14.6937 29.5614L15.0444 26.6589L10.5625 28.8228Z" fill="#D5BFB2" stroke="#D5BFB2" stroke-width="0.25" stroke-linecap="round" stroke-linejoin="round" />
  <path d="M14.7975 21.7349L11.082 20.6465L13.7062 19.4414L14.7975 21.7349Z" fill="#233447" stroke="#233447" stroke-width="0.25" stroke-linecap="round" stroke-linejoin="round" />
  <path d="M20.2021 21.7349L21.2934 19.4414L23.9306 20.6465L20.2021 21.7349Z" fill="#233447" stroke="#233447" stroke-width="0.25" stroke-linecap="round" stroke-linejoin="round" />
  <path d="M10.5627 28.8227L11.2123 23.4841L7.08105 23.6008L10.5627 28.8227Z" fill="#CC6228" stroke="#CC6228" stroke-width="0.25" stroke-linecap="round" stroke-linejoin="round" />
  <path d="M23.7871 23.4841L24.4237 28.8227L27.9183 23.6008L23.7871 23.4841Z" fill="#CC6228" stroke="#CC6228" stroke-width="0.25" stroke-linecap="round" stroke-linejoin="round" />
  <path d="M26.9186 17.6013L19.5137 17.9382L20.2022 21.7349L21.2935 19.4413L23.9307 20.6464L26.9186 17.6013Z" fill="#CC6228" stroke="#CC6228" stroke-width="0.25" stroke-linecap="round" stroke-linejoin="round" />
  <path d="M11.082 20.6464L13.7062 19.4413L14.7975 21.7349L15.486 17.9382L8.08105 17.6013L11.082 20.6464Z" fill="#CC6228" stroke="#CC6228" stroke-width="0.25" stroke-linecap="round" stroke-linejoin="round" />
  <path d="M8.08203 17.6013L11.1869 23.6526L11.0829 20.6464L8.08203 17.6013Z" fill="#E27525" stroke="#E27525" stroke-width="0.25" stroke-linecap="round" stroke-linejoin="round" />
  <path d="M23.9304 20.6464L23.8135 23.6526L26.9184 17.6013L23.9304 20.6464Z" fill="#E27525" stroke="#E27525" stroke-width="0.25" stroke-linecap="round" stroke-linejoin="round" />
  <path d="M15.4865 17.9382L14.7979 21.7349L15.6683 26.2182L15.8632 20.3095L15.4865 17.9382Z" fill="#E27525" stroke="#E27525" stroke-width="0.25" stroke-linecap="round" stroke-linejoin="round" />
  <path d="M19.5132 17.9382L19.1494 20.2966L19.3313 26.2182L20.2017 21.7349L19.5132 17.9382Z" fill="#E27525" stroke="#E27525" stroke-width="0.25" stroke-linecap="round" stroke-linejoin="round" />
  <path d="M20.2024 21.735L19.332 26.2183L19.9556 26.6589L23.814 23.6527L23.9309 20.6465L20.2024 21.735Z" fill="#F5841F" stroke="#F5841F" stroke-width="0.25" stroke-linecap="round" stroke-linejoin="round" />
  <path d="M11.082 20.6465L11.186 23.6527L15.0443 26.6589L15.6679 26.2183L14.7975 21.735L11.082 20.6465Z" fill="#F5841F" stroke="#F5841F" stroke-width="0.25" stroke-linecap="round" stroke-linejoin="round" />
  <path d="M20.2799 30.7924L20.3188 29.5614L19.9811 29.2763H15.0185L14.6937 29.5614L14.7197 30.7924L10.5625 28.8228L12.0175 30.0149L14.9665 32.0493H20.02L22.982 30.0149L24.424 28.8228L20.2799 30.7924Z" fill="#C0AC9D" stroke="#C0AC9D" stroke-width="0.25" stroke-linecap="round" stroke-linejoin="round" />
  <path d="M19.9557 26.6588L19.3321 26.2183H15.6686L15.0451 26.6588L14.6943 29.5614L15.0191 29.2763H19.9817L20.3195 29.5614L19.9557 26.6588Z" fill="#161616" stroke="#161616" stroke-width="0.25" stroke-linecap="round" stroke-linejoin="round" />
  <path d="M33.206 11.3039L34.3103 5.93941L32.6474 0.950684L19.9551 10.3451L24.8397 14.4656L31.738 16.4741L33.258 14.6989L32.5955 14.2194L33.6477 13.2606L32.8423 12.6386L33.8946 11.8352L33.206 11.3039Z" fill="#763E1A" stroke="#763E1A" stroke-width="0.25" stroke-linecap="round" stroke-linejoin="round" />
  <path d="M0.689453 5.93941L1.80669 11.3039L1.09218 11.8352L2.15745 12.6386L1.352 13.2606L2.40428 14.2194L1.74173 14.6989L3.2617 16.4741L10.1601 14.4656L15.0447 10.3451L2.35232 0.950684L0.689453 5.93941Z" fill="#763E1A" stroke="#763E1A" stroke-width="0.25" stroke-linecap="round" stroke-linejoin="round" />
  <path d="M31.7381 16.474L24.8398 14.4656L26.9184 17.6014L23.8135 23.6526L27.9187 23.6008H34.0505L31.7381 16.474Z" fill="#F5841F" stroke="#F5841F" stroke-width="0.25" stroke-linecap="round" stroke-linejoin="round" />
  <path d="M10.1596 14.4656L3.26134 16.474L0.961914 23.6008H7.08074L11.1859 23.6526L8.08106 17.6014L10.1596 14.4656Z" fill="#F5841F" stroke="#F5841F" stroke-width="0.25" stroke-linecap="round" stroke-linejoin="round" />
  <path d="M19.5135 17.9383L19.9552 10.345L21.9558 4.94165H13.0439L15.0445 10.345L15.4862 17.9383L15.6551 20.3225L15.6681 26.2183H19.3316L19.3446 20.3225L19.5135 17.9383Z" fill="#F5841F" stroke="#F5841F" stroke-width="0.25" stroke-linecap="round" stroke-linejoin="round" />
</svg>
