<svg width="16" height="16" viewBox="0 0 16 16" fill="none" xmlns="http://www.w3.org/2000/svg">
<path fill-rule="evenodd" clip-rule="evenodd" d="M3.25803 3.87824C3.32417 3.82337 3.4004 3.78019 3.48351 3.75189C3.57995 3.71899 3.68102 3.70774 3.77986 3.71697C3.86314 3.72462 3.94227 3.74655 4.01479 3.7803C4.12446 3.8311 4.22269 3.91045 4.29739 4.01629L7.99952 9.26093L11.6947 4.02615C11.7086 4.00577 11.7235 3.98617 11.7394 3.96738C11.8009 3.89433 11.8746 3.8364 11.9554 3.79446C12.0373 3.75172 12.1286 3.72442 12.2254 3.71642C12.3486 3.70601 12.475 3.72739 12.5915 3.78281C12.6292 3.80072 12.665 3.82185 12.6987 3.84581C12.8064 3.92228 12.8865 4.02315 12.9369 4.13561C12.9663 4.20098 12.9861 4.27157 12.9947 4.34561C12.9984 4.37746 13 4.40961 12.9994 4.44178V11.5573C12.9999 11.5873 12.9986 11.6172 12.9954 11.647C12.9861 11.7346 12.961 11.8175 12.9229 11.8928C12.8809 11.9763 12.822 12.0524 12.7471 12.1158C12.6225 12.2215 12.4613 12.2852 12.2851 12.2852C12.1419 12.2852 12.0085 12.2431 11.8967 12.1705C11.8523 12.1418 11.8108 12.1078 11.773 12.0688C11.7434 12.0384 11.7165 12.0054 11.6927 11.9701L10.0921 9.7026L10.9664 8.46402L11.5708 9.32032V6.67876L8.58305 10.9114C8.44921 11.101 8.23159 11.2138 7.99952 11.2138C7.76744 11.2138 7.54981 11.101 7.41598 10.9114L4.42807 6.6786V9.32049L5.03268 8.46396L5.90698 9.70255L4.30309 11.9747C4.29148 11.9916 4.27916 12.008 4.26617 12.0238C4.20939 12.0932 4.1418 12.1494 4.06759 12.1916C3.96329 12.2512 3.84252 12.2852 3.71379 12.2852C3.52001 12.2852 3.34424 12.2081 3.21556 12.0828C3.17499 12.0434 3.13992 12 3.11053 11.9536C3.04023 11.843 2.99951 11.7117 2.99951 11.571V4.42823C2.99951 4.30157 3.03248 4.18261 3.09031 4.07947C3.13226 4.00431 3.18842 3.93581 3.25803 3.87824ZM8.56207 7.53509L7.99952 6.73814L7.43701 7.53502L6.5627 6.29643L7.41598 5.08765C7.54981 4.89804 7.76744 4.78528 7.99952 4.78528C8.23159 4.78528 8.44921 4.89804 8.58305 5.08765L9.43636 6.29648L8.56207 7.53509Z" fill="#8C8CA1"/>
</svg>
