<svg width="16" height="16" viewBox="0 0 16 16" fill="none" xmlns="http://www.w3.org/2000/svg">
<g clip-path="url(#clip0_716_165)">
<rect width="16" height="16" rx="8" fill="#303040"/>
<path fill-rule="evenodd" clip-rule="evenodd" d="M12.0392 7.26879L8.07678 1L4 7.26879L8.07678 5.57889L12.0392 7.26879Z" fill="#E2E2E8"/>
<path fill-rule="evenodd" clip-rule="evenodd" d="M4.16064 8.99561L8.12303 15.133L12.1998 8.99561L8.12303 11.4357L4.16064 8.99561Z" fill="#E2E2E8"/>
<path fill-rule="evenodd" clip-rule="evenodd" d="M12.1997 8.18938L8.07678 6.47168L4 8.18938L8.07678 10.631L12.1997 8.18938Z" fill="#E2E2E8"/>
<g clip-path="url(#clip1_716_165)">
<path d="M-0.000106812 7.99921C-0.000106812 12.4169 3.58123 15.9984 7.9997 15.9984C12.4182 15.9984 15.9995 12.4169 15.9995 7.99921C15.9995 3.58151 12.4181 0 7.9997 0C3.58132 0 -0.000106812 3.58117 -0.000106812 7.99921Z" fill="#E2E2E8"/>
<path d="M8.00006 0C12.417 0 16.0046 3.58658 15.999 7.99896C15.9979 8.88174 15.8571 9.73091 15.5929 10.5252H13.1994V3.7961L8.00006 8.99487L2.80095 3.7961V10.5254H0.406976C0.142361 9.73108 0.00229985 8.88191 0.000723746 7.99908C-0.00681601 3.58211 3.5827 0.00106482 8.00006 0.00106482V0Z" fill="#303040"/>
<path d="M9.19562 10.1898L11.4647 7.9209V12.1552H13.1994L14.8364 12.1555C13.4323 14.459 10.8947 15.9998 7.99991 15.9998C5.10516 15.9998 2.56741 14.4586 1.16302 12.1552H4.53567V7.9209L6.80484 10.1898L8.00017 11.385L9.19554 10.1898H9.19562Z" fill="#303040"/>
</g>
</g>
<rect x="0.5" y="0.5" width="15" height="15" rx="7.5" stroke="#1E1E2A"/>
<defs>
<clipPath id="clip0_716_165">
<rect width="16" height="16" rx="8" fill="white"/>
</clipPath>
<clipPath id="clip1_716_165">
<rect width="16" height="16" fill="white" transform="matrix(-1 0 0 1 16 0)"/>
</clipPath>
</defs>
</svg>
