<svg width="16" height="16" viewBox="0 0 16 16" fill="none" xmlns="http://www.w3.org/2000/svg">
<g clip-path="url(#clip0_716_165)">
<g clip-path="url(#clip1_716_165)">
<path d="M0.407084 10.5254H2.80106V3.7961L8.00017 8.99487L13.1995 3.7961V10.5252H15.5926C15.4013 11.1005 15.1464 11.6467 14.8363 12.1555L11.4648 12.1552V7.9209L8.00027 11.385L4.53578 7.9209V12.1552H1.16312C1.91656 13.3909 2.9962 14.4073 4.28216 15.084C2.46681 14.1297 1.06321 12.4981 0.407084 10.5254Z" fill="#8C8CA1"/>
<path d="M0.291228 10.1455C0.101435 9.4625 0 8.7427 0 7.99921C0.00132751 8.7428 0.101732 9.46238 0.291228 10.1455Z" fill="#8C8CA1"/>
<path d="M3.19244 1.60475C1.38253 2.96573 0.168938 5.07588 0.0169678 7.47397C0.172397 5.0759 1.3845 2.96589 3.19244 1.60475Z" fill="#8C8CA1"/>
<path d="M3.19244 1.60475C4.53144 0.597887 6.19682 0.00106482 8.00017 0.00106482V0C6.19584 0 4.53072 0.597216 3.19244 1.60475Z" fill="#8C8CA1"/>
<path d="M15.9886 7.57551C15.8962 5.80451 15.2277 4.18597 14.1669 2.90375C12.7718 1.21869 10.6983 0.113641 8.36685 0.00826952C10.6998 0.113608 12.7723 1.21803 14.1669 2.90375C15.229 4.18657 15.898 5.80554 15.9886 7.57551Z" fill="#8C8CA1"/>
</g>
</g>
<defs>
<clipPath id="clip0_716_165">
<rect width="16" height="16" rx="8" fill="white"/>
</clipPath>
<clipPath id="clip1_716_165">
<rect width="16" height="16" fill="white" transform="matrix(-1 0 0 1 16 0)"/>
</clipPath>
</defs>
</svg>
