<svg width="16" height="16" viewBox="0 0 16 16" fill="none" xmlns="http://www.w3.org/2000/svg">
<rect x="0.5" y="0.5" width="15" height="15" rx="7.5" fill="#303040"/>
<path d="M7.979 10.7764L13.9996 4.27881L7.979 14.1836V10.7764Z" fill="#8C8CA1"/>
<path d="M7.98231 10.7764L2 4.27881L7.98231 14.1836V10.7764Z" fill="#8C8CA1"/>
<path fill-rule="evenodd" clip-rule="evenodd" d="M2 4.27881H14L7.9794 10.7764L2 4.27881ZM5.52344 5.51709H10.4758L7.99114 8.18376L5.52344 5.51709Z" fill="#E2E2E8"/>
<path d="M7.99121 5.2571L10.4704 2.58154L7.99121 6.66012V5.2571Z" fill="#8C8CA1"/>
<path d="M7.99269 5.2571L5.5293 2.58154L7.99269 6.66012V5.2571Z" fill="#8C8CA1"/>
<path d="M10.4707 2.58154H5.5293L7.9915 5.25711L10.4707 2.58154Z" fill="#E2E2E8"/>
<rect x="0.5" y="0.5" width="15" height="15" rx="7.5" stroke="#1E1E2A"/>
</svg>
