<svg
    width="53"
    height="60"
    viewBox="0 0 53 60"
    fill="none"
    xmlns="http://www.w3.org/2000/svg"
  >
    <path
      fill-rule="evenodd"
      clip-rule="evenodd"
      d="M18.7059 6.9118H34.2942V10.0295H37.4118V13.1471H40.5295V16.2647V19.3824H43.6471V22.5V25.6177H46.7648V28.7353V31.853V34.9706V38.0883V41.2059H43.6471V44.3236V47.4412H40.5295V50.5589H34.2942V53.6765H18.7059V50.5589H12.4706V47.4412H9.353V44.3236V41.2059H6.23535V38.0883V34.9706V31.853V28.7353V25.6177H9.353V22.5V19.3824H12.4706V16.2647V13.1471H15.5883V10.0295H18.7059V6.9118Z"
      fill="white"
    />
    <path
      fill-rule="evenodd"
      clip-rule="evenodd"
      d="M34.2942 13.147H40.5295V19.3823H43.6471V25.6176H37.4118V22.5H34.2942V19.3823V13.147Z"
      fill="#00B812"
    />
    <path
      fill-rule="evenodd"
      clip-rule="evenodd"
      d="M18.706 28.7353H28.059V31.8529H31.1766V41.2059H28.059V44.3235H18.706V41.2059H15.5884V31.8529H18.706V28.7353Z"
      fill="#00B812"
    />
    <path
      fill-rule="evenodd"
      clip-rule="evenodd"
      d="M40.5293 34.9706H46.7646V38.0882V41.2059H43.6469V47.4412H37.4116V38.0882H40.5293V34.9706Z"
      fill="#00B812"
    />
    <path
      fill-rule="evenodd"
      clip-rule="evenodd"
      d="M6.23535 38.0883H12.4706V41.2059H15.5883V47.4412V50.5588H12.4706V47.4412H9.353V41.2059H6.23535V38.0883Z"
      fill="#00B812"
    />
    <path
      fill-rule="evenodd"
      clip-rule="evenodd"
      d="M21.8236 10.0294H15.5883V13.147H12.4706V19.3823V22.4999H18.7059V19.3823H21.8236V13.147V10.0294ZM6.23535 25.6176H9.353V28.7352H6.23535V25.6176Z"
      fill="#00B812"
    />
    <rect
      x="34.2942"
      y="6.9118"
      width="3.11765"
      height="3.11765"
      fill="#330C18"
    />
    <rect
      x="15.5884"
      y="6.9118"
      width="3.11765"
      height="3.11765"
      fill="#330C18"
    />
    <rect
      x="34.2942"
      y="50.5588"
      width="6.23529"
      height="3.11765"
      fill="#330C18"
    />
    <rect
      x="37.4116"
      y="10.0294"
      width="3.11765"
      height="3.11765"
      fill="#330C18"
    />
    <rect
      x="12.4707"
      y="10.0294"
      width="3.11765"
      height="3.11765"
      fill="#330C18"
    />
    <rect
      x="9.35291"
      y="47.4412"
      width="3.11765"
      height="3.11765"
      fill="#330C18"
    />
    <rect
      x="40.5293"
      y="47.4412"
      width="3.11765"
      height="3.11765"
      fill="#330C18"
    />
    <rect
      x="40.5293"
      y="13.147"
      width="3.11765"
      height="6.23529"
      fill="#330C18"
    />
    <rect x="43.647" y="13.147" width="3.11765" height="6.23529" fill="white" />
    <rect
      x="6.23535"
      y="13.147"
      width="3.11765"
      height="6.23529"
      fill="white"
    />
    <rect
      x="9.35291"
      y="13.147"
      width="3.11765"
      height="6.23529"
      fill="#330C18"
    />
    <rect
      x="43.647"
      y="19.3824"
      width="3.11765"
      height="6.23529"
      fill="#330C18"
    />
    <rect
      x="6.23535"
      y="19.3824"
      width="3.11765"
      height="6.23529"
      fill="#330C18"
    />
    <rect
      x="43.647"
      y="41.2059"
      width="3.11765"
      height="6.23529"
      fill="#330C18"
    />
    <rect
      x="6.23535"
      y="41.2059"
      width="3.11765"
      height="6.23529"
      fill="#330C18"
    />
    <rect
      x="37.4116"
      y="6.9118"
      width="3.11765"
      height="3.11765"
      fill="white"
    />
    <rect
      x="12.4707"
      y="6.9118"
      width="3.11765"
      height="3.11765"
      fill="white"
    />
    <rect
      x="40.5293"
      y="10.0294"
      width="3.11765"
      height="3.11765"
      fill="white"
    />
    <rect
      x="9.35291"
      y="10.0294"
      width="3.11765"
      height="3.11765"
      fill="white"
    />
    <rect
      x="40.5293"
      y="50.5588"
      width="3.11765"
      height="3.11765"
      fill="white"
    />
    <rect
      x="43.647"
      y="47.4412"
      width="3.11765"
      height="3.11765"
      fill="white"
    />
    <rect
      x="6.23535"
      y="47.4412"
      width="3.11765"
      height="3.11765"
      fill="white"
    />
    <rect
      x="15.5884"
      y="3.79413"
      width="3.11765"
      height="3.11765"
      fill="white"
    />
    <rect
      x="9.35291"
      y="50.5588"
      width="3.11765"
      height="3.11765"
      fill="white"
    />
    <rect
      x="34.2942"
      y="53.6765"
      width="6.23529"
      height="3.11765"
      fill="white"
    />
    <rect
      x="12.4707"
      y="53.6765"
      width="6.23529"
      height="3.11765"
      fill="white"
    />
    <rect
      x="46.7649"
      y="19.3824"
      width="3.11765"
      height="6.23529"
      fill="white"
    />
    <rect
      x="3.11755"
      y="19.3824"
      width="3.11765"
      height="6.23529"
      fill="white"
    />
    <rect
      x="46.7649"
      y="41.5956"
      width="3.11765"
      height="6.23529"
      fill="white"
    />
    <rect
      x="3.11755"
      y="41.5956"
      width="3.11765"
      height="6.23529"
      fill="white"
    />
    <rect
      x="34.2942"
      y="3.79413"
      width="3.11765"
      height="3.11765"
      fill="white"
    />
    <rect
      x="18.7058"
      y="3.79413"
      width="15.5882"
      height="3.11765"
      fill="#330C18"
    />
    <rect
      x="18.7058"
      y="0.676453"
      width="15.5882"
      height="3.11765"
      fill="white"
    />
    <rect
      x="18.7058"
      y="56.7941"
      width="15.5882"
      height="3.11765"
      fill="white"
    />
    <rect
      x="18.7058"
      y="53.6765"
      width="15.5882"
      height="3.11765"
      fill="#330C18"
    />
    <rect
      x="12.4707"
      y="50.5588"
      width="6.23529"
      height="3.11765"
      fill="#330C18"
    />
    <rect
      x="46.7649"
      y="25.6177"
      width="3.11765"
      height="15.9779"
      fill="#330C18"
    />
    <rect
      x="49.8823"
      y="25.6177"
      width="3.11765"
      height="15.9779"
      fill="white"
    />
    <rect y="25.6177" width="3.11765" height="15.9779" fill="white" />
    <rect
      x="3.11755"
      y="25.6177"
      width="3.11765"
      height="15.9779"
      fill="#330C18"
    />
  </svg>