<svg width="16" height="16" viewBox="0 0 16 16" fill="none" xmlns="http://www.w3.org/2000/svg">
<g clip-path="url(#clip0_149_656)">
<path fill-rule="evenodd" clip-rule="evenodd" d="M6.11108 3H3.22222C3.09949 3 3 3.09949 3 3.22222V6.11108C3 6.23383 3.09949 6.33332 3.22222 6.33332H6.11108C6.23383 6.33332 6.33332 6.23383 6.33332 6.11108V3.22222C6.33332 3.09949 6.23383 3 6.11108 3ZM9.44585 6.33332H6.55698C6.43424 6.33332 6.33475 6.43281 6.33475 6.55553V9.4444C6.33475 9.56713 6.43424 9.66662 6.55698 9.66662H9.44585C9.56857 9.66662 9.66806 9.56713 9.66806 9.4444V6.55553C9.66806 6.43281 9.56857 6.33332 9.44585 6.33332ZM9.88887 3H12.7777C12.9005 3 13 3.09949 13 3.22222V6.11108C13 6.23383 12.9005 6.33332 12.7777 6.33332H9.88887C9.76612 6.33332 9.66663 6.23383 9.66663 6.11108V3.22222C9.66663 3.09949 9.76612 3 9.88887 3ZM6.11108 9.66663H3.22222C3.09949 9.66663 3 9.76612 3 9.88887V12.7777C3 12.9005 3.09949 13 3.22222 13H6.11108C6.23383 13 6.33332 12.9005 6.33332 12.7777V9.88887C6.33332 9.76612 6.23383 9.66663 6.11108 9.66663ZM9.88887 9.66663H12.7777C12.9005 9.66663 13 9.76612 13 9.88887V12.7777C13 12.9005 12.9005 13 12.7777 13H9.88887C9.76612 13 9.66663 12.9005 9.66663 12.7777V9.88887C9.66663 9.76612 9.76612 9.66663 9.88887 9.66663Z" fill="#8C8CA1"/>
</g>
<defs>
<clipPath id="clip0_149_656">
<rect width="10" height="10" fill="white" transform="translate(3 3)"/>
</clipPath>
</defs>
</svg>
