<svg width="20" height="16" viewBox="0 0 20 16" fill="none" xmlns="http://www.w3.org/2000/svg">
<path fill-rule="evenodd" clip-rule="evenodd" d="M0 3C0 1.34315 1.34315 0 3 0H17C18.6569 0 20 1.34315 20 3V13C20 14.6569 18.6569 16 17 16H3C1.34315 16 0 14.6569 0 13V3ZM3 2C2.44772 2 2 2.44772 2 3V13C2 13.5523 2.44772 14 3 14H17C17.5523 14 18 13.5523 18 13V3C18 2.44772 17.5523 2 17 2H3ZM4 11C4 10.4477 4.44772 10 5 10H9C9.55228 10 10 10.4477 10 11C10 11.5523 9.55228 12 9 12H5C4.44772 12 4 11.5523 4 11Z" fill="currentColor"/>
<path d="M4 7.5C4 6.94772 4.44772 6.5 5 6.5H6C6.55228 6.5 7 6.94772 7 7.5C7 8.05228 6.55228 8.5 6 8.5H5C4.44772 8.5 4 8.05228 4 7.5Z" fill="currentColor"/>
</svg>
