<svg width="18" height="18" viewBox="0 0 18 18" fill="none" xmlns="http://www.w3.org/2000/svg">
<path d="M6.25 9C6.25 9.69036 5.69036 10.25 5 10.25C4.30964 10.25 3.75 9.69036 3.75 9C3.75 8.30964 4.30964 7.75 5 7.75C5.69036 7.75 6.25 8.30964 6.25 9Z"  fill="currentColor"/>
<path d="M6.25 13C6.25 13.6904 5.69036 14.25 5 14.25C4.30964 14.25 3.75 13.6904 3.75 13C3.75 12.3096 4.30964 11.75 5 11.75C5.69036 11.75 6.25 12.3096 6.25 13Z" fill="currentColor"/>
<path d="M9 10.25C9.69036 10.25 10.25 9.69036 10.25 9C10.25 8.30964 9.69036 7.75 9 7.75C8.30964 7.75 7.75 8.30964 7.75 9C7.75 9.69036 8.30964 10.25 9 10.25Z" fill="currentColor"/>
<path d="M10.25 13C10.25 13.6904 9.69036 14.25 9 14.25C8.30964 14.25 7.75 13.6904 7.75 13C7.75 12.3096 8.30964 11.75 9 11.75C9.69036 11.75 10.25 12.3096 10.25 13Z" fill="currentColor"/>
<path d="M13 10.25C13.6904 10.25 14.25 9.69036 14.25 9C14.25 8.30964 13.6904 7.75 13 7.75C12.3096 7.75 11.75 8.30964 11.75 9C11.75 9.69036 12.3096 10.25 13 10.25Z" fill="currentColor"/>
<path fill-rule="evenodd" clip-rule="evenodd" d="M0 3C0 1.34315 1.34315 0 3 0H15C16.6569 0 18 1.34315 18 3V15C18 16.6569 16.6569 18 15 18H3C1.34315 18 0 16.6569 0 15V3ZM16 15C16 15.5523 15.5523 16 15 16H3C2.44772 16 2 15.5523 2 15V3C2 2.44772 2.44772 2 3 2H15C15.5523 2 16 2.44772 16 3V15ZM5 10.25C5.69036 10.25 6.25 9.69036 6.25 9C6.25 8.30964 5.69036 7.75 5 7.75C4.30964 7.75 3.75 8.30964 3.75 9C3.75 9.69036 4.30964 10.25 5 10.25ZM5 14.25C5.69036 14.25 6.25 13.6904 6.25 13C6.25 12.3096 5.69036 11.75 5 11.75C4.30964 11.75 3.75 12.3096 3.75 13C3.75 13.6904 4.30964 14.25 5 14.25ZM10.25 9C10.25 9.69036 9.69036 10.25 9 10.25C8.30964 10.25 7.75 9.69036 7.75 9C7.75 8.30964 8.30964 7.75 9 7.75C9.69036 7.75 10.25 8.30964 10.25 9ZM9 14.25C9.69036 14.25 10.25 13.6904 10.25 13C10.25 12.3096 9.69036 11.75 9 11.75C8.30964 11.75 7.75 12.3096 7.75 13C7.75 13.6904 8.30964 14.25 9 14.25ZM14.25 9C14.25 9.69036 13.6904 10.25 13 10.25C12.3096 10.25 11.75 9.69036 11.75 9C11.75 8.30964 12.3096 7.75 13 7.75C13.6904 7.75 14.25 8.30964 14.25 9Z" fill="currentColor"/>
<path d="M13 14.25C13.6904 14.25 14.25 13.6904 14.25 13C14.25 12.3096 13.6904 11.75 13 11.75C12.3096 11.75 11.75 12.3096 11.75 13C11.75 13.6904 12.3096 14.25 13 14.25Z" fill="currentColor"/>
<path d="M6.25 5.25C6.25 5.94036 5.69036 6.5 5 6.5C4.30964 6.5 3.75 5.94036 3.75 5.25C3.75 4.55964 4.30964 4 5 4C5.69036 4 6.25 4.55964 6.25 5.25Z" fill="currentColor"/>
<path d="M9 6.5C9.69036 6.5 10.25 5.94036 10.25 5.25C10.25 4.55964 9.69036 4 9 4C8.30964 4 7.75 4.55964 7.75 5.25C7.75 5.94036 8.30964 6.5 9 6.5Z" fill="currentColor"/>
<path d="M13 6.5C13.6904 6.5 14.25 5.94036 14.25 5.25C14.25 4.55964 13.6904 4 13 4C12.3096 4 11.75 4.55964 11.75 5.25C11.75 5.94036 12.3096 6.5 13 6.5Z" fill="currentColor"/>
</svg>
