<svg width="102" height="28" viewBox="0 0 102 28" fill="none" xmlns="http://www.w3.org/2000/svg">
<g>
<path d="M13.9574 19.9859C15.2927 19.9859 16.3753 18.9034 16.3753 17.568C16.3753 16.2327 15.2927 15.1502 13.9574 15.1502C12.6221 15.1502 11.5395 16.2327 11.5395 17.568C11.5395 18.9034 12.6221 19.9859 13.9574 19.9859Z" fill="currentColor"  fill-opacity="0.875"/>
<path fill-rule="evenodd" clip-rule="evenodd" d="M13.9573 27.9147C23.5928 27.9147 27.9147 23.5928 27.9147 13.9573C27.9147 4.3218 23.5928 0 13.9573 0C4.3218 0 0 4.3218 0 13.9573C0 23.5928 4.3218 27.9147 13.9573 27.9147ZM11.3355 5.9184H15.2184V12.317H12.811V7.97821H10.6543L11.3355 5.9184ZM13.9574 21.9963C16.403 21.9963 18.3856 20.0137 18.3856 17.568C18.3856 15.1224 16.403 13.1398 13.9574 13.1398C11.5118 13.1398 9.52919 15.1224 9.52919 17.568C9.52919 20.0137 11.5118 21.9963 13.9574 21.9963Z" fill="currentColor"  fill-opacity="0.875"/>
</g>
<g>
<path d="M46.0621 20.4041C44.9558 20.4041 43.9398 20.1427 43.0141 19.6198C42.0884 19.0969 41.3547 18.3751 40.8128 17.4544C40.2709 16.5223 40 15.4709 40 14.3001C40 13.1407 40.2709 12.1006 40.8128 11.1799C41.3547 10.2478 42.0884 9.52033 43.0141 8.99745C43.9398 8.47457 44.9558 8.21313 46.0621 8.21313C47.1797 8.21313 48.1957 8.47457 49.1101 8.99745C50.0358 9.52033 50.764 10.2478 51.2946 11.1799C51.8364 12.1006 52.1074 13.1407 52.1074 14.3001C52.1074 15.4709 51.8364 16.5223 51.2946 17.4544C50.764 18.3751 50.0358 19.0969 49.1101 19.6198C48.1845 20.1427 47.1685 20.4041 46.0621 20.4041ZM46.0621 18.2728C46.7733 18.2728 47.3999 18.1137 47.9417 17.7954C48.4836 17.4658 48.9069 16.9998 49.2117 16.3973C49.5165 15.7949 49.6689 15.0958 49.6689 14.3001C49.6689 13.5044 49.5165 12.811 49.2117 12.22C48.9069 11.6175 48.4836 11.1572 47.9417 10.8389C47.3999 10.5206 46.7733 10.3615 46.0621 10.3615C45.3509 10.3615 44.7188 10.5206 44.1656 10.8389C43.6237 11.1572 43.2004 11.6175 42.8956 12.22C42.5908 12.811 42.4384 13.5044 42.4384 14.3001C42.4384 15.0958 42.5908 15.7949 42.8956 16.3973C43.2004 16.9998 43.6237 17.4658 44.1656 17.7954C44.7188 18.1137 45.3509 18.2728 46.0621 18.2728Z" fill="currentColor"  fill-opacity="0.875"/>
<path d="M58.2229 10.7025C59.3405 10.7025 60.2437 11.0605 60.9323 11.7767C61.6209 12.4814 61.9652 13.4703 61.9652 14.7434V20.2848H59.5945V15.0674C59.5945 14.3172 59.4083 13.7431 59.0357 13.3453C58.6632 12.9361 58.1552 12.7315 57.5117 12.7315C56.857 12.7315 56.3377 12.9361 55.9539 13.3453C55.5813 13.7431 55.3951 14.3172 55.3951 15.0674V20.2848H53.0244V10.8389H55.3951V12.0154C55.7112 11.6062 56.1119 11.2879 56.5973 11.0605C57.094 10.8218 57.6359 10.7025 58.2229 10.7025Z" fill="currentColor"  fill-opacity="0.875"/>
<path d="M72.2629 15.3572C72.2629 15.6982 72.2404 16.0051 72.1952 16.278H65.3372C65.3936 16.96 65.6307 17.4942 66.0484 17.8807C66.4661 18.2672 66.9797 18.4604 67.5893 18.4604C68.4699 18.4604 69.0964 18.0796 69.4689 17.318H72.0259C71.7549 18.2274 71.2357 18.9776 70.468 19.5687C69.7004 20.1484 68.7577 20.4382 67.6401 20.4382C66.737 20.4382 65.9242 20.2393 65.2017 19.8415C64.4905 19.4323 63.9317 18.8582 63.5253 18.1194C63.1302 17.3805 62.9327 16.528 62.9327 15.5618C62.9327 14.5843 63.1302 13.7261 63.5253 12.9872C63.9204 12.2484 64.4736 11.68 65.1848 11.2822C65.896 10.8844 66.7144 10.6854 67.6401 10.6854C68.532 10.6854 69.3278 10.8787 70.0277 11.2651C70.7389 11.6516 71.2865 12.2029 71.6703 12.919C72.0654 13.6238 72.2629 14.4365 72.2629 15.3572ZM69.8076 14.6752C69.7963 14.0614 69.5762 13.5726 69.1472 13.2089C68.7182 12.8338 68.1933 12.6462 67.5724 12.6462C66.9854 12.6462 66.4887 12.8281 66.0823 13.1918C65.6872 13.5442 65.4444 14.0387 65.3541 14.6752H69.8076Z" fill="currentColor"  fill-opacity="0.875"/>
<path d="M80.1571 20.2848L75.856 14.9821V20.2848H73.4853V8.38364H75.856V13.7204L80.1571 8.38364H83.0188L78.142 14.2831L83.1543 20.2848H80.1571Z" fill="currentColor"  fill-opacity="0.875"/>
<path d="M91.5716 15.3572C91.5716 15.6982 91.549 16.0051 91.5039 16.278H84.6459C84.7023 16.96 84.9394 17.4942 85.3571 17.8807C85.7748 18.2672 86.2884 18.4604 86.898 18.4604C87.7785 18.4604 88.4051 18.0796 88.7776 17.318H91.3345C91.0636 18.2274 90.5443 18.9776 89.7767 19.5687C89.009 20.1484 88.0664 20.4382 86.9488 20.4382C86.0457 20.4382 85.2329 20.2393 84.5104 19.8415C83.7992 19.4323 83.2404 18.8582 82.834 18.1194C82.4389 17.3805 82.2413 16.528 82.2413 15.5618C82.2413 14.5843 82.4389 13.7261 82.834 12.9872C83.2291 12.2484 83.7823 11.68 84.4935 11.2822C85.2047 10.8844 86.0231 10.6854 86.9488 10.6854C87.8406 10.6854 88.6365 10.8787 89.3364 11.2651C90.0476 11.6516 90.5951 12.2029 90.9789 12.919C91.3741 13.6238 91.5716 14.4365 91.5716 15.3572ZM89.1163 14.6752C89.105 14.0614 88.8849 13.5726 88.4559 13.2089C88.0269 12.8338 87.502 12.6462 86.8811 12.6462C86.294 12.6462 85.7973 12.8281 85.3909 13.1918C84.9958 13.5442 84.7531 14.0387 84.6628 14.6752H89.1163Z" fill="currentColor"  fill-opacity="0.875"/>
<path d="M101.43 10.8389L95.6219 24.752H93.0988L95.1308 20.0461L91.3716 10.8389H94.0301L96.4516 17.4374L98.9069 10.8389H101.43Z" fill="currentColor"  fill-opacity="0.875"/>
</g>
</svg>
