<svg width="16" height="16" viewBox="0 0 16 16" fill="none" xmlns="http://www.w3.org/2000/svg">
<path d="M4.97383 10.5018C4.39386 10.5018 3.91869 10.3654 3.54829 10.0924C3.18277 9.81465 3 9.4199 3 8.90815C3 8.80093 3.01219 8.66932 3.03655 8.51336C3.09993 8.16248 3.19009 7.74088 3.30705 7.24865C3.63845 5.90841 4.49379 5.23828 5.87304 5.23828C6.24831 5.23828 6.58458 5.30163 6.88189 5.42833C7.1792 5.55016 7.41312 5.73538 7.58369 5.98395C7.75426 6.22761 7.83959 6.52005 7.83959 6.86119C7.83959 6.96354 7.82739 7.09269 7.803 7.24865C7.72991 7.6824 7.64217 8.104 7.53982 8.51336C7.36925 9.18107 7.0744 9.68062 6.65526 10.012C6.23612 10.3386 5.67567 10.5018 4.97383 10.5018ZM5.07618 9.44912C5.34914 9.44912 5.5806 9.3687 5.77069 9.20787C5.96565 9.04704 6.10455 8.80093 6.18738 8.46953C6.29947 8.01139 6.38479 7.61173 6.44327 7.27059C6.46275 7.16824 6.47249 7.06347 6.47249 6.95622C6.47249 6.51273 6.24099 6.29096 5.77802 6.29096C5.50506 6.29096 5.27114 6.37138 5.07618 6.53221C4.88613 6.69307 4.74965 6.93919 4.66682 7.27059C4.57908 7.59712 4.49134 7.99678 4.40364 8.46953C4.38412 8.56697 4.37438 8.66932 4.37438 8.77654C4.37438 9.22494 4.60834 9.44912 5.07618 9.44912Z" fill="#8C8CA1"/>
<path d="M8.1753 10.4289C8.12169 10.4289 8.08024 10.4119 8.05101 10.3777C8.02663 10.3387 8.01934 10.2949 8.02908 10.2461L9.03793 5.49429C9.04767 5.44068 9.07447 5.39681 9.11834 5.36268C9.16221 5.32859 9.2085 5.31152 9.25724 5.31152H11.2018C11.7428 5.31152 12.1766 5.42361 12.5031 5.64779C12.8345 5.87201 13.0002 6.19609 13.0002 6.6201C13.0002 6.74193 12.9856 6.86867 12.9564 7.00024C12.8345 7.56073 12.5884 7.975 12.218 8.24305C11.8525 8.51111 11.3505 8.64513 10.712 8.64513H9.72512L9.38885 10.2461C9.37907 10.2998 9.35226 10.3436 9.30843 10.3777C9.26456 10.4119 9.21824 10.4289 9.16954 10.4289H8.1753ZM10.7632 7.63628C10.9679 7.63628 11.1458 7.58021 11.2969 7.46812C11.4528 7.35603 11.5552 7.1952 11.6039 6.98563C11.6185 6.90276 11.6259 6.82967 11.6259 6.76632C11.6259 6.62497 11.5844 6.51775 11.5016 6.44466C11.4187 6.36666 11.2774 6.3277 11.0776 6.3277H10.2003L9.92249 7.63628H10.7632Z" fill="#8C8CA1"/>
</svg>
