<svg width="16" height="16" viewBox="0 0 16 16" fill="none" xmlns="http://www.w3.org/2000/svg">
<g clip-path="url(#clip0_1213_2164)">
<path d="M8.0003 5.21273C8.95587 5.21273 9.7305 4.76221 9.7305 4.20646C9.7305 3.65072 8.95587 3.2002 8.0003 3.2002C7.04473 3.2002 6.2701 3.65072 6.2701 4.20646C6.2701 4.76221 7.04473 5.21273 8.0003 5.21273Z" fill="#8C8CA1"/>
<path d="M8.0003 12.7948C8.95587 12.7948 9.7305 12.3442 9.7305 11.7885C9.7305 11.2327 8.95587 10.7822 8.0003 10.7822C7.04473 10.7822 6.2701 11.2327 6.2701 11.7885C6.2701 12.3442 7.04473 12.7948 8.0003 12.7948Z" fill="#8C8CA1"/>
<path d="M5.58914 6.60563C6.06693 5.77813 6.06383 4.88189 5.58222 4.60383C5.10061 4.32577 4.32287 4.77118 3.84509 5.59869C3.36731 6.4262 3.37041 7.32243 3.85201 7.60049C4.33362 7.87856 5.11136 7.43314 5.58914 6.60563Z" fill="#8C8CA1"/>
<path d="M12.1548 10.3962C12.6325 9.56869 12.6297 8.6726 12.1484 8.39473C11.6671 8.11686 10.8897 8.56242 10.4119 9.38993C9.9341 10.2174 9.93694 11.1135 10.4182 11.3914C10.8995 11.6693 11.677 11.2237 12.1548 10.3962Z" fill="#8C8CA1"/>
<path d="M5.58246 11.3912C6.06407 11.1131 6.06717 10.2169 5.58939 9.38936C5.1116 8.56185 4.33386 8.11644 3.85225 8.3945C3.37065 8.67256 3.36755 9.5688 3.84533 10.3963C4.32311 11.2238 5.10085 11.6692 5.58246 11.3912Z" fill="#8C8CA1"/>
<path d="M12.1488 7.60072C12.6301 7.32284 12.633 6.42676 12.1552 5.59925C11.6774 4.77174 10.8999 4.32618 10.4186 4.60405C9.93735 4.88192 9.93451 5.77801 10.4123 6.60551C10.8901 7.43302 11.6676 7.87859 12.1488 7.60072Z" fill="#8C8CA1"/>
</g>
<defs>
<clipPath id="clip0_1213_2164">
<rect width="10.0403" height="9.6" fill="white" transform="translate(2.97998 3.2002)"/>
</clipPath>
</defs>
</svg>
