<svg width="16" height="16" viewBox="0 0 16 16" fill="none" xmlns="http://www.w3.org/2000/svg">
<path d="M10.6514 6.30853C10.4748 6.2023 10.2453 6.2023 10.051 6.30853L8.67356 7.123L7.73761 7.65418L6.36018 8.46868C6.18359 8.57491 5.95401 8.57491 5.75976 8.46868L4.66487 7.83126C4.48828 7.72503 4.36466 7.53026 4.36466 7.31777V6.06065C4.36466 5.84817 4.47062 5.65341 4.66487 5.54717L5.7421 4.92746C5.91869 4.82122 6.14825 4.82122 6.34252 4.92746L7.41975 5.54717C7.59633 5.65341 7.71995 5.84817 7.71995 6.06065V6.87513L8.6559 6.32624V5.51176C8.6559 5.29928 8.54996 5.10452 8.3557 4.99828L6.36018 3.82968C6.18359 3.72344 5.95401 3.72344 5.75976 3.82968L3.72892 4.99828C3.53467 5.10452 3.42871 5.29928 3.42871 5.51176V7.86667C3.42871 8.07913 3.53467 8.27391 3.72892 8.38014L5.75976 9.54874C5.93635 9.65499 6.16594 9.65499 6.36018 9.54874L7.73761 8.75196L8.67356 8.20308L10.051 7.40631C10.2276 7.30008 10.4572 7.30008 10.6514 7.40631L11.7286 8.02603C11.9053 8.13226 12.0289 8.32703 12.0289 8.5395V9.79664C12.0289 10.0091 11.9229 10.2039 11.7286 10.3101L10.6514 10.9475C10.4748 11.0538 10.2453 11.0538 10.051 10.9475L8.97379 10.3278C8.79717 10.2216 8.67356 10.0268 8.67356 9.81433V8.99986L7.73761 9.54874V10.3632C7.73761 10.5757 7.84357 10.7705 8.03784 10.8767L10.0687 12.0453C10.2453 12.1516 10.4748 12.1516 10.6691 12.0453L12.6999 10.8767C12.8765 10.7705 13.0001 10.5757 13.0001 10.3632V8.00831C13.0001 7.79585 12.8942 7.60108 12.6999 7.49485L10.6514 6.30853Z" fill="#8C8CA1"/>
</svg>
