<svg width="16" height="16" viewBox="0 0 16 16" fill="none" xmlns="http://www.w3.org/2000/svg">
<g clip-path="url(#clip0_1214_2190)">
<path d="M10.8281 4.48438H11.9843L9.57809 6.86687C8.70668 7.72922 7.29387 7.72922 6.42184 6.86687L4.01465 4.48438H5.17184L6.99996 6.29422C7.26632 6.55674 7.62528 6.7039 7.99926 6.7039C8.37324 6.7039 8.7322 6.55674 8.99855 6.29422L10.8281 4.48438Z" fill="#8C8CA1"/>
<path d="M5.15703 11.1094H4L6.42188 8.71219C7.29328 7.84984 8.70609 7.84984 9.57812 8.71219L12 11.1094H10.8438L9 9.28484C8.73364 9.02233 8.37468 8.87517 8.0007 8.87517C7.62672 8.87517 7.26776 9.02233 7.00141 9.28484L5.15703 11.1094Z" fill="#8C8CA1"/>
</g>
<defs>
<clipPath id="clip0_1214_2190">
<rect width="8" height="6.625" fill="white" transform="translate(4 4.48438)"/>
</clipPath>
</defs>
</svg>
