<svg width="16" height="16" viewBox="0 0 16 16" fill="none" xmlns="http://www.w3.org/2000/svg">
<path d="M11.387 10.7411H5.87222V11.0633C5.87222 11.7953 5.69538 12.1256 5.34172 12.1832C5.03055 12.1311 4.80299 11.8624 4.80299 11.5471V4.84124C4.82219 3.87757 4.41369 3.31007 3.61314 3.31007V3.9557C4.00245 3.9557 4.17106 4.1901 4.15872 4.83437V11.5471C4.15872 12.1873 4.62753 12.7301 5.25947 12.8234V12.8371H11.7091C12.4219 12.8371 12.999 12.26 12.999 11.5471V10.7411H12.0312V4.45055C12.0312 3.73774 11.4541 3.16064 10.7413 3.16064H4.18888C3.41712 3.16064 2.99902 3.66784 2.99902 4.53418V6.0585H4.47949V5.41286H3.64467V4.53417C3.64467 3.99957 3.80505 3.80492 4.19024 3.80492H10.7413C11.0977 3.80492 11.387 4.09415 11.387 4.45055V10.7411ZM10.0587 12.1928H6.29855C6.40821 11.9748 6.47675 11.7034 6.50279 11.3868H12.3547V11.5485C12.3547 11.9049 12.0655 12.1942 11.7091 12.1942L10.0587 12.1928ZM10.2876 5.58458C10.4658 5.58458 10.6097 5.44064 10.6097 5.26244C10.6097 5.08424 10.4658 4.9403 10.2876 4.9403H5.9339C5.7557 4.9403 5.61177 5.08424 5.61177 5.26244C5.61177 5.44064 5.7557 5.58458 5.9339 5.58458H10.2876ZM10.2862 7.35975C10.4644 7.35975 10.6083 7.21582 10.6083 7.03761C10.6083 6.85941 10.4644 6.71548 10.2862 6.71548H6.31847C6.14026 6.71548 5.99633 6.85941 5.99633 7.03761C5.99633 7.21582 6.14026 7.35975 6.31847 7.35975H10.2862Z" fill="#8C8CA1"/>
<path d="M10.6085 8.80229C10.6085 8.98049 10.4646 9.12442 10.2864 9.12442H6.31867C6.14047 9.12442 5.99653 8.98049 5.99653 8.80229C5.99653 8.62408 6.14047 8.48015 6.31867 8.48015H10.2864C10.4646 8.48015 10.6085 8.62408 10.6085 8.80229Z" fill="#8C8CA1"/>
</svg>
