<svg width="16" height="16" viewBox="0 0 16 16" fill="none" xmlns="http://www.w3.org/2000/svg">
<path fill-rule="evenodd" clip-rule="evenodd" d="M10.6815 5.87096C10.6408 5.88896 10.5969 5.89828 10.5525 5.89832H3.93228C3.90071 5.89831 3.86982 5.88896 3.84341 5.87142C3.817 5.8539 3.7962 5.82894 3.78357 5.79961C3.77094 5.77029 3.76703 5.73787 3.7723 5.70633C3.77758 5.67478 3.79182 5.64547 3.81327 5.622L5.20825 4.10465C5.23846 4.07169 5.27503 4.04539 5.31572 4.0274C5.35639 4.0094 5.4003 4.00008 5.44469 4.00003H12.0649C12.0967 3.99937 12.1281 4.00827 12.155 4.02561C12.1819 4.04295 12.2031 4.06797 12.216 4.09751C12.2289 4.12704 12.2329 4.15978 12.2274 4.19161C12.222 4.22343 12.2074 4.25292 12.1855 4.27635L10.7889 5.7937C10.7587 5.82666 10.7222 5.85297 10.6815 5.87096ZM10.789 6.98852C10.7587 6.95571 10.7221 6.92952 10.6814 6.91152C10.6408 6.89354 10.5969 6.88414 10.5526 6.88391H3.93234C3.90076 6.88392 3.86988 6.89327 3.84346 6.9108C3.81705 6.92833 3.79626 6.95329 3.78363 6.98261C3.771 7.01194 3.76708 7.04436 3.77236 7.0759C3.77763 7.10745 3.79187 7.13675 3.81333 7.16023L5.2083 8.67838C5.23862 8.71119 5.27523 8.73738 5.31588 8.75537C5.35653 8.77336 5.40039 8.78276 5.44474 8.78299H12.065C12.0965 8.78282 12.1272 8.77336 12.1535 8.75577C12.1799 8.73818 12.2005 8.71321 12.213 8.68392C12.2256 8.65463 12.2294 8.62227 12.2241 8.5908C12.2188 8.55932 12.2046 8.53009 12.1832 8.50668L10.789 6.98852ZM12.1855 10.0447L10.789 11.5621C10.7588 11.5951 10.7222 11.6214 10.6815 11.6394C10.6408 11.6574 10.5969 11.6667 10.5526 11.6667H3.93234C3.90076 11.6667 3.86988 11.6574 3.84346 11.6398C3.81705 11.6223 3.79626 11.5973 3.78363 11.568C3.771 11.5387 3.76708 11.5063 3.77236 11.4747C3.77763 11.4432 3.79187 11.4139 3.81333 11.3904L5.2083 9.87305C5.23851 9.84009 5.27509 9.81379 5.31577 9.79579C5.35645 9.7778 5.40035 9.76848 5.44474 9.76843H12.065C12.0968 9.76777 12.1282 9.77666 12.155 9.79401C12.1819 9.81135 12.2032 9.83637 12.216 9.8659C12.229 9.89544 12.2329 9.92818 12.2275 9.96001C12.222 9.99183 12.2075 10.0213 12.1855 10.0447Z" fill="#8C8CA1"/>
</svg>
