<svg width="16" height="16" viewBox="0 0 16 16" fill="none" xmlns="http://www.w3.org/2000/svg">
<path d="M4.50524 11.5108C3.4738 11.8245 2.65364 11.8155 2.41497 11.4882C2.17512 11.1597 2.42033 10.3716 3.03932 9.48065C3.28631 9.12474 3.58986 8.75275 3.94042 8.37362L3.27679 7.88379C2.92504 8.26946 2.61793 8.64919 2.36558 9.01284C1.24783 10.6216 1.41507 11.5102 1.75254 11.9721C2.04061 12.3667 2.52389 12.5672 3.1893 12.5672C3.6339 12.5672 4.16182 12.475 4.75819 12.2929C4.91413 12.2453 5.08851 12.1851 5.28968 12.1101L4.50584 11.5114L4.50524 11.5108Z" fill="#8C8CA1"/>
<path d="M13.2465 3.58837C12.6382 2.75453 11.0997 2.80988 9.02072 3.73597L9.26951 4.51804C9.69328 4.32639 10.1004 4.16926 10.4807 4.0532C10.983 3.89965 11.4419 3.8187 11.8085 3.8187C12.1942 3.8187 12.462 3.9062 12.5829 4.07225C12.8227 4.40079 12.5775 5.18881 11.9585 6.07979C11.4913 6.75174 10.8295 7.47846 10.0438 8.18077C9.8385 8.36408 9.62721 8.54382 9.41592 8.71643L9.38974 8.73785L10.2188 11.29L8.06011 9.72168L8.03154 9.74073C7.80061 9.89607 7.56849 10.0449 7.34232 10.1829C6.78226 10.5246 6.22636 10.8192 5.68773 11.0602L6.4805 8.62001L4.24442 6.99517H7.00843L7.86251 4.36627L8.71659 6.99517H10.614C10.9741 6.64044 11.3383 6.13157 11.3383 6.13157H9.3445L8.62612 3.92107H7.09949L6.38111 6.13157H4.05694L3.58496 7.5838L5.46513 8.94974L4.74675 11.1602L5.78474 11.9143L5.81033 11.9036C6.518 11.6013 7.25304 11.2108 7.99642 10.743L9.8629 12.0994L11.0979 11.2019L10.3754 8.9789C12.3008 7.30407 14.1988 4.89598 13.2459 3.58956L13.2465 3.58837Z" fill="#8C8CA1"/>
</svg>
