<svg width="16" height="16" viewBox="0 0 16 16" fill="none" xmlns="http://www.w3.org/2000/svg">
<path fill-rule="evenodd" clip-rule="evenodd" d="M5.23295 10.7328C5.50945 11.2386 5.91139 11.6596 6.39757 11.9525C6.88376 12.2454 7.43672 12.3998 7.9998 12.3998C8.56289 12.3998 9.11585 12.2454 9.60203 11.9525C10.0882 11.6596 10.4902 11.2386 10.7667 10.7328C11.0504 10.226 11.1998 9.65108 11.1998 9.06587C11.1998 8.48066 11.0504 7.90576 10.7667 7.39896L8.33316 3.00063C8.29984 2.93969 8.25142 2.88898 8.19284 2.85369C8.13426 2.8184 8.06764 2.7998 7.9998 2.7998C7.93197 2.7998 7.86535 2.8184 7.80677 2.85369C7.74819 2.88898 7.69977 2.93969 7.66645 3.00063L5.23295 7.39896C4.94919 7.90576 4.7998 8.48066 4.7998 9.06587C4.7998 9.65108 4.94919 10.226 5.23295 10.7328V10.7328ZM7.31429 5.09312L7.83313 4.15532C7.84979 4.12485 7.874 4.09949 7.90329 4.08185C7.93258 4.0642 7.96589 4.0549 7.9998 4.0549C8.03372 4.0549 8.06703 4.0642 8.09632 4.08185C8.12561 4.09949 8.14982 4.12485 8.16648 4.15532L10.1625 7.763C10.3417 8.08287 10.4528 8.43842 10.4884 8.806C10.524 9.17358 10.4833 9.54477 10.369 9.89487C10.3442 9.77553 10.31 9.65846 10.2669 9.54481C9.9912 8.81871 9.36779 8.2584 8.41364 7.87937C7.75765 7.61972 7.33891 7.23783 7.16876 6.74417C6.94963 6.10815 7.17851 5.4144 7.31429 5.09312ZM6.42955 6.69221L5.83708 7.763C5.61526 8.15914 5.49848 8.60853 5.49848 9.06598C5.49848 9.52343 5.61526 9.97282 5.83708 10.369C6.01639 10.6965 6.26343 10.9794 6.56066 11.1974C6.85789 11.4155 7.19803 11.5634 7.55691 11.6306C7.9158 11.6978 8.28464 11.6828 8.63724 11.5865C8.98985 11.4901 9.31757 11.315 9.59714 11.0734C9.75163 10.666 9.75715 10.2147 9.61267 9.80345C9.41019 9.27886 8.92273 8.86006 8.1639 8.55843C7.30614 8.2189 6.74892 7.68884 6.50789 6.98343C6.47543 6.88829 6.44925 6.791 6.42955 6.69221V6.69221Z" fill="#8C8CA1"/>
</svg>
