<svg width="16" height="16" viewBox="0 0 16 16" fill="none" xmlns="http://www.w3.org/2000/svg">
<path fill-rule="evenodd" clip-rule="evenodd" d="M2.26172 10.4756C2.61458 11.6068 3.34106 12.655 4.44116 13.423C7.15509 15.3273 10.5384 14.5179 12.6608 12.245C12.7075 12.1983 12.6608 12.1153 12.5985 12.1413C12.2197 12.3177 11.7786 12.3852 11.322 12.3021C10.5021 12.1465 9.85345 11.4978 9.69778 10.678C9.48502 9.56749 10.17 8.566 11.1507 8.28579L10.0558 8.15088L2.26691 10.4756H2.26172Z" fill="#8C8CA1"/>
<path fill-rule="evenodd" clip-rule="evenodd" d="M9.5004 1.55567C9.19943 2.29252 8.03706 2.57792 7.35728 2.76991C6.65155 2.97747 5.80572 3.28882 5.10518 3.65724C2.48466 5.03753 1.47797 7.96935 2.26672 10.4809C2.89979 12.2711 4.77827 12.982 6.79166 12.1984C7.94884 11.747 8.23943 11.3941 8.95554 10.1539C9.44332 9.30813 10.149 8.62317 11.109 8.30664C11.9082 8.04718 12.9512 8.0887 13.9267 8.29107C13.9838 8.30145 14.0305 8.23399 13.989 8.18729C13.3923 7.52309 12.5412 7.08202 11.5812 7.01975C11.2336 6.99899 10.8807 7.03013 10.5434 7.10796C10.2165 7.1858 9.89996 7.31034 9.60937 7.48158C9.46926 7.55941 9.31878 7.63725 9.1631 7.70471C9.06451 7.74622 8.96073 7.77735 8.86213 7.8033C8.67013 7.85 8.47295 7.87595 8.27576 7.87595C7.6323 7.87595 7.01998 7.58536 6.66193 7.0457C6.0548 6.13242 6.34539 5.02715 7.25868 4.42003C7.85544 4.05161 8.52484 3.82329 9.06451 3.30957C9.56267 2.84256 9.75986 2.443 9.6405 1.57643C9.63532 1.53492 9.60418 1.51416 9.57305 1.51416C9.5471 1.51416 9.52115 1.52973 9.51078 1.55567H9.5004Z" fill="#8C8CA1"/>
</svg>
