<svg width="16" height="16" viewBox="0 0 16 16" fill="none" xmlns="http://www.w3.org/2000/svg">
<g clip-path="url(#clip0_1217_2304)">
<rect width="16" height="16" rx="8" fill="#303040"/>
<path d="M0.870605 8.88676C0.870605 12.6563 3.92099 15.7066 7.68438 15.7066C11.4478 15.7066 14.4982 12.6501 14.4982 8.88676C14.4982 5.11723 11.4478 2.06689 7.68438 2.06689C3.92099 2.06689 0.870605 5.12343 0.870605 8.88676Z" fill="#8C8CA1"/>
<path fill-rule="evenodd" clip-rule="evenodd" d="M1.14307 10.9577C1.56466 12.3093 2.43266 13.5617 3.74706 14.4793C6.98965 16.7546 11.032 15.7874 13.5678 13.0719C13.6236 13.0161 13.5678 12.9169 13.4934 12.9479C13.0408 13.1587 12.5138 13.2393 11.9682 13.1401C10.9886 12.9541 10.2136 12.1791 10.0276 11.1995C9.77344 9.87274 10.5918 8.67617 11.7636 8.34137L10.4554 8.18018L1.14927 10.9577H1.14307Z" fill="#E2E2E8"/>
<path d="M8 16C12.4183 16 16 12.4183 16 8C16 3.58172 12.4183 0 8 0" stroke="#1E1E2A" stroke-width="2"/>
<path fill-rule="evenodd" clip-rule="evenodd" d="M9.79203 0.300087C9.43244 1.18047 8.04364 1.52146 7.23144 1.75086C6.38825 1.99885 5.37765 2.37085 4.54065 2.81104C1.40966 4.4602 0.206869 7.96313 1.14927 10.9639C1.90566 13.1028 4.15005 13.9522 6.55565 13.016C7.93824 12.4766 8.28544 12.0551 9.14104 10.5733C9.72384 9.5627 10.567 8.74432 11.714 8.36613C12.6688 8.05613 13.915 8.10573 15.0806 8.34753C15.1488 8.35993 15.2046 8.27933 15.155 8.22353C14.442 7.42995 13.4252 6.90296 12.2782 6.82856C11.8628 6.80376 11.4412 6.84096 11.0382 6.93395C10.6476 7.02695 10.2694 7.17575 9.92223 7.38035C9.75483 7.47334 9.57504 7.56634 9.38904 7.64694C9.27124 7.69654 9.14724 7.73374 9.02944 7.76474C8.80004 7.82054 8.56444 7.85154 8.32884 7.85154C7.56004 7.85154 6.82845 7.50434 6.40065 6.85956C5.67525 5.76838 6.02245 4.4478 7.11364 3.72242C7.82664 3.28223 8.62644 3.00943 9.27124 2.39565C9.86643 1.83766 10.102 1.36027 9.95943 0.324887C9.95323 0.275288 9.91603 0.250488 9.87883 0.250488C9.84783 0.250488 9.81683 0.269088 9.80443 0.300087H9.79203Z" fill="#F4F4F7"/>
<path d="M8 16C3.58172 16 0 12.4183 0 8C0 3.58172 3.58172 0 8 0" stroke="#1E1E2A" stroke-width="2"/>
</g>
<defs>
<clipPath id="clip0_1217_2304">
<rect width="16" height="16" rx="8" fill="white"/>
</clipPath>
</defs>
</svg>
