<svg width="32" height="32" viewBox="0 0 32 32" fill="none" xmlns="http://www.w3.org/2000/svg">
<rect width="32" height="32" rx="16" fill="#3D3D4D"/>
<path fill-rule="evenodd" clip-rule="evenodd" d="M9.29289 15.7071C8.90237 15.3166 8.90237 14.6834 9.29289 14.2929L15.2929 8.29289C15.6834 7.90237 16.3166 7.90237 16.7071 8.29289L22.7071 14.2929C23.0976 14.6834 23.0976 15.3166 22.7071 15.7071C22.3166 16.0976 21.6834 16.0976 21.2929 15.7071L17 11.4142L17 23C17 23.5523 16.5523 24 16 24C15.4477 24 15 23.5523 15 23L15 11.4142L10.7071 15.7071C10.3166 16.0976 9.68342 16.0976 9.29289 15.7071Z" fill="#8C8CA1"/>
</svg>
