<svg width="32" height="32" viewBox="0 0 32 32" fill="none" xmlns="http://www.w3.org/2000/svg">
<rect width="32" height="32" rx="16" fill="#3D3D4D"/>
<path fill-rule="evenodd" clip-rule="evenodd" d="M12.267 9.45496C12.9101 9.40364 13.5206 9.15077 14.0116 8.73234C15.1574 7.75589 16.8426 7.75589 17.9884 8.73234C18.4794 9.15077 19.0899 9.40364 19.733 9.45496C21.2336 9.57471 22.4253 10.7664 22.545 12.267C22.5964 12.9101 22.8492 13.5206 23.2677 14.0116C24.2441 15.1574 24.2441 16.8426 23.2677 17.9884C22.8492 18.4794 22.5964 19.0899 22.545 19.733C22.4253 21.2336 21.2336 22.4253 19.733 22.545C19.0899 22.5964 18.4794 22.8492 17.9884 23.2677C16.8426 24.2441 15.1574 24.2441 14.0116 23.2677C13.5206 22.8492 12.9101 22.5964 12.267 22.545C10.7664 22.4253 9.57471 21.2336 9.45496 19.733C9.40364 19.0899 9.15077 18.4794 8.73234 17.9884C7.75589 16.8426 7.75589 15.1574 8.73234 14.0116C9.15077 13.5206 9.40364 12.9101 9.45496 12.267C9.57471 10.7664 10.7664 9.57471 12.267 9.45496ZM19.7071 14.7071C20.0976 14.3166 20.0976 13.6834 19.7071 13.2929C19.3166 12.9024 18.6834 12.9024 18.2929 13.2929L15 16.5858L13.7071 15.2929C13.3166 14.9024 12.6834 14.9024 12.2929 15.2929C11.9024 15.6834 11.9024 16.3166 12.2929 16.7071L14.2929 18.7071C14.6834 19.0976 15.3166 19.0976 15.7071 18.7071L19.7071 14.7071Z" fill="#8C8CA1"/>
</svg>
