<svg width="32" height="32" xmlns="http://www.w3.org/2000/svg" fill="none">

 <g>
  <title>Layer 1</title>
  <path id="svg_1" d="m0,16c0,-8.69406 7.30594,-16 16,-16l0,0c8.69406,0 16,7.30594 16,16l0,0c0,8.69406 -7.30594,16 -16,16l0,0c-8.69406,0 -16,-7.30594 -16,-16l0,0z" opacity="undefined" fill="#3D3D4D"/>
  <path transform="rotate(-180 16 16)" id="svg_2" fill="#8C8CA1" d="m9.29289,15.7071c-0.39052,-0.3905 -0.39052,-1.0237 0,-1.4142l6.00001,-6.00001c0.3905,-0.39052 1.0237,-0.39052 1.4142,0l6,6.00001c0.3905,0.3905 0.3905,1.0237 0,1.4142c-0.3905,0.3905 -1.0237,0.3905 -1.4142,0l-4.2929,-4.2929l0,11.5858c0,0.5523 -0.4477,1 -1,1c-0.5523,0 -1,-0.4477 -1,-1l0,-11.5858l-4.2929,4.2929c-0.3905,0.3905 -1.02368,0.3905 -1.41421,0z" clip-rule="evenodd" fill-rule="evenodd"/>
 </g>
</svg>