<svg width="20" height="20" viewBox="0 0 20 20" fill="none"
    xmlns="http://www.w3.org/2000/svg">
    <g clip-path="url(#clip0_1296_23279)">
        <path d="M4.09698 6.39501C7.35855 3.20166 12.6466 3.20166 15.9082 6.39501L16.3007 6.77934C16.4638 6.939 16.4638 7.19788 16.3007 7.35754L14.9579 8.67224C14.8764 8.75208 14.7442 8.75208 14.6626 8.67224L14.1225 8.14337C11.8471 5.91561 8.15804 5.91561 5.88268 8.14337L5.3042 8.70975C5.22266 8.78958 5.09046 8.78958 5.00892 8.70975L3.66614 7.39505C3.50306 7.23538 3.50306 6.97651 3.66614 6.81684L4.09698 6.39501ZM18.6852 9.11395L19.8803 10.284C20.0433 10.4437 20.0433 10.7026 19.8803 10.8622L14.4916 16.1383C14.3285 16.298 14.0641 16.298 13.901 16.1383C13.901 16.1383 13.901 16.1383 13.901 16.1383L10.0764 12.3937C10.0357 12.3538 9.96955 12.3538 9.92878 12.3937C9.92878 12.3937 9.92878 12.3937 9.92878 12.3937L6.10429 16.1383C5.94121 16.298 5.67681 16.298 5.51373 16.1383C5.51373 16.1383 5.51373 16.1383 5.51372 16.1383L0.124872 10.8622C-0.0382061 10.7025 -0.0382061 10.4436 0.124872 10.284L1.31996 9.11388C1.48303 8.95421 1.74744 8.95421 1.91051 9.11388L5.73514 12.8585C5.77591 12.8984 5.84201 12.8984 5.88278 12.8585C5.88278 12.8585 5.88278 12.8585 5.88279 12.8585L9.70722 9.11388C9.8703 8.95421 10.1347 8.9542 10.2978 9.11387C10.2978 9.11387 10.2978 9.11387 10.2978 9.11387L14.1224 12.8585C14.1632 12.8984 14.2293 12.8984 14.2701 12.8585L18.0946 9.11395C18.2577 8.95428 18.5221 8.95428 18.6852 9.11395Z" fill="#3B99FC"/>
    </g>
    <defs>
        <clipPath id="clip0_1296_23279">
            <rect width="20" height="20" fill="white"/>
        </clipPath>
    </defs>
</svg>