<svg width="16" height="16" viewBox="0 0 16 16" fill="none" xmlns="http://www.w3.org/2000/svg">
<path d="M13.1191 7.68137C13.1495 8.12648 13.1213 8.56241 13.0416 8.98257C13.0416 8.98039 13.0395 8.9782 13.0395 8.97579C12.5628 7.81289 11.6214 6.97256 10.7944 6.5084C10.9618 4.53777 10.2933 3.70641 9.53608 3.57161C9.38937 3.54405 9.23856 3.54677 9.09294 3.5796C8.94731 3.61244 8.80994 3.6747 8.68925 3.76256C8.56855 3.85042 8.4671 3.96202 8.39111 4.09051C8.31512 4.219 8.26619 4.36167 8.24734 4.50976C8.2289 4.65261 8.23882 4.7977 8.27653 4.93672C8.31423 5.07573 8.37899 5.20594 8.46709 5.3199C8.55519 5.43385 8.6649 5.52931 8.78994 5.60081C8.91498 5.67231 9.05289 5.71844 9.19579 5.73656C9.24853 5.74335 9.30017 5.74554 9.35073 5.74444C9.35441 5.81477 9.35631 5.88519 9.35642 5.95562C8.65635 5.78274 8.00246 5.74772 7.40591 5.80178C7.18158 5.81649 6.95833 5.84463 6.73736 5.88603C6.81177 5.22076 7.06212 4.47256 7.54641 3.92656C8.01472 3.39741 8.7115 3.0952 9.47087 3.17267C9.61486 3.18733 9.76871 3.22322 9.90679 3.26939C9.91358 3.27158 9.92036 3.27377 9.92605 3.27486C11.6855 3.99177 12.981 5.66238 13.118 7.68137H13.1191ZM8.54299 8.68364L8.5419 8.68583C8.37592 8.92437 8.18783 9.14674 7.98014 9.35C7.6656 9.01774 7.39929 8.64293 7.18904 8.23656C7.17898 8.21511 7.16782 8.19607 7.15753 8.17463V8.17244C7.03432 7.90908 6.93579 7.63488 6.86319 7.35333C7.32932 7.24326 7.78669 7.20277 8.22393 7.22422L8.29352 7.2275H8.29571C8.56991 7.25004 8.85528 7.30059 9.15071 7.38156C9.01356 7.84269 8.80915 8.28107 8.54409 8.68255L8.54299 8.68364ZM6.30034 3.18623L6.29706 3.19061C5.52741 4.18391 5.27115 5.41859 5.28253 6.36681C3.49156 7.20715 3.10728 8.20155 3.36791 8.92502C3.37448 8.94537 3.38258 8.96441 3.39046 8.98367C3.50275 9.2519 3.71694 9.46458 3.98596 9.57496C4.25498 9.68534 4.55683 9.6844 4.82516 9.57234C5.09339 9.46005 5.30607 9.24586 5.41645 8.97684C5.52683 8.70782 5.52589 8.40597 5.41383 8.13765C5.39343 8.08999 5.36982 8.04379 5.34315 7.99934C5.39939 7.96214 5.46001 7.92537 5.52522 7.88708C5.72502 8.58035 6.02067 9.16574 6.36556 9.6555C6.49029 9.84085 6.6251 10.0194 6.77216 10.1914C6.15875 10.4599 5.38582 10.6173 4.67 10.4711C3.97803 10.3297 3.36791 9.87806 3.05454 9.18128C2.99451 9.04463 2.94931 8.90193 2.91973 8.75564C2.90126 8.62999 2.88739 8.50371 2.87816 8.37705C2.7184 6.02543 4.17696 3.93225 6.30034 3.18623ZM8.34735 13.1486C6.95095 13.244 5.64536 12.7678 4.65884 11.9205C5.90381 12.0903 7.10151 11.6946 7.91734 11.2106C9.54068 12.3419 10.5946 12.1778 11.0911 11.5902C11.1884 11.4768 11.2615 11.3447 11.3059 11.2021C11.3503 11.0594 11.365 10.9092 11.3493 10.7606C11.3335 10.612 11.2875 10.4682 11.2141 10.3381C11.1408 10.2079 11.0416 10.0941 10.9226 10.0037C10.8081 9.91634 10.6774 9.85244 10.5382 9.81562C10.3989 9.7788 10.2537 9.76979 10.111 9.7891C9.96825 9.8084 9.8307 9.85565 9.70622 9.92814C9.58174 10.0006 9.47276 10.0969 9.38552 10.2116C9.35423 10.2531 9.326 10.2982 9.30127 10.3431C9.24174 10.3127 9.17872 10.279 9.11482 10.242C9.57223 9.77008 9.94707 9.22465 10.2237 8.6285C10.3227 8.42671 10.4097 8.21926 10.4843 8.00722C11.0237 8.40506 11.5472 8.99483 11.7787 9.68789C12.0024 10.3575 11.9168 11.1125 11.4697 11.7318C11.3814 11.852 11.2805 11.9623 11.1686 12.061L11.1642 12.0653C10.3563 12.7017 9.37484 13.0789 8.34867 13.1475L8.34735 13.1486Z" fill="#8C8CA1"/>
</svg>
