<svg width="16" height="16" viewBox="0 0 16 16" fill="none" xmlns="http://www.w3.org/2000/svg">
<path fill-rule="evenodd" clip-rule="evenodd" d="M9.90468 10.2865C9.83805 10.5104 9.68816 10.6949 9.48263 10.806C9.2771 10.9173 9.04068 10.9418 8.81676 10.8751L6.57509 10.2075L7.07451 8.53084L9.31602 9.19854H9.3161C9.77827 9.33617 10.0424 9.82421 9.90468 10.2865ZM10.6607 6.85044C10.7719 7.05597 10.7964 7.29239 10.7298 7.51639C10.592 7.97848 10.1038 8.24244 9.64183 8.10505H9.64175L7.40016 7.43743L7.89942 5.76077L10.1411 6.42839C10.365 6.4951 10.5495 6.64491 10.6607 6.85044ZM11.6642 6.30756C11.408 5.834 10.9826 5.48853 10.4667 5.3349L10.1702 5.24662L10.5854 3.85247L9.52004 3.53518L9.10484 4.92933L8.1953 4.65844L8.61059 3.26429L8.35538 3.18827L7.32151 2.88037L6.92127 4.22421L5.66133 3.84897L5.30575 5.043L6.56569 5.41832L5.27128 9.76443L4.01134 9.38919L3.65576 10.5833L4.91562 10.9585L4.57787 12.0927L4.833 12.1687L5.86687 12.4766L6.21966 11.2921L7.13134 11.5636L6.77855 12.7482L7.83956 13.0643L8.19236 11.8796L8.49103 11.9685C8.68143 12.0252 8.8759 12.0533 9.06917 12.0533C9.39952 12.0533 9.72677 11.9712 10.0255 11.8096C10.4991 11.5533 10.8445 11.1281 10.9982 10.612C11.1598 10.0692 11.08 9.51162 10.823 9.05263C11.2896 8.80913 11.6614 8.38509 11.8232 7.84204C11.9769 7.32598 11.9204 6.78103 11.6642 6.30756Z" fill="#8C8CA1"/>
</svg>
