<svg width="16" height="16" viewBox="0 0 16 16" fill="none" xmlns="http://www.w3.org/2000/svg">
<path fill-rule="evenodd" clip-rule="evenodd" d="M10.6069 5.3057C10.2065 4.31068 9.25549 4.26092 8.10429 4.45993L7.70387 3.06689L6.85298 3.31565L7.2534 4.65893C7.17229 4.67909 7.08297 4.70741 6.98876 4.73728L6.98876 4.73728C6.85042 4.78114 6.70154 4.82834 6.55267 4.85794L6.15225 3.4649L5.30136 3.71366L5.70178 5.1067C5.60167 5.13157 5.51408 5.15645 5.42649 5.18132C5.3389 5.2062 5.25131 5.23107 5.1512 5.25595L4 5.65396L4.25026 6.54948C4.25026 6.54948 4.90094 6.35048 4.85089 6.35048C5.20126 6.25097 5.35141 6.40023 5.45152 6.59923L5.90199 8.19127H6.00209L5.90199 8.24102L6.55267 10.4798C6.55267 10.5793 6.55267 10.7783 6.30241 10.8778L5.70178 11.0768L5.80188 12.1216L6.90304 11.8231L7.50366 11.6739L7.90408 13.0669L8.75497 12.8181L8.35455 11.4251C8.60481 11.3754 8.80502 11.3256 9.05529 11.2261L9.4557 12.6191L10.3066 12.3704L9.90617 10.9773C11.3076 10.4798 12.2086 9.83306 11.9583 8.44003C11.7581 7.3455 11.1074 6.99724 10.2065 7.04699C10.707 6.54948 10.9072 6.05197 10.6069 5.3057ZM10.3066 8.68879C10.5713 9.60977 9.1636 10.0282 8.41487 10.2507L8.41483 10.2507C8.31421 10.2806 8.2255 10.307 8.15434 10.3306L7.60377 8.44003C7.68271 8.42041 7.78153 8.39134 7.89445 8.35813C8.64067 8.13863 10.0023 7.73811 10.3066 8.68879ZM7.49306 7.5542C8.0915 7.38516 9.38151 7.02077 9.10534 6.15147C8.87894 5.25134 7.62852 5.65407 7.02154 5.84957C6.95755 5.87018 6.90072 5.88848 6.85298 5.90272L7.35351 7.59426C7.39374 7.58226 7.44076 7.56898 7.49306 7.5542Z" fill="#8C8CA1"/>
</svg>
