<svg width="16" height="16" viewBox="0 0 16 16" fill="none" xmlns="http://www.w3.org/2000/svg">
<g clip-path="url(#clip0_1206_1253)">
<path d="M8.00416 2L3 4.875V10.625L8.00416 13.5L13 10.625V4.875L8.00416 2ZM11.5179 9.77161L7.99584 11.7932L4.4821 9.77161V5.72839L8.00416 3.70677L11.5179 5.72839V9.77161Z" fill="#8C8CA1"/>
<path d="M8.00393 13.5L12.9998 10.625V4.875L8.00393 2V3.70677L11.5177 5.72839V9.7799L7.99561 11.8015V13.5H8.00393Z" fill="#8C8CA1"/>
<path d="M7.99584 2L3 4.875V10.625L7.99584 13.5V11.7932L4.4821 9.77161V5.7201L7.99584 3.70677V2Z" fill="#8C8CA1"/>
<path d="M10.3357 9.09257L8.00427 10.4348L5.66455 9.09257V6.40814L8.00427 5.06592L10.3357 6.40814L9.36147 6.97154L7.99594 6.18443L6.63874 6.97154V8.53746L8.00427 9.32456L9.3698 8.53746L10.3357 9.09257Z" fill="#8C8CA1"/>
</g>
<defs>
<clipPath id="clip0_1206_1253">
<rect width="10" height="11.5" fill="white" transform="translate(3 2)"/>
</clipPath>
</defs>
</svg>
