<svg width="98" height="98" viewBox="0 0 98 98" fill="none" xmlns="http://www.w3.org/2000/svg">
  <g clip-path="url(#clip0)">
    <rect width="97.2249" height="97.2249" rx="7.29187" fill="#ededed" />
    <g opacity="0.3">
      <rect opacity="0.6" x="18.3164" y="18.3388" width="6.25017" height="6.26698" rx="0.781272" fill="white" />
      <rect x="26.1292" y="18.3387" width="6.25017" height="6.26698" rx="0.781272" fill="black" />
      <rect opacity="0.51" x="18.3164" y="26.1725" width="6.25017" height="6.26698" rx="0.781272" fill="white" />
      <rect opacity="0.7" x="18.3165" y="-5.1626" width="6.25017" height="6.26698" rx="0.781272" fill="white" />
      <rect opacity="0.4" x="18.3164" y="34.0062" width="6.25017" height="6.26698" rx="0.781272" fill="white" />
      <rect opacity="0.89" x="18.3164" y="2.67151" width="6.25017" height="6.26698" rx="0.781272" fill="white" />
      <rect x="18.3165" y="41.8399" width="6.25017" height="6.26698" rx="0.781272" fill="white" />
      <rect x="-5.1217" y="-5.16257" width="6.25017" height="6.26698" rx="0.781272" fill="white" />
      <rect x="-5.1217" y="34.0062" width="6.25017" height="6.26698" rx="0.781272" fill="white" />
      <rect x="26.1292" y="26.1724" width="6.25017" height="6.26698" rx="0.781272" fill="black" />
      <rect opacity="0.8" x="26.1292" y="2.67136" width="6.25017" height="6.26698" rx="0.781272" fill="white" />
      <rect opacity="0.6" x="26.1292" y="41.8401" width="6.25017" height="6.26698" rx="0.781272" fill="white" />
      <rect x="26.1293" y="-5.16275" width="6.25017" height="6.26698" rx="0.781272" fill="white" />
      <rect x="26.1293" y="34.006" width="6.25017" height="6.26698" rx="0.781272" fill="black" />
      <rect opacity="0.6" x="26.1293" y="10.505" width="6.25017" height="6.26698" rx="0.781272" fill="white" />
      <rect x="26.1292" y="49.6738" width="6.25017" height="6.26698" rx="0.781272" fill="white" />
      <rect x="18.3164" y="10.5052" width="6.25017" height="6.26698" rx="0.781272" fill="white" />
      <rect opacity="0.8" x="18.3165" y="49.6735" width="6.25017" height="6.26698" rx="0.781272" fill="white" />
      <rect x="-5.1217" y="18.3389" width="6.25017" height="6.26698" rx="0.781272" fill="white" />
      <rect opacity="0.7" x="-5.1217" y="26.1725" width="6.25017" height="6.26698" rx="0.781272" fill="white" />
      <rect opacity="0.8" x="-5.1217" y="2.67154" width="6.25017" height="6.26698" rx="0.781272" fill="white" />
      <rect opacity="0.7" x="-5.12158" y="41.8399" width="6.25017" height="6.26698" rx="0.781272" fill="white" />
      <rect opacity="0.4" x="-5.12183" y="10.5052" width="6.25017" height="6.26698" rx="0.781272" fill="white" />
      <rect opacity="0.4" x="-5.1217" y="49.6736" width="6.25017" height="6.26698" rx="0.781272" fill="white" />
      <rect opacity="0.7" x="33.9419" y="18.3386" width="6.25017" height="6.26698" rx="0.781272" fill="white" />
      <rect opacity="0.8" x="33.9419" y="26.1722" width="6.25017" height="6.26698" rx="0.781272" fill="white" />
      <rect opacity="0.7" x="33.9419" y="-5.16248" width="6.25017" height="6.26698" rx="0.781272" fill="white" />
      <rect opacity="0.4" x="33.9419" y="34.0059" width="6.25017" height="6.26698" rx="0.781272" fill="white" />
      <rect x="41.7548" y="-5.1626" width="6.25017" height="6.26698" rx="0.781272" fill="white" />
      <rect x="41.7546" y="34.0062" width="6.25017" height="6.26698" rx="0.781272" fill="white" />
      <rect opacity="0.6" x="41.7546" y="26.1725" width="6.25017" height="6.26698" rx="0.781272" fill="white" />
      <rect opacity="0.7" x="41.7546" y="2.67151" width="6.25017" height="6.26698" rx="0.781272" fill="white" />
      <rect opacity="0.4" x="41.7546" y="41.8398" width="6.25017" height="6.26698" rx="0.781272" fill="white" />
      <rect opacity="0.4" x="33.9419" y="2.6712" width="6.25017" height="6.26698" rx="0.781272" fill="white" />
      <rect opacity="0.4" x="33.9418" y="41.84" width="6.25017" height="6.26698" rx="0.781272" fill="white" />
      <rect x="33.9419" y="10.5049" width="6.25017" height="6.26698" rx="0.781272" fill="black" />
      <rect opacity="0.6" x="33.9419" y="49.6736" width="6.25017" height="6.26698" rx="0.781272" fill="white" />
      <rect opacity="0.7" x="2.69104" y="18.3387" width="6.25017" height="6.26698" rx="0.781272" fill="white" />
      <rect opacity="0.6" x="2.69104" y="-5.16272" width="6.25017" height="6.26698" rx="0.781272" fill="white" />
      <rect opacity="0.7" x="2.69104" y="34.0061" width="6.25017" height="6.26698" rx="0.781272" fill="white" />
      <rect x="2.69104" y="2.67139" width="6.25017" height="6.26698" rx="0.781272" fill="white" />
      <rect opacity="0.7" x="2.69104" y="41.8402" width="6.25017" height="6.26698" rx="0.781272" fill="white" />
      <rect opacity="0.6" x="41.7546" y="18.3388" width="6.25017" height="6.26698" rx="0.781272" fill="white" />
      <rect x="41.7546" y="10.5052" width="6.25017" height="6.26698" rx="0.781272" fill="black" />
      <rect opacity="0.6" x="41.7548" y="49.6735" width="6.25017" height="6.26698" rx="0.781272" fill="white" />
      <rect opacity="0.45" x="10.5038" y="18.3386" width="6.25017" height="6.26698" rx="0.781272" fill="white" />
      <rect x="10.5038" y="26.1722" width="6.25017" height="6.26698" rx="0.781272" fill="white" />
      <rect opacity="0.8" x="2.69104" y="26.1724" width="6.25017" height="6.26698" rx="0.781272" fill="white" />
      <rect opacity="0.4" x="10.5038" y="10.5049" width="6.25017" height="6.26698" rx="0.781272" fill="white" />
      <rect opacity="0.7" x="10.5038" y="49.6737" width="6.25017" height="6.26698" rx="0.781272" fill="white" />
      <rect opacity="0.74" x="10.5038" y="2.67123" width="6.25017" height="6.26698" rx="0.781272" fill="white" />
      <rect opacity="0.6" x="10.5037" y="41.84" width="6.25017" height="6.26698" rx="0.781272" fill="white" />
      <rect opacity="0.6" x="10.5037" y="-5.16245" width="6.25017" height="6.26698" rx="0.781272" fill="white" />
      <rect opacity="0.4" x="10.5037" y="34.0059" width="6.25017" height="6.26698" rx="0.781272" fill="white" />
      <rect opacity="0.8" x="2.69104" y="10.5051" width="6.25017" height="6.26698" rx="0.781272" fill="white" />
      <rect opacity="0.5" x="2.69092" y="49.6738" width="6.25017" height="6.26698" rx="0.781272" fill="white" />
    </g>
    <g opacity="0.3">
      <rect opacity="0.6" x="18.3163" y="58.3713" width="6.25017" height="6.26698" rx="0.781272" fill="white" />
      <rect x="26.129" y="58.3712" width="6.25017" height="6.26698" rx="0.781272" fill="white" />
      <rect opacity="0.8" x="18.3164" y="66.205" width="6.25017" height="6.26698" rx="0.781272" fill="white" />
      <rect opacity="0.7" x="18.3164" y="74.0387" width="6.25017" height="6.26698" rx="0.781272" fill="white" />
      <rect opacity="0.4" x="18.3163" y="81.8728" width="6.25017" height="6.26698" rx="0.781272" fill="white" />
      <rect x="-5.12183" y="74.0387" width="6.25017" height="6.26698" rx="0.781272" fill="white" />
      <rect opacity="0.7" x="26.1292" y="66.2049" width="6.25017" height="6.26698" rx="0.781272" fill="white" />
      <rect opacity="0.8" x="26.129" y="81.8726" width="6.25017" height="6.26698" rx="0.781272" fill="white" />
      <rect x="26.1292" y="74.0385" width="6.25017" height="6.26698" rx="0.781272" fill="white" />
      <rect opacity="0.6" x="26.1292" y="89.7063" width="6.25017" height="6.26698" rx="0.781272" fill="white" />
      <rect x="18.3163" y="89.7064" width="6.25017" height="6.26698" rx="0.781272" fill="white" />
      <rect opacity="0.4" x="-5.12183" y="58.3714" width="6.25017" height="6.26698" rx="0.781272" fill="white" />
      <rect opacity="0.9" x="-5.12183" y="66.205" width="6.25017" height="6.26698" rx="0.781272" fill="white" />
      <rect opacity="0.8" x="-5.12183" y="81.8728" width="6.25017" height="6.26698" rx="0.781272" fill="white" />
      <rect opacity="0.4" x="-5.12195" y="89.7065" width="6.25017" height="6.26698" rx="0.781272" fill="white" />
      <rect opacity="0.6" x="33.9418" y="58.3715" width="6.25017" height="6.26698" rx="0.781272" fill="white" />
      <rect opacity="0.7" x="33.9417" y="66.2051" width="6.25017" height="6.26698" rx="0.781272" fill="white" />
      <rect opacity="0.7" x="33.9418" y="74.0388" width="6.25017" height="6.26698" rx="0.781272" fill="white" />
      <rect x="41.7546" y="74.0387" width="6.25017" height="6.26698" rx="0.781272" fill="white" />
      <rect x="41.7545" y="66.205" width="6.25017" height="6.26698" rx="0.781272" fill="black" />
      <rect x="41.7545" y="81.8728" width="6.25017" height="6.26698" rx="0.781272" fill="black" />
      <rect opacity="0.23" x="33.9418" y="81.8725" width="6.25017" height="6.26698" rx="0.781272" fill="white" />
      <rect opacity="0.4" x="33.9418" y="89.7061" width="6.25017" height="6.26698" rx="0.781272" fill="white" />
      <rect opacity="0.7" x="2.69092" y="58.3712" width="6.25017" height="6.26698" rx="0.781272" fill="white" />
      <rect opacity="0.7" x="2.69092" y="74.0385" width="6.25017" height="6.26698" rx="0.781272" fill="white" />
      <rect x="2.69092" y="81.8727" width="6.25017" height="6.26698" rx="0.781272" fill="white" />
      <rect x="41.7546" y="58.3713" width="6.25017" height="6.26698" rx="0.781272" fill="black" />
      <rect opacity="0.7" x="41.7545" y="89.7064" width="6.25017" height="6.26698" rx="0.781272" fill="white" />
      <rect opacity="0.5" x="10.5035" y="58.3715" width="6.25017" height="6.26698" rx="0.781272" fill="white" />
      <rect x="10.5035" y="66.2051" width="6.25017" height="6.26698" rx="0.781272" fill="white" />
      <rect opacity="0.7" x="2.69104" y="66.2049" width="6.25017" height="6.26698" rx="0.781272" fill="white" />
      <rect opacity="0.4" x="10.5037" y="89.7062" width="6.25017" height="6.26698" rx="0.781272" fill="white" />
      <rect opacity="0.74" x="10.5037" y="81.8725" width="6.25017" height="6.26698" rx="0.781272" fill="white" />
      <rect opacity="0.4" x="10.5035" y="74.0388" width="6.25017" height="6.26698" rx="0.781272" fill="white" />
      <rect opacity="0.8" x="2.69092" y="89.7063" width="6.25017" height="6.26698" rx="0.781272" fill="white" />
    </g>
    <g opacity="0.3">
      <rect opacity="0.6" x="57.6401" y="26.1726" width="6.25017" height="6.26698" rx="0.781272" fill="white" />
      <rect opacity="0.5" x="57.6401" y="2.67154" width="6.25017" height="6.26698" rx="0.781272" fill="white" />
      <rect x="57.6401" y="41.8403" width="6.25017" height="6.26698" rx="0.781272" fill="black" />
      <rect x="57.6401" y="10.5052" width="6.25017" height="6.26698" rx="0.781272" fill="black" />
      <rect x="57.64" y="49.674" width="6.25017" height="6.26698" rx="0.781272" fill="white" />
      <rect x="49.8274" y="10.5054" width="6.25017" height="6.26698" rx="0.781272" fill="black" />
      <rect x="49.8275" y="49.6737" width="6.25017" height="6.26698" rx="0.781272" fill="black" />
      <rect opacity="0.6" x="96.7037" y="18.339" width="6.25017" height="6.26698" rx="0.781272" fill="white" />
      <rect opacity="0.51" x="96.7037" y="26.1727" width="6.25017" height="6.26698" rx="0.781272" fill="white" />
      <rect opacity="0.7" x="96.7039" y="-5.16245" width="6.25017" height="6.26698" rx="0.781272" fill="white" />
      <rect opacity="0.4" x="96.7037" y="34.0063" width="6.25017" height="6.26698" rx="0.781272" fill="white" />
      <rect opacity="0.4" x="96.7037" y="2.67166" width="6.25017" height="6.26698" rx="0.781272" fill="white" />
      <rect x="96.7037" y="41.84" width="6.25017" height="6.26698" rx="0.781272" fill="white" />
      <rect x="65.453" y="18.3388" width="6.25017" height="6.26698" rx="0.781272" fill="black" />
      <rect x="65.453" y="26.1724" width="6.25017" height="6.26698" rx="0.781272" fill="black" />
      <rect opacity="0.6" x="65.4529" y="-5.16226" width="6.25017" height="6.26698" rx="0.781272" fill="white" />
      <rect x="65.453" y="34.0061" width="6.25017" height="6.26698" rx="0.781272" fill="black" />
      <rect x="57.6401" y="-5.16257" width="6.25017" height="6.26698" rx="0.781272" fill="white" />
      <rect opacity="0.6" x="57.6401" y="34.0062" width="6.25017" height="6.26698" rx="0.781272" fill="white" />
      <rect opacity="0.5" x="57.6401" y="18.3389" width="6.25017" height="6.26698" rx="0.781272" fill="white" />
      <rect opacity="0.7" x="49.8275" y="18.3391" width="6.25017" height="6.26698" rx="0.781272" fill="white" />
      <rect x="73.2656" y="-5.16241" width="6.25017" height="6.26698" rx="0.781272" fill="white" />
      <rect x="73.2655" y="34.0063" width="6.25017" height="6.26698" rx="0.781272" fill="white" />
      <rect x="96.7037" y="10.5053" width="6.25017" height="6.26698" rx="0.781272" fill="white" />
      <rect opacity="0.5" x="96.7039" y="49.6737" width="6.25017" height="6.26698" rx="0.781272" fill="white" />
      <rect x="73.2656" y="18.3391" width="6.25017" height="6.26698" rx="0.781272" fill="white" />
      <rect opacity="0.7" x="73.2656" y="26.1727" width="6.25017" height="6.26698" rx="0.781272" fill="white" />
      <rect opacity="0.8" x="73.2656" y="2.67169" width="6.25017" height="6.26698" rx="0.781272" fill="white" />
      <rect opacity="0.7" x="73.2656" y="41.84" width="6.25017" height="6.26698" rx="0.781272" fill="white" />
      <rect opacity="0.4" x="73.2656" y="10.5053" width="6.25017" height="6.26698" rx="0.781272" fill="white" />
      <rect opacity="0.4" x="73.2656" y="49.6737" width="6.25017" height="6.26698" rx="0.781272" fill="white" />
      <rect opacity="0.4" x="65.453" y="10.5051" width="6.25017" height="6.26698" rx="0.781272" fill="white" />
      <rect opacity="0.4" x="65.4529" y="49.6739" width="6.25017" height="6.26698" rx="0.781272" fill="white" />
      <rect opacity="0.6" x="65.453" y="2.67142" width="6.25017" height="6.26698" rx="0.781272" fill="white" />
      <rect opacity="0.6" x="65.453" y="41.8402" width="6.25017" height="6.26698" rx="0.781272" fill="white" />
      <rect opacity="0.7" x="81.0784" y="18.3389" width="6.25017" height="6.26698" rx="0.781272" fill="white" />
      <rect opacity="0.6" x="81.0784" y="-5.16257" width="6.25017" height="6.26698" rx="0.781272" fill="white" />
      <rect opacity="0.7" x="81.0784" y="34.0062" width="6.25017" height="6.26698" rx="0.781272" fill="white" />
      <rect x="81.0784" y="2.67154" width="6.25017" height="6.26698" rx="0.781272" fill="white" />
      <rect opacity="0.7" x="81.0784" y="41.8403" width="6.25017" height="6.26698" rx="0.781272" fill="white" />
      <rect x="49.8274" y="26.1727" width="6.25017" height="6.26698" rx="0.781272" fill="white" />
      <rect opacity="0.8" x="49.8275" y="-5.16238" width="6.25017" height="6.26698" rx="0.781272" fill="white" />
      <rect opacity="0.4" x="49.8274" y="34.0064" width="6.25017" height="6.26698" rx="0.781272" fill="white" />
      <rect opacity="0.43" x="49.8275" y="2.67172" width="6.25017" height="6.26698" rx="0.781272" fill="white" />
      <rect opacity="0.7" x="49.8275" y="41.8401" width="6.25017" height="6.26698" rx="0.781272" fill="white" />
      <rect opacity="0.8" x="88.891" y="18.3387" width="6.25017" height="6.26698" rx="0.781272" fill="white" />
      <rect x="88.8911" y="26.1724" width="6.25017" height="6.26698" rx="0.781272" fill="white" />
      <rect opacity="0.8" x="81.0784" y="26.1725" width="6.25017" height="6.26698" rx="0.781272" fill="white" />
      <rect opacity="0.4" x="88.8911" y="10.505" width="6.25017" height="6.26698" rx="0.781272" fill="white" />
      <rect opacity="0.7" x="88.8911" y="49.6738" width="6.25017" height="6.26698" rx="0.781272" fill="white" />
      <rect opacity="0.74" x="88.8911" y="2.67139" width="6.25017" height="6.26698" rx="0.781272" fill="white" />
      <rect opacity="0.6" x="88.891" y="41.8401" width="6.25017" height="6.26698" rx="0.781272" fill="white" />
      <rect opacity="0.6" x="88.891" y="-5.16232" width="6.25017" height="6.26698" rx="0.781272" fill="white" />
      <rect opacity="0.4" x="88.8911" y="34.006" width="6.25017" height="6.26698" rx="0.781272" fill="white" />
      <rect opacity="0.8" x="81.0784" y="10.5052" width="6.25017" height="6.26698" rx="0.781272" fill="white" />
      <rect opacity="0.5" x="81.0784" y="49.674" width="6.25017" height="6.26698" rx="0.781272" fill="white" />
    </g>
    <g opacity="0.3">
      <rect opacity="0.7" x="57.6404" y="66.2051" width="6.25017" height="6.26698" rx="0.781272" fill="white" />
      <rect opacity="0.5" x="57.6404" y="81.8728" width="6.25017" height="6.26698" rx="0.781272" fill="white" />
      <rect opacity="0.6" x="57.6404" y="89.7065" width="6.25017" height="6.26698" rx="0.781272" fill="white" />
      <rect x="49.8276" y="89.7067" width="6.25017" height="6.26698" rx="0.781272" fill="white" />
      <rect opacity="0.8" x="96.704" y="58.3715" width="6.25017" height="6.26698" rx="0.781272" fill="white" />
      <rect opacity="0.6" x="96.704" y="66.2052" width="6.25017" height="6.26698" rx="0.781272" fill="white" />
      <rect opacity="0.5" x="96.7041" y="74.0388" width="6.25017" height="6.26698" rx="0.781272" fill="white" />
      <rect opacity="0.4" x="96.704" y="81.873" width="6.25017" height="6.26698" rx="0.781272" fill="white" />
      <rect opacity="0.7" x="65.4531" y="58.3717" width="6.25017" height="6.26698" rx="0.781272" fill="white" />
      <rect x="65.4531" y="66.2054" width="6.25017" height="6.26698" rx="0.781272" fill="white" />
      <rect opacity="0.6" x="65.4531" y="74.039" width="6.25017" height="6.26698" rx="0.781272" fill="white" />
      <rect x="57.6404" y="74.0387" width="6.25017" height="6.26698" rx="0.781272" fill="white" />
      <rect opacity="0.63" x="57.6404" y="58.3714" width="6.25017" height="6.26698" rx="0.781272" fill="white" />
      <rect opacity="0.7" x="49.8279" y="58.3718" width="6.25017" height="6.26698" rx="0.781272" fill="white" />
      <rect x="73.2659" y="74.0389" width="6.25017" height="6.26698" rx="0.781272" fill="white" />
      <rect x="96.704" y="89.7066" width="6.25017" height="6.26698" rx="0.781272" fill="white" />
      <rect opacity="0.8" x="73.2659" y="58.3716" width="6.25017" height="6.26698" rx="0.781272" fill="white" />
      <rect opacity="0.9" x="73.2659" y="66.2052" width="6.25017" height="6.26698" rx="0.781272" fill="white" />
      <rect opacity="0.8" x="73.2659" y="81.873" width="6.25017" height="6.26698" rx="0.781272" fill="white" />
      <rect opacity="0.4" x="73.2657" y="89.7066" width="6.25017" height="6.26698" rx="0.781272" fill="white" />
      <rect opacity="0.4" x="65.4532" y="89.7064" width="6.25017" height="6.26698" rx="0.781272" fill="white" />
      <rect opacity="0.6" x="65.4532" y="81.8727" width="6.25017" height="6.26698" rx="0.781272" fill="white" />
      <rect opacity="0.7" x="81.0786" y="58.3714" width="6.25017" height="6.26698" rx="0.781272" fill="white" />
      <rect opacity="0.6" x="81.0786" y="74.0387" width="6.25017" height="6.26698" rx="0.781272" fill="white" />
      <rect x="81.0786" y="81.8728" width="6.25017" height="6.26698" rx="0.781272" fill="white" />
      <rect opacity="0.7" x="49.8276" y="66.2052" width="6.25017" height="6.26698" rx="0.781272" fill="white" />
      <rect x="49.8278" y="74.0389" width="6.25017" height="6.26698" rx="0.781272" fill="white" />
      <rect opacity="0.6" x="49.8276" y="81.873" width="6.25017" height="6.26698" rx="0.781272" fill="white" />
      <rect opacity="0.5" x="88.8912" y="58.3717" width="6.25017" height="6.26698" rx="0.781272" fill="white" />
      <rect x="88.8912" y="66.2053" width="6.25017" height="6.26698" rx="0.781272" fill="white" />
      <rect opacity="0.6" x="81.0786" y="66.205" width="6.25017" height="6.26698" rx="0.781272" fill="white" />
      <rect opacity="0.4" x="88.8914" y="89.7063" width="6.25017" height="6.26698" rx="0.781272" fill="white" />
      <rect opacity="0.74" x="88.8912" y="81.8727" width="6.25017" height="6.26698" rx="0.781272" fill="white" />
      <rect opacity="0.5" x="88.8912" y="74.039" width="6.25017" height="6.26698" rx="0.781272" fill="white" />
      <rect opacity="0.8" x="81.0785" y="89.7065" width="6.25017" height="6.26698" rx="0.781272" fill="white" />
    </g>
  </g>
  <defs>
    <clipPath id="clip0">
      <rect width="97.2249" height="97.2249" rx="7.29187" fill="white" />
    </clipPath>
  </defs>
</svg>
