<svg width="16" height="16" viewBox="0 0 16 16" fill="none" xmlns="http://www.w3.org/2000/svg">
<path d="M7.69513 4.01857C7.73619 3.95764 7.77807 3.89549 7.82114 3.83168H7.82156C7.87597 3.92471 7.87386 3.98948 7.87195 4.04817C7.87161 4.05874 7.87127 4.06912 7.87127 4.07942C7.87168 5.74814 7.87168 7.41728 7.87168 9.08642V9.09023C7.87168 9.38852 7.86008 9.39764 7.60903 9.25015C7.09974 8.95081 6.59162 8.64973 6.08347 8.34863C5.84964 8.21007 5.61581 8.07152 5.38186 7.93313C5.13992 7.7902 5.13453 7.7728 5.29196 7.54163C5.70063 6.94272 6.10958 6.3441 6.51857 5.74543C6.80612 5.32453 7.09368 4.9036 7.38118 4.48252C7.48449 4.33116 7.58693 4.17913 7.69513 4.01857Z" fill="#8C8CA1"/>
<path d="M8.1362 4.0074C8.13432 3.96088 8.13225 3.9094 8.19358 3.84701L8.19399 3.84659C8.23482 3.9063 8.27532 3.96551 8.31554 4.02433C8.48268 4.2687 8.6451 4.50619 8.80672 4.74394L8.91343 4.90085C9.51382 5.78364 10.1145 6.66682 10.7136 7.55074C10.8711 7.78357 10.8686 7.78647 10.6337 7.92567C10.485 8.01393 10.3364 8.10222 10.1878 8.1905C9.58307 8.54978 8.97848 8.90897 8.37255 9.26548C8.16375 9.38811 8.13682 9.37278 8.13682 9.14285C8.13517 7.43896 8.136 5.73466 8.13682 4.03077V4.03054C8.13682 4.02295 8.13651 4.01524 8.1362 4.0074Z" fill="#8C8CA1"/>
<path d="M5.92061 8.65371C5.93344 8.64956 5.94503 8.6458 5.95481 8.64239V8.64198C6.0338 8.64448 6.08164 8.67412 6.12734 8.70242C6.13461 8.70693 6.14183 8.7114 6.14911 8.71572C6.30498 8.80873 6.46133 8.9011 6.61771 8.99347C6.98996 9.21338 7.36234 9.43335 7.72876 9.66237C7.92513 9.785 8.08297 9.78334 8.27851 9.66154C8.5817 9.47282 8.8891 9.29126 9.19655 9.10967C9.41757 8.97911 9.63863 8.84855 9.85816 8.7153C9.9696 8.64778 10.0665 8.63162 10.1863 8.68796C10.3735 8.776 10.5623 8.86079 10.7511 8.94559C10.8644 8.99647 10.9777 9.04736 11.0906 9.09894C11.1004 9.10339 11.1112 9.10724 11.1223 9.11116C11.1646 9.1262 11.2098 9.14224 11.2075 9.19712C11.2058 9.23857 11.1669 9.25662 11.1304 9.27355C11.1206 9.27812 11.111 9.2826 11.1022 9.28744C10.5277 9.60758 9.95318 9.92735 9.37864 10.2471C9.09295 10.4061 8.80902 10.5955 8.51099 10.7296C8.10805 10.9109 7.91924 10.9992 7.49635 10.747C6.91099 10.3976 6.31378 10.0683 5.71647 9.73897C5.45604 9.59538 5.19559 9.45178 4.93609 9.30649C4.92341 9.29935 4.9088 9.29308 4.89395 9.28672C4.84769 9.26688 4.79917 9.24607 4.79979 9.19464C4.80044 9.13104 4.85726 9.1109 4.91052 9.09202C4.92526 9.08679 4.93973 9.08166 4.95266 9.07574C5.2352 8.94689 5.51899 8.82136 5.80318 8.69625C5.84406 8.67851 5.88668 8.6647 5.92061 8.65371Z" fill="#8C8CA1"/>
<path d="M7.72707 2.34285C7.75162 2.30338 7.77881 2.25965 7.86174 2.24454L7.86216 2.24495C7.86216 2.33181 7.86253 2.41762 7.86289 2.50263C7.86393 2.74159 7.86493 2.97428 7.8576 3.20652C7.85512 3.27546 7.80616 3.3477 7.76441 3.40929L7.76397 3.40993C7.41951 3.91804 7.07445 4.42586 6.72939 4.93369C6.15979 5.77197 5.59015 6.6103 5.02309 7.45007C4.92864 7.58927 4.83708 7.6191 4.69995 7.52754C4.64817 7.49274 4.59597 7.45794 4.53921 7.4335C4.36149 7.35727 4.37101 7.26033 4.47168 7.11367C4.87823 6.52289 5.2811 5.92953 5.68397 5.33618C5.8854 5.0395 6.08683 4.74283 6.28872 4.44648C6.76224 3.7513 7.23784 3.05696 7.71384 2.36344C7.71837 2.35684 7.72268 2.34991 7.72707 2.34285Z" fill="#8C8CA1"/>
<path d="M8.136 2.21927C8.15381 2.21595 8.17162 2.21222 8.18944 2.2085C8.25604 2.30525 8.32274 2.40194 8.38944 2.49863C8.56377 2.75136 8.7381 3.00408 8.9107 3.25789C9.18479 3.66103 9.45848 4.06446 9.73217 4.46789C10.3292 5.34802 10.9263 6.22816 11.5277 7.10538C11.6387 7.26737 11.6284 7.361 11.4498 7.43764C11.4059 7.4567 11.3624 7.48031 11.3243 7.50931C11.181 7.6191 11.0799 7.57933 10.9842 7.43681C10.8008 7.16438 10.6147 6.89371 10.4286 6.62306C10.3022 6.43932 10.1759 6.25559 10.0504 6.07132C9.85698 5.78711 9.66402 5.50264 9.47106 5.21818C9.07588 4.63558 8.68072 4.05303 8.28182 3.4729C8.17949 3.32376 8.12647 3.17462 8.13351 2.99274C8.14047 2.81235 8.1389 2.63175 8.13734 2.45123C8.13667 2.37389 8.136 2.29656 8.136 2.21927Z" fill="#8C8CA1"/>
<path d="M11.2075 9.49997C11.2075 9.49997 8.46558 13.3361 8.13931 13.7912V12.5355C8.69839 11.8745 10.0301 10.2163 10.0301 10.2163L11.2075 9.49997Z" fill="#8C8CA1"/>
<path d="M9.30913 10.7267L8.14345 12.2459L8.14262 12.2455C8.14262 12.1737 8.14255 12.1019 8.14247 12.0301C8.14224 11.8146 8.142 11.599 8.14387 11.3833L9.30913 10.7267Z" fill="#8C8CA1"/>
<path d="M4.79234 9.49997C4.79234 9.49997 7.53423 13.3361 7.8605 13.7912V12.5355C7.30142 11.8745 5.96972 10.2163 5.96972 10.2163L4.79234 9.49997Z" fill="#8C8CA1"/>
<path d="M6.69068 10.7267L7.85636 12.2459L7.85719 12.2455C7.85719 12.1737 7.85726 12.1019 7.85734 12.0301C7.85757 11.8146 7.85781 11.599 7.85594 11.3833L6.69068 10.7267Z" fill="#8C8CA1"/>
</svg>
