<svg width="16" height="16" viewBox="0 0 16 16" fill="none" xmlns="http://www.w3.org/2000/svg">
<g clip-path="url(#clip0_1208_1351)">
<path d="M4.37109 8.04271L8.00002 1.99951V6.51631L4.37109 8.04271Z" fill="#8C8CA1"/>
<path d="M11.6289 8.04271L8 1.99951V6.51631L11.6289 8.04271Z" fill="#8C8CA1"/>
<path d="M8.00002 6.50195L4.37109 8.03315L8.00002 10.15V6.50195Z" fill="#8C8CA1"/>
<path d="M8 6.50195L11.6289 8.03315L8 10.15V6.50195Z" fill="#8C8CA1"/>
<path d="M4.37109 8.73877L8.00002 13.9996V10.8604L4.37109 8.73877Z" fill="#8C8CA1"/>
<path d="M11.6289 8.73877L8 13.9996V10.8604L11.6289 8.73877Z" fill="#8C8CA1"/>
<path fill-rule="evenodd" clip-rule="evenodd" d="M6.50269 5.35949C6.50269 5.59326 6.32299 5.78506 6.09419 5.8043L6.23913 8.45563L6.24366 8.45561C6.33534 8.45561 6.42056 8.48324 6.49145 8.53063L7.72191 6.87107C7.62218 6.7892 7.55855 6.66496 7.55855 6.52586C7.55855 6.27932 7.75842 6.07946 8.00497 6.07946C8.25152 6.07946 8.45138 6.27932 8.45138 6.52586C8.45138 6.68434 8.36879 6.82353 8.24431 6.90274L9.44085 8.51655C9.50699 8.47782 9.58398 8.45561 9.66616 8.45561L9.67015 8.45563L9.81524 5.80158C9.59814 5.77131 9.43105 5.58491 9.43105 5.35949C9.43105 5.11295 9.63091 4.91309 9.87746 4.91309C10.124 4.91309 10.3239 5.11295 10.3239 5.35949C10.3239 5.60603 10.124 5.80589 9.87746 5.80589C9.87104 5.80589 9.86465 5.80575 9.85829 5.80548L9.71328 8.45807C9.93768 8.48161 10.1126 8.67139 10.1126 8.90201C10.1126 9.14855 9.91271 9.34841 9.66616 9.34841C9.41961 9.34841 9.21974 9.14855 9.21974 8.90201C9.21974 8.75315 9.2926 8.62131 9.40461 8.54021L8.2065 6.92429C8.14596 6.95497 8.07748 6.97226 8.00497 6.97226C7.91304 6.97226 7.8276 6.94447 7.75659 6.89684L6.52616 8.55635C6.62622 8.63821 6.69008 8.76265 6.69008 8.90201C6.69008 9.14855 6.49021 9.34841 6.24366 9.34841C5.99711 9.34841 5.79725 9.14855 5.79725 8.90201C5.79725 8.67157 5.97186 8.48191 6.196 8.45812L6.05101 5.80586C5.80689 5.80303 5.60986 5.60427 5.60986 5.35949C5.60986 5.11295 5.80973 4.91309 6.05628 4.91309C6.30283 4.91309 6.50269 5.11295 6.50269 5.35949Z" fill="#8C8CA1"/>
</g>
<defs>
<clipPath id="clip0_1208_1351">
<rect width="7.25785" height="12" fill="white" transform="translate(4.37109 2)"/>
</clipPath>
</defs>
</svg>
