<svg width="16" height="16" viewBox="0 0 16 16" fill="none" xmlns="http://www.w3.org/2000/svg">
<path d="M5.53302 8.82896C5.89134 8.82896 6.22211 8.70956 6.48859 8.5029L4.30179 6.31689C4.09506 6.57867 3.97561 6.90932 3.97561 7.27213C3.97102 8.13091 4.66932 8.82896 5.53302 8.82896Z" fill="#8C8CA1"/>
<path d="M12.0384 7.26771C12.0384 6.90952 11.9189 6.57887 11.7122 6.3125L9.52539 8.49848C9.78727 8.70514 10.118 8.82454 10.481 8.82454C11.3401 8.82913 12.0384 8.1311 12.0384 7.26771Z" fill="#8C8CA1"/>
<path d="M13.1407 4.89307L12.1714 5.86208C12.493 6.24782 12.6859 6.73463 12.6859 7.27655C12.6859 8.49352 11.6982 9.48089 10.4807 9.48089C9.94322 9.48089 9.45165 9.28801 9.06575 8.96654L8.00451 10.0274L6.94326 8.96654C6.55736 9.28801 6.07038 9.48089 5.52828 9.48089C4.31083 9.48089 3.3231 8.49352 3.3231 7.27655C3.3231 6.73922 3.51606 6.24782 3.83765 5.86208L3.34149 5.36609L2.86828 4.89307C2.317 5.80237 2 6.86323 2 8.00215C2 11.3179 4.68755 13.9998 7.99991 13.9998C11.3123 13.9998 13.9998 11.3133 13.9998 8.00215C14.009 6.85864 13.692 5.79778 13.1407 4.89307Z" fill="#8C8CA1"/>
<path d="M12.3458 3.85992C11.257 2.71641 9.71333 2 8.00433 2C6.29531 2 4.7563 2.71641 3.66289 3.85992C3.51589 4.01608 3.37348 4.18141 3.24023 4.35131L7.99974 9.10904L12.7592 4.34672C12.6398 4.18139 12.4974 4.01148 12.3458 3.85992ZM8.00433 2.78071C9.41013 2.78071 10.7149 3.32262 11.6934 4.30999L8.00433 7.9977L4.31525 4.30999C5.2984 3.32262 6.59854 2.78071 8.00433 2.78071Z" fill="#8C8CA1"/>
</svg>
