<svg width="16" height="16" viewBox="0 0 16 16" fill="none" xmlns="http://www.w3.org/2000/svg">
<path d="M8.13562 8.27124L7.3027 11.08H11.7579C11.8175 11.0779 11.8755 11.0996 11.9191 11.1402C11.9627 11.1809 11.9883 11.2373 11.9903 11.2969V11.3705L11.6029 12.7071C11.5677 12.8373 11.4471 12.9257 11.3124 12.9201H4.49399L5.63684 9.02669L4.3584 9.4141L4.64895 8.52305L5.9274 8.13565L7.53514 2.67318C7.57156 2.54385 7.6914 2.45596 7.8257 2.4601H9.54966C9.60926 2.45801 9.66725 2.4797 9.71085 2.52039C9.75445 2.56109 9.78008 2.61744 9.7821 2.67705V2.75066L8.42618 7.36083L9.70462 6.97342L9.43344 7.9032L8.13562 8.27124Z" fill="#8C8CA1"/>
</svg>
