<svg width="16" height="16" viewBox="0 0 16 16" fill="none" xmlns="http://www.w3.org/2000/svg">
<path d="M3.7998 8.0001C3.7998 7.50304 4.20275 7.1001 4.6998 7.1001C5.19686 7.1001 5.5998 7.50304 5.5998 8.0001C5.5998 8.49715 5.19686 8.9001 4.6998 8.9001C4.20275 8.9001 3.7998 8.49715 3.7998 8.0001Z" fill="#8C8CA1"/>
<path d="M7.0998 8.0001C7.0998 7.50304 7.50275 7.1001 7.9998 7.1001C8.49686 7.1001 8.8998 7.50304 8.8998 8.0001C8.8998 8.49715 8.49686 8.9001 7.9998 8.9001C7.50275 8.9001 7.0998 8.49715 7.0998 8.0001Z" fill="#8C8CA1"/>
<path d="M11.2998 7.1001C10.8027 7.1001 10.3998 7.50304 10.3998 8.0001C10.3998 8.49715 10.8027 8.9001 11.2998 8.9001C11.7969 8.9001 12.1998 8.49715 12.1998 8.0001C12.1998 7.50304 11.7969 7.1001 11.2998 7.1001Z" fill="#8C8CA1"/>
</svg>
