<svg width="16" height="16" viewBox="0 0 16 16" fill="none" xmlns="http://www.w3.org/2000/svg">
<path d="M10.4211 4.40611L8.74889 6.88889C8.72507 6.92464 8.71501 6.96781 8.72056 7.01042C8.72611 7.05302 8.7469 7.09217 8.77909 7.12063C8.81127 7.14908 8.85267 7.16492 8.89563 7.16522C8.93859 7.16551 8.98021 7.15024 9.01278 7.12222L10.6589 5.69444C10.6685 5.68581 10.6805 5.68018 10.6933 5.67823C10.7061 5.67627 10.7192 5.67809 10.7309 5.68345C10.7427 5.68881 10.7527 5.69748 10.7596 5.70841C10.7666 5.71934 10.7702 5.73206 10.77 5.745V10.215C10.77 10.2287 10.7658 10.242 10.7579 10.2532C10.7501 10.2644 10.739 10.273 10.7261 10.2776C10.7132 10.2823 10.6992 10.2829 10.686 10.2794C10.6728 10.2758 10.661 10.2683 10.6522 10.2578L5.67667 4.30167C5.59664 4.20716 5.49698 4.13123 5.38464 4.07913C5.27229 4.02703 5.14995 4.00003 5.02611 4H4.85222C4.6262 4 4.40943 4.08979 4.24961 4.24961C4.08979 4.40943 4 4.6262 4 4.85222V11.1478C4 11.3738 4.08979 11.5906 4.24961 11.7504C4.40943 11.9102 4.6262 12 4.85222 12V12C4.99795 12 5.14126 11.9627 5.26848 11.8916C5.39569 11.8205 5.50256 11.718 5.57889 11.5939L7.25111 9.11111C7.27493 9.07536 7.28499 9.03218 7.27944 8.98958C7.27389 8.94698 7.2531 8.90783 7.22091 8.87937C7.18873 8.85092 7.14733 8.83508 7.10437 8.83478C7.06141 8.83449 7.01979 8.84976 6.98722 8.87778L5.34111 10.3056C5.33146 10.3142 5.31951 10.3198 5.30672 10.3218C5.29392 10.3237 5.28083 10.3219 5.26905 10.3166C5.25727 10.3112 5.2473 10.3025 5.24037 10.2916C5.23343 10.2807 5.22983 10.2679 5.23 10.255V5.78389C5.23001 5.7702 5.23422 5.75685 5.24208 5.74565C5.24993 5.73444 5.26105 5.72592 5.27391 5.72125C5.28677 5.71658 5.30076 5.71598 5.31397 5.71953C5.32719 5.72309 5.33899 5.73062 5.34778 5.74111L10.3228 11.6983C10.4028 11.7928 10.5025 11.8688 10.6148 11.9209C10.7272 11.973 10.8495 12 10.9733 12H11.1472C11.2592 12.0001 11.3701 11.9781 11.4735 11.9353C11.577 11.8925 11.671 11.8297 11.7502 11.7506C11.8294 11.6714 11.8922 11.5775 11.9351 11.474C11.9779 11.3706 12 11.2597 12 11.1478V4.85222C12 4.6262 11.9102 4.40943 11.7504 4.24961C11.5906 4.08979 11.3738 4 11.1478 4C11.002 3.99996 10.8587 4.03727 10.7315 4.10837C10.6043 4.17946 10.4974 4.28197 10.4211 4.40611V4.40611Z" fill="#8C8CA1"/>
</svg>
