<svg width="16" height="16" viewBox="0 0 16 16" fill="none" xmlns="http://www.w3.org/2000/svg">
<path fill-rule="evenodd" clip-rule="evenodd" d="M5.34132 6.25272L4.24595 5.45896C4.0799 5.73467 3.93867 6.0246 3.82392 6.32531L5.10746 6.74066C5.17436 6.57294 5.25249 6.40992 5.34132 6.25272ZM6.39437 5.03688L5.40584 4.104C5.10208 4.35905 4.82695 4.64639 4.58531 4.96093L5.67733 5.752C5.88572 5.48477 6.12658 5.24455 6.39437 5.03688ZM4.92468 7.318L3.64181 6.90264C3.56199 7.21331 3.50982 7.53043 3.4859 7.8503H4.83732C4.85469 7.67114 4.88387 7.49332 4.92468 7.318ZM5.05102 9.6139L3.76949 10.0293C3.87814 10.3402 4.01537 10.6403 4.17942 10.9259L5.27816 10.1301C5.19047 9.96238 5.11457 9.78879 5.05102 9.61054V9.6139ZM5.59669 10.6436L4.50736 11.4319C4.7603 11.7791 5.05356 12.0949 5.38098 12.3729L6.36749 11.4413C6.07546 11.2104 5.81617 10.9409 5.59669 10.6402V10.6436ZM4.82791 8.55332H3.48389C3.49925 8.85506 3.53993 9.15499 3.60552 9.4499L4.89511 9.03254C4.8637 8.87305 4.84127 8.71195 4.82791 8.54997V8.55332Z" fill="#8C8CA1"/>
<path fill-rule="evenodd" clip-rule="evenodd" d="M8.87344 5.6377C8.25059 5.63795 7.64836 5.86077 7.17531 6.26598C6.70226 6.67118 6.38956 7.2321 6.29359 7.84757H7.61678C7.71327 7.54315 7.91683 7.28406 8.18973 7.11828C8.46264 6.9525 8.78637 6.89129 9.10096 6.94597C9.41553 7.00068 9.69962 7.16758 9.90058 7.41575C10.1015 7.66392 10.2057 7.97654 10.1938 8.29566C10.1819 8.61478 10.0547 8.91877 9.83587 9.15129C9.61701 9.38381 9.32128 9.5291 9.0035 9.56021C8.68573 9.59133 8.36743 9.50618 8.10764 9.32054C7.84782 9.13489 7.66412 8.86135 7.59056 8.55059H6.28418C6.34276 9.05031 6.54455 9.52245 6.86525 9.91009C7.18597 10.2977 7.61192 10.5844 8.09176 10.7355C8.57163 10.8866 9.08494 10.8957 9.56985 10.7617C10.0548 10.6277 10.4906 10.3564 10.8249 9.98033C11.1591 9.60429 11.3775 9.13963 11.4538 8.6423C11.53 8.14497 11.4609 7.63618 11.2547 7.17725C11.0484 6.71832 10.7139 6.32882 10.2914 6.05567C9.86896 5.78251 9.37652 5.63736 8.87344 5.6377Z" fill="#8C8CA1"/>
</svg>
