<svg width="16" height="16" viewBox="0 0 16 16" fill="none" xmlns="http://www.w3.org/2000/svg">
<g clip-path="url(#clip0_1213_2016)">
<path fill-rule="evenodd" clip-rule="evenodd" d="M11.5347 3.5472C12.1231 3.9836 12.4499 4.3756 12.5515 4.7676C12.6171 4.9896 12.5591 5.256 12.4131 5.4556C12.2679 5.6556 12.0355 5.7664 11.7667 5.7664C11.6647 5.7664 11.5631 5.7516 11.4615 5.722C11.3599 6.0104 11.2871 6.2916 11.2655 6.5356L11.2583 6.6244C10.7351 5.7 9.89986 4.99 8.89746 4.6496C8.92666 4.642 9.14466 4.5756 9.52946 4.3388C9.48768 4.27517 9.45288 4.20457 9.42436 4.1467C9.42311 4.14417 9.42188 4.14167 9.42066 4.1392C9.34106 3.9468 9.36986 3.6288 9.49346 3.392C9.59546 3.192 9.75506 3.0588 9.93666 3.022C10.0095 3.0072 10.0819 3 10.1619 3C10.5615 3 11.0627 3.1996 11.5347 3.5472ZM12.348 4.8271C12.4352 5.1747 12.1664 5.6923 11.5056 5.5075C11.4472 5.4851 11.3892 5.4703 11.3388 5.4639C11.2736 5.6191 11.2008 5.7967 11.15 5.9963C10.714 5.4047 10.1332 4.9311 9.46484 4.6279C9.49241 4.61097 9.52139 4.59358 9.55154 4.57549C9.64039 4.52219 9.73941 4.46277 9.84244 4.3911C9.73364 4.2579 9.65364 4.1395 9.61724 4.0583C9.53004 3.8511 9.63164 3.3111 9.98044 3.2371C10.3288 3.1631 10.8736 3.3255 11.4112 3.7251C11.9484 4.1243 12.2536 4.4795 12.348 4.8271Z" fill="#8C8CA1"/>
<path d="M10.4309 3.96871C10.5761 4.02791 10.7649 4.13151 10.9973 4.28671C11.2733 4.47151 11.5129 4.67871 11.6657 4.84151C11.4113 5.18191 11.2445 5.64791 11.1429 5.97311C11.1937 6.04711 11.2517 6.12111 11.3029 6.19511C11.3537 6.01031 11.4409 5.73631 11.5573 5.46271C11.5865 5.47031 11.6225 5.47031 11.6589 5.47031C11.7461 5.47031 11.8477 5.45551 11.9277 5.38911C11.9857 5.34471 12.0513 5.26351 12.0441 5.11551C12.0441 4.97511 11.9353 4.79751 11.7101 4.58311C11.5501 4.42791 11.3325 4.25751 11.1145 4.10231C10.4897 3.68071 10.0541 3.56231 9.85807 3.76191C9.72727 3.89511 9.74167 4.05791 9.78527 4.17631C9.55287 4.33151 9.35687 4.44271 9.22607 4.51671C9.31327 4.54631 9.39327 4.58311 9.48047 4.62031C9.71167 4.49391 10.0461 4.27951 10.4309 3.96871ZM11.8037 5.02671C11.8253 5.06351 11.8329 5.10071 11.8329 5.12271C11.8329 5.18911 11.8113 5.21151 11.7965 5.22631C11.7673 5.24831 11.7093 5.26311 11.6585 5.26311C11.7021 5.17431 11.7529 5.10031 11.8037 5.02671ZM10.0097 3.92431C10.0313 3.90231 10.0897 3.88751 10.1841 3.90231C10.1113 3.96151 10.0389 4.01311 9.96607 4.06511C9.95887 4.01311 9.96607 3.96151 10.0097 3.92431Z" fill="#8C8CA1"/>
<path d="M7.72139 4.24219C5.34619 4.24219 3.42139 6.20219 3.42139 8.62099C3.42139 11.0398 5.34619 12.9998 7.72139 12.9998C10.0966 12.9998 12.0214 11.0398 12.0214 8.62099C12.0214 6.20259 10.0894 4.24219 7.72139 4.24219ZM7.72139 12.7558C5.47699 12.7558 3.66099 10.9066 3.66099 8.62099C3.66099 6.33539 5.47699 4.48619 7.72139 4.48619C9.96579 4.48619 11.7818 6.33539 11.7818 8.62099C11.7814 10.9066 9.95859 12.7558 7.72139 12.7558Z" fill="#8C8CA1"/>
<path d="M11.5782 8.58447C11.5782 10.7517 9.84942 12.5121 7.72142 12.5121C5.59342 12.5121 3.85742 10.7517 3.85742 8.58447H11.5782Z" fill="#8C8CA1"/>
<path d="M11.571 8.62115C11.571 8.16995 10.801 7.91115 9.77702 7.82235C9.03622 7.76315 8.28822 7.83715 7.43102 8.10355C6.69022 8.32555 6.02182 8.28835 5.53542 8.22915C4.45302 8.10355 3.85742 8.08875 3.85742 8.62115C3.85742 9.39035 5.39742 10.352 7.70702 10.0192C8.87662 9.84915 9.47942 9.50155 10.1694 9.26475C10.9174 9.01315 11.571 9.02075 11.571 8.62115Z" fill="#8C8CA1"/>
<path d="M8.98465 6.75698C9.34585 6.75698 9.63825 6.45898 9.63825 6.09138C9.63825 5.72378 9.34545 5.42578 8.98465 5.42578C8.62385 5.42578 8.33105 5.72378 8.33105 6.09138C8.33105 6.45898 8.62385 6.75698 8.98465 6.75698Z" fill="#8C8CA1"/>
<path d="M10.0533 7.25283C10.2057 7.25283 10.3293 7.12683 10.3293 6.97163C10.3293 6.81643 10.2057 6.69043 10.0533 6.69043C9.90094 6.69043 9.77734 6.81643 9.77734 6.97163C9.77734 7.12723 9.90094 7.25283 10.0533 7.25283Z" fill="#8C8CA1"/>
</g>
<defs>
<clipPath id="clip0_1213_2016">
<rect width="10" height="10" fill="white" transform="translate(3 3)"/>
</clipPath>
</defs>
</svg>
