<svg width="16" height="16" viewBox="0 0 16 16" fill="none" xmlns="http://www.w3.org/2000/svg">
<path d="M10.622 8.18732C10.1101 7.72987 9.43991 7.42435 8.7905 7.12844L8.7857 7.12684C7.64044 6.60379 6.65033 6.15113 6.7207 5.08104C6.7511 4.67315 7.047 4.42683 7.29014 4.29406C7.56366 4.14371 7.92674 4.05414 8.26265 4.05414C8.30265 4.05414 8.34263 4.05574 8.38102 4.05734C9.35833 4.12291 10.1293 4.5372 10.8827 5.39774L10.9275 5.45052L10.9803 5.40574L11.2746 5.14982L11.3274 5.10344L11.281 5.05065C10.4412 4.08772 9.52948 3.60307 8.41462 3.52788C8.36662 3.52308 8.31543 3.52148 8.25945 3.52148C8.22586 3.52148 8.18908 3.52148 8.15068 3.52308H8.1027C7.37172 3.52308 6.57034 3.76302 5.96092 4.16611C5.23314 4.64756 4.82526 5.30977 4.81406 6.03116C4.78527 7.78585 6.22006 8.37608 7.48529 8.89913L7.48847 8.90072L7.50127 8.90552C8.62095 9.36939 9.58706 9.76928 9.56628 10.841C9.55668 11.5479 8.54577 11.9382 7.85158 11.9382H7.82278H7.75401V11.9398C6.7191 11.9095 5.79457 11.4632 5.00601 10.617L4.95802 10.5658L4.90682 10.6122L4.62052 10.8778L4.56934 10.9257L4.61732 10.9769C5.51305 11.9414 6.61833 12.4597 7.81478 12.4741H7.86918C8.64174 12.4741 9.4815 12.2661 10.1149 11.9159C10.9083 11.4824 11.3706 10.8506 11.4185 10.1372C11.4729 9.35339 11.2122 8.71518 10.622 8.18732ZM6.90785 6.66137C7.36372 7.05166 7.98113 7.33158 8.57777 7.6019L8.58895 7.6067C9.22078 7.89782 9.819 8.17294 10.2525 8.55523C10.7323 8.9775 10.9355 9.46696 10.8923 10.0956C10.8523 10.7178 10.39 11.1337 9.96935 11.3848C10.0509 11.2184 10.0957 11.0377 10.1005 10.8458C10.1101 10.1995 9.86218 9.68289 9.34074 9.26382C8.88487 8.89753 8.28025 8.6496 7.69482 8.40806C6.47758 7.90742 5.32751 7.43395 5.3483 6.03596C5.3547 5.49851 5.6778 4.98987 6.25844 4.60438C6.27762 4.59158 6.29682 4.57878 6.31762 4.56598C6.24884 4.71635 6.21046 4.8731 6.20086 5.03785C6.15447 5.68566 6.38641 6.2167 6.90785 6.66137Z" fill="#8C8CA1"/>
</svg>
