<svg width="16" height="16" viewBox="0 0 16 16" fill="none" xmlns="http://www.w3.org/2000/svg">
<path fill-rule="evenodd" clip-rule="evenodd" d="M12.965 5.60381L12.9649 5.60378L12.9649 5.60374L12.9649 5.6037L12.9648 5.60367C12.5944 5.24396 12.2029 4.86389 11.8574 4.55725L11.8224 4.53275C11.7642 4.48599 11.6985 4.44931 11.6282 4.42425L11.3615 4.3745C9.5215 4.03117 3.55738 2.91833 3.43469 2.93325C3.39841 2.93834 3.36372 2.95149 3.33319 2.97175L3.29995 2.998C3.259 3.03958 3.22791 3.08982 3.20895 3.145L3.2002 3.16775V3.292V3.31125C3.60511 4.43875 4.65696 6.95673 5.62817 9.28168L5.62819 9.28171C6.44929 11.2473 7.21276 13.075 7.47893 13.8077L7.47903 13.808C7.51406 13.9166 7.58055 14.1227 7.70468 14.1332H7.73268C7.79918 14.1332 8.08268 13.7587 8.08268 13.7587C8.08268 13.7587 13.1507 7.61274 13.6634 6.95824C13.7298 6.87762 13.7884 6.7909 13.8384 6.69924C13.8644 6.55336 13.8119 6.40455 13.7002 6.30724C13.4819 6.10571 13.2288 5.86002 12.9652 5.60399L12.9651 5.60393L12.965 5.60381ZM9.38275 7.02324L11.5457 5.22949L12.8145 6.39849L9.38275 7.02324ZM4.81875 3.85397L8.54274 6.90596L10.844 4.96522L4.81875 3.85397ZM8.87875 7.70572L12.6902 7.09147L8.33275 12.3415L8.87875 7.70572ZM8.23126 7.48345L4.31302 4.15846L7.66426 12.3449L8.23126 7.48345Z" fill="#8C8CA1"/>
</svg>
