<svg width="16" height="20" viewBox="0 0 16 20" fill="none" xmlns="http://www.w3.org/2000/svg">
<path d="M11.6691 0.833984C11.787 1.90833 11.3552 2.98688 10.7148 3.76209C10.0744 4.5352 9.02323 5.13978 7.99734 5.05973C7.8562 4.00645 8.37652 2.90894 8.96846 2.22431C9.62992 1.4491 10.7464 0.871902 11.6691 0.833984Z" fill="currentColor" />
<path d="M14.9936 7.09279C14.818 7.20068 13.0015 8.31659 13.022 10.5747C13.0472 13.3438 15.4495 14.2675 15.4823 14.2801C15.4814 14.2828 15.48 14.2877 15.4779 14.2946C15.4298 14.4508 15.0598 15.651 14.2143 16.888C13.4496 18.0045 12.6575 19.1168 11.4083 19.142C10.8095 19.1534 10.4086 18.9797 9.9917 18.7991C9.55515 18.6099 9.10097 18.4132 8.38334 18.4132C7.63181 18.4132 7.15713 18.6157 6.69961 18.8108C6.30302 18.98 5.91933 19.1437 5.37939 19.1652C4.17234 19.2116 3.25599 17.9582 2.48499 16.8459C0.909286 14.5687 -0.293555 10.4125 1.32217 7.61077C2.12477 6.21623 3.55933 5.33569 5.11607 5.31252C5.7873 5.29938 6.43686 5.55711 7.00562 5.78278C7.44002 5.95514 7.82729 6.1088 8.14108 6.1088C8.42265 6.1088 8.79993 5.95996 9.23971 5.78647C9.93178 5.51346 10.7786 5.17941 11.6506 5.26828C12.2489 5.29356 13.9257 5.50843 15.0042 7.08624C15.002 7.08768 14.9984 7.08987 14.9936 7.09279Z" fill="currentColor" />
</svg>
