<svg width="18" height="18" viewBox="0 0 18 18" fill="none" xmlns="http://www.w3.org/2000/svg">
<path d="M5.88553 9.00051C5.88553 7.28325 7.28264 5.88614 8.99996 5.88614C10.7172 5.88614 12.1142 7.28325 12.1142 9.00051C12.1142 10.7177 10.7172 12.1148 8.99996 12.1148C7.28264 12.1148 5.88553 10.7178 5.88553 9.00051ZM16.1712 4.88959C16.1469 4.93232 16.1015 4.95866 16.0524 4.95866H9.36439C9.36051 4.95866 9.35657 4.95849 9.35269 4.95811C9.23346 4.94795 9.11482 4.9427 8.99996 4.9427C7.14887 4.9427 5.53297 6.19445 5.0704 7.98674C5.05652 8.04046 5.01154 8.08046 4.95657 8.08795C4.9504 8.08877 4.94417 8.0892 4.93805 8.0892C4.88974 8.0892 4.84439 8.06352 4.8198 8.0209L2.47389 3.95778C2.44575 3.90909 2.45034 3.84817 2.48548 3.80423C4.07772 1.81062 6.45215 0.667236 8.99996 0.667236C10.4721 0.667236 11.9192 1.05642 13.1845 1.79276C14.4121 2.50713 15.4445 3.53051 16.1699 4.75226C16.195 4.7945 16.1954 4.84691 16.1712 4.88959ZM10.2314 12.9582C10.2654 13.002 10.2695 13.0622 10.2417 13.1102L7.89521 17.1746C7.87056 17.2172 7.82521 17.2429 7.77695 17.2429C7.77023 17.2429 7.76346 17.2425 7.75668 17.2414C5.80286 16.9491 4.00952 15.9625 2.7069 14.4633C1.39122 12.949 0.666626 11.009 0.666626 9.00051C0.666626 7.56882 1.03641 6.15598 1.73592 4.91472C1.75996 4.87199 1.80515 4.84549 1.85422 4.84521C1.854 4.84521 1.85444 4.84521 1.85422 4.84521C1.90302 4.84521 1.94887 4.87117 1.97324 4.91352L5.31969 10.7096C5.3216 10.713 5.3234 10.7164 5.32504 10.7199C5.99242 12.1404 7.43488 13.0583 8.99996 13.0583C9.36832 13.0583 9.73395 13.0085 10.0868 12.9103C10.1405 12.8954 10.1974 12.9143 10.2314 12.9582ZM16.6325 5.87019C16.6887 5.87019 16.7391 5.90456 16.7596 5.95691C17.1403 6.92642 17.3333 7.95041 17.3333 9.00051C17.3333 11.2098 16.4774 13.2913 14.9234 14.8615C13.3706 16.4304 11.3005 17.3081 9.0945 17.3326C9.094 17.3326 9.09346 17.3326 9.09297 17.3326C9.04449 17.3326 8.99958 17.307 8.97504 17.2651C8.95029 17.2226 8.95012 17.1702 8.97466 17.1277L12.3269 11.3216C12.3288 11.3183 12.3308 11.3151 12.333 11.3119C12.8072 10.6302 13.0578 9.83101 13.0578 9.00051C13.0578 7.90347 12.6249 6.87494 11.8388 6.10434C11.7992 6.06554 11.787 6.00653 11.808 5.95516C11.8289 5.90379 11.8789 5.87019 11.9344 5.87019H16.6325Z" fill="currentColor" />
</svg>
