<svg xmlns="http://www.w3.org/2000/svg" width="24" height="24" fill="none" viewBox="0 0 24 24">
  <path fill="currentColor"
    d="M12 1.95c5.525 0 10 4.476 10 10a10.016 10.016 0 0 1-6.813 9.488c-.5.1-.687-.212-.687-.475 0-.337.012-1.412.012-2.75 0-.937-.312-1.537-.675-1.85 2.226-.25 4.563-1.1 4.563-4.937 0-1.1-.387-1.988-1.025-2.688.1-.25.45-1.275-.1-2.65 0 0-.837-.275-2.75 1.025a9.28 9.28 0 0 0-2.5-.337c-.85 0-1.7.112-2.5.337-1.913-1.287-2.75-1.025-2.75-1.025-.55 1.375-.2 2.4-.1 2.65-.638.7-1.025 1.6-1.025 2.688 0 3.825 2.325 4.687 4.55 4.937-.287.25-.55.688-.637 1.338-.575.262-2.013.687-2.913-.825-.188-.3-.75-1.038-1.538-1.025-.837.012-.337.475.013.662.425.238.912 1.125 1.025 1.413.2.562.85 1.637 3.362 1.175 0 .837.013 1.625.013 1.862 0 .263-.188.563-.688.475A9.994 9.994 0 0 1 2 11.951c0-5.525 4.475-10 10-10Z" />
</svg>