<svg xmlns="http://www.w3.org/2000/svg" width="24" height="24" fill="none" viewBox="0 0 24 24">
  <path fill="currentColor"
    d="M12 4.212c2.537 0 2.837.01 3.839.055a5.257 5.257 0 0 1 1.763.327c.413.153.786.395 1.093.711.316.307.558.68.71 1.093.21.564.32 1.16.328 1.763.046 1.002.055 1.303.055 3.839 0 2.537-.01 2.837-.055 3.839a5.258 5.258 0 0 1-.327 1.763 3.146 3.146 0 0 1-1.804 1.804c-.564.209-1.16.32-1.763.327-1.002.046-1.303.055-3.839.055-2.537 0-2.837-.01-3.839-.055a5.258 5.258 0 0 1-1.764-.327 2.943 2.943 0 0 1-1.092-.711 2.944 2.944 0 0 1-.71-1.093 5.257 5.257 0 0 1-.328-1.763c-.046-1.002-.055-1.303-.055-3.839 0-2.537.01-2.837.055-3.839a5.257 5.257 0 0 1 .327-1.763c.153-.413.395-.786.711-1.093.307-.316.68-.558 1.093-.71a5.257 5.257 0 0 1 1.763-.328c1.002-.046 1.303-.055 3.839-.055ZM12 2.5c-2.58 0-2.904.011-3.917.057a6.973 6.973 0 0 0-2.306.441 4.657 4.657 0 0 0-1.683 1.097 4.657 4.657 0 0 0-1.096 1.683 6.973 6.973 0 0 0-.44 2.305C2.51 9.096 2.5 9.42 2.5 12s.011 2.903.057 3.917c.016.788.165 1.567.441 2.306a4.657 4.657 0 0 0 1.097 1.683 4.658 4.658 0 0 0 1.683 1.096 6.971 6.971 0 0 0 2.305.44c1.013.048 1.337.058 3.917.058s2.903-.011 3.917-.057a6.972 6.972 0 0 0 2.306-.441 4.858 4.858 0 0 0 2.779-2.78 6.971 6.971 0 0 0 .44-2.305c.048-1.014.058-1.337.058-3.917s-.011-2.904-.057-3.917a6.972 6.972 0 0 0-.441-2.306 4.657 4.657 0 0 0-1.097-1.683 4.658 4.658 0 0 0-1.683-1.096 6.973 6.973 0 0 0-2.305-.44C14.903 2.51 14.58 2.5 12 2.5Zm0 4.621a4.879 4.879 0 1 0 0 9.758 4.879 4.879 0 0 0 0-9.758Zm0 8.046a3.167 3.167 0 1 1 0-6.334 3.167 3.167 0 0 1 0 6.334Zm5.071-9.378a1.14 1.14 0 1 0 0 2.28 1.14 1.14 0 0 0 0-2.28Z" />
</svg>