<svg xmlns="http://www.w3.org/2000/svg" width="24" height="24" fill="none" viewBox="0 0 24 24">
  <path fill="currentColor"
    d="M21.628 16.894c-.084-.28-.489-.475-.489-.475-.036-.022-.072-.039-.1-.053a7.646 7.646 0 0 1-1.766-1.157 5.979 5.979 0 0 1-1.024-1.167 4.385 4.385 0 0 1-.564-1.163c-.039-.15-.03-.21 0-.287a.458.458 0 0 1 .143-.157c.226-.159.591-.396.814-.541.193-.126.36-.234.458-.301.315-.22.53-.444.658-.687.165-.312.184-.658.056-.996-.173-.457-.6-.73-1.141-.73-.12 0-.246.013-.368.038-.31.067-.606.179-.851.274-.017.008-.037-.006-.037-.025.025-.611.056-1.432-.01-2.213-.062-.706-.207-1.3-.444-1.819a4.76 4.76 0 0 0-.793-1.183 4.88 4.88 0 0 0-1.25-1.007c-.862-.494-1.844-.745-2.918-.745-1.071 0-2.05.251-2.916.742A4.958 4.958 0 0 0 7.834 4.25a4.945 4.945 0 0 0-.793 1.183c-.237.52-.382 1.114-.443 1.82-.067.78-.04 1.537-.011 2.212 0 .02-.02.033-.037.025a5.758 5.758 0 0 0-.85-.273 1.655 1.655 0 0 0-.369-.04c-.541 0-.968.274-1.141.731-.128.34-.109.684.056.996.128.243.343.466.658.687.098.067.265.176.458.301.22.143.575.371.8.533a.48.48 0 0 1 .154.168c.033.08.039.139-.003.298a4.44 4.44 0 0 1-.56 1.152c-.277.419-.623.81-1.025 1.167a7.767 7.767 0 0 1-1.766 1.157 1.15 1.15 0 0 0-.111.059c-.042.025-.402.204-.477.469-.112.39.184.756.49.954.497.32 1.103.494 1.454.586.098.025.187.05.268.075.05.017.176.064.232.134.067.087.075.195.1.318.04.207.126.46.38.636.279.193.636.207 1.085.223.471.017 1.057.042 1.727.263.31.103.591.276.918.477.68.418 1.529.94 2.977.94s2.302-.524 2.988-.943c.324-.198.602-.371.907-.471.67-.221 1.255-.243 1.727-.263.449-.017.806-.03 1.085-.223.273-.187.352-.469.388-.68.02-.104.033-.199.092-.277.05-.067.167-.112.223-.131.084-.025.173-.05.276-.078.352-.095.79-.204 1.326-.508.633-.363.678-.812.61-1.032Z" />
</svg>