<svg xmlns="http://www.w3.org/2000/svg" width="24" height="24" fill="none" viewBox="0 0 24 24">
  <path fill="currentColor"
    d="M1.581 10.68c6.175-2.682 10.292-4.45 12.35-5.303 5.884-2.44 7.105-2.863 7.903-2.877.175-.003.566.04.82.246.212.173.272.407.302.572.026.164.063.538.033.83-.318 3.339-1.698 11.44-2.4 15.178-.294 1.582-.88 2.113-1.446 2.165-1.23.112-2.164-.81-3.355-1.589-1.863-1.218-2.916-1.976-4.726-3.164-2.091-1.374-.735-2.129.457-3.363.31-.323 5.731-5.236 5.834-5.682.013-.055.027-.263-.1-.373-.122-.11-.304-.072-.436-.042-.189.042-3.164 2.004-8.935 5.886-.844.578-1.609.86-2.297.845-.754-.016-2.21-.426-3.293-.776-1.323-.43-2.379-.657-2.286-1.387.046-.38.572-.77 1.575-1.167Z" />
</svg>