<svg xmlns="http://www.w3.org/2000/svg" width="24" height="24" fill="none" viewBox="0 0 24 24">
  <path fill="currentColor"
    d="M16.785 11.27a7.004 7.004 0 0 0-.263-.12c-.154-2.844-1.708-4.472-4.316-4.49h-.036c-1.56 0-2.858.667-3.657 1.88l1.435.984c.597-.905 1.533-1.098 2.223-1.098h.024c.859.005 1.507.255 1.926.742.306.355.51.845.61 1.464-.76-.13-1.584-.17-2.465-.12-2.48.144-4.075 1.59-3.968 3.602.055 1.02.563 1.897 1.43 2.47.735.485 1.68.722 2.662.668 1.297-.07 2.315-.566 3.025-1.471.539-.688.88-1.579 1.03-2.701.619.373 1.077.864 1.33 1.455.43 1.003.455 2.652-.89 3.997-1.179 1.178-2.596 1.688-4.737 1.703-2.375-.017-4.17-.78-5.339-2.264C5.716 16.58 5.151 14.57 5.13 12c.022-2.571.587-4.58 1.68-5.97 1.168-1.486 2.964-2.248 5.34-2.265 2.392.017 4.22.783 5.432 2.275.594.732 1.043 1.653 1.338 2.726l1.681-.45c-.358-1.32-.921-2.458-1.688-3.402C17.357 3.001 15.084 2.02 12.154 2h-.011C9.219 2.02 6.97 3.004 5.46 4.925 4.117 6.634 3.424 9.012 3.4 11.993v.014c.023 2.98.716 5.359 2.06 7.068 1.51 1.92 3.758 2.905 6.681 2.925h.012c2.6-.018 4.431-.699 5.94-2.207 1.975-1.974 1.916-4.447 1.265-5.966-.467-1.089-1.357-1.973-2.575-2.557Zm-4.488 4.22c-1.087.062-2.216-.427-2.272-1.472-.041-.775.551-1.64 2.339-1.743.204-.012.405-.018.603-.018a8.47 8.47 0 0 1 1.808.184c-.206 2.573-1.414 2.99-2.478 3.05Z" />
</svg>