<svg width="32" height="32" viewBox="0 0 32 32" fill="none" xmlns="http://www.w3.org/2000/svg">
    <path d="M16 32C24.8366 32 32 24.8366 32 16C32 7.16344 24.8366 0 16 0C7.16344 0 0 7.16344 0 16C0 24.8366 7.16344 32 16 32Z" fill="currentColor"/>
    <path d="M12.2608 5.76675C11.9758 5.72275 11.9638 5.71675 12.0978 5.69675C12.3548 5.65675 12.9628 5.71175 13.3818 5.81075C14.3588 6.04375 15.2478 6.63875 16.1978 7.69575L16.4498 7.97575L16.8098 7.91875C18.3298 7.67375 19.8768 7.86875 21.1698 8.46575C21.5258 8.62975 22.0868 8.95675 22.1568 9.04175C22.1798 9.06775 22.2208 9.24075 22.2478 9.42475C22.3438 10.0617 22.2958 10.5497 22.1018 10.9147C21.9958 11.1127 21.9898 11.1747 22.0608 11.3447C22.0945 11.415 22.1472 11.4743 22.213 11.516C22.2787 11.5578 22.3549 11.5802 22.4328 11.5807C22.7548 11.5807 23.1008 11.0607 23.2608 10.3377L23.3248 10.0507L23.4508 10.1937C24.1428 10.9777 24.6858 12.0467 24.7788 12.8067L24.8038 13.0057L24.6868 12.8257C24.4868 12.5157 24.2868 12.3037 24.0288 12.1327C23.5648 11.8257 23.0738 11.7217 21.7738 11.6527C20.5998 11.5907 19.9348 11.4907 19.2768 11.2757C18.1558 10.9107 17.5908 10.4237 16.2588 8.67675C15.6678 7.90075 15.3018 7.47175 14.9388 7.12675C14.1118 6.34075 13.2998 5.92875 12.2608 5.76675Z" fill="white"/>
    <path d="M22.4217 7.49966C22.4517 6.97966 22.5217 6.63666 22.6637 6.32366C22.7197 6.19966 22.7727 6.09766 22.7807 6.09766C22.7718 6.16785 22.7533 6.23649 22.7257 6.30166C22.6227 6.60566 22.6057 7.02166 22.6767 7.50466C22.7667 8.11866 22.8187 8.20666 23.4667 8.86966C23.7717 9.18066 24.1257 9.57266 24.2537 9.74166L24.4867 10.0477L24.2537 9.82866C23.9687 9.56166 23.3127 9.03866 23.1677 8.96466C23.0707 8.91466 23.0557 8.91566 22.9957 8.97466C22.9407 9.03066 22.9287 9.11266 22.9217 9.50366C22.9097 10.1117 22.8267 10.5037 22.6257 10.8937C22.5177 11.1037 22.5007 11.0597 22.5987 10.8207C22.6717 10.6427 22.6787 10.5647 22.6787 9.97566C22.6787 8.79166 22.5377 8.50766 21.7127 8.01966C21.4645 7.87561 21.2095 7.74346 20.9487 7.62366C20.8199 7.57197 20.6949 7.51115 20.5747 7.44166C20.5977 7.41866 21.4017 7.65266 21.7247 7.77766C22.2067 7.96266 22.2857 7.98666 22.3447 7.96366C22.3837 7.94866 22.4027 7.83466 22.4217 7.49966ZM12.8147 9.52466C12.2357 8.72766 11.8777 7.50466 11.9547 6.59066L11.9787 6.30766L12.1107 6.33166C12.3587 6.37666 12.7857 6.53566 12.9857 6.65766C13.5337 6.99066 13.7717 7.42966 14.0127 8.55566C14.0837 8.88566 14.1767 9.25866 14.2197 9.38566C14.2877 9.58866 14.5477 10.0637 14.7597 10.3727C14.9117 10.5947 14.8097 10.6997 14.4737 10.6697C13.9597 10.6227 13.2637 10.1427 12.8147 9.52466ZM21.7197 15.4597C19.0127 14.3697 18.0597 13.4237 18.0597 11.8277C18.0597 11.5927 18.0677 11.4007 18.0767 11.4007C18.0867 11.4007 18.1917 11.4777 18.3097 11.5727C18.8587 12.0127 19.4737 12.2007 21.1747 12.4487C22.1757 12.5957 22.7397 12.7137 23.2597 12.8857C24.9117 13.4337 25.9337 14.5457 26.1777 16.0597C26.2477 16.4997 26.2067 17.3247 26.0917 17.7597C26.0017 18.1037 25.7247 18.7227 25.6517 18.7467C25.6317 18.7527 25.6117 18.6757 25.6057 18.5687C25.5777 18.0007 25.2907 17.4467 24.8077 17.0317C24.2587 16.5607 23.5227 16.1847 21.7197 15.4597ZM19.8197 15.9117C19.7877 15.7185 19.744 15.5275 19.6887 15.3397L19.6187 15.1337L19.7477 15.2777C19.9247 15.4777 20.0657 15.7317 20.1837 16.0717C20.2747 16.3307 20.2847 16.4077 20.2837 16.8287C20.2837 17.2427 20.2727 17.3287 20.1887 17.5627C20.0719 17.9058 19.8764 18.2167 19.6177 18.4707C19.1227 18.9747 18.4877 19.2527 17.5697 19.3687C17.4097 19.3887 16.9457 19.4227 16.5367 19.4437C15.5067 19.4977 14.8297 19.6077 14.2207 19.8217C14.1658 19.8463 14.1068 19.8605 14.0467 19.8637C14.0227 19.8387 14.4367 19.5917 14.7797 19.4267C15.2627 19.1937 15.7427 19.0667 16.8197 18.8877C17.3517 18.7987 17.9017 18.6917 18.0407 18.6487C19.3587 18.2447 20.0367 17.2027 19.8197 15.9117Z" fill="white"/>
    <path d="M21.0597 18.1156C20.6997 17.3426 20.6178 16.5956 20.8148 15.8996C20.8358 15.8256 20.8697 15.7646 20.8897 15.7646C20.9574 15.7891 21.0211 15.8235 21.0788 15.8666C21.2448 15.9786 21.5767 16.1666 22.4618 16.6486C23.5667 17.2516 24.1967 17.7186 24.6257 18.2506C25.0007 18.7176 25.2327 19.2496 25.3447 19.8976C25.4077 20.2646 25.3708 21.1476 25.2768 21.5176C24.9798 22.6836 24.2888 23.5996 23.3048 24.1336C23.2119 24.1874 23.1157 24.2351 23.0168 24.2766C23.0028 24.2766 23.0548 24.1436 23.1338 23.9796C23.4638 23.2876 23.5028 22.6136 23.2518 21.8636C23.0988 21.4046 22.7858 20.8436 22.1548 19.8976C21.4208 18.7976 21.2407 18.5036 21.0597 18.1156ZM10.8927 22.2866C11.8977 21.4386 13.1468 20.8366 14.2858 20.6516C14.7758 20.5716 15.5938 20.6036 16.0478 20.7196C16.7758 20.9056 17.4278 21.3236 17.7668 21.8206C18.0968 22.3066 18.2397 22.7306 18.3867 23.6726C18.4467 24.0446 18.5097 24.4176 18.5287 24.5026C18.6387 24.9906 18.8558 25.3816 19.1238 25.5776C19.5488 25.8886 20.2818 25.9076 21.0018 25.6276C21.077 25.5931 21.1563 25.5683 21.2378 25.5536C21.2638 25.5796 20.9017 25.8226 20.6458 25.9506C20.3437 26.1123 20.0053 26.1942 19.6628 26.1886C19.0028 26.1886 18.4547 25.8536 17.9977 25.1686C17.9077 25.0336 17.7058 24.6306 17.5478 24.2716C17.0658 23.1716 16.8277 22.8356 16.2677 22.4686C15.7787 22.1486 15.1498 22.0916 14.6768 22.3236C14.0548 22.6286 13.8817 23.4236 14.3267 23.9266C14.5037 24.1266 14.8338 24.2996 15.1038 24.3326C15.2215 24.3483 15.3413 24.3384 15.4549 24.3037C15.5686 24.2691 15.6735 24.2104 15.7625 24.1317C15.8515 24.053 15.9226 23.9562 15.9709 23.8476C16.0193 23.7391 16.0438 23.6215 16.0427 23.5026C16.0427 23.1706 15.9148 22.9826 15.5948 22.8376C15.1578 22.6406 14.6877 22.8706 14.6897 23.2816C14.6907 23.4566 14.7667 23.5666 14.9427 23.6466C15.0557 23.6966 15.0577 23.7016 14.9657 23.6826C14.5647 23.5986 14.4707 23.1156 14.7937 22.7946C15.1807 22.4086 15.9818 22.5786 16.2568 23.1046C16.3728 23.3256 16.3857 23.7666 16.2847 24.0326C16.0598 24.6276 15.4017 24.9396 14.7347 24.7696C14.2807 24.6536 14.0957 24.5286 13.5487 23.9646C12.5977 22.9846 12.2288 22.7946 10.8568 22.5806L10.5938 22.5396L10.8938 22.2866H10.8927Z" fill="white"/>
    <path fill-rule="evenodd" clip-rule="evenodd" d="M6.1958 3.34955L6.2918 3.46655C9.9998 8.00655 11.9158 10.3625 12.0378 10.5305C12.2378 10.8085 12.1628 11.0575 11.8188 11.2535C11.6278 11.3625 11.2338 11.4725 11.0378 11.4725C10.8148 11.4725 10.5638 11.3655 10.3808 11.1925C10.2518 11.0695 9.7308 10.2915 8.5278 8.42455C7.96445 7.54214 7.39377 6.66444 6.8158 5.79155C6.7668 5.74555 6.7678 5.74655 8.4338 8.72755C9.4798 10.5995 9.8338 11.2605 9.8338 11.3495C9.8338 11.5295 9.7838 11.6235 9.5618 11.8715C9.1918 12.2845 9.0268 12.7485 8.9068 13.7085C8.7728 14.7855 8.3968 15.5455 7.3528 16.8465C6.7428 17.6085 6.6428 17.7485 6.4878 18.0555C6.2938 18.4415 6.2408 18.6585 6.2188 19.1465C6.1958 19.6625 6.2408 19.9965 6.3988 20.4895C6.5368 20.9215 6.6808 21.2075 7.0488 21.7775C7.3668 22.2705 7.5498 22.6365 7.5498 22.7795C7.5498 22.8935 7.5718 22.8935 8.0648 22.7825C9.2438 22.5165 10.2008 22.0475 10.7398 21.4735C11.0728 21.1185 11.1508 20.9225 11.1538 20.4355C11.1548 20.1175 11.1438 20.0505 11.0578 19.8675C10.9178 19.5695 10.6628 19.3215 10.1008 18.9375C9.3638 18.4335 9.0498 18.0275 8.9628 17.4705C8.8908 17.0135 8.9738 16.6905 9.3818 15.8365C9.8028 14.9525 9.9078 14.5765 9.9788 13.6855C10.0238 13.1095 10.0868 12.8825 10.2528 12.7005C10.4248 12.5105 10.5808 12.4455 11.0078 12.3875C11.7038 12.2925 12.1468 12.1125 12.5108 11.7775C12.8268 11.4855 12.9588 11.2045 12.9788 10.7825L12.9948 10.4625L12.8178 10.2565C12.5638 9.96055 10.4628 7.64255 6.5138 3.30055L6.4078 3.18555L6.1958 3.35055V3.34955ZM7.9098 19.7315C7.97957 19.608 8.0004 19.4628 7.96818 19.3246C7.93595 19.1865 7.85302 19.0655 7.7358 18.9855C7.5078 18.8335 7.1528 18.9055 7.1528 19.1035C7.1528 19.1635 7.1858 19.2075 7.2608 19.2465C7.3878 19.3115 7.3968 19.3855 7.2978 19.5345C7.1968 19.6865 7.2048 19.8205 7.3208 19.9115C7.5068 20.0575 7.7698 19.9765 7.9098 19.7315ZM13.4338 12.5555C13.1068 12.6555 12.7898 13.0025 12.6908 13.3655C12.6308 13.5865 12.6648 13.9755 12.7548 14.0955C12.8998 14.2895 13.0408 14.3405 13.4208 14.3375C14.1648 14.3325 14.8108 14.0135 14.8868 13.6145C14.9488 13.2875 14.6638 12.8345 14.2728 12.6345C14.0708 12.5325 13.6418 12.4915 13.4338 12.5555ZM14.3038 13.2355C14.4188 13.0725 14.3678 12.8955 14.1738 12.7775C13.8018 12.5505 13.2398 12.7375 13.2398 13.0895C13.2398 13.2635 13.5328 13.4545 13.8008 13.4545C13.9808 13.4545 14.2248 13.3475 14.3038 13.2355Z" fill="white"/>
</svg>
