<svg xmlns="http://www.w3.org/2000/svg" width="24" height="24" fill="none" viewBox="0 0 24 24">
  <path
    d="M5.50507 7.89451C9.09326 4.38314 14.9092 4.38314 18.4974 7.89451L18.9286 8.31826C19.107 8.4942 19.107 8.77917 18.9286 8.95511L17.4517 10.3998C17.3625 10.4865 17.2163 10.4865 17.1271 10.3998L16.5323 9.81747C14.0295 7.36918 9.97049 7.36918 7.46767 9.81747L6.83082 10.4395C6.74161 10.5262 6.5954 10.5262 6.5062 10.4395L5.02929 8.99476C4.85087 8.81882 4.85087 8.53384 5.02929 8.3579L5.50259 7.89451H5.50507ZM21.5528 10.883L22.8662 12.1691C23.0446 12.3451 23.0446 12.63 22.8662 12.806L16.9387 18.6071C16.7603 18.783 16.4679 18.783 16.2895 18.6071L12.0818 14.491C12.0372 14.4464 11.9653 14.4464 11.9182 14.491L7.71052 18.6071C7.5321 18.783 7.23969 18.783 7.06128 18.6071L1.13381 12.806C0.955395 12.63 0.955395 12.3451 1.13381 12.1691L2.44717 10.883C2.62559 10.7071 2.918 10.7071 3.09642 10.883L7.30412 14.999C7.34873 15.0436 7.42059 15.0436 7.46767 14.999L11.6754 10.883C11.8538 10.7071 12.1462 10.7071 12.3246 10.883L16.5323 15.0015C16.5769 15.0461 16.6488 15.0461 16.6959 15.0015L20.9036 10.8855C21.082 10.7096 21.3744 10.7096 21.5528 10.8855V10.883Z"
    fill="currentColor" />
</svg>