<svg xmlns="http://www.w3.org/2000/svg" width="24" height="24" fill="none" viewBox="0 0 24 24">
  <path fill="currentColor" fill-rule="evenodd"
    d="M14.242 5.091a1 1 0 0 0-1.242.97v11.877a1 1 0 0 0 1.242.97l4-1a1 1 0 0 0 .758-.97V7.062a1 1 0 0 0-.758-.97l-4-1ZM11 6.061a3 3 0 0 1 3.728-2.91l4 1A3 3 0 0 1 21 7.061v9.877a3 3 0 0 1-2.272 2.91l-4 1A3 3 0 0 1 11 17.939V6.062ZM8 4a1 1 0 0 1 1 1v14a1 1 0 1 1-2 0V5a1 1 0 0 1 1-1ZM4 5a1 1 0 0 1 1 1v12a1 1 0 1 1-2 0V6a1 1 0 0 1 1-1Z"
    clip-rule="evenodd" />
</svg>