<svg xmlns="http://www.w3.org/2000/svg" width="24" height="24" fill="none" viewBox="0 0 24 24">
  <path fill="currentColor" fill-rule="evenodd"
    d="M2 7a3 3 0 0 1 3-3h2a1 1 0 0 1 0 2H5a1 1 0 0 0-1 1v2a1 1 0 0 1-2 0V7Zm14-2a1 1 0 0 1 1-1h2a3 3 0 0 1 3 3v2a1 1 0 1 1-2 0V7a1 1 0 0 0-1-1h-2a1 1 0 0 1-1-1ZM8 9a1 1 0 0 1 1 1v4a1 1 0 1 1-2 0v-4a1 1 0 0 1 1-1Zm4 0a1 1 0 0 1 1 1v2a1 1 0 1 1-2 0v-2a1 1 0 0 1 1-1Zm4 0a1 1 0 0 1 1 1v4a1 1 0 1 1-2 0v-4a1 1 0 0 1 1-1ZM3 14a1 1 0 0 1 1 1v2a1 1 0 0 0 1 1h2a1 1 0 1 1 0 2H5a3 3 0 0 1-3-3v-2a1 1 0 0 1 1-1Zm18 0a1 1 0 0 1 1 1v2a3 3 0 0 1-3 3h-2a1 1 0 1 1 0-2h2a1 1 0 0 0 1-1v-2a1 1 0 0 1 1-1Z"
    clip-rule="evenodd" />
</svg>