<svg xmlns="http://www.w3.org/2000/svg" viewBox="0 0 24 24" fill="currentColor" aria-hidden="true">
<path fill-rule="evenodd" clip-rule="evenodd" d="M3 6.75C3 6.33579 3.33579 6 3.75 6H20.25C20.6642 6 21 6.33579 21 6.75C21 7.16421 20.6642 7.5 20.25 7.5H3.75C3.33579 7.5 3 7.16421 3 6.75ZM5 12C5 11.5858 5.33579 11.25 5.75 11.25H18.25C18.6642 11.25 19 11.5858 19 12C19 12.4142 18.6642 12.75 18.25 12.75H5.75C5.33579 12.75 5 12.4142 5 12ZM7 17.25C7 16.8358 7.33579 16.5 7.75 16.5H16.25C16.6642 16.5 17 16.8358 17 17.25C17 17.6642 16.6642 18 16.25 18H7.75C7.33579 18 7 17.6642 7 17.25Z" />
</svg>
