<svg width="20" height="20" viewBox="0 0 20 20" fill="none" xmlns="http://www.w3.org/2000/svg">
<g clip-path="url(#clip0_904_18483)">
<path d="M10 2C6.68632 2 4.00003 4.68629 4.00003 8V11.5858L3.29292 12.2929C3.00692 12.5789 2.92137 13.009 3.07615 13.3827C3.23093 13.7564 3.59557 14 4.00003 14H16C16.4045 14 16.7691 13.7564 16.9239 13.3827C17.0787 13.009 16.9931 12.5789 16.7071 12.2929L16 11.5858V8C16 4.68629 13.3137 2 10 2Z" fill="#8C8CA1"/>
<path d="M10 18C8.34315 18 7 16.6569 7 15H13C13 16.6569 11.6569 18 10 18Z" fill="#8C8CA1"/>
<path d="M3.70711 2.29289C3.31658 1.90237 2.68342 1.90237 2.29289 2.29289C1.90237 2.68342 1.90237 3.31658 2.29289 3.70711L9.21426 10.6285C9.26325 10.6906 9.31947 10.7469 9.38164 10.7958L16.2929 17.7071C16.6834 18.0976 17.3166 18.0976 17.7071 17.7071C18.0976 17.3166 18.0976 16.6834 17.7071 16.2929L17.0323 15.6181C17.0323 15.6181 42.2562 40.842 3.70711 2.29289Z" fill="#8C8CA1"/>
</g>
<defs>
<clipPath id="clip0_904_18483">
<rect width="20" height="20" fill="white"/>
</clipPath>
</defs>
</svg>
