<svg width="24" height="24" viewBox="0 0 24 24" fill="currentColor" xmlns="http://www.w3.org/2000/svg">
<path d="M12 6C8.13401 6 5 9.13401 5 13C5 13.5523 4.55228 14 4 14C3.44772 14 3 13.5523 3 13C3 8.02944 7.02944 4 12 4C16.9706 4 21 8.02944 21 13C21 13.5523 20.5523 14 20 14C19.4477 14 19 13.5523 19 13C19 9.13401 15.866 6 12 6Z" fill="black"/>
<path d="M6 18C6 19.1046 5.10457 20 4 20C2.89543 20 2 19.1046 2 18C2 16.8954 2.89543 16 4 16C5.10457 16 6 16.8954 6 18Z"/>
<path d="M20 20C21.1046 20 22 19.1046 22 18C22 16.8954 21.1046 16 20 16C18.8954 16 18 16.8954 18 18C18 19.1046 18.8954 20 20 20Z"/>
</svg>
