<svg xmlns="http://www.w3.org/2000/svg" width="24" height="24" fill="none" viewBox="0 0 24 24">
  <path fill="currentColor" d="m12 12.917.265.583h-.53l.265-.583Z" />
  <path fill="currentColor" fill-rule="evenodd"
    d="M8.074 4.336A3 3 0 0 1 10.57 3h2.86a3 3 0 0 1 2.496 1.336l.812 1.219A1 1 0 0 0 17.57 6H19a3 3 0 0 1 3 3v9a3 3 0 0 1-3 3H5a3 3 0 0 1-3-3V9a3 3 0 0 1 3-3h1.43a1 1 0 0 0 .832-.445l.812-1.22Zm4.836 5.75a1 1 0 0 0-1.82 0l-2.5 5.5a1 1 0 0 0 1.82.828l.416-.914h2.348l.416.914a1 1 0 0 0 1.82-.828l-2.5-5.5Z"
    clip-rule="evenodd" />
</svg>