<svg xmlns="http://www.w3.org/2000/svg" width="24" height="24" fill="none" viewBox="0 0 24 24">
  <path fill="currentColor"
    d="M5 6a1 1 0 0 1 1-1h2a1 1 0 0 0 0-2H6a3 3 0 0 0-3 3v2a1 1 0 0 0 2 0V6Zm11-3a1 1 0 1 0 0 2h2a1 1 0 0 1 1 1v2a1 1 0 1 0 2 0V6a3 3 0 0 0-3-3h-2ZM5 16a1 1 0 1 0-2 0v2a3 3 0 0 0 3 3h2a1 1 0 1 0 0-2H6a1 1 0 0 1-1-1v-2Zm16 0a1 1 0 1 0-2 0v2a1 1 0 0 1-1 1h-2a1 1 0 1 0 0 2h2a3 3 0 0 0 3-3v-2Z" />
  <path fill="currentColor" fill-rule="evenodd"
    d="M12.91 8.836a1 1 0 0 0-1.82 0l-2.5 5.5a1 1 0 0 0 1.82.828l.416-.914h2.348l.416.914a1 1 0 0 0 1.82-.828l-2.5-5.5Zm-.645 3.414h-.53l.265-.583.265.583Z"
    clip-rule="evenodd" />
</svg>