<svg width="24" height="24" viewBox="0 0 24 24" fill="currentColor" xmlns="http://www.w3.org/2000/svg">
  <path fill-rule="evenodd" clip-rule="evenodd" d="M6 3C4.34315 3 3 4.34315 3 6V18C3 19.6569 4.34315 21 6 21H18C19.6569 21 21 19.6569 21 18V6C21 4.34315 19.6569 3 18 3H6ZM16.8755 10.4519C17.2341 10.2445 17.3566 9.78567 17.1492 9.42713C16.9418 9.06858 16.483 8.94606 16.1245 9.15347C14.7577 9.94409 13.5517 10.9809 12.5667 12.2033L11.0303 10.667C10.7374 10.3741 10.2626 10.3741 9.96967 10.667L6.96967 13.667C6.67678 13.9599 6.67678 14.4347 6.96967 14.7276C7.26256 15.0205 7.73744 15.0205 8.03033 14.7276L10.5 12.2579L12.1173 13.8752C12.2742 14.0322 12.4927 14.1116 12.7138 14.092C12.9349 14.0724 13.136 13.9558 13.2629 13.7737C14.207 12.4189 15.4414 11.2815 16.8755 10.4519Z" />
</svg>