<svg xmlns="http://www.w3.org/2000/svg" width="24" height="24" fill="none" viewBox="0 0 24 24">
  <path fill="currentColor" fill-rule="evenodd"
    d="M9.1 5.2a1 1 0 0 1 .2 1.4l-3 4a1 1 0 0 1-1.355.232l-1.5-1a1 1 0 0 1 1.11-1.664l.713.475L7.7 5.4a1 1 0 0 1 1.4-.2ZM12 8a1 1 0 0 1 1-1h7a1 1 0 1 1 0 2h-7a1 1 0 0 1-1-1Zm-2.9 5.2a1 1 0 0 1 .2 1.4l-3 4a1 1 0 0 1-1.355.232l-1.5-1a1 1 0 1 1 1.11-1.664l.713.475L7.7 13.4a1 1 0 0 1 1.4-.2ZM12 16a1 1 0 0 1 1-1h7a1 1 0 1 1 0 2h-7a1 1 0 0 1-1-1Z"
    clip-rule="evenodd" />
</svg>