<svg xmlns="http://www.w3.org/2000/svg" width="24" height="24" fill="none" viewBox="0 0 24 24">
  <path fill="currentColor"
    d="M1.293 4.543a1 1 0 0 0 1.414 1.414l3-3a1 1 0 0 0-1.414-1.414l-3 3Zm18.414-3a1 1 0 1 0-1.414 1.414l3 3a1 1 0 1 0 1.414-1.414l-3-3Z" />
  <path fill="currentColor" fill-rule="evenodd"
    d="M22 12c0 5.523-4.477 10-10 10S2 17.523 2 12 6.477 2 12 2s10 4.477 10 10ZM12 7a1 1 0 0 1 1 1v3.586l2.207 2.207a1 1 0 0 1-1.414 1.414l-2.5-2.5A1 1 0 0 1 11 12V8a1 1 0 0 1 1-1Z"
    clip-rule="evenodd" />
</svg>