<svg width="24" height="24" viewBox="0 0 24 24" fill="currentColor" xmlns="http://www.w3.org/2000/svg">
<path d="M9.94586 14.0542L10.9729 10.9729L14.0542 9.94586L13.0271 13.0271L9.94586 14.0542Z" />
<path fill-rule="evenodd" clip-rule="evenodd" d="M21.75 12C21.75 17.3848 17.3848 21.75 12 21.75C6.61522 21.75 2.25 17.3848 2.25 12C2.25 6.61522 6.61522 2.25 12 2.25C17.3848 2.25 21.75 6.61522 21.75 12ZM15.9515 8.99718C16.0414 8.72768 15.9712 8.43055 15.7703 8.22968C15.5695 8.02881 15.2723 7.95866 15.0028 8.0485L10.1428 9.6685C9.91889 9.74315 9.74315 9.91889 9.6685 10.1428L8.0485 15.0028C7.95866 15.2723 8.02881 15.5695 8.22968 15.7703C8.43055 15.9712 8.72768 16.0414 8.99718 15.9515L13.8572 14.3315C14.0811 14.2569 14.2569 14.0811 14.3315 13.8572L15.9515 8.99718Z" />
</svg>
