<svg xmlns="http://www.w3.org/2000/svg" width="24" height="24" fill="none" viewBox="0 0 24 24">
  <path fill="currentColor"
    d="M10 2a2 2 0 0 0-2 2v2.336a2 2 0 0 0 .586 1.414l2.177 2.177a1.75 1.75 0 0 0 2.474 0l2.177-2.177A2 2 0 0 0 16 6.336V4a2 2 0 0 0-2-2h-4ZM4 8a2 2 0 0 0-2 2v4a2 2 0 0 0 2 2h2.336a2 2 0 0 0 1.414-.586l2.177-2.177a1.75 1.75 0 0 0 0-2.474L7.75 8.586A2 2 0 0 0 6.336 8H4Zm9.237 6.073a1.75 1.75 0 0 0-2.474 0L8.586 16.25A2 2 0 0 0 8 17.664V20a2 2 0 0 0 2 2h4a2 2 0 0 0 2-2v-2.336a2 2 0 0 0-.586-1.414l-2.177-2.177Z" />
  <path fill="currentColor" fill-rule="evenodd"
    d="M22 14a2 2 0 0 1-2 2h-2.336a2 2 0 0 1-1.414-.586l-2.177-2.177a1.75 1.75 0 0 1 0-2.474l2.177-2.177A2 2 0 0 1 17.664 8H20a2 2 0 0 1 2 2v4Zm-2-4h-2.336l-2 2 2 2H20v-4Z"
    clip-rule="evenodd" />
</svg>