<svg xmlns="http://www.w3.org/2000/svg" width="24" height="24" fill="none" viewBox="0 0 24 24">
  <path fill="currentColor" fill-rule="evenodd"
    d="M3 5a3 3 0 0 1 3-3h11a3 3 0 0 1 3 3v7.802A6 6 0 0 0 12.528 22H6a3 3 0 0 1-3-3V5Zm4 2a1 1 0 0 1 1-1h7a1 1 0 1 1 0 2H8a1 1 0 0 1-1-1Zm0 4a1 1 0 0 1 1-1h3a1 1 0 1 1 0 2H8a1 1 0 0 1-1-1Zm0 4a1 1 0 0 1 1-1h1a1 1 0 1 1 0 2H8a1 1 0 0 1-1-1Z"
    clip-rule="evenodd" />
  <path fill="currentColor" fill-rule="evenodd"
    d="M19.828 15.172a4 4 0 1 0-.796 6.274l1.26 1.261a1 1 0 0 0 1.415-1.414l-1.26-1.26a4.001 4.001 0 0 0-.619-4.861Zm-4.242 4.242a2 2 0 1 1 2.828-2.828 2 2 0 0 1-2.828 2.828Z"
    clip-rule="evenodd" />
</svg>