<svg xmlns="http://www.w3.org/2000/svg" width="24" height="24" fill="none" viewBox="0 0 24 24">
  <path fill="#000" fill-rule="evenodd" d="M10.946 8.005c-3.258-.097-6.183 1.2-7.037 3.539a1.5 1.5 0 0 1-2.818-1.03c1.521-4.165 6.196-5.62 9.944-5.508 1.938.058 3.882.523 5.395 1.429 1.524.913 2.77 2.395 2.77 4.426 0 1.28-.626 2.273-1.438 2.951-.785.654-1.77 1.048-2.705 1.258a8.13 8.13 0 0 1-2.842.136c-.83-.116-1.865-.425-2.535-1.208-.62-.723-.549-1.607-.216-2.21.035-.063.074-.125.114-.184-.619.142-1.111.374-1.418.63-.282.235-.36.439-.36.647 0 .684.399 1.382 1.443 2.005 1.05.626 2.557 1.035 4.186 1.104 1.625.068 3.22-.209 4.438-.802 1.197-.584 1.934-1.414 2.168-2.478a1.5 1.5 0 0 1 2.93.642c-.48 2.188-1.998 3.662-3.784 4.533-1.766.86-3.882 1.186-5.879 1.102-1.993-.084-4.018-.583-5.596-1.524C6.123 16.517 4.8 14.988 4.8 12.88c0-1.28.626-2.273 1.438-2.951.785-.654 1.77-1.048 2.704-1.258a8.133 8.133 0 0 1 2.843-.136c.83.117 1.865.425 2.535 1.208.62.723.548 1.607.216 2.21a2.17 2.17 0 0 1-.114.184c.619-.142 1.111-.374 1.418-.63.282-.235.36-.439.36-.647 0-.638-.358-1.28-1.312-1.852-.966-.58-2.377-.958-3.942-1.004Z" clip-rule="evenodd"/>
</svg>
