<svg xmlns="http://www.w3.org/2000/svg" width="24" height="24" fill="none" viewBox="0 0 24 24">
  <path
    d="M13.1716 5.17157C14.7336 3.60948 17.2663 3.60948 18.8284 5.17157C20.3905 6.73367 20.3905 9.26633 18.8284 10.8284L16.8284 12.8285C15.2663 14.3906 12.7337 14.3906 11.1716 12.8285C10.781 12.438 10.1479 12.438 9.75735 12.8285C9.36682 13.2191 9.36683 13.8522 9.75735 14.2428C12.1005 16.5859 15.8995 16.5859 18.2426 14.2428L20.2426 12.2426C22.5857 9.89949 22.5858 6.1005 20.2426 3.75736C17.8995 1.41421 14.1005 1.41421 11.7573 3.75736C11.3668 4.14788 11.3668 4.78105 11.7573 5.17157C12.1479 5.5621 12.781 5.5621 13.1716 5.17157Z"
    fill="currentColor" />
  <path
    d="M7.17157 11.1716C8.73367 9.60948 11.2663 9.60948 12.8284 11.1716C13.2189 11.5621 13.8521 11.5621 14.2426 11.1716C14.6331 10.781 14.6331 10.1479 14.2426 9.75736C11.8995 7.41421 8.10048 7.41421 5.75734 9.75736L3.75735 11.7575C1.41422 14.1006 1.41421 17.8996 3.75735 20.2428C6.10049 22.5859 9.89948 22.5859 12.2426 20.2428C12.6332 19.8522 12.6332 19.2191 12.2426 18.8285C11.8521 18.438 11.2189 18.438 10.8284 18.8285C9.26632 20.3906 6.73366 20.3906 5.17156 18.8285C3.60947 17.2664 3.60946 14.7338 5.17156 13.1717L7.17157 11.1716Z"
    fill="currentColor" />
</svg>