<svg xmlns="http://www.w3.org/2000/svg" viewBox="0 0 24 24" fill="currentColor">
  <path d="M20.4354 3.58198C19.9352 3.0686 19.1949 2.87734 18.5046 3.07866L2.408 7.75952C1.6797 7.96186 1.16349 8.54269 1.02443 9.28055C0.882372 10.0315 1.37858 10.9848 2.02684 11.3834L7.0599 14.4768C7.57611 14.7939 8.24239 14.7144 8.66956 14.2835L14.4329 8.4843C14.723 8.18231 15.2032 8.18231 15.4934 8.4843C15.7835 8.77623 15.7835 9.24935 15.4934 9.55134L9.71999 15.3516C9.29181 15.7814 9.21178 16.4508 9.52691 16.9702L12.6022 22.0538C12.9623 22.6577 13.5826 23 14.2628 23C14.3429 23 14.4329 23 14.513 22.9899C15.2933 22.8893 15.9135 22.3558 16.1436 21.6008L20.9156 5.52479C21.1257 4.84028 20.9356 4.09537 20.4354 3.58198Z" />
</svg>
