<svg width="24" height="24" viewBox="0 0 24 24" fill="currentColor" xmlns="http://www.w3.org/2000/svg">
<path fill-rule="evenodd" clip-rule="evenodd" d="M20.4023 13.5801C20.7599 13.7701 21.0359 14.0701 21.23 14.3701C21.6082 14.9901 21.5775 15.7501 21.2096 16.4201L20.4942 17.6201C20.1161 18.2601 19.411 18.6601 18.6854 18.6601C18.3277 18.6601 17.9291 18.5601 17.6021 18.3601C17.3364 18.1901 17.0298 18.1301 16.7028 18.1301C15.691 18.1301 14.8428 18.9601 14.8121 19.9501C14.8121 21.1001 13.8719 22.0001 12.6967 22.0001H11.3068C10.1214 22.0001 9.18116 21.1001 9.18116 19.9501C9.16072 18.9601 8.3125 18.1301 7.30076 18.1301C6.96351 18.1301 6.65693 18.1901 6.40144 18.3601C6.07441 18.5601 5.66563 18.6601 5.31816 18.6601C4.58235 18.6601 3.8772 18.2601 3.49908 17.6201L2.79393 16.4201C2.4158 15.7701 2.39536 14.9901 2.77349 14.3701C2.937 14.0701 3.24359 13.7701 3.59106 13.5801C3.8772 13.4401 4.06116 13.2101 4.23489 12.9401C4.74587 12.0801 4.43928 10.9501 3.57062 10.4401C2.55888 9.87011 2.23185 8.60011 2.81437 7.61011L3.49908 6.43011C4.09181 5.44011 5.35904 5.09011 6.381 5.67011C7.2701 6.15011 8.42491 5.83011 8.94611 4.98011C9.10962 4.70011 9.2016 4.40011 9.18116 4.10011C9.16072 3.71011 9.27314 3.34011 9.46731 3.04011C9.84543 2.42011 10.5301 2.02011 11.2762 2.00011H12.7171C13.4734 2.00011 14.1581 2.42011 14.5362 3.04011C14.7202 3.34011 14.8428 3.71011 14.8121 4.10011C14.7917 4.40011 14.8837 4.70011 15.0472 4.98011C15.5684 5.83011 16.7232 6.15011 17.6225 5.67011C18.6343 5.09011 19.9117 5.44011 20.4942 6.43011L21.1789 7.61011C21.7717 8.60011 21.4447 9.87011 20.4227 10.4401C19.554 10.9501 19.2474 12.0801 19.7686 12.9401C19.9322 13.2101 20.1161 13.4401 20.4023 13.5801ZM9.10962 12.0101C9.10962 13.5801 10.4075 14.8301 12.012 14.8301C13.6165 14.8301 14.8837 13.5801 14.8837 12.0101C14.8837 10.4401 13.6165 9.18011 12.012 9.18011C10.4075 9.18011 9.10962 10.4401 9.10962 12.0101Z"/>
</svg>
