<svg xmlns="http://www.w3.org/2000/svg" width="24" height="24" fill="currentColor"
  viewBox="0 0 24 24">
  <path fill-rule="evenodd"
    d="M6 3a3 3 0 0 0-3 3v12a3 3 0 0 0 3 3h12a3 3 0 0 0 3-3V6a3 3 0 0 0-3-3H6Zm2 6.5A1.25 1.25 0 1 0 8 7a1.25 1.25 0 0 0 0 2.5ZM9.25 12a1.25 1.25 0 1 1-2.5 0 1.25 1.25 0 0 1 2.5 0Zm0 4a1.25 1.25 0 1 1-2.5 0 1.25 1.25 0 0 1 2.5 0Zm4-4a1.25 1.25 0 1 1-2.5 0 1.25 1.25 0 0 1 2.5 0Zm0 4a1.25 1.25 0 1 1-2.5 0 1.25 1.25 0 0 1 2.5 0Zm4-4a1.25 1.25 0 1 1-2.5 0 1.25 1.25 0 0 1 2.5 0ZM16 17.25a1.25 1.25 0 1 0 0-2.5 1.25 1.25 0 0 0 0 2.5ZM12 9.5A1.25 1.25 0 1 0 12 7a1.25 1.25 0 0 0 0 2.5Zm5.25-1.25a1.25 1.25 0 1 1-2.5 0 1.25 1.25 0 0 1 2.5 0Z"
    clip-rule="evenodd" />
</svg>