<svg xmlns="http://www.w3.org/2000/svg" viewBox="0 0 24 24" fill="currentColor" aria-hidden="true">
  <path
    d="M12.0001 15.8873C12.8611 15.8873 13.5592 15.1893 13.5592 14.3283C13.5592 13.4672 12.8611 12.7692 12.0001 12.7692C11.139 12.7692 10.441 13.4672 10.441 14.3283C10.441 15.1893 11.139 15.8873 12.0001 15.8873Z"
  />
  <path fill-rule="evenodd" clip-rule="evenodd"
    d="M12 21C18.2132 21 21 18.2132 21 12C21 5.7868 18.2132 3 12 3C5.7868 3 3 5.7868 3 12C3 18.2132 5.7868 21 12 21ZM10.3094 6.81632H12.8132V10.9423H11.2608V8.14452H9.87018L10.3094 6.81632ZM12.0001 17.1837C13.5771 17.1837 14.8555 15.9053 14.8555 14.3283C14.8555 12.7513 13.5771 11.4728 12.0001 11.4728C10.4231 11.4728 9.14465 12.7513 9.14465 14.3283C9.14465 15.9053 10.4231 17.1837 12.0001 17.1837Z"
  />
</svg>