<svg width="24" height="24" viewBox="0 0 24 24" fill="none" >
    <path fill-rule="evenodd" clip-rule="evenodd" d="M12 2C9.51474 2 7.50002 4.01472 7.50002 6.5C7.50002 8.98528 9.51474 11 12 11C14.4853 11 16.5 8.98528 16.5 6.5C16.5 4.01472 14.4853 2 12 2ZM9.50002 6.5C9.50002 5.11929 10.6193 4 12 4C13.3807 4 14.5 5.11929 14.5 6.5C14.5 7.88071 13.3807 9 12 9C10.6193 9 9.50002 7.88071 9.50002 6.5Z" fill="currentColor" />
    <path d="M5.9204 18.2098C6.83662 15.7325 9.04962 14 12 14C12.5523 14 13 13.5523 13 13C13 12.4477 12.5523 12 12 12C8.16812 12 5.2354 14.2962 4.04458 17.516C3.70415 18.4365 3.93723 19.3438 4.47839 19.9887C5.00576 20.6172 5.81986 21 6.69685 21H14C14.5523 21 15 20.5523 15 20C15 19.4477 14.5523 19 14 19H6.69685C6.39533 19 6.14786 18.8669 6.01048 18.7032C5.88688 18.5559 5.85203 18.3946 5.9204 18.2098Z" fill="currentColor" />
    <path fill-rule="evenodd" clip-rule="evenodd" d="M15 14C15 12.3431 16.3431 11 18 11C19.6569 11 21 12.3431 21 14C21 15.2107 20.2828 16.254 19.25 16.728V18L18.5 18.75L19.25 19.427V20.2597C19.25 20.4116 19.181 20.5552 19.0623 20.6501L18.3123 21.2501C18.1297 21.3962 17.8703 21.3962 17.6877 21.2501L16.9377 20.6501C16.819 20.5552 16.75 20.4116 16.75 20.2597V16.728C15.7172 16.254 15 15.2107 15 14ZM18 13C17.4477 13 17 13.4477 17 14C17 14.5523 17.4477 15 18 15C18.5523 15 19 14.5523 19 14C19 13.4477 18.5523 13 18 13Z" fill="currentColor" />
</svg>
