<svg xmlns="http://www.w3.org/2000/svg" width="24" height="24" fill="none" viewBox="0 0 24 24">
  <path fill="currentColor" fill-rule="evenodd"
    d="M3 6a3 3 0 0 1 3-3h2a3 3 0 0 1 3 3v2a3 3 0 0 1-3 3H6a3 3 0 0 1-3-3V6Zm3-1a1 1 0 0 0-1 1v2a1 1 0 0 0 1 1h2a1 1 0 0 0 1-1V6a1 1 0 0 0-1-1H6Zm7 1a3 3 0 0 1 3-3h2a3 3 0 0 1 3 3v2a3 3 0 0 1-3 3h-2a3 3 0 0 1-3-3V6Zm3-1a1 1 0 0 0-1 1v2a1 1 0 0 0 1 1h2a1 1 0 0 0 1-1V6a1 1 0 0 0-1-1h-2ZM3 16a3 3 0 0 1 3-3h2a3 3 0 0 1 3 3v2a3 3 0 0 1-3 3H6a3 3 0 0 1-3-3v-2Zm3-1a1 1 0 0 0-1 1v2a1 1 0 0 0 1 1h2a1 1 0 0 0 1-1v-2a1 1 0 0 0-1-1H6Zm8-2a1 1 0 0 1 1 1v1h1a1 1 0 1 1 0 2h-2a1 1 0 0 1-1-1v-2a1 1 0 0 1 1-1Zm3 1a1 1 0 0 1 1-1h2a1 1 0 1 1 0 2h-2a1 1 0 0 1-1-1Zm0 4a1 1 0 0 1 1-1h2a1 1 0 1 1 0 2h-1v1a1 1 0 1 1-2 0v-2Z"
    clip-rule="evenodd" />
  <path fill="currentColor"
    d="M15 20a1 1 0 1 1-2 0 1 1 0 0 1 2 0Zm-7-3a1 1 0 1 1-2 0 1 1 0 0 1 2 0ZM8 7a1 1 0 1 1-2 0 1 1 0 0 1 2 0Zm10 0a1 1 0 1 1-2 0 1 1 0 0 1 2 0Z" />
</svg>