<svg xmlns="http://www.w3.org/2000/svg" width="24" height="24" fill="none" viewBox="0 0 24 24">
  <path fill="currentColor" fill-rule="evenodd"
    d="M11.025 2.278a3 3 0 0 1 1.95 0l6 2.063A3 3 0 0 1 21 7.178v4.735c0 2.806-1.149 4.83-2.813 6.404-1.572 1.489-3.632 2.6-5.555 3.637l-.157.084a1 1 0 0 1-.95 0l-.157-.084c-1.923-1.037-3.983-2.148-5.556-3.637C4.15 16.742 3 14.72 3 11.913V7.178A3 3 0 0 1 5.025 4.34l6-2.063Zm4.182 8.18a1 1 0 0 0-1.414-1.415L11 11.836l-.793-.793a1 1 0 0 0-1.414 1.414l1.5 1.5a1 1 0 0 0 1.414 0l3.5-3.5Z"
    clip-rule="evenodd" />
</svg>