<svg clip-rule="evenodd" fill-rule="evenodd" stroke-linejoin="round" stroke-miterlimit="2" viewBox="0 0 560 400" xmlns="http://www.w3.org/2000/svg"><g transform="matrix(4.21875 0 0 4.21875 145 65)"><path d="m0 0h64v64h-64z" fill="#2992fb"/><path d="m44.28 18.57-1.15 1.15c-2.846-2.358-6.434-3.64-10.13-3.62-8.326.001-15.32 6.524-15.9 14.83h-1.65c.553-9.224 8.31-16.507 17.55-16.48 4.127.021 8.12 1.478 11.29 4.12zm-11.28 1.73c3.777 0 7.335 1.808 9.56 4.86l1.15-1.16c-2.527-3.369-6.5-5.355-10.711-5.355-7.346 0-13.39 6.044-13.39 13.39s6.044 13.39 13.39 13.39c4.211 0 8.184-1.986 10.711-5.355l-1.15-1.15c-2.208 3.085-5.777 4.92-9.571 4.92-6.457 0-11.77-5.313-11.77-11.77s5.313-11.77 11.77-11.77zm12.61-.49-1.16 1.19c.38.393.737.807 1.07 1.24l1.15-1.24c-.333-.433-.69-.847-1.07-1.24zm-30.25 13.34c.573 9.21 8.309 16.479 17.536 16.479 4.134 0 8.139-1.459 11.304-4.119l-1.2-1.15c-2.833 2.356-6.405 3.645-10.09 3.64-8.337.004-15.34-6.533-15.91-14.85zm29.08 10 1.15 1.15c.385-.412.746-.846 1.08-1.3l-1.15-1.15c-.333.433-.69.847-1.07 1.24zm-11.44 8.79c-10.939 0-19.94-9.001-19.94-19.94s9.001-19.94 19.94-19.94c5.932-.003 11.561 2.661 15.32 7.25l1.15-1.15c-4.094-4.872-10.142-7.69-16.506-7.69-11.828 0-21.56 9.733-21.56 21.56s9.732 21.56 21.56 21.56h.036c6.373.018 12.429-2.83 16.48-7.75l-1.15-1.15c-3.737 4.622-9.387 7.294-15.33 7.25z" fill="#fff"/></g></svg>