<svg width="128" height="128" viewBox="0 0 128 128" fill="none" xmlns="http://www.w3.org/2000/svg">
<g clip-path="url(#clip0_45922_88)">
<path d="M127.61 63.8049C127.61 107.853 107.853 127.61 63.8049 127.61C19.7568 127.61 0 107.853 0 63.8049C0 19.7568 19.7568 0 63.8049 0C107.853 0 127.61 19.7568 127.61 63.8049Z" fill="#3BD23D"/>
<path d="M69.5699 27.0557L51.8197 27.0557L48.7056 36.4719H58.5645L58.5645 56.3063H69.5699V27.0557Z" fill="black"/>
<path fill-rule="evenodd" clip-rule="evenodd" d="M84.0486 80.3111C84.0486 91.4912 74.9854 100.554 63.8053 100.554C52.6253 100.554 43.5621 91.4912 43.5621 80.3111C43.5621 69.1311 52.6253 60.0678 63.8053 60.0678C74.9854 60.0678 84.0486 69.1311 84.0486 80.3111ZM74.8584 80.3111C74.8584 86.4155 69.9097 91.3641 63.8053 91.3641C57.7008 91.3641 52.7522 86.4155 52.7522 80.3111C52.7522 74.2066 57.7008 69.258 63.8053 69.258C69.9097 69.258 74.8584 74.2066 74.8584 80.3111Z" fill="black"/>
</g>
<defs>
<clipPath id="clip0_45922_88">
<rect width="128" height="128" fill="white"/>
</clipPath>
</defs>
</svg>
