<svg width="128" height="128" viewBox="0 0 128 128" fill="none" xmlns="http://www.w3.org/2000/svg">
<g clip-path="url(#clip0_3478_2388)">
<path d="M127.61 63.8049C127.61 107.853 107.853 127.61 63.8049 127.61C19.7568 127.61 0 107.853 0 63.8049C0 19.7568 19.7568 0 63.8049 0C107.853 0 127.61 19.7568 127.61 63.8049Z" fill="#44D62C"/>
<path fill-rule="evenodd" clip-rule="evenodd" d="M51.8197 27.0557H69.5699V56.3063H58.5645V36.4719H48.7056L51.8197 27.0557ZM63.8052 100.554C74.9853 100.554 84.0485 91.4911 84.0485 80.311C84.0485 69.131 74.9853 60.0677 63.8052 60.0677C52.6252 60.0677 43.562 69.131 43.562 80.311C43.562 91.4911 52.6252 100.554 63.8052 100.554ZM63.8052 91.364C69.9096 91.364 74.8583 86.4154 74.8583 80.311C74.8583 74.2065 69.9096 69.258 63.8052 69.258C57.7007 69.258 52.7521 74.2065 52.7521 80.311C52.7521 86.4154 57.7007 91.364 63.8052 91.364Z" fill="black"/>
</g>
<defs>
<clipPath id="clip0_3478_2388">
<rect width="128" height="128" fill="white"/>
</clipPath>
</defs>
</svg>
