<svg width="56" height="56" viewBox="0 0 56 56" fill="none" xmlns="http://www.w3.org/2000/svg">
<path d="M0 19.2C0 12.4794 0 9.11905 1.30792 6.55211C2.4584 4.29417 4.29417 2.4584 6.55211 1.30792C9.11905 0 12.4794 0 19.2 0H36.8C43.5206 0 46.8809 0 49.4479 1.30792C51.7058 2.4584 53.5416 4.29417 54.6921 6.55211C56 9.11905 56 12.4794 56 19.2V36.8C56 43.5206 56 46.8809 54.6921 49.4479C53.5416 51.7058 51.7058 53.5416 49.4479 54.6921C46.8809 56 43.5206 56 36.8 56H19.2C12.4794 56 9.11905 56 6.55211 54.6921C4.29417 53.5416 2.4584 51.7058 1.30792 49.4479C0 46.8809 0 43.5206 0 36.8V19.2Z" fill="#2470FF" fill-opacity="0.85098"/>
<path opacity="0.8" d="M17.3054 32.6325V40.2322C17.3054 40.7 17.7014 40.8943 17.8245 40.9384C17.9477 40.9914 18.3612 41.1061 18.7308 40.7619L24.48 35.2368C24.9696 34.7665 25.4421 34.2719 25.7972 33.6932C25.9643 33.4213 26.0336 33.268 26.0336 33.268C26.3856 32.553 26.3856 31.8646 26.0423 31.1761C25.5322 30.1522 24.2299 29.1107 22.2678 28.1221L18.9156 29.9933C17.9213 30.5582 17.3054 31.5556 17.3054 32.6325Z" fill="white"/>
<path d="M14 15.7295V23.7C14 24.6974 14.6687 25.58 15.619 25.8625C18.8568 26.7981 24.4967 28.8106 25.8605 31.7675C26.0363 32.1559 26.142 32.5355 26.1774 32.9326C27.0835 31.2821 27.4971 29.3843 27.3035 27.4601C27.0395 24.7327 25.5964 22.2524 23.3441 20.6724L15.311 15.0499C15.1702 14.944 15.003 14.891 14.8359 14.891C14.6951 14.891 14.5719 14.9175 14.4399 14.9881C14.176 15.1381 14 15.4118 14 15.7295Z" fill="white"/>
<path opacity="0.8" d="M38.6891 32.6325V40.2322C38.6891 40.7 38.2933 40.8943 38.1699 40.9384C38.0469 40.9914 37.6331 41.1061 37.2638 40.7619L31.3806 35.1084C30.9802 34.7235 30.5979 34.3165 30.2962 33.85C30.0573 33.4808 29.9609 33.268 29.9609 33.268C29.6089 32.553 29.6089 31.8646 29.9519 31.1761C30.4623 30.1522 31.7647 29.1107 33.7266 28.1221L37.0789 29.9933C38.082 30.5582 38.6891 31.5556 38.6891 32.6325Z" fill="white"/>
<path d="M42 15.7289V23.6994C42 24.6968 41.331 25.5794 40.3808 25.8619C37.143 26.7975 31.5032 28.81 30.1394 31.7669C29.9633 32.1553 29.8577 32.5349 29.8225 32.932C28.9163 31.2815 28.5028 29.3837 28.6964 27.4595C28.9601 24.7321 30.4032 22.2518 32.6558 20.6718L40.689 15.0493C40.8297 14.9433 40.9968 14.8904 41.1639 14.8904C41.3047 14.8904 41.428 14.9169 41.5597 14.9875C41.8238 15.1375 42 15.4112 42 15.7289Z" fill="white"/>
</svg>
