<svg xmlns="http://www.w3.org/2000/svg" width="24" height="24" fill="none" viewBox="0 0 24 24">
  <path fill="currentColor" d="M10 11a1 1 0 1 0 0 2h4a1 1 0 1 0 0-2h-4Z" />
  <path fill="currentColor" fill-rule="evenodd"
    d="M3 5a2 2 0 0 1 2-2h2a2 2 0 0 1 2 2h6a2 2 0 0 1 2-2h2a2 2 0 0 1 2 2v2a2 2 0 0 1-2 2v6a2 2 0 0 1 2 2v2a2 2 0 0 1-2 2h-2a2 2 0 0 1-2-2H9a2 2 0 0 1-2 2H5a2 2 0 0 1-2-2v-2a2 2 0 0 1 2-2V9a2 2 0 0 1-2-2V5Zm4 4v6a2 2 0 0 1 2 2h6a2 2 0 0 1 2-2V9a2 2 0 0 1-2-2H9a2 2 0 0 1-2 2Z"
    clip-rule="evenodd" />
</svg>