<svg xmlns="http://www.w3.org/2000/svg" width="24" height="24" fill="none" viewBox="0 0 24 24">
  <path fill="currentColor" fill-rule="evenodd"
    d="M4 5a3 3 0 0 1 3-3h10a3 3 0 0 1 3 3v7.022A6.5 6.5 0 0 0 11.81 22H7a3 3 0 0 1-3-3V5Zm3 1a1 1 0 0 1 1-1h6a1 1 0 1 1 0 2H8a1 1 0 0 1-1-1Zm0 4a1 1 0 0 1 1-1h3a1 1 0 1 1 0 2H8a1 1 0 0 1-1-1Z"
    clip-rule="evenodd" />
  <path fill="currentColor" fill-rule="evenodd"
    d="M16.5 13a4.5 4.5 0 1 0 2.414 8.298l.867.897a1 1 0 0 0 1.438-1.39l-.898-.928A4.5 4.5 0 0 0 16.5 13ZM14 17.5a2.5 2.5 0 1 1 5 0 2.5 2.5 0 0 1-5 0Z"
    clip-rule="evenodd" />
</svg>