<svg xmlns="http://www.w3.org/2000/svg" width="24" height="24" fill="none" viewBox="0 0 24 24">
  <path fill="currentColor"
    d="M7 2a3 3 0 0 0-3 3v14a3 3 0 0 0 3 3h4.167A6.25 6.25 0 0 1 20 13.168V5a3 3 0 0 0-3-3H7Z" />
  <path fill="currentColor" fill-rule="evenodd"
    d="M15.75 13.5a4.25 4.25 0 0 0 0 8.5h2.75a3.5 3.5 0 0 0 .523-6.961A4.241 4.241 0 0 0 15.75 13.5Zm-2.25 4.25a2.25 2.25 0 0 1 4.147-1.21 1 1 0 0 0 .844.46h.009a1.5 1.5 0 0 1 0 3h-2.75a2.25 2.25 0 0 1-2.25-2.25Z"
    clip-rule="evenodd" />
</svg>