<svg xmlns="http://www.w3.org/2000/svg" width="24" height="24" fill="none" viewBox="0 0 24 24">
  <path fill="currentColor" fill-rule="evenodd"
    d="M4 14a1 1 0 0 1 1 1v3a1 1 0 0 0 1 1h12a1 1 0 0 0 1-1v-3a1 1 0 1 1 2 0v3a3 3 0 0 1-3 3H6a3 3 0 0 1-3-3v-3a1 1 0 0 1 1-1Z"
    clip-rule="evenodd" />
  <path fill="currentColor" fill-rule="evenodd"
    d="M12 15.5a1 1 0 0 0 .707-.293l3.5-3.5a1 1 0 0 0-1.414-1.414L13 12.086V4a1 1 0 1 0-2 0v8.086l-1.793-1.793a1 1 0 1 0-1.414 1.414l3.5 3.5A1 1 0 0 0 12 15.5Z"
    clip-rule="evenodd" />
</svg>