<svg xmlns="http://www.w3.org/2000/svg" width="24" height="24" fill="none" viewBox="0 0 24 24">
  <path fill="currentColor" fill-rule="evenodd"
    d="M1 5a3 3 0 0 1 3-3h16a3 3 0 0 1 3 3v8a3 3 0 0 1-3 3H4a3 3 0 0 1-3-3V5Zm9 5a1 1 0 1 0 0 2h4a1 1 0 1 0 0-2h-4ZM4.75 7a1.25 1.25 0 1 0 2.5 0 1.25 1.25 0 0 0-2.5 0Zm12 0a1.25 1.25 0 1 0 2.5 0 1.25 1.25 0 0 0-2.5 0ZM14 8.25a1.25 1.25 0 1 1 0-2.5 1.25 1.25 0 0 1 0 2.5ZM8.75 7a1.25 1.25 0 1 0 2.5 0 1.25 1.25 0 0 0-2.5 0ZM6 12.25a1.25 1.25 0 1 1 0-2.5 1.25 1.25 0 0 1 0 2.5ZM16.75 11a1.25 1.25 0 1 0 2.5 0 1.25 1.25 0 0 0-2.5 0Z"
    clip-rule="evenodd" />
  <path fill="currentColor"
    d="m12 19.586-1.293-1.293a1 1 0 0 0-1.414 1.414l2 2a1 1 0 0 0 1.414 0l2-2a1 1 0 0 0-1.414-1.414L12 19.586Z" />
</svg>