<svg xmlns="http://www.w3.org/2000/svg" width="24" height="24" fill="none" viewBox="0 0 24 24">
  <path fill="currentColor" fill-rule="evenodd"
    d="M19.524 4.148a1 1 0 0 1 .328 1.376L17.712 9H19a1 1 0 0 1 1 1v9a3 3 0 0 1-3 3H7a3 3 0 0 1-3-3v-9a1 1 0 0 1 1-1h10.364l2.784-4.524a1 1 0 0 1 1.376-.328ZM10 13a1 1 0 1 0 0 2h4a1 1 0 1 0 0-2h-4Z"
    clip-rule="evenodd" />
  <path fill="currentColor"
    d="M11.85 3.075a.5.5 0 0 0 .224-.224l.478-.957a.5.5 0 0 1 .894 0l.479.957a.5.5 0 0 0 .223.224l.957.478a.5.5 0 0 1 0 .894l-.957.478a.5.5 0 0 0-.223.224l-.479.957a.5.5 0 0 1-.894 0l-.478-.957a.5.5 0 0 0-.224-.224l-.956-.478a.5.5 0 0 1 0-.894l.956-.478ZM6.517 4.741a.5.5 0 0 0 .223-.223l.312-.624a.5.5 0 0 1 .894 0l.312.624a.5.5 0 0 0 .224.223l.623.312a.5.5 0 0 1 0 .894l-.623.312a.5.5 0 0 0-.224.223l-.312.624a.5.5 0 0 1-.894 0l-.312-.624a.5.5 0 0 0-.223-.223l-.623-.312a.5.5 0 0 1 0-.894l.623-.312Z" />
</svg>