<svg xmlns="http://www.w3.org/2000/svg" width="24" height="24" fill="none" viewBox="0 0 24 24">
  <path fill="currentColor" fill-rule="evenodd"
    d="M6.002 3h12a3 3 0 0 1 3 3v10.036a3 3 0 0 1-3 3h-2.626l-2.74 2.27a1 1 0 0 1-1.28-.004l-2.704-2.266h-2.65a3 3 0 0 1-3-3V6a3 3 0 0 1 3-3Zm8.705 6.707a1 1 0 0 0-1.414-1.414L12 9.586l-1.293-1.293a1 1 0 0 0-1.414 1.414L10.586 11l-1.293 1.293a1 1 0 1 0 1.414 1.414L12 12.414l1.293 1.293a1 1 0 0 0 1.414-1.414L13.414 11l1.293-1.293Z"
    clip-rule="evenodd" />
</svg>