<svg xmlns="http://www.w3.org/2000/svg" width="24" height="24" fill="none" viewBox="0 0 24 24">
  <path fill="currentColor" fill-rule="evenodd"
    d="M12 5a7 7 0 0 0-4 12.745V15a1 1 0 1 1 2 0v5a1 1 0 0 1-1 1H4a1 1 0 1 1 0-2h2.343a9 9 0 0 1 9.032-15.345 1 1 0 1 1-.75 1.853A6.978 6.978 0 0 0 12 5Z"
    clip-rule="evenodd" />
  <path fill="currentColor"
    d="M13 21a1 1 0 1 0 0-2 1 1 0 0 0 0 2Zm8-10a1 1 0 1 0-2 0 1 1 0 0 0 2 0Zm-1.07 3.268a1 1 0 1 1-1 1.732 1 1 0 0 1 1-1.732Zm-2.562 5.026a1 1 0 1 0-1-1.732 1 1 0 0 0 1 1.732ZM18.927 8a1 1 0 1 1-1-1.732 1 1 0 0 1 1 1.732Z" />
</svg>