<svg xmlns="http://www.w3.org/2000/svg" width="24" height="24" fill="none" viewBox="0 0 24 24">
  <path fill="currentColor"
    d="M10 13.5a.5.5 0 0 1 .5-.5h3a.5.5 0 0 1 .5.5v2a.5.5 0 0 1-.5.5h-3a.5.5 0 0 1-.5-.5v-2Z" />
  <path fill="currentColor" fill-rule="evenodd"
    d="M4 5a3 3 0 0 1 3-3h5.343a5 5 0 0 1 3.536 1.464l2.656 2.657A5 5 0 0 1 20 9.657V19a3 3 0 0 1-3 3H7a3 3 0 0 1-3-3V5Zm6.5 6A2.5 2.5 0 0 0 8 13.5v2a2.5 2.5 0 0 0 2.5 2.5h3a2.5 2.5 0 0 0 2.5-2.5v-2a2.5 2.5 0 0 0-2.5-2.5h-3Z"
    clip-rule="evenodd" />
</svg>