<svg xmlns="http://www.w3.org/2000/svg" width="24" height="24" fill="none" viewBox="0 0 24 24">
  <g clip-path="url(#a)">
    <path fill="currentColor"
      d="M3.625 17.47c2.3 3.522 6.68 5.337 10.963 4.189 4.284-1.148 7.169-4.91 7.4-9.11-.35.192-.716.375-1.086.55-2.036.963-4.814 1.946-7.867 2.764-3.053.819-5.951 1.355-8.196 1.54-.408.033-.815.057-1.214.067ZM9.411 2.34c4.311-1.155 8.717.69 11.004 4.254.532.007 1.015.05 1.42.141.273.062.566.158.825.32.264.165.557.443.672.873.14.52-.054.97-.242 1.256-.192.29-.46.545-.738.764-.563.443-1.363.898-2.305 1.343-1.898.897-4.556 1.844-7.53 2.64-2.973.797-5.749 1.307-7.841 1.479-1.038.085-1.959.092-2.668-.011-.35-.051-.71-.137-1.02-.293-.306-.153-.699-.446-.838-.966a1.49 1.49 0 0 1 .145-1.093 2.66 2.66 0 0 1 .555-.69c.305-.28.702-.559 1.158-.83.2-4.23 3.093-8.032 7.403-9.187Z" />
  </g>
  <defs>
    <clipPath id="a">
      <path fill="#fff" d="M0 0h24v24H0z" />
    </clipPath>
  </defs>
</svg>