<svg xmlns="http://www.w3.org/2000/svg" viewBox="0 0 20 20" fill="currentColor">
  <path d="M9.25 17.25C9.25 17.6642 9.58579 18 10 18C10.4142 18 10.75 17.6642 10.75 17.25V8.63642L13.7047 11.765C13.9892 12.0661 14.4638 12.0797 14.765 11.7953C15.0661 11.5109 15.0797 11.0362 14.7953 10.735L10.5453 6.23503C10.4036 6.08501 10.2063 6 10 6C9.79366 6 9.59643 6.08501 9.45474 6.23503L5.20474 10.735C4.92033 11.0362 4.9339 11.5109 5.23503 11.7953C5.53617 12.0797 6.01085 12.0661 6.29526 11.765L9.25 8.63642L9.25 17.25Z" />
  <path d="M2 2.75C2 2.33579 2.33579 2 2.75 2H17.25C17.6642 2 18 2.33579 18 2.75C18 3.16421 17.6642 3.5 17.25 3.5H2.75C2.33579 3.5 2 3.16421 2 2.75Z" />
</svg>