<svg xmlns="http://www.w3.org/2000/svg" viewBox="0 0 20 20" fill="currentColor">
  <path fill-rule="evenodd" clip-rule="evenodd" d="M3 3C3 2.44772 3.44772 2 4 2H16C16.5523 2 17 2.44772 17 3C17 3.55228 16.5523 4 16 4H4C3.44772 4 3 3.55228 3 3ZM6.29289 10.7071C5.90237 10.3166 5.90237 9.68342 6.29289 9.29289L9.29289 6.29289C9.48043 6.10536 9.73478 6 10 6C10.2652 6 10.5196 6.10536 10.7071 6.29289L13.7071 9.29289C14.0976 9.68342 14.0976 10.3166 13.7071 10.7071C13.3166 11.0976 12.6834 11.0976 12.2929 10.7071L11 9.41421L11 17C11 17.5523 10.5523 18 10 18C9.44771 18 9 17.5523 9 17L9 9.41421L7.70711 10.7071C7.31658 11.0976 6.68342 11.0976 6.29289 10.7071Z" />
</svg>