<svg xmlns="http://www.w3.org/2000/svg" viewBox="0 0 16 16" fill="currentColor">
  <path d="M13.6673 7.33464H12.6673V4.66797C12.6673 3.93464 12.0673 3.33464 11.334 3.33464H8.66732V2.33464C8.66732 1.41464 7.92065 0.667969 7.00065 0.667969C6.08065 0.667969 5.33398 1.41464 5.33398 2.33464V3.33464H2.66732C1.93398 3.33464 1.34065 3.93464 1.34065 4.66797V7.2013H2.33398C3.32732 7.2013 4.13398 8.00797 4.13398 9.0013C4.13398 9.99464 3.32732 10.8013 2.33398 10.8013H1.33398V13.3346C1.33398 14.068 1.93398 14.668 2.66732 14.668H5.20065V13.668C5.20065 12.6746 6.00732 11.868 7.00065 11.868C7.99398 11.868 8.80065 12.6746 8.80065 13.668V14.668H11.334C12.0673 14.668 12.6673 14.068 12.6673 13.3346V10.668H13.6673C14.5873 10.668 15.334 9.9213 15.334 9.0013C15.334 8.0813 14.5873 7.33464 13.6673 7.33464Z" />
</svg>
