<svg xmlns="http://www.w3.org/2000/svg" viewBox="0 0 24 24" fill="currentColor">
  <path d="M10.6947 9.8483C10.8237 9.7623 10.983 9.68543 11.1669 9.62594L11.1669 11.0409C10.983 10.9814 10.8237 10.9046 10.6947 10.8186C10.3912 10.6163 10.3335 10.4284 10.3335 10.3334C10.3335 10.2385 10.3912 10.0506 10.6947 9.8483Z" />
  <path d="M12.8335 14.3743L12.8335 12.9593C13.0174 13.0188 13.1767 13.0956 13.3057 13.1816C13.6091 13.3839 13.6669 13.5719 13.6669 13.6668C13.6669 13.7617 13.6091 13.9496 13.3057 14.1519C13.1767 14.2379 13.0174 14.3148 12.8335 14.3743Z" />
  <path fill-rule="evenodd" clip-rule="evenodd" d="M22.0002 7.33011C22.0002 3.92011 20.0602 2.00011 16.6602 2.00011H7.3302C3.9202 2.00011 2.0002 3.92011 2.0002 7.33011V16.6701C2.0002 20.0601 3.9202 22.0001 7.3302 22.0001H16.6702C20.0702 22.0001 22.0002 20.0601 22.0002 16.6701V7.33011ZM12.8335 7.83344C12.8335 7.3732 12.4604 7.0001 12.0002 7.0001C11.5399 7.0001 11.1669 7.3732 11.1669 7.83344V7.9101C10.6489 8.00737 10.1697 8.19516 9.77017 8.46155C9.16877 8.86248 8.66685 9.50788 8.66685 10.3334C8.66685 11.159 9.16877 11.8044 9.77017 12.2053C10.1698 12.4717 10.6489 12.6595 11.1669 12.7568L11.1669 14.3745C10.841 14.2687 10.5995 14.11 10.4641 13.954C10.1624 13.6063 9.63613 13.5691 9.28851 13.8707C8.94089 14.1723 8.90361 14.6986 9.20524 15.0462C9.67398 15.5865 10.3831 15.9425 11.1669 16.0898L11.1669 16.1668C11.1668 16.627 11.5399 17.0001 12.0002 17.0001C12.4604 17.0001 12.8335 16.627 12.8335 16.1668L12.8335 16.0901C13.3515 15.9928 13.8306 15.805 14.2302 15.5387C14.8316 15.1377 15.3335 14.4923 15.3335 13.6668C15.3335 12.8412 14.8316 12.1958 14.2302 11.7949C13.8306 11.5285 13.3515 11.3407 12.8335 11.2434L12.8335 9.62573C13.1594 9.73152 13.4009 9.89018 13.5363 10.0462C13.8379 10.3939 14.3643 10.4311 14.7119 10.1295C15.0595 9.82789 15.0968 9.30157 14.7951 8.95395C14.3264 8.41374 13.6172 8.05773 12.8335 7.9104V7.83344Z" />
</svg>