<svg width="24" height="24" viewBox="0 0 24 24" fill="currentColor" xmlns="http://www.w3.org/2000/svg">
<path d="M22.9944 9H1.00559C1.02389 7.6499 1.10205 6.8394 1.43597 6.18404C1.81947 5.43139 2.43139 4.81947 3.18404 4.43597C4.03969 4 5.15979 4 7.4 4H16.6C18.8402 4 19.9603 4 20.816 4.43597C21.5686 4.81947 22.1805 5.43139 22.564 6.18404C22.8979 6.8394 22.9761 7.6499 22.9944 9Z"/>
<path fill-rule="evenodd" clip-rule="evenodd" d="M1 10.561H23V13.6C23 15.8402 23 16.9603 22.564 17.816C22.1805 18.5686 21.5686 19.1805 20.816 19.564C19.9603 20 18.8402 20 16.6 20H7.4C5.15979 20 4.03969 20 3.18404 19.564C2.43139 19.1805 1.81947 18.5686 1.43597 17.816C1 16.9603 1 15.8402 1 13.6V10.561ZM4.78 16.561H8.22C8.65 16.561 9 16.211 9 15.781C9 15.351 8.65 15 8.22 15H4.78C4.349 15 4 15.351 4 15.781C4 16.211 4.349 16.561 4.78 16.561Z"/>
</svg>
