<svg width="20" height="20" viewBox="0 0 20 20" fill="currentColor" xmlns="http://www.w3.org/2000/svg">
<path fill-rule="evenodd" clip-rule="evenodd" d="M5.0237 8.43791C5.04531 8.6364 5.08144 8.83053 5.13102 9.01922C3.37146 9.20358 2 10.6916 2 12.5C2 14.433 3.567 16 5.5 16H12.5858L8.38164 11.7958C8.31947 11.7469 8.26325 11.6906 8.21426 11.6285L5.0237 8.43791ZM15.1155 15.7013C16.8027 15.0521 18 13.4159 18 11.5C18 9.01472 15.9853 7 13.5 7C13.2912 7 13.0857 7.01422 12.8845 7.04175C12.4551 5.29538 10.8788 4 9 4C7.48774 4 6.17148 4.83921 5.49154 6.07732L9.69792 10.2837C9.70416 10.2898 9.71032 10.2959 9.7164 10.3022C12.6721 13.2579 14.2612 14.847 15.0072 15.593C15.0455 15.6313 15.0816 15.6674 15.1155 15.7013Z"/>
<path d="M3.70711 2.29289C3.31658 1.90237 2.68342 1.90237 2.29289 2.29289C1.90237 2.68342 1.90237 3.31658 2.29289 3.70711L9.21426 10.6285C9.26325 10.6906 9.31947 10.7469 9.38164 10.7958L16.2929 17.7071C16.6834 18.0976 17.3166 18.0976 17.7071 17.7071C18.0976 17.3166 18.0976 16.6834 17.7071 16.2929C6.41401 4.99981 25.3781 23.9639 10.7164 9.30219C10.7103 9.29595 10.7042 9.28979 10.6979 9.2837L3.70711 2.29289Z"/>
</svg>
