<svg viewBox="0 0 20 20" fill="currentColor" xmlns="http://www.w3.org/2000/svg">
  <path d="M3.21256 7.17078C3.21253 7.36971 3.29154 7.56051 3.43219 7.70119C3.57285 7.84187 3.76363 7.9209 3.96256 7.9209H8.2052C8.61942 7.9209 8.95521 7.58512 8.95521 7.1709C8.95521 6.75669 8.61942 6.4209 8.2052 6.4209L5.77322 6.4209L6.08434 6.10979C6.74407 5.44881 7.58114 4.94714 8.5502 4.68748C9.01994 4.56161 9.49178 4.50053 9.95623 4.49875C9.97071 4.49958 9.9853 4.5 9.99998 4.5C10.087 4.5 10.1735 4.50202 10.2596 4.50602C12.5761 4.62608 14.6535 6.2149 15.2863 8.57657C15.3031 8.63914 15.3273 8.69773 15.3577 8.75165C15.4508 9.15272 15.5 9.57062 15.5 10C15.5 13.0376 13.0375 15.5 9.99998 15.5C7.11088 15.5 4.74144 13.2719 4.51735 10.4408C4.48467 10.0279 4.12343 9.71965 3.71051 9.75234C3.29759 9.78502 2.98935 10.1463 3.02203 10.5592C3.30738 14.1641 6.32213 17 9.99998 17C13.866 17 17 13.866 17 10C17 6.27411 14.089 3.22812 10.4173 3.01223C9.67752 2.96536 8.91761 3.03612 8.16197 3.23859C6.9316 3.56827 5.86367 4.20771 5.02268 5.05013L4.71286 5.35995L4.71326 2.92908C4.71333 2.51487 4.37759 2.17902 3.96338 2.17896C3.54917 2.17889 3.21333 2.51462 3.21326 2.92883L3.21256 7.17078Z" />
</svg>