<svg viewBox="0 0 20 20" fill="currentColor" xmlns="http://www.w3.org/2000/svg">
  <path fill-rule="evenodd" clip-rule="evenodd" d="M9.98821 16C8.52043 16.0043 7.102 15.4759 5.99836 14.5144C4.89483 13.5531 4.18176 12.2251 3.99144 10.7793C3.91936 10.2317 3.41704 9.84624 2.86948 9.91832C2.32192 9.9904 1.93647 10.4927 2.00854 11.0403C2.26266 12.9707 3.21449 14.7418 4.68466 16.0225C6.15474 17.3031 8.04239 18.0058 9.99417 18C11.9459 17.9942 13.8294 17.2803 15.2917 15.9909C16.7542 14.7014 17.6954 12.9247 17.9379 10.9928C18.1804 9.06088 17.7074 7.10755 16.6082 5.49861C15.5091 3.88978 13.8595 2.73593 11.969 2.25183C10.0785 1.76775 8.07564 1.98625 6.33493 2.86678C5.44592 3.31648 4.65626 3.92321 3.99999 4.65014V3.03477C3.99999 2.48249 3.55228 2.03477 2.99999 2.03477C2.44771 2.03477 1.99999 2.48249 1.99999 3.03477V7C1.99999 7.55229 2.44771 8 2.99999 8H7.39362C7.9459 8 8.39362 7.55229 8.39362 7C8.39362 6.44771 7.9459 6 7.39362 6H5.47583C5.96996 5.45028 6.56582 4.9913 7.23769 4.65144C8.54573 3.98978 10.0515 3.82536 11.4729 4.18932C12.8942 4.55326 14.1325 5.42027 14.9568 6.62682C15.781 7.83325 16.1351 9.29682 15.9535 10.7437C15.7718 12.1906 15.0668 13.5229 13.969 14.4907C12.8712 15.4587 11.456 15.9956 9.98821 16Z" />
</svg>