<svg xmlns="http://www.w3.org/2000/svg" width="24" height="24" fill="none" viewBox="0 0 24 24">
  <path stroke="currentColor" stroke-linecap="round" stroke-linejoin="round" stroke-width="2"
    d="M18.5 17c.465 0 .697 0 .89-.038a2 2 0 0 0 1.572-1.572c.038-.193.038-.425.038-.89V7.2c0-1.12 0-1.68-.218-2.108a2 2 0 0 0-.874-.874C19.48 4 18.92 4 17.8 4H6.2c-1.12 0-1.68 0-2.108.218a2 2 0 0 0-.874.874C3 5.52 3 6.08 3 7.2v7.3c0 .465 0 .697.038.89a2 2 0 0 0 1.572 1.572c.193.038.425.038.89.038" />
  <path stroke="currentColor" stroke-linecap="round" stroke-linejoin="round" stroke-width="2"
    d="m8 20 4-5 4 5H8Z" />
</svg>