<svg xmlns="http://www.w3.org/2000/svg" width="24" height="24" fill="none" viewBox="0 0 24 24">
  <path stroke="currentColor" stroke-width="2"
    d="M6 5.292A8.978 8.978 0 0 1 9 12a8.977 8.977 0 0 1-3 6.708M6 5.292A8.978 8.978 0 0 0 3 12a8.977 8.977 0 0 0 3 6.708M6 5.292A8.967 8.967 0 0 1 12 3c2.305 0 4.408.867 6 2.292M6 18.708A8.967 8.967 0 0 0 12 21a8.967 8.967 0 0 0 6-2.292m0 0A8.978 8.978 0 0 1 15 12a8.978 8.978 0 0 1 3-6.708m0 13.416A8.978 8.978 0 0 0 21 12a8.978 8.978 0 0 0-3-6.708" />
</svg>