<svg xmlns="http://www.w3.org/2000/svg" width="24" height="24" fill="none" viewBox="0 0 24 24">
  <path stroke="currentColor" stroke-linecap="square" stroke-linejoin="round" stroke-width="2"
    d="M21.5 12c0-5-3.694-8-9.5-8s-9.5 3-9.5 8c0 1.294.894 3.49 1.037 3.83l.037.092c.098.266.49 1.66-1.074 3.722 2.111 1 4.353-.644 4.353-.644 1.551.815 3.397 1 5.147 1 5.806 0 9.5-3 9.5-8Z" />
  <path fill="currentColor" stroke="currentColor" stroke-linecap="square" stroke-width=".75"
    d="M6.625 12a.875.875 0 1 0 1.75 0 .875.875 0 0 0-1.75 0Zm4.5 0a.875.875 0 1 0 1.75 0 .875.875 0 0 0-1.75 0Zm4.5 0a.875.875 0 1 0 1.75 0 .875.875 0 0 0-1.75 0Z" />
</svg>