<svg xmlns="http://www.w3.org/2000/svg" width="24" height="24" fill="none" viewBox="0 0 24 24">
  <path stroke="currentColor" stroke-linecap="square" stroke-linejoin="round" stroke-width="2"
    d="M5.665 13.777c-.92 0-1.665.746-1.665 1.665v2.893a1.665 1.665 0 0 0 3.33 0v-2.893c0-.92-.745-1.665-1.665-1.665Zm6.33-4.443c-.92 0-1.665.745-1.665 1.665v7.337a1.665 1.665 0 1 0 3.33 0v-7.337c0-.92-.745-1.665-1.665-1.665ZM18.335 4c-.92 0-1.665.745-1.665 1.665v12.67a1.665 1.665 0 1 0 3.33 0V5.665C20 4.745 19.255 4 18.335 4Z" />
</svg>