<svg xmlns="http://www.w3.org/2000/svg" width="24" height="24" fill="none" viewBox="0 0 24 24">
  <path stroke="currentColor" stroke-linecap="square" stroke-linejoin="round" stroke-width="2"
    d="M5.002 4h14a2 2 0 0 1 2 2v10a2 2 0 0 1-2 2h-7l-5 3v-3h-2a2 2 0 0 1-2-2V6a2 2 0 0 1 2-2Z" />
  <path fill="currentColor" stroke="currentColor" stroke-linecap="square" stroke-width=".75"
    d="M6.625 11a.875.875 0 1 0 1.75 0 .875.875 0 0 0-1.75 0Zm4.5 0a.875.875 0 1 0 1.75 0 .875.875 0 0 0-1.75 0Zm4.5 0a.875.875 0 1 0 1.75 0 .875.875 0 0 0-1.75 0Z" />
</svg>