<svg xmlns="http://www.w3.org/2000/svg" width="24" height="24" fill="none" viewBox="0 0 24 24">
  <path stroke="currentColor" stroke-linecap="round" stroke-linejoin="round" stroke-width="2"
    d="M21 12a9 9 0 1 1-18 0 9 9 0 0 1 18 0Z" />
  <path stroke="currentColor" stroke-linecap="round" stroke-linejoin="round" stroke-width="2"
    d="M11.25 7.814a1.5 1.5 0 0 1 1.5 0l2.5 1.444a1.5 1.5 0 0 1 .75 1.299v2.886a1.5 1.5 0 0 1-.75 1.3l-2.5 1.443a1.5 1.5 0 0 1-1.5 0l-2.5-1.444A1.5 1.5 0 0 1 8 13.443v-2.886a1.5 1.5 0 0 1 .75-1.3l2.5-1.443Z" />
</svg>