<svg xmlns="http://www.w3.org/2000/svg" width="24" height="24" fill="none" viewBox="0 0 24 24">
  <path stroke="currentColor" stroke-linecap="round" stroke-linejoin="round" stroke-width="2"
    d="M12 6a1 1 0 1 0 0-2 1 1 0 0 0 0 2Zm0 7a1 1 0 1 0 0-2 1 1 0 0 0 0 2Zm0 7a1 1 0 1 0 0-2 1 1 0 0 0 0 2Zm7-14a1 1 0 1 0 0-2 1 1 0 0 0 0 2Zm0 7a1 1 0 1 0 0-2 1 1 0 0 0 0 2Zm0 7a1 1 0 1 0 0-2 1 1 0 0 0 0 2ZM5 13a1 1 0 1 0 0-2 1 1 0 0 0 0 2Zm0 7a1 1 0 1 0 0-2 1 1 0 0 0 0 2ZM5 6a1 1 0 1 0 0-2 1 1 0 0 0 0 2Z" />
</svg>