<svg xmlns="http://www.w3.org/2000/svg" width="24" height="24" fill="none" viewBox="0 0 24 24">
  <path stroke="currentColor" stroke-linecap="round" stroke-linejoin="round" stroke-width="2"
    d="M8 10v2m0 0v2m0-2h2m-2 0H6m0-6h12a4 4 0 0 1 4 4v4a4 4 0 0 1-4 4H6a4 4 0 0 1-4-4v-4a4 4 0 0 1 4-4Z" />
  <path fill="currentColor" stroke="currentColor" stroke-linecap="square" stroke-width=".75"
    d="M13.875 13.5a.875.875 0 1 0 1.75 0 .875.875 0 0 0-1.75 0Zm3-3a.875.875 0 1 0 1.75 0 .875.875 0 0 0-1.75 0Z" />
</svg>