<svg xmlns="http://www.w3.org/2000/svg" width="24" height="24" fill="none" viewBox="0 0 24 24">
  <path stroke="currentColor" stroke-linecap="square" stroke-linejoin="round" stroke-width="2"
    d="M11 5H5a2 2 0 0 0-2 2v10a2 2 0 0 0 2 2h6m0-14h8a2 2 0 0 1 2 2v10a2 2 0 0 1-2 2h-8m0-14v14" />
  <path fill="currentColor" stroke="currentColor" stroke-width=".75"
    d="M6.125 8.75a.875.875 0 1 0 1.75 0 .875.875 0 0 0-1.75 0Zm0 3.25a.875.875 0 1 0 1.75 0 .875.875 0 0 0-1.75 0Zm0 3.25a.875.875 0 1 0 1.75 0 .875.875 0 0 0-1.75 0Z" />
</svg>