<svg xmlns="http://www.w3.org/2000/svg" width="24" height="24" fill="none" viewBox="0 0 24 24">
  <path stroke="currentColor" stroke-linecap="round" stroke-linejoin="round" stroke-width="2"
    d="M9 13.5a1.5 1.5 0 0 1 1.5-1.5h3a1.5 1.5 0 0 1 1.5 1.5v2a1.5 1.5 0 0 1-1.5 1.5h-3A1.5 1.5 0 0 1 9 15.5v-2Z" />
  <path stroke="currentColor" stroke-linecap="round" stroke-linejoin="round" stroke-width="2"
    d="M5 5a2 2 0 0 1 2-2h5.343a4 4 0 0 1 2.829 1.172l2.656 2.656A4 4 0 0 1 19 9.657V19a2 2 0 0 1-2 2H7a2 2 0 0 1-2-2V5Z" />
</svg>