<svg xmlns="http://www.w3.org/2000/svg" width="24" height="24" fill="none" viewBox="0 0 24 24">
  <path stroke="currentColor" stroke-linecap="round" stroke-linejoin="round" stroke-width="2"
    d="M11.529 2.295a.524.524 0 0 1 .942 0l2.475 5.151a.522.522 0 0 0 .403.291l5.697.746c.435.057.61.59.29.89l-4.167 3.93a.516.516 0 0 0-.154.47l1.047 5.613a.521.521 0 0 1-.763.55l-5.05-2.723a.525.525 0 0 0-.498 0l-5.05 2.723a.521.521 0 0 1-.763-.55l1.047-5.612a.516.516 0 0 0-.154-.471l-4.168-3.93a.518.518 0 0 1 .291-.89l5.697-.746a.522.522 0 0 0 .403-.29l2.475-5.152Z" />
</svg>