<svg xmlns="http://www.w3.org/2000/svg" width="24" height="24" fill="none" viewBox="0 0 24 24">
  <path stroke="currentColor" stroke-linecap="round" stroke-linejoin="round" stroke-width="2"
    d="M21 12.25V7a2 2 0 0 0-2-2H5a2 2 0 0 0-2 2v11a2 2 0 0 0 2 2h7" />
  <path fill="currentColor" stroke="currentColor" stroke-linecap="square" stroke-width=".75"
    d="M5.875 8.75a.875.875 0 1 0 1.75 0 .875.875 0 0 0-1.75 0Zm3.5 0a.875.875 0 1 0 1.75 0 .875.875 0 0 0-1.75 0Zm3.5 0a.875.875 0 1 0 1.75 0 .875.875 0 0 0-1.75 0Z" />
  <path stroke="currentColor" stroke-linecap="square" stroke-linejoin="round" stroke-width="2"
    d="m14.5 14.5 6.5 2-3 1.5-1.5 3-2-6.5Z" />
</svg>