<svg width="320" height="320" viewBox="0 0 320 320" fill="none" xmlns="http://www.w3.org/2000/svg">
<path d="M80.512 219.974C34.212 178.654 31.006 129.249 74.403 83.78C111.533 44.88 167.298 40.868 207.579 75.134L209.199 76.541L212.286 79.234L213.666 80.454C214.335 81.052 214.968 81.631 215.569 82.195L215.89 82.502L216.288 82.178C218.503 80.4453 221.18 79.4058 223.984 79.19L224.513 79.16C227.873 79.031 231.3 80.056 234.518 81.963C243.067 87.068 247.608 97.881 244.456 106.883C244.001 108.183 243.405 109.379 242.673 110.423L242.508 110.647L242.636 110.774C244.336 112.488 246.158 114.508 248.219 116.911L250.94 120.124C254.408 124.568 257.531 128.866 260.32 133.022C273.452 152.587 279.011 168.666 278.482 181.969C278.109 191.316 275.182 197.842 269.901 204.591L268.363 206.499C262.305 213.916 255.331 219.194 246.611 221.127C234.906 223.721 221.954 219.535 207.833 207.197L207.047 206.502L210.317 202.839C223.642 214.73 235.299 218.605 245.549 216.333C252.728 214.742 258.695 210.363 263.976 204.097L265.52 202.213C270.55 195.958 273.239 190.226 273.575 181.773C274.059 169.624 268.837 154.523 256.243 135.758C253.521 131.702 250.466 127.498 247.131 123.221L245.811 121.659C243.311 118.697 241.205 116.319 239.295 114.389L238.738 113.833L238.252 114.043C236.522 114.731 234.584 114.853 232.588 114.503C230.178 114.057 227.93 112.976 226.077 111.371C224.224 109.766 222.833 107.695 222.048 105.373L221.841 104.715L221.595 104.619C217.567 103.032 214.966 101.251 213.189 98.403L212.929 97.967C210.944 94.5 210.94 90.07 212.752 86.464L212.811 86.352L212.651 86.197C211.894 85.4758 211.124 84.767 210.344 84.071L205.545 79.865C167.202 46.248 113.673 49.75 77.955 87.171C36.515 130.59 39.512 176.803 83.781 216.311C86.074 218.353 88.5003 220.241 91.044 221.961C107.065 232.821 127.601 237.875 153.134 239.328L154.641 239.409C162.595 239.815 183.736 239.953 184.219 239.97L186.312 240.052C198.433 240.579 202.972 241.798 212.559 246.987L213.369 247.428L211.009 251.735C201.28 246.403 197.595 245.401 185.08 244.915L183.539 244.871C180.232 244.839 161.806 244.691 154.391 244.313C127.343 242.933 105.521 237.706 88.289 226.025C85.5653 224.183 82.9672 222.161 80.512 219.974ZM219.339 86.029L219.719 86.459C222.653 89.854 224.343 92.989 225.28 96.865L225.41 97.427C225.47 97.707 225.528 97.991 225.588 98.315L226.048 101.001L229.486 102.144C229.699 102.219 229.904 102.292 230.127 102.373C233.314 103.525 235.965 104.993 238.685 107.177L238.843 107.307L238.857 107.29C239.157 106.817 239.425 106.286 239.655 105.706L239.821 105.261C242.166 98.563 238.628 90.137 232.005 86.184C229.556 84.731 227.035 83.977 224.699 84.066C222.8 84.1433 220.969 84.7969 219.451 85.94L219.339 86.029ZM228.679 107.072L228.881 107.283C230.006 108.391 231.407 109.176 232.939 109.558L233.459 109.671L233.855 109.731L233.445 109.456C232.03 108.535 230.52 107.768 228.941 107.17L228.679 107.072ZM216.537 90.33L216.462 90.68C216.145 92.355 216.38 94.112 217.189 95.526C217.925 96.808 218.992 97.818 220.58 98.73L220.675 98.783L220.615 98.487L220.507 98.017C219.853 95.312 218.671 92.979 216.64 90.453L216.537 90.33Z" fill="#D8D9DA"/>
<path d="M191.259 199.03L170.241 180.27L180.255 169.05L201.273 187.81L191.259 199.03Z" fill="#BEBDC0"/>
<path d="M209.241 211.595L187.806 192.463L194.358 185.121L215.794 204.253L209.241 211.595Z" fill="#D8D9DA"/>
<path d="M198.923 207.477L179.619 190.247L191.232 177.236L210.537 194.466L198.923 207.477Z" fill="#D8D9DA"/>
<path d="M215.294 257.859L220.914 243.912L247.04 254.442L241.42 268.388L215.294 257.859Z" fill="#BEBDC0"/>
<path d="M196.04 247.608L199.732 238.487L226.365 249.269L222.672 258.39L196.04 247.608Z" fill="#D8D9DA"/>
<path d="M204.29 255.046L210.835 238.88L234.819 248.59L228.274 264.756L204.29 255.046Z" fill="#D8D9DA"/>
</svg>
