<svg width="80" height="80" fill="none" xmlns="http://www.w3.org/2000/svg">
  <path d="M39.101 22a4.985 4.985 0 0 0 0 2H35.4c-1.137 0-1.929 0-2.546.051-.605.05-.953.142-1.216.276a3 3 0 0 0-1.311 1.311c-.134.263-.226.611-.276 1.216-.05.617-.051 1.41-.051 2.546v21.2c0 1.137 0 1.929.051 2.546.05.605.142.953.276 1.216a3 3 0 0 0 1.311 1.311c.263.134.611.226 1.216.276.617.05 1.41.051 2.546.051h9.2c1.137 0 1.929 0 2.546-.051.605-.05.953-.142 1.216-.276a3 3 0 0 0 1.311-1.311c.134-.263.226-.611.276-1.216.05-.617.051-1.41.051-2.546V34.899a4.985 4.985 0 0 0 2 0v15.744c0 1.084 0 1.958-.058 2.666-.06.729-.185 1.369-.487 1.961a5 5 0 0 1-2.185 2.185c-.592.302-1.233.428-1.961.487C46.6 58 45.727 58 44.643 58h-9.286c-1.084 0-1.958 0-2.666-.058-.729-.06-1.369-.185-1.961-.487a5 5 0 0 1-2.185-2.185c-.302-.592-.428-1.233-.487-1.961C28 52.6 28 51.727 28 50.643V29.357c0-1.084 0-1.958.058-2.666.06-.729.185-1.369.487-1.961a5 5 0 0 1 2.185-2.185c.592-.302 1.232-.428 1.961-.487C33.4 22 34.273 22 35.357 22h3.744Z" fill="#A0A0B0" />
  <path d="M40.035 26c.325.403.728.758 1.207 1.042a4.498 4.498 0 0 0-.14.958H36.2c-.577 0-.949 0-1.232.024-.272.022-.373.06-.422.085a1 1 0 0 0-.437.437c-.025.05-.063.15-.085.422C34 29.25 34 29.623 34 30.2v7.6c0 .577 0 .949.024 1.232.022.272.06.373.085.422a1 1 0 0 0 .437.437c.05.025.15.063.422.085.283.023.655.024 1.232.024h7.6c.577 0 .949 0 1.232-.024.272-.022.373-.06.422-.085a1 1 0 0 0 .437-.437c.025-.05.063-.15.085-.422C46 38.75 46 38.377 46 37.8v-4.903c.316-.011.636-.056.958-.14.284.48.639.883 1.042 1.208v3.873c0 .528 0 .983-.03 1.357-.033.395-.104.789-.297 1.167a3 3 0 0 1-1.311 1.311c-.378.193-.772.264-1.167.296-.374.031-.83.031-1.356.031H36.16c-.527 0-.982 0-1.356-.03-.395-.033-.789-.104-1.167-.297a3 3 0 0 1-1.311-1.311c-.193-.378-.264-.772-.296-1.167-.031-.374-.031-.83-.031-1.356v-7.677c0-.528 0-.982.03-1.357.033-.395.104-.789.297-1.167a3 3 0 0 1 1.311-1.311c.378-.193.772-.264 1.167-.296.374-.031.83-.031 1.356-.031h3.874Z" fill="#A0A0B0" />
  <path d="M49.325 15.317c.426-1.756 2.924-1.756 3.35 0a1.724 1.724 0 0 0 2.573 1.066c1.543-.94 3.31.826 2.37 2.37a1.724 1.724 0 0 0 1.065 2.572c1.756.426 1.756 2.924 0 3.35a1.724 1.724 0 0 0-1.066 2.573c.94 1.543-.826 3.31-2.37 2.37a1.724 1.724 0 0 0-2.572 1.065c-.426 1.756-2.924 1.756-3.35 0a1.724 1.724 0 0 0-2.573-1.066c-1.543.94-3.31-.826-2.37-2.37a1.724 1.724 0 0 0-1.065-2.572c-1.756-.426-1.756-2.924 0-3.35a1.724 1.724 0 0 0 1.066-2.573c-.94-1.543.826-3.31 2.37-2.37.996.608 2.296.07 2.572-1.065Z" stroke="#00B812" stroke-width="2" stroke-linecap="round" stroke-linejoin="round" />
  <path d="M54 23a3 3 0 1 1-6 0 3 3 0 0 1 6 0Z" stroke="#00B812" stroke-width="2" stroke-linecap="round" stroke-linejoin="round" />
</svg>