<svg width="300" height="234" viewBox="0 0 300 234" fill="none" xmlns="http://www.w3.org/2000/svg">
<path d="M189.29 177.419H198.597C199.283 177.419 199.841 177.976 199.841 178.663V183.176C199.841 183.862 199.283 184.419 198.597 184.419H189.29V177.419V177.419Z" fill="#BEBDC0"/>
<path d="M255.072 199.325C260.154 199.325 264.274 195.204 264.274 190.122C264.274 185.039 260.154 180.919 255.072 180.919H202.9" stroke="#D8D9DA" stroke-width="4.731" stroke-linecap="round"/>
<path d="M255.072 199.325H249.08C242.074 199.325 236.394 193.644 236.394 186.638V138.033" stroke="#D8D9DA" stroke-width="4.731"/>
<path d="M230.165 112.317H242.622V135.652H230.165V112.317Z" fill="#BEBDC0"/>
<path d="M232.33 129.907H240.459V153.684H232.33V129.907Z" fill="#D8D9DA"/>
<path d="M229.182 123.626H243.606V145.038H229.182V123.626Z" fill="#D8D9DA"/>
<path d="M216.002 41.995C215.557 41.995 215.127 41.8367 214.788 41.55L211.33 38.625C210.982 38.2939 210.774 37.8424 210.749 37.3631C210.723 36.8837 210.882 36.4126 211.192 36.0463C211.502 35.68 211.941 35.4461 212.418 35.3926C212.895 35.3391 213.374 35.4699 213.758 35.7583L217.217 38.6833C217.511 38.9323 217.722 39.2657 217.82 39.6383C217.919 40.011 217.901 40.405 217.768 40.767C217.636 41.129 217.395 41.4415 217.079 41.6624C216.763 41.8832 216.387 42.0016 216.002 42.0017V41.995V41.995Z" fill="#D8D9DA"/>
<path d="M198.706 178.198H202.897V183.643H198.706V178.198Z" fill="#BEBDC0"/>
<path d="M49 87.1667H181C182.933 87.1667 184.5 88.7337 184.5 90.6667V176.167H45.5V90.6667C45.5 88.7337 47.067 87.1667 49 87.1667Z" fill="white" stroke="#BEBDC0"/>
<rect x="48.8333" y="90.5" width="132.333" height="82.3333" rx="0.5" fill="#D8D9DA" stroke="#7A7F80"/>
<rect x="38.8333" y="176.333" width="152.333" height="8.16667" rx="3.5" fill="white" stroke="#BEBDC0"/>
<path fill-rule="evenodd" clip-rule="evenodd" d="M114.215 136.207C115.457 136.207 116.464 136.983 116.464 138.179C116.464 139.374 115.457 140.15 114.214 140.15C112.973 140.15 111.953 139.375 111.953 138.179C111.953 136.983 112.978 136.207 114.215 136.207ZM114.609 122.5C118.059 122.5 120.48 124.217 120.48 127.173C120.48 129.323 119.203 130.369 117.701 131.421C116.683 132.173 116.198 132.611 115.813 133.502C115.391 134.252 115.068 134.829 114.038 134.829C112.946 134.829 112.399 134.139 112.399 133.237C112.399 131.897 113.058 131.032 114.597 129.854C115.69 129.014 116.458 128.452 116.458 127.412C116.458 126.271 115.403 125.607 114.224 125.607C113.778 125.591 113.335 125.686 112.935 125.882C112.534 126.079 112.189 126.372 111.928 126.734C111.505 127.173 111.17 127.412 110.6 127.412C109.656 127.412 109.167 126.747 109.167 125.978C109.167 125.209 109.602 124.412 110.285 123.812C111.208 123.012 112.673 122.5 114.609 122.5V122.5Z" fill="white"/>
<g clip-path="url(#clip0)">
<path fill-rule="evenodd" clip-rule="evenodd" d="M208.675 4.16667H264.658C266.516 4.16667 267.189 4.36005 267.868 4.72319C268.547 5.08633 269.08 5.61923 269.443 6.29824C269.807 6.97725 270 7.65077 270 9.5081V107.159C270 109.016 269.807 109.689 269.443 110.368C269.08 111.047 268.547 111.58 267.868 111.943C267.189 112.307 266.516 112.5 264.658 112.5H208.675C206.817 112.5 206.144 112.307 205.465 111.943C204.786 111.58 204.253 111.047 203.89 110.368C203.527 109.689 203.333 109.016 203.333 107.159V9.5081C203.333 7.65077 203.527 6.97725 203.89 6.29824C204.253 5.61923 204.786 5.08633 205.465 4.72319C206.144 4.36005 206.817 4.16667 208.675 4.16667Z" fill="#525254"/>
<path d="M215.415 62.4938C218.407 62.4938 220.832 60.0687 220.832 57.0772C220.832 54.0857 218.407 51.6606 215.415 51.6606C212.423 51.6606 209.998 54.0857 209.998 57.0772C209.998 60.0687 212.423 62.4938 215.415 62.4938Z" fill="#39393B"/>
<path d="M229.583 62.4938C232.575 62.4938 235 60.0687 235 57.0772C235 54.0857 232.575 51.6606 229.583 51.6606C226.592 51.6606 224.167 54.0857 224.167 57.0772C224.167 60.0687 226.592 62.4938 229.583 62.4938Z" fill="#39393B"/>
<path d="M243.751 62.4938C246.743 62.4938 249.168 60.0687 249.168 57.0772C249.168 54.0857 246.743 51.6606 243.751 51.6606C240.76 51.6606 238.335 54.0857 238.335 57.0772C238.335 60.0687 240.76 62.4938 243.751 62.4938Z" fill="#39393B"/>
<path d="M257.916 62.4938C260.907 62.4938 263.332 60.0687 263.332 57.0772C263.332 54.0857 260.907 51.6606 257.916 51.6606C254.924 51.6606 252.499 54.0857 252.499 57.0772C252.499 60.0687 254.924 62.4938 257.916 62.4938Z" fill="#39393B"/>
<path fill-rule="evenodd" clip-rule="evenodd" d="M261.792 11.6699C262.068 11.6706 262.188 11.6781 262.3 11.7383C262.356 11.7684 262.401 11.8126 262.431 11.869C262.495 11.9895 262.499 12.1177 262.499 12.4389V45.0674C262.499 45.3886 262.495 45.5168 262.431 45.6374C262.401 45.6937 262.356 45.7379 262.3 45.768C262.179 45.8325 262.051 45.8365 261.73 45.8365H211.602C211.28 45.8365 211.152 45.8325 211.032 45.768C210.975 45.7379 210.931 45.6937 210.901 45.6374C210.837 45.5168 210.833 45.3886 210.833 45.0674L210.833 12.3772C210.833 12.1007 210.841 11.9815 210.901 11.869C210.931 11.8126 210.975 11.7684 211.032 11.7383C211.152 11.6738 211.28 11.6698 211.602 11.6698L261.792 11.6699Z" fill="#202021" stroke="black" stroke-width="1.5"/>
</g>
<defs>
<clipPath id="clip0">
<rect width="66.6667" height="108.333" fill="white" transform="translate(203.333 4.16667)"/>
</clipPath>
</defs>
</svg>
