<svg width="100" height="122" viewBox="0 0 100 122" fill="none" xmlns="http://www.w3.org/2000/svg">
<g clip-path="url(#clip0)">
<path fill-rule="evenodd" clip-rule="evenodd" d="M21.6744 4.16699H77.6582C79.5156 4.16699 80.1891 4.36038 80.8681 4.72352C81.5471 5.08666 82.08 5.61955 82.4432 6.29856C82.8063 6.97758 82.9997 7.65109 82.9997 9.50842V107.159C82.9997 109.016 82.8063 109.69 82.4432 110.369C82.08 111.048 81.5471 111.581 80.8681 111.944C80.1891 112.307 79.5156 112.5 77.6582 112.5H21.6744C19.8171 112.5 19.1436 112.307 18.4646 111.944C17.7856 111.581 17.2527 111.048 16.8895 110.369C16.5264 109.69 16.333 109.016 16.333 107.159V9.50842C16.333 7.65109 16.5264 6.97758 16.8895 6.29856C17.2527 5.61955 17.7856 5.08666 18.4646 4.72352C19.1436 4.36038 19.8171 4.16699 21.6744 4.16699Z" fill="#525254"/>
<path d="M28.4147 62.4942C31.4063 62.4942 33.8314 60.0691 33.8314 57.0775C33.8314 54.086 31.4063 51.6609 28.4147 51.6609C25.4232 51.6609 22.998 54.086 22.998 57.0775C22.998 60.0691 25.4232 62.4942 28.4147 62.4942Z" fill="#39393B"/>
<path d="M42.5832 62.4942C45.5747 62.4942 47.9998 60.0691 47.9998 57.0775C47.9998 54.086 45.5747 51.6609 42.5832 51.6609C39.5916 51.6609 37.1665 54.086 37.1665 57.0775C37.1665 60.0691 39.5916 62.4942 42.5832 62.4942Z" fill="#39393B"/>
<path d="M56.7511 62.4942C59.7427 62.4942 62.1678 60.0691 62.1678 57.0775C62.1678 54.086 59.7427 51.6609 56.7511 51.6609C53.7596 51.6609 51.3345 54.086 51.3345 57.0775C51.3345 60.0691 53.7596 62.4942 56.7511 62.4942Z" fill="#39393B"/>
<path d="M70.9157 62.4942C73.9072 62.4942 76.3324 60.0691 76.3324 57.0775C76.3324 54.086 73.9072 51.6609 70.9157 51.6609C67.9241 51.6609 65.499 54.086 65.499 57.0775C65.499 60.0691 67.9241 62.4942 70.9157 62.4942Z" fill="#39393B"/>
<path fill-rule="evenodd" clip-rule="evenodd" d="M74.7913 11.6702C75.0679 11.6709 75.187 11.6784 75.2996 11.7386C75.3559 11.7687 75.4001 11.8129 75.4302 11.8693C75.4947 11.9898 75.4987 12.118 75.4987 12.4392V45.0677C75.4987 45.3889 75.4947 45.5171 75.4302 45.6377C75.4001 45.694 75.3559 45.7382 75.2996 45.7683C75.179 45.8328 75.0508 45.8368 74.7296 45.8368H24.6011C24.2799 45.8368 24.1517 45.8328 24.0312 45.7683C23.9748 45.7382 23.9306 45.694 23.9005 45.6377C23.836 45.5171 23.832 45.3889 23.832 45.0677L23.8321 12.3775C23.8328 12.101 23.8403 11.9818 23.9005 11.8693C23.9306 11.8129 23.9748 11.7687 24.0312 11.7386C24.1517 11.6741 24.2799 11.6701 24.6011 11.6701L74.7913 11.6702Z" fill="#202021" stroke="black" stroke-width="1.5"/>
</g>
<defs>
<clipPath id="clip0">
<rect width="66.6667" height="108.333" fill="white" transform="translate(16.333 4.16699)"/>
</clipPath>
</defs>
</svg>
