<svg width="360" height="280" viewBox="0 0 360 280" fill="none" xmlns="http://www.w3.org/2000/svg">
<path fill-rule="evenodd" clip-rule="evenodd" d="M126.256 36H233.744C237.311 36 238.604 36.3713 239.907 37.0685C241.211 37.7658 242.234 38.7889 242.931 40.0926C243.629 41.3963 244 42.6895 244 46.2555V233.744C244 237.311 243.629 238.604 242.931 239.907C242.234 241.211 241.211 242.234 239.907 242.931C238.604 243.629 237.311 244 233.744 244H126.256C122.689 244 121.396 243.629 120.093 242.931C118.789 242.234 117.766 241.211 117.069 239.907C116.371 238.604 116 237.311 116 233.744V46.2555C116 42.6895 116.371 41.3963 117.069 40.0926C117.766 38.7889 118.789 37.7658 120.093 37.0685C121.396 36.3713 122.689 36 126.256 36Z" fill="#525254"/>
<path d="M139.2 147.999C144.944 147.999 149.6 143.343 149.6 137.599C149.6 131.855 144.944 127.199 139.2 127.199C133.456 127.199 128.8 131.855 128.8 137.599C128.8 143.343 133.456 147.999 139.2 147.999Z" fill="#39393B"/>
<path d="M166.4 147.999C172.144 147.999 176.8 143.343 176.8 137.599C176.8 131.855 172.144 127.199 166.4 127.199C160.656 127.199 156 131.855 156 137.599C156 143.343 160.656 147.999 166.4 147.999Z" fill="#39393B"/>
<path d="M193.6 147.999C199.344 147.999 204 143.343 204 137.599C204 131.855 199.344 127.199 193.6 127.199C187.856 127.199 183.2 131.855 183.2 137.599C183.2 143.343 187.856 147.999 193.6 147.999Z" fill="#39393B"/>
<path d="M220.8 147.999C226.544 147.999 231.2 143.343 231.2 137.599C231.2 131.855 226.544 127.199 220.8 127.199C215.056 127.199 210.4 131.855 210.4 137.599C210.4 143.343 215.056 147.999 220.8 147.999Z" fill="#39393B"/>
<path fill-rule="evenodd" clip-rule="evenodd" d="M228.242 50.4008C228.773 50.4022 229.001 50.4165 229.218 50.5321C229.326 50.5899 229.411 50.6748 229.468 50.783C229.592 51.0145 229.6 51.2606 229.6 51.8773V114.524C229.6 115.141 229.592 115.387 229.468 115.618C229.411 115.726 229.326 115.811 229.218 115.869C228.986 115.993 228.74 116.001 228.123 116.001H131.877C131.26 116.001 131.014 115.993 130.782 115.869C130.674 115.811 130.589 115.726 130.531 115.618C130.408 115.387 130.4 115.141 130.4 114.524L130.4 51.7588C130.401 51.2278 130.416 50.999 130.531 50.783C130.589 50.6748 130.674 50.5899 130.782 50.5321C131.014 50.4083 131.26 50.4006 131.877 50.4006L228.242 50.4008Z" fill="#202021" stroke="black" stroke-width="1.5"/>
<circle cx="140" cy="84" r="4" fill="#00B812"/>
<circle cx="156" cy="84" r="4" fill="#00B812"/>
<circle cx="172" cy="84" r="4" fill="#00B812"/>
<circle cx="188" cy="84" r="4" fill="#00B812"/>
<circle cx="204" cy="84" r="3.5" stroke="#00B812"/>
</svg>
