<svg width="22" height="42" viewBox="0 0 22 42" fill="none" xmlns="http://www.w3.org/2000/svg">
<path fill-rule="evenodd" clip-rule="evenodd" d="M1.76267 3H20.2373C20.8502 3 21.0725 3.06382 21.2966 3.18365C21.5207 3.30349 21.6965 3.47934 21.8163 3.70342C21.9362 3.92749 22 4.14975 22 4.76267V36.9873C22 37.6003 21.9362 37.8225 21.8163 38.0466C21.6965 38.2707 21.5207 38.4465 21.2966 38.5663C21.0725 38.6862 20.8502 38.75 20.2373 38.75H1.76267C1.14975 38.75 0.927493 38.6862 0.703419 38.5663C0.479345 38.4465 0.30349 38.2707 0.183654 38.0466C0.0638176 37.8225 0 37.6003 0 36.9873L0 4.76267C0 4.14975 0.0638176 3.92749 0.183654 3.70342C0.30349 3.47934 0.479345 3.30349 0.703419 3.18365C0.927493 3.06382 1.14975 3 1.76267 3Z" fill="#525254"/>
<path d="M3.98721 22.2495C4.97442 22.2495 5.77471 21.4492 5.77471 20.462C5.77471 19.4748 4.97442 18.6745 3.98721 18.6745C3 18.6745 2.19971 19.4748 2.19971 20.462C2.19971 21.4492 3 22.2495 3.98721 22.2495Z" fill="#39393B"/>
<path d="M8.6625 22.2495C9.64971 22.2495 10.45 21.4492 10.45 20.462C10.45 19.4748 9.64971 18.6745 8.6625 18.6745C7.67529 18.6745 6.875 19.4748 6.875 20.462C6.875 21.4492 7.67529 22.2495 8.6625 22.2495Z" fill="#39393B"/>
<path d="M13.3378 22.2495C14.325 22.2495 15.1253 21.4492 15.1253 20.462C15.1253 19.4748 14.325 18.6745 13.3378 18.6745C12.3506 18.6745 11.5503 19.4748 11.5503 20.462C11.5503 21.4492 12.3506 22.2495 13.3378 22.2495Z" fill="#39393B"/>
<path d="M18.0126 22.2495C18.9998 22.2495 19.8001 21.4492 19.8001 20.462C19.8001 19.4748 18.9998 18.6745 18.0126 18.6745C17.0254 18.6745 16.2251 19.4748 16.2251 20.462C16.2251 21.4492 17.0254 22.2495 18.0126 22.2495Z" fill="#39393B"/>
<path fill-rule="evenodd" clip-rule="evenodd" d="M19.2917 5.47535C19.3829 5.47559 19.4222 5.47806 19.4594 5.49792C19.478 5.50786 19.4926 5.52245 19.5025 5.54104C19.5238 5.58083 19.5251 5.62313 19.5251 5.72913V16.4965C19.5251 16.6025 19.5238 16.6448 19.5025 16.6846C19.4926 16.7032 19.478 16.7178 19.4594 16.7277C19.4196 16.749 19.3773 16.7503 19.2713 16.7503H2.7289C2.6229 16.7503 2.5806 16.749 2.54081 16.7277C2.52222 16.7178 2.50763 16.7032 2.49769 16.6846C2.47641 16.6448 2.4751 16.6025 2.4751 16.4965L2.47512 5.70876C2.47536 5.6175 2.47783 5.57818 2.49769 5.54104C2.50763 5.52245 2.52222 5.50786 2.54081 5.49792C2.5806 5.47664 2.6229 5.47533 2.7289 5.47533L19.2917 5.47535Z" fill="#202021" stroke="black" stroke-width="0.5"/>
</svg>
