<svg width="80" height="80" viewBox="0 0 80 80" fill="none" xmlns="http://www.w3.org/2000/svg">
  <path d="M52 34.9589V50.6428C52 51.7266 52 52.6008 51.9422 53.3086C51.8826 54.0375 51.7568 54.6777 51.455 55.27C50.9757 56.2108 50.2108 56.9757 49.27 57.455C48.6777 57.7568 48.0375 57.8826 47.3086 57.9422C46.6008 58 45.7266 58 44.6428 58H35.3572C34.2734 58 33.3993 58 32.6914 57.9422C31.9625 57.8826 31.3223 57.7568 30.73 57.455C29.7892 56.9757 29.0243 56.2108 28.545 55.27C28.2432 54.6777 28.1174 54.0375 28.0578 53.3086C28 52.6007 28 51.7266 28 50.6428V29.3572C28 28.2734 28 27.3993 28.0578 26.6914C28.1174 25.9625 28.2432 25.3223 28.545 24.73C29.0243 23.7892 29.7892 23.0243 30.73 22.545C31.3223 22.2432 31.9625 22.1174 32.6914 22.0578C33.3993 22 34.2734 22 35.3572 22H39.0411C39.0139 22.3297 39 22.6632 39 23C39 23.3368 39.0139 23.6703 39.0411 24H35.4C34.2634 24 33.4711 24.0008 32.8542 24.0512C32.2491 24.1006 31.9014 24.1928 31.638 24.327C31.0735 24.6146 30.6146 25.0735 30.327 25.638C30.1928 25.9014 30.1006 26.2491 30.0512 26.8542C30.0008 27.4711 30 28.2634 30 29.4V50.6C30 51.7366 30.0008 52.5289 30.0512 53.1458C30.1006 53.7509 30.1928 54.0986 30.327 54.362C30.6146 54.9265 31.0735 55.3854 31.638 55.673C31.9014 55.8072 32.2491 55.8994 32.8542 55.9488C33.4711 55.9992 34.2634 56 35.4 56H44.6C45.7366 56 46.5289 55.9992 47.1458 55.9488C47.7509 55.8994 48.0986 55.8072 48.362 55.673C48.9265 55.3854 49.3854 54.9265 49.673 54.362C49.8072 54.0986 49.8994 53.7509 49.9488 53.1458C49.9992 52.5289 50 51.7366 50 50.6V34.9589C50.3297 34.9861 50.6632 35 51 35C51.3368 35 51.6703 34.9861 52 34.9589Z" fill="#A0A0B0" />
  <path d="M39.3781 26H36.1615C35.6343 26 35.1795 26 34.805 26.0306C34.4096 26.0629 34.0164 26.1342 33.638 26.327C33.0735 26.6146 32.6146 27.0735 32.327 27.638C32.1342 28.0164 32.0629 28.4096 32.0306 28.805C32 29.1795 32 29.6343 32 30.1614V37.8385C32 38.3657 32 38.8205 32.0306 39.195C32.0629 39.5904 32.1342 39.9836 32.327 40.362C32.6146 40.9265 33.0735 41.3854 33.638 41.673C34.0164 41.8658 34.4096 41.9371 34.805 41.9694C35.1795 42 35.6343 42 36.1614 42H43.8385C44.3656 42 44.8205 42 45.195 41.9694C45.5904 41.9371 45.9836 41.8658 46.362 41.673C46.9265 41.3854 47.3854 40.9265 47.673 40.362C47.8658 39.9836 47.9371 39.5904 47.9694 39.195C48 38.8205 48 38.3658 48 37.8386V34.6219C47.3071 34.4436 46.6385 34.205 46 33.9119V37.8C46 38.3766 45.9992 38.7488 45.9761 39.0322C45.9539 39.3038 45.9162 39.4045 45.891 39.454C45.7951 39.6422 45.6422 39.7951 45.454 39.891C45.4045 39.9162 45.3038 39.9539 45.0322 39.9761C44.7488 39.9992 44.3766 40 43.8 40H36.2C35.6234 40 35.2512 39.9992 34.9678 39.9761C34.6962 39.9539 34.5955 39.9162 34.546 39.891C34.3578 39.7951 34.2049 39.6422 34.109 39.454C34.0838 39.4045 34.0461 39.3038 34.0239 39.0322C34.0008 38.7488 34 38.3766 34 37.8V30.2C34 29.6234 34.0008 29.2512 34.0239 28.9678C34.0461 28.6962 34.0838 28.5955 34.109 28.546C34.2049 28.3578 34.3578 28.2049 34.546 28.109C34.5955 28.0838 34.6962 28.0461 34.9678 28.0239C35.2512 28.0008 35.6234 28 36.2 28H40.0881C39.795 27.3615 39.5564 26.6929 39.3781 26Z" fill="#A0A0B0" />
  <path fill-rule="evenodd" clip-rule="evenodd" d="M43 14C43.5523 14 44 14.4477 44 15V17.343C45.6494 15.3045 48.1717 14 51 14C55.5903 14 59.3767 17.4356 59.9304 21.8763C59.9988 22.4243 59.6099 22.924 59.0618 22.9923C58.5138 23.0607 58.0141 22.6718 57.9458 22.1237C57.5153 18.6717 54.5689 16 51 16C48.6223 16 46.52 17.1857 45.2544 19H48C48.5523 19 49 19.4477 49 20C49 20.5523 48.5523 21 48 21H43C42.4477 21 42 20.5523 42 20V15C42 14.4477 42.4477 14 43 14ZM42.9382 23.0077C43.4862 22.9393 43.9859 23.3282 44.0542 23.8763C44.4847 27.3283 47.4311 30 51 30C53.3777 30 55.48 28.8143 56.7456 27H54C53.4477 27 53 26.5523 53 26C53 25.4477 53.4477 25 54 25H59C59.5523 25 60 25.4477 60 26V31C60 31.5523 59.5523 32 59 32C58.4477 32 58 31.5523 58 31V28.657C56.3506 30.6955 53.8283 32 51 32C46.4097 32 42.6233 28.5644 42.0696 24.1237C42.0012 23.5757 42.3901 23.076 42.9382 23.0077Z" fill="#00B812" />
</svg>
