<svg width="130" height="120" viewBox="0 0 130 120" fill="none" xmlns="http://www.w3.org/2000/svg">
<path d="M58.688 15.82H126.669V107.38H58.688V15.82Z" fill="white"/>
<path d="M126.366 16.124V107.08H58.99V16.124H126.365H126.366ZM126.971 15.517H58.384V107.687H126.972V15.517H126.971Z" fill="#A3A4A9"/>
<path d="M58.991 16.124H126.366V21.502H58.991V16.124Z" fill="#D8D9DA"/>
<path d="M81.542 16.125L100.454 107.078H65.261V16.125H81.542Z" fill="#D8D9DA"/>
<g clip-path="url(#clip0)">
<path fill-rule="evenodd" clip-rule="evenodd" d="M79.5639 36H106.436C107.328 36 107.651 36.0928 107.977 36.2671C108.303 36.4414 108.559 36.6972 108.733 37.0232C108.907 37.3491 109 37.6724 109 38.5639V85.4361C109 86.3276 108.907 86.6509 108.733 86.9768C108.559 87.3028 108.303 87.5586 107.977 87.7329C107.651 87.9072 107.328 88 106.436 88H79.5639C78.6724 88 78.3491 87.9072 78.0232 87.7329C77.6972 87.5586 77.4414 87.3028 77.2671 86.9768C77.0928 86.6509 77 86.3276 77 85.4361V38.5639C77 37.6724 77.0928 37.3491 77.2671 37.0232C77.4414 36.6972 77.6972 36.4414 78.0232 36.2671C78.3491 36.0928 78.6724 36 79.5639 36Z" fill="#525254"/>
<path d="M82.8002 63.9991C84.2361 63.9991 85.4002 62.8351 85.4002 61.3991C85.4002 59.9632 84.2361 58.7992 82.8002 58.7992C81.3643 58.7992 80.2002 59.9632 80.2002 61.3991C80.2002 62.8351 81.3643 63.9991 82.8002 63.9991Z" fill="#39393B"/>
<path d="M89.6 63.9991C91.0359 63.9991 92.2 62.8351 92.2 61.3991C92.2 59.9632 91.0359 58.7992 89.6 58.7992C88.1641 58.7992 87 59.9632 87 61.3991C87 62.8351 88.1641 63.9991 89.6 63.9991Z" fill="#39393B"/>
<path d="M96.4 63.9991C97.836 63.9991 99 62.8351 99 61.3991C99 59.9632 97.836 58.7992 96.4 58.7992C94.9641 58.7992 93.8 59.9632 93.8 61.3991C93.8 62.8351 94.9641 63.9991 96.4 63.9991Z" fill="#39393B"/>
<path d="M103.2 63.9991C104.636 63.9991 105.8 62.8351 105.8 61.3991C105.8 59.9632 104.636 58.7992 103.2 58.7992C101.764 58.7992 100.6 59.9632 100.6 61.3991C100.6 62.8351 101.764 63.9991 103.2 63.9991Z" fill="#39393B"/>
<path fill-rule="evenodd" clip-rule="evenodd" d="M105.061 39.6662C105.193 39.6666 105.25 39.6702 105.305 39.6991C105.332 39.7135 105.353 39.7347 105.367 39.7618C105.398 39.8197 105.4 39.8812 105.4 40.0354V55.697C105.4 55.8512 105.398 55.9127 105.367 55.9706C105.353 55.9977 105.332 56.0189 105.305 56.0333C105.247 56.0643 105.185 56.0662 105.031 56.0662H80.9693C80.8151 56.0662 80.7536 56.0643 80.6957 56.0333C80.6686 56.0189 80.6474 55.9977 80.633 55.9706C80.602 55.9127 80.6001 55.8512 80.6001 55.697L80.6001 40.0057C80.6005 39.873 80.6041 39.8158 80.633 39.7618C80.6474 39.7347 80.6686 39.7135 80.6957 39.6991C80.7536 39.6681 80.8151 39.6662 80.9693 39.6662L105.061 39.6662Z" fill="#202021" stroke="black" stroke-width="1.5"/>
<path d="M76 35H86L98 95.5L76 98V35Z" fill="#D8D9DA" fill-opacity="0.05"/>
</g>
<path d="M125.363 17.011V105.945H60.01V17.011H125.363ZM126.373 16H59V106.956H126.375V16H126.373Z" fill="white"/>
<path d="M0.35791 26.045L67.2269 12.161L86.4669 104.821L19.5969 118.706L0.35791 26.045Z" fill="white"/>
<path d="M66.991 12.516L86.113 104.582L19.839 118.346L0.717 26.281L66.99 12.516H66.991ZM67.46 11.798L66.867 11.921L0.594 25.683L0 25.809L0.123 26.404L19.245 118.47L19.368 119.063L19.962 118.94L86.236 105.175L86.83 105.052L86.707 104.458L67.585 12.393L67.461 11.798H67.46Z" fill="#A3A4A9"/>
<path opacity="0.4" d="M122.29 43.084C126.368 43.084 129.673 39.7785 129.673 35.701C129.673 31.6235 126.368 28.318 122.29 28.318C118.212 28.318 114.907 31.6235 114.907 35.701C114.907 39.7785 118.212 43.084 122.29 43.084Z" fill="#F9C447"/>
<path opacity="0.4" d="M123.039 98.98C126.443 98.98 129.202 96.2207 129.202 92.817C129.202 89.4133 126.443 86.654 123.039 86.654C119.635 86.654 116.876 89.4133 116.876 92.817C116.876 96.2207 119.635 98.98 123.039 98.98Z" fill="#F9C447"/>
<path opacity="0.4" d="M95.8539 12.766C99.3792 12.766 102.237 9.90823 102.237 6.383C102.237 2.85777 99.3792 0 95.8539 0C92.3287 0 89.4709 2.85777 89.4709 6.383C89.4709 9.90823 92.3287 12.766 95.8539 12.766Z" fill="#F9C447"/>
<path opacity="0.4" d="M58.3091 24.787C62.629 24.787 66.1311 21.285 66.1311 16.965C66.1311 12.645 62.629 9.14301 58.3091 9.14301C53.9891 9.14301 50.4871 12.645 50.4871 16.965C50.4871 21.285 53.9891 24.787 58.3091 24.787Z" fill="#F9C447"/>
<path d="M58.3089 22.259C61.2327 22.259 63.6029 19.8888 63.6029 16.965C63.6029 14.0412 61.2327 11.671 58.3089 11.671C55.3851 11.671 53.0149 14.0412 53.0149 16.965C53.0149 19.8888 55.3851 22.259 58.3089 22.259Z" fill="#F9C447"/>
<path d="M58.308 13.636L61.637 16.964L58.308 20.293L54.98 16.964L58.308 13.636Z" fill="white"/>
<path d="M122.29 40.995C125.214 40.995 127.584 38.6248 127.584 35.701C127.584 32.7772 125.214 30.407 122.29 30.407C119.366 30.407 116.996 32.7772 116.996 35.701C116.996 38.6248 119.366 40.995 122.29 40.995Z" fill="#F9C447"/>
<path d="M122.29 32.372L125.619 35.701L122.29 39.029L118.962 35.701L122.29 32.372Z" fill="white"/>
<path d="M95.9311 10.256C98.0701 10.256 99.8041 8.52201 99.8041 6.38301C99.8041 4.24401 98.0701 2.51001 95.9311 2.51001C93.7921 2.51001 92.0581 4.24401 92.0581 6.38301C92.0581 8.52201 93.7921 10.256 95.9311 10.256Z" fill="#F9C447"/>
<path d="M95.9311 3.95001L98.3661 6.38401L95.9301 8.82001L93.4961 6.38501L95.9311 3.95001Z" fill="white"/>
<path d="M69.4431 78.722C71.5821 78.722 73.3161 76.988 73.3161 74.849C73.3161 72.71 71.5821 70.976 69.4431 70.976C67.3041 70.976 65.5701 72.71 65.5701 74.849C65.5701 76.988 67.3041 78.722 69.4431 78.722Z" fill="#F9C447"/>
<path d="M69.444 72.414L71.878 74.848L69.444 77.283L67.009 74.848L69.444 72.414Z" fill="white"/>
<path d="M123.039 96.69C125.178 96.69 126.912 94.956 126.912 92.817C126.912 90.678 125.178 88.944 123.039 88.944C120.9 88.944 119.166 90.678 119.166 92.817C119.166 94.956 120.9 96.69 123.039 96.69Z" fill="#F9C447"/>
<path d="M123.038 90.382L125.473 92.816L123.038 95.251L120.604 92.816L123.038 90.382Z" fill="white"/>
<path fill-rule="evenodd" clip-rule="evenodd" d="M42.1986 64.0711C44.9032 63.5136 47.5322 65.1793 48.0708 67.7917C48.6093 70.404 46.8534 72.9737 44.1489 73.5313C41.4443 74.0888 38.8153 72.4231 38.2767 69.8107C37.7382 67.1984 39.4941 64.6287 42.1986 64.0711ZM42.6413 66.2184C41.1646 66.5228 40.2059 67.9259 40.4999 69.3523C40.794 70.7787 42.2295 71.6882 43.7062 71.3838C45.1829 71.0794 46.1416 69.6762 45.8476 68.2499C45.5535 66.8235 44.118 65.914 42.6413 66.2184ZM41.9553 54.8392L43.4868 62.268L40.6027 62.8626L39.5642 57.8252L36.9805 58.3578L37.3036 55.7982L41.9553 54.8392Z" fill="#D8D9DA"/>
<defs>
<clipPath id="clip0">
<rect width="32" height="52" fill="white" transform="translate(77 36)"/>
</clipPath>
</defs>
</svg>
