<svg width="360" height="280" viewBox="0 0 360 280" fill="none" xmlns="http://www.w3.org/2000/svg">
<path d="M183.334 219.512V256.897H177.214V219.512H183.334Z" fill="#D8D9DA"/>
<path d="M170.608 179.595H189.943V215.815H170.608V179.595ZM183.32 225.087L183.337 251.983L177.217 251.987L177.2 225.091L183.32 225.087Z" fill="#BEBDC0"/>
<path d="M173.965 206.897H186.583V243.804H173.965V206.897Z" fill="#D8D9DA"/>
<path d="M169.081 197.147H191.468V230.382H169.081V197.147Z" fill="#D8D9DA"/>
<path fill-rule="evenodd" clip-rule="evenodd" d="M139.692 24H220.308C222.983 24 223.953 24.2785 224.931 24.8014C225.908 25.3243 226.676 26.0917 227.199 27.0695C227.722 28.0472 228 29.0171 228 31.6917V172.308C228 174.983 227.722 175.953 227.199 176.931C226.676 177.908 225.908 178.676 224.931 179.199C223.953 179.722 222.983 180 220.308 180H139.692C137.017 180 136.047 179.722 135.069 179.199C134.092 178.676 133.324 177.908 132.801 176.931C132.278 175.953 132 174.983 132 172.308V31.6917C132 29.0171 132.278 28.0472 132.801 27.0695C133.324 26.0917 134.092 25.3243 135.069 24.8014C136.047 24.2785 137.017 24 139.692 24Z" fill="#525254"/>
<path d="M149.401 107.997C153.708 107.997 157.201 104.504 157.201 100.197C157.201 95.8888 153.708 92.3967 149.401 92.3967C145.093 92.3967 141.601 95.8888 141.601 100.197C141.601 104.504 145.093 107.997 149.401 107.997Z" fill="#39393B"/>
<path d="M169.8 107.997C174.108 107.997 177.6 104.504 177.6 100.197C177.6 95.8888 174.108 92.3967 169.8 92.3967C165.492 92.3967 162 95.8888 162 100.197C162 104.504 165.492 107.997 169.8 107.997Z" fill="#39393B"/>
<path d="M190.199 107.997C194.507 107.997 197.999 104.504 197.999 100.197C197.999 95.8888 194.507 92.3967 190.199 92.3967C185.892 92.3967 182.399 95.8888 182.399 100.197C182.399 104.504 185.892 107.997 190.199 107.997Z" fill="#39393B"/>
<path d="M210.599 107.997C214.907 107.997 218.399 104.504 218.399 100.197C218.399 95.8888 214.907 92.3967 210.599 92.3967C206.291 92.3967 202.799 95.8888 202.799 100.197C202.799 104.504 206.291 107.997 210.599 107.997Z" fill="#39393B"/>
<path fill-rule="evenodd" clip-rule="evenodd" d="M216.182 34.9996C216.58 35.0007 216.751 35.0114 216.914 35.0981C216.995 35.1415 217.058 35.2052 217.102 35.2863C217.195 35.4599 217.2 35.6445 217.2 36.107V83.092C217.2 83.5546 217.195 83.7392 217.102 83.9128C217.058 83.9939 216.995 84.0575 216.914 84.1009C216.74 84.1938 216.555 84.1995 216.093 84.1995H143.908C143.445 84.1995 143.261 84.1938 143.087 84.1009C143.006 84.0575 142.942 83.9939 142.899 83.9128C142.806 83.7392 142.8 83.5546 142.8 83.092L142.8 36.0181C142.801 35.6199 142.812 35.4483 142.899 35.2863C142.942 35.2052 143.006 35.1415 143.087 35.0981C143.261 35.0053 143.445 34.9995 143.908 34.9995L216.182 34.9996Z" fill="#202021" stroke="black" stroke-width="1.5"/>
<path d="M164.975 47.5258C164.9 47.2166 164.805 46.9126 164.69 46.6158C164.612 46.4338 165.407 45.8478 165.33 45.7128C165.12 45.3895 164.897 45.0746 164.661 44.7688C164.555 44.6468 163.745 45.2078 163.598 45.0718C163.355 44.8659 163.098 44.6762 162.83 44.5038C162.658 44.4018 162.958 43.4648 162.816 43.3968C162.674 43.3288 161.877 43.0618 161.721 43.0268C161.565 42.9898 161.235 43.9218 161.038 43.8968C160.722 43.8721 160.405 43.8684 160.088 43.8858C159.888 43.9038 159.575 42.9688 159.423 43.0008C159.271 43.0328 158.468 43.2808 158.321 43.3438C158.174 43.4058 158.449 44.3518 158.278 44.4488C158.007 44.6148 157.748 44.7988 157.501 44.9988C157.353 45.1268 156.554 44.5538 156.444 44.6728C156.334 44.7918 155.839 45.4598 155.756 45.5988C155.673 45.7388 156.457 46.3398 156.373 46.5258C156.252 46.8168 156.15 47.1158 156.068 47.4208C156.024 47.6168 155.044 47.6198 155.021 47.7778C154.998 47.9378 154.993 48.7738 155.009 48.9298C155.024 49.0858 156.008 49.1158 156.046 49.3138C156.121 49.6238 156.216 49.9278 156.33 50.2238C156.408 50.4068 155.612 50.9928 155.69 51.1208C155.769 51.2488 156.251 51.9428 156.358 52.0648C156.466 52.1868 157.275 51.6258 157.422 51.7618C157.665 51.9678 157.922 52.1578 158.189 52.3298C158.362 52.4318 158.062 53.3688 158.204 53.4348C158.346 53.5018 159.143 53.7718 159.298 53.8078C159.452 53.8438 159.785 52.9118 159.981 52.9378C160.298 52.9618 160.616 52.9658 160.933 52.9478C161.131 52.9298 161.445 53.8648 161.597 53.8328C161.749 53.8008 162.55 53.5528 162.699 53.4898C162.847 53.4278 162.571 52.4818 162.742 52.3848C163.012 52.2188 163.272 52.0348 163.518 51.8348C163.666 51.7068 164.466 52.2798 164.576 52.1608C164.686 52.0408 165.181 51.3738 165.264 51.2348C165.347 51.0948 164.562 50.4918 164.649 50.3178C164.77 50.0268 164.872 49.7278 164.954 49.4228C164.998 49.2268 165.978 49.2238 166.001 49.0658C166.024 48.9068 166.029 48.0698 166.014 47.9138C165.999 47.7578 165.014 47.7208 164.975 47.5258ZM162.465 49.5738C162.237 49.9603 161.898 50.2703 161.494 50.4645C161.089 50.6588 160.635 50.7285 160.191 50.665C159.746 50.6015 159.33 50.4075 158.996 50.1076C158.662 49.8078 158.424 49.4155 158.312 48.9804C158.201 48.5453 158.221 48.087 158.371 47.6634C158.52 47.2398 158.792 46.8701 159.151 46.6009C159.51 46.3317 159.942 46.1751 160.39 46.1511C160.839 46.1271 161.284 46.2366 161.67 46.4658C162.188 46.7732 162.562 47.2736 162.711 47.8569C162.86 48.4403 162.771 49.0589 162.464 49.5768V49.5738H162.465ZM204.239 69.2108C204.139 68.7829 204.01 68.362 203.854 67.9508C203.748 67.6978 204.831 66.8878 204.725 66.7008C204.44 66.2529 204.137 65.8168 203.816 65.3938C203.672 65.2278 202.569 65.9998 202.369 65.8128C202.039 65.5279 201.69 65.265 201.324 65.0258C201.089 64.8838 201.499 63.5868 201.305 63.4958C200.816 63.302 200.319 63.1298 199.815 62.9798C199.602 62.9298 199.153 64.2198 198.885 64.1838C198.455 64.1499 198.022 64.1452 197.591 64.1698C197.321 64.1948 196.895 62.8998 196.688 62.9438C196.182 63.0817 195.682 63.2402 195.188 63.4188C194.988 63.5058 195.363 64.8148 195.129 64.9488C194.761 65.1798 194.409 65.4348 194.072 65.7118C193.872 65.8888 192.784 65.0948 192.634 65.2598C192.484 65.4248 191.81 66.3498 191.697 66.5428C191.584 66.7358 192.647 67.5678 192.535 67.8158C192.37 68.2196 192.231 68.6338 192.119 69.0558C192.059 69.3258 190.726 69.3288 190.694 69.5488C190.663 69.7688 190.656 70.9288 190.677 71.1438C190.697 71.3578 192.037 71.4008 192.089 71.6748C192.192 72.1038 192.321 72.5248 192.476 72.9368C192.582 73.1878 191.499 73.9908 191.605 74.1858C191.888 74.635 192.192 75.0711 192.514 75.4928C192.66 75.6618 193.761 74.8858 193.961 75.0728C194.291 75.3588 194.641 75.6208 195.006 75.8598C195.241 76.0018 194.831 77.2988 195.025 77.3928C195.218 77.4868 196.303 77.8568 196.515 77.9058C196.728 77.9558 197.177 76.6658 197.443 76.7018C197.874 76.7358 198.307 76.7398 198.739 76.7158C199.009 76.6908 199.435 77.9858 199.642 77.9418C200.149 77.8044 200.649 77.646 201.142 77.4668C201.344 77.3778 200.967 76.0708 201.201 75.9368C201.568 75.7068 201.921 75.4528 202.256 75.1768C202.458 74.9988 203.546 75.7908 203.696 75.6268C203.846 75.4608 204.52 74.5368 204.633 74.3428C204.746 74.1498 203.683 73.3178 203.795 73.0698C203.961 72.6658 204.1 72.2518 204.211 71.8298C204.271 71.5578 205.604 71.5548 205.636 71.3348C205.667 71.1148 205.674 69.9568 205.653 69.7408C205.633 69.5238 204.293 69.4768 204.239 69.2108ZM200.823 72.0458C200.621 72.3989 200.349 72.708 200.026 72.955C199.702 73.202 199.332 73.3819 198.938 73.4842C198.544 73.5864 198.133 73.609 197.73 73.5505C197.327 73.4921 196.94 73.3538 196.591 73.1438C195.124 72.2578 194.641 70.3298 195.511 68.8378C195.714 68.4847 195.985 68.1755 196.308 67.9284C196.632 67.6813 197.001 67.5012 197.395 67.3987C197.789 67.2962 198.199 67.2733 198.602 67.3313C199.005 67.3894 199.392 67.5272 199.741 67.7368C200.45 68.1662 200.96 68.8586 201.16 69.6628C201.363 70.4707 201.242 71.3259 200.823 72.0458Z" fill="#D8D9DA"/>
<path d="M171.167 67.1098L171.548 67.4288C171.809 67.6398 172.074 67.8398 172.344 68.0308L172.637 68.2308V68.2928L172.629 68.4558L172.608 68.6658L172.512 69.3858C172.499 69.4861 172.489 69.5868 172.482 69.6878L172.478 69.7548C172.458 70.1778 172.508 70.4308 172.838 70.5908L173.031 70.6718C173.571 70.8858 174.831 71.3118 175.136 71.3788C175.508 71.4588 175.699 71.2818 175.948 70.9118L176.039 70.7718L176.149 70.5848L176.436 70.0718L176.503 69.9558C176.589 69.8108 176.657 69.7068 176.716 69.6298L177.054 69.6518C177.386 69.6668 177.715 69.6708 178.043 69.6638L178.386 69.6498C178.426 69.7008 178.472 69.7718 178.526 69.8638L178.752 70.2768L178.97 70.6868C179.032 70.8008 179.07 70.8628 179.124 70.9488C179.365 71.3258 179.555 71.5088 179.932 71.4318C180.283 71.3608 181.907 70.8458 182.232 70.7028C182.538 70.5688 182.615 70.3498 182.622 69.9988V69.8768C182.62 69.782 182.615 69.6872 182.606 69.5928L182.52 68.7818C182.507 68.6576 182.5 68.5327 182.5 68.4078L182.502 68.3438L182.792 68.1588C183.068 67.9748 183.336 67.7828 183.597 67.5828L183.867 67.3678L183.912 67.3818C183.979 67.4048 184.054 67.4348 184.147 67.4768L184.543 67.6658L184.936 67.8568C185.054 67.9128 185.13 67.9448 185.224 67.9808C185.631 68.1368 185.895 68.1708 186.15 67.8848C186.39 67.6168 187.403 66.2328 187.585 65.9228C187.755 65.6328 187.687 65.4068 187.482 65.1108L187.408 65.0088C187.345 64.9245 187.279 64.8428 187.209 64.7638L186.69 64.1808C186.628 64.1096 186.568 64.0362 186.51 63.9608L186.467 63.9008C186.443 63.8648 186.444 63.8688 186.38 64.0088L186.565 63.5328C186.683 63.2168 186.788 62.8998 186.883 62.5808L186.979 62.2368L187.035 62.2168L187.19 62.1748C187.249 62.1608 187.315 62.1458 187.393 62.1308L188.119 61.9948C188.277 61.9638 188.39 61.9368 188.499 61.9038C188.862 61.7928 189.081 61.6568 189.121 61.3048C189.161 60.9498 189.181 59.2158 189.148 58.8578C189.117 58.5068 188.902 58.3648 188.545 58.2458L188.375 58.1958C188.343 58.1871 188.311 58.1788 188.278 58.1708L187.565 58.0188C187.402 57.9874 187.24 57.9467 187.081 57.8968L187.026 57.8768L187.068 58.0398C186.914 57.3834 186.716 56.7377 186.478 56.1068L186.526 56.2118C186.532 56.2198 186.536 56.2188 186.542 56.2128L186.552 56.1998C186.593 56.1438 186.644 56.0818 186.709 56.0068L187.011 55.6808L187.321 55.3528C187.391 55.2768 187.437 55.2228 187.485 55.1638L187.522 55.1178C187.794 54.7768 187.905 54.5378 187.723 54.2098L187.613 54.0298C187.299 53.5358 186.533 52.4428 186.331 52.2088C186.107 51.9488 185.869 51.9448 185.527 52.0538L185.409 52.0938C185.314 52.1278 185.238 52.1588 185.119 52.2118L184.668 52.4208C184.526 52.4887 184.381 52.5524 184.235 52.6118L184.087 52.6648C184.047 52.6778 184.055 52.6778 184.17 52.7848C183.667 52.3477 183.134 51.9448 182.577 51.5788L182.658 51.6268C182.684 51.6388 182.69 51.6338 182.692 51.6168V51.5938C182.694 51.4718 182.708 51.3228 182.737 51.0938L182.818 50.4998C182.838 50.3418 182.847 50.2448 182.852 50.1328C182.872 49.7098 182.822 49.4568 182.49 49.2978C182.164 49.1418 180.54 48.5838 180.192 48.5098C179.858 48.4388 179.67 48.5748 179.455 48.8718L179.382 48.9768C179.333 49.0491 179.286 49.1232 179.242 49.1988L178.894 49.8168L178.827 49.9328C178.763 50.0454 178.691 50.1536 178.613 50.2568L178.276 50.2368C177.946 50.2217 177.616 50.2177 177.286 50.2248L176.944 50.2378C176.871 50.1381 176.805 50.0336 176.747 49.9248L176.36 49.2008C176.312 49.1115 176.261 49.0241 176.206 48.9388C175.965 48.5618 175.775 48.3788 175.398 48.4558C175.048 48.5268 173.425 49.0398 173.098 49.1838C172.792 49.3168 172.715 49.5368 172.708 49.8878V50.0108C172.71 50.1008 172.714 50.1838 172.724 50.2938L172.809 51.1048C172.824 51.2658 172.83 51.3808 172.829 51.4788L172.827 51.5428L172.537 51.7298C172.26 51.9148 171.992 52.1088 171.73 52.3098L171.46 52.5248L171.418 52.5118C171.305 52.4711 171.194 52.4244 171.085 52.3718L170.328 52.0058C170.273 51.9804 170.218 51.9564 170.162 51.9338L170.108 51.9128C169.698 51.7548 169.433 51.7228 169.179 52.0148L169.042 52.1818C168.674 52.6488 167.894 53.7128 167.745 53.9688C167.575 54.2588 167.644 54.4858 167.848 54.7808L167.993 54.9748C168.042 55.0358 168.095 55.0988 168.177 55.1908L168.463 55.5098C168.632 55.6978 168.741 55.8248 168.818 55.9288L168.861 55.9888C168.885 56.0238 168.884 56.0188 168.948 55.8788L168.763 56.3548C168.646 56.6689 168.54 56.9867 168.444 57.3078L168.347 57.6518L168.293 57.6708C168.134 57.7171 167.972 57.7542 167.809 57.7818L167.486 57.8408C167.266 57.8757 167.048 57.9234 166.833 57.9838C166.468 58.0938 166.249 58.2298 166.209 58.5828C166.169 58.9378 166.149 60.6718 166.182 61.0298C166.213 61.3798 166.428 61.5228 166.784 61.6408C166.89 61.6768 167.004 61.7068 167.159 61.7418L167.765 61.8688C167.992 61.9168 168.134 61.9518 168.248 61.9908L168.302 62.0098L168.261 61.8478C168.421 62.5208 168.616 63.1578 168.851 63.7808L168.804 63.6758C168.798 63.6678 168.794 63.6678 168.787 63.6748L168.681 63.8098C168.612 63.8917 168.541 63.9717 168.467 64.0498L167.919 64.6358C167.879 64.6808 167.846 64.7218 167.808 64.7698C167.536 65.1108 167.425 65.3498 167.607 65.6778L167.717 65.8578C168.031 66.3518 168.797 67.4448 168.999 67.6788C169.223 67.9388 169.461 67.9428 169.803 67.8338L170.03 67.7538C170.101 67.7248 170.176 67.6918 170.286 67.6418L170.907 67.3558C170.978 67.3238 171.04 67.2978 171.095 67.2758L171.243 67.2238C171.263 67.2168 171.271 67.2138 171.26 67.1988L171.167 67.1098ZM174.8 49.6648L175.373 49.4928L175.493 49.6998L175.805 50.2868L175.965 50.5758C176.243 51.0528 176.435 51.2458 176.775 51.2458L176.871 51.2408C177.313 51.2168 177.767 51.2148 178.224 51.2348L178.68 51.2628C179.1 51.3128 179.304 51.0968 179.674 50.4658L180.138 49.6498L180.202 49.5488L180.308 49.5818C180.641 49.6868 181.14 49.8558 181.525 49.9948L181.85 50.1138L181.84 50.2498L181.719 51.1748C181.632 51.8918 181.663 52.1548 181.964 52.3718L182.039 52.4218C182.417 52.6698 182.789 52.9418 183.147 53.2318L183.502 53.5288C183.836 53.8418 184.092 53.7868 184.918 53.4068L185.599 53.0938L185.717 53.0458L186.063 53.5268C186.28 53.8358 186.519 54.1828 186.679 54.4258L186.731 54.5048L186.65 54.6028C186.561 54.7021 186.47 54.7998 186.377 54.8958L186.232 55.0478C185.528 55.7918 185.358 56.0258 185.551 56.4788C185.763 57.0428 185.946 57.6398 186.09 58.2468C186.168 58.6678 186.37 58.7828 187.163 58.9568L187.825 59.0938L188.103 59.1578L188.161 59.1738L188.164 59.2968C188.168 59.6418 188.164 60.1498 188.154 60.5598L188.141 60.9648L187.906 61.0178L187.143 61.1598C186.357 61.3138 186.143 61.4298 186.046 61.8638C185.893 62.4478 185.696 63.0378 185.462 63.6128C185.29 63.9878 185.39 64.2098 185.885 64.7808L186.463 65.4298L186.601 65.5998L186.547 65.6798C186.34 65.9778 186.007 66.4358 185.748 66.7798L185.553 67.0348L185.433 66.9848L184.601 66.5828C183.901 66.2528 183.662 66.2228 183.333 66.5178C182.99 66.7978 182.623 67.0698 182.242 67.3238L181.856 67.5718C181.512 67.7718 181.449 67.9898 181.505 68.6678L181.611 69.7028L181.62 69.8658L181.51 69.9058C181.177 70.0188 180.676 70.1798 180.284 70.2978L179.956 70.3938L179.836 70.1878L179.526 69.6008L179.364 69.3118C179.087 68.8348 178.894 68.6418 178.554 68.6428L178.458 68.6478C178.017 68.6718 177.562 68.6738 177.106 68.6538L176.649 68.6258C176.231 68.5758 176.026 68.7908 175.656 69.4228L175.192 70.2388L175.128 70.3388L175.051 70.3158C174.625 70.1804 174.201 70.037 173.78 69.8858L173.478 69.7738L173.497 69.5688L173.609 68.7288C173.707 67.9328 173.665 67.6918 173.286 67.4638C172.788 67.1358 172.296 66.7638 171.828 66.3598C171.538 66.0898 171.308 66.0938 170.714 66.3468L169.792 66.7678L169.612 66.8408L169.267 66.3608C169.058 66.064 168.852 65.7643 168.651 65.4618L168.598 65.3808L168.761 65.1958L169.098 64.8388C169.754 64.1468 169.945 63.8958 169.813 63.4978L169.78 63.4098C169.563 62.832 169.383 62.2412 169.24 61.6408C169.162 61.2208 168.959 61.1048 168.167 60.9308L167.503 60.7938C167.41 60.7746 167.318 60.7533 167.226 60.7298L167.168 60.7128L167.166 60.5908C167.162 60.2458 167.166 59.7378 167.176 59.3278L167.188 58.9218L167.332 58.8888L168.187 58.7288C168.975 58.5738 169.187 58.4588 169.282 58.0208C169.435 57.4408 169.632 56.8508 169.866 56.2758C170.038 55.9008 169.938 55.6778 169.443 55.1078L168.867 54.4608L168.728 54.2898L168.779 54.2178C168.983 53.9258 169.317 53.4708 169.579 53.1228L169.781 52.8588L169.897 52.9088L170.729 53.3118C171.377 53.6168 171.629 53.6648 171.926 53.4348L171.996 53.3768C172.34 53.0928 172.706 52.8198 173.089 52.5638L173.475 52.3138C173.843 52.1008 173.889 51.8658 173.811 51.0668L173.718 50.1848L173.709 50.0198L173.82 49.9818C174.086 49.8908 174.46 49.7698 174.8 49.6648Z" fill="#7A7F80"/>
<path d="M94.8813 111.599C95.5209 110.053 96.058 108.467 96.4893 106.85C96.7233 105.82 101.913 105.804 102.01 104.967C102.108 104.13 102.158 99.7152 102.08 98.8722C102.002 98.0302 96.7953 97.8932 96.6003 96.8702C96.207 95.2391 95.708 93.6354 95.1063 92.0692C94.6923 91.1092 98.8923 88.0492 98.4753 87.3092C98.0583 86.5692 95.5153 82.9692 94.9533 82.3302C94.3923 81.6902 90.1223 84.6442 89.3433 83.9302C88.0662 82.8424 86.7186 81.8403 85.3093 80.9302C84.3973 80.3742 85.9973 75.4482 85.2343 75.0902C84.4723 74.7302 80.2803 73.3152 79.4603 73.1422C78.6403 72.9702 76.8923 77.8492 75.8443 77.7292C74.1783 77.6015 72.5057 77.5832 70.8373 77.6742C69.7913 77.7712 68.1673 72.8362 67.3343 73.0042C66.5033 73.1702 62.3053 74.4742 61.5243 74.8112C60.7423 75.1482 62.2083 80.1302 61.2933 80.6532C59.8665 81.5262 58.4995 82.4933 57.2013 83.5482C56.4193 84.2352 52.1943 81.2012 51.6383 81.8292C51.0813 82.4582 48.4333 85.9662 47.9943 86.7092C47.5543 87.4512 51.6713 90.6162 51.2323 91.5592C50.5926 93.1055 50.0545 94.6918 49.6213 96.3082C49.3963 97.3342 44.2053 97.3512 44.1083 98.1882C44.0103 99.0252 43.9603 103.44 44.0383 104.283C44.1163 105.126 49.3233 105.262 49.5153 106.288C49.9113 107.918 50.4113 109.521 51.0123 111.087C51.4233 112.049 47.2263 115.107 47.6433 115.846C48.0603 116.586 50.6033 120.186 51.1653 120.826C51.7273 121.465 55.9973 118.514 56.7753 119.228C58.0531 120.315 59.4007 121.317 60.8093 122.228C61.7193 122.767 60.1223 127.707 60.8843 128.068C61.6463 128.43 65.8383 129.84 66.6593 130.016C67.4793 130.191 69.2263 125.306 70.2753 125.429C71.9413 125.555 73.6133 125.574 75.2823 125.484C76.3283 125.384 77.9523 130.319 78.7843 130.152C79.6153 129.985 83.8163 128.678 84.5943 128.342C85.3743 128.005 83.9103 123.022 84.8253 122.5C86.2503 121.632 87.6166 120.671 88.9153 119.623C89.6963 118.933 93.9213 121.968 94.4923 121.343C95.0623 120.717 97.6853 117.193 98.1243 116.455C98.5643 115.718 94.4443 112.539 94.8813 111.598V111.599ZM66.9483 111.877C61.2613 108.501 59.3873 101.155 62.7613 95.4682C66.1363 89.7812 73.4813 87.9062 79.1703 91.2802C84.8573 94.6542 86.7333 102 83.3603 107.687C82.5593 109.042 81.499 110.225 80.2401 111.168C78.9811 112.112 77.5483 112.799 76.0238 113.188C74.4992 113.577 72.9128 113.662 71.3555 113.437C69.7981 113.212 68.3005 112.682 66.9483 111.877Z" fill="#00B812" fill-opacity="0.5"/>
</svg>
