<svg width="80" height="80" fill="none" xmlns="http://www.w3.org/2000/svg">
  <path fill-rule="evenodd" clip-rule="evenodd" d="M61.56 15.44a1.5 1.5 0 0 0-2.12 0l-.794.792 2.122 2.122.793-.793a1.5 1.5 0 0 0 0-2.122Zm-2.207 4.328-2.12-2.122L46 28.88v2.156h2.086l11.267-11.267Zm-1.328-5.743a3.5 3.5 0 0 1 4.95 4.95L49.207 32.743a1 1 0 0 1-.707.292H45a1 1 0 0 1-1-1v-3.57a1 1 0 0 1 .293-.708l13.732-13.732Z" fill="#00B812" />
  <path d="M32 31a1 1 0 0 1 1-1h4a1 1 0 1 1 0 2h-4a1 1 0 0 1-1-1Z" fill="#A0A0B0" />
  <path d="M42 22H30a5 5 0 0 0-5 5v26a5 5 0 0 0 5 5h20a5 5 0 0 0 5-5V35h-2v18a3 3 0 0 1-3 3H30a3 3 0 0 1-3-3V27a3 3 0 0 1 3-3h12v-2Z" fill="#A0A0B0" />
</svg>