<svg width="160" height="160" viewBox="0 0 160 160" fill="none" xmlns="http://www.w3.org/2000/svg">
<path d="M78.59 36.821L37.677 107.691C37.5736 107.87 37.5193 108.073 37.5193 108.28C37.5193 108.487 37.5737 108.69 37.6771 108.869C37.7804 109.048 37.929 109.197 38.108 109.301C38.2871 109.404 38.4902 109.459 38.697 109.459H120.527C120.734 109.459 120.937 109.405 121.116 109.301C121.295 109.198 121.444 109.049 121.547 108.87C121.65 108.691 121.705 108.488 121.705 108.281C121.705 108.074 121.65 107.871 121.547 107.692L80.632 36.822C80.5292 36.6418 80.3805 36.492 80.2011 36.3878C80.0217 36.2836 79.8179 36.2287 79.6105 36.2287C79.403 36.2287 79.1992 36.2836 79.0198 36.3878C78.8404 36.492 78.6917 36.6418 78.589 36.822L78.59 36.821Z" fill="#FF3B30" stroke="#D57A70" stroke-width="0.543"/>
<path d="M79.6138 98.929C81.4563 98.929 82.9498 97.4354 82.9498 95.593C82.9498 93.7506 81.4563 92.257 79.6138 92.257C77.7714 92.257 76.2778 93.7506 76.2778 95.593C76.2778 97.4354 77.7714 98.929 79.6138 98.929Z" fill="white" stroke="#D57A70" stroke-width="0.543"/>
<path fill-rule="evenodd" clip-rule="evenodd" d="M79.614 88.194C80.2678 88.1937 80.8948 87.9338 81.3571 87.4714C81.8193 87.0089 82.079 86.3818 82.079 85.728V61.372C82.0567 60.7327 81.7871 60.1271 81.3269 59.6827C80.8668 59.2384 80.2522 58.99 79.6125 58.99C78.9728 58.99 78.3582 59.2384 77.898 59.6827C77.4379 60.1271 77.1683 60.7327 77.146 61.372V85.728C77.146 86.052 77.2098 86.3728 77.3339 86.6721C77.4579 86.9715 77.6398 87.2434 77.869 87.4724C78.0982 87.7014 78.3703 87.883 78.6697 88.0068C78.9691 88.1307 79.29 88.1943 79.614 88.194Z" fill="white" stroke="#D57A70" stroke-width="0.543"/>
</svg>
