<svg width="360" height="280" viewBox="0 0 360 280" fill="none" xmlns="http://www.w3.org/2000/svg">
<path d="M227.148 212.903H238.316C239.14 212.903 239.809 213.571 239.809 214.396V219.811C239.809 220.635 239.14 221.303 238.316 221.303H227.148V212.903Z" fill="#BEBDC0"/>
<path d="M306.086 239.19C312.185 239.19 317.129 234.245 317.129 228.146C317.129 222.047 312.185 217.103 306.086 217.103H243.48" stroke="#D8D9DA" stroke-width="4.731" stroke-linecap="round"/>
<path d="M306.086 239.19H298.896C290.489 239.19 283.673 232.373 283.673 223.966V165.64" stroke="#D8D9DA" stroke-width="4.731"/>
<path d="M276.198 134.781H291.146V162.783H276.198V134.781Z" fill="#BEBDC0"/>
<path d="M278.796 155.888H288.551V184.421H278.796V155.888Z" fill="#D8D9DA"/>
<path d="M275.019 148.351H292.327V174.046H275.019V148.351Z" fill="#D8D9DA"/>
<path d="M238.447 213.837H243.477V220.372H238.447V213.837Z" fill="#BEBDC0"/>
<path d="M54.5 108C54.5 106.067 56.067 104.5 58 104.5H218C219.933 104.5 221.5 106.067 221.5 108V211.5H54.5V108Z" fill="white" stroke="#BEBDC0"/>
<path d="M217 108.5H59C58.7239 108.5 58.5 108.724 58.5 109V207C58.5 207.276 58.7239 207.5 59 207.5H217C217.276 207.5 217.5 207.276 217.5 207V109C217.5 108.724 217.276 108.5 217 108.5Z" fill="#00B812" stroke="#7A7F80"/>
<path fill-rule="evenodd" clip-rule="evenodd" d="M126.536 156.673C127.244 155.973 128.384 155.973 129.092 156.673L134.348 161.873L146.828 149.523C147.169 149.188 147.628 149 148.106 149C148.585 149 149.044 149.188 149.384 149.523C149.551 149.688 149.683 149.884 149.773 150.101C149.863 150.317 149.909 150.549 149.909 150.783C149.909 151.017 149.863 151.249 149.773 151.465C149.683 151.682 149.551 151.878 149.384 152.043L134.345 166.941L126.536 159.216C126.367 159.051 126.232 158.853 126.14 158.635C126.047 158.416 126 158.182 126 157.944C126 157.707 126.047 157.473 126.14 157.254C126.232 157.036 126.367 156.838 126.536 156.673Z" fill="white"/>
<path d="M226 211.5H50C48.067 211.5 46.5 213.067 46.5 215V218C46.5 219.933 48.067 221.5 50 221.5H226C227.933 221.5 229.5 219.933 229.5 218V215C229.5 213.067 227.933 211.5 226 211.5Z" fill="white" stroke="#BEBDC0"/>
<g filter="url(#filter0_d)">
<path d="M293.202 18.1375C293.202 17.5093 293.699 17 294.312 17H303.977C304.59 17 305.087 17.5093 305.087 18.1375V18.7397H293.202V18.1375Z" fill="#00B812"/>
<path d="M255 23.9594C255 20.5965 257.661 17.8704 260.943 17.8704H306.785C310.067 17.8704 312.727 20.5965 312.727 23.9594V135.302C312.727 138.665 310.067 141.391 306.785 141.391H260.943C257.661 141.391 255 138.665 255 135.302V23.9594Z" fill="#F4F4F4"/>
<path d="M261.661 27.2519C261.661 27.0128 261.661 26.8932 261.707 26.8019C261.748 26.7215 261.814 26.6562 261.894 26.6153C261.985 26.5687 262.105 26.5687 262.344 26.5687H305.383C305.622 26.5687 305.742 26.5687 305.833 26.6153C305.914 26.6562 305.979 26.7215 306.02 26.8019C306.066 26.8932 306.066 27.0128 306.066 27.2519V70.2912C306.066 70.5303 306.066 70.6499 306.02 70.7412C305.979 70.8215 305.914 70.8869 305.833 70.9278C305.742 70.9743 305.622 70.9743 305.383 70.9743H262.344C262.105 70.9743 261.985 70.9743 261.894 70.9278C261.814 70.8869 261.748 70.8215 261.707 70.7412C261.661 70.6499 261.661 70.5303 261.661 70.2912V27.2519Z" fill="#2F2F2F"/>
<path fill-rule="evenodd" clip-rule="evenodd" d="M283.929 89.5668C283.886 89.5376 283.831 89.5376 283.788 89.5668L281.429 91.1779C281.332 91.2445 281.2 91.2175 281.135 91.1176C281.07 91.0176 281.096 90.8826 281.194 90.816L283.552 89.2049C283.738 89.0783 283.979 89.0783 284.165 89.2049L286.523 90.816C286.62 90.8826 286.647 91.0176 286.582 91.1176C286.517 91.2175 286.385 91.2445 286.287 91.1779L283.929 89.5668ZM266.149 106.474C266.246 106.54 266.272 106.675 266.207 106.775L264.635 109.192C264.607 109.236 264.607 109.293 264.635 109.336L266.207 111.753C266.272 111.853 266.246 111.988 266.149 112.055C266.051 112.121 265.919 112.094 265.854 111.994L264.282 109.578C264.158 109.388 264.158 109.14 264.282 108.95L265.854 106.534C265.919 106.434 266.051 106.407 266.149 106.474ZM301.568 106.474C301.666 106.407 301.798 106.434 301.863 106.534L303.435 108.95C303.558 109.14 303.558 109.388 303.435 109.578L301.863 111.994C301.798 112.094 301.666 112.121 301.568 112.055C301.471 111.988 301.444 111.853 301.509 111.753L303.082 109.336C303.11 109.293 303.11 109.236 303.082 109.192L301.509 106.775C301.444 106.675 301.471 106.54 301.568 106.474ZM281.135 127.411C281.2 127.311 281.332 127.284 281.429 127.35L283.788 128.961C283.831 128.991 283.886 128.991 283.929 128.961L286.287 127.35C286.385 127.284 286.517 127.311 286.582 127.411C286.647 127.511 286.62 127.646 286.523 127.712L284.165 129.323C283.979 129.45 283.738 129.45 283.552 129.323L281.194 127.712C281.096 127.646 281.07 127.511 281.135 127.411Z" fill="#3C3C43" fill-opacity="0.2"/>
<path d="M293.202 18.1375C293.202 17.5093 293.699 17 294.312 17H303.977C304.59 17 305.087 17.5093 305.087 18.1375V18.7397H293.202V18.1375Z" fill="#00B812"/>
<path d="M255 23.9594C255 20.5965 257.661 17.8704 260.943 17.8704H306.785C310.067 17.8704 312.727 20.5965 312.727 23.9594V135.302C312.727 138.665 310.067 141.391 306.785 141.391H260.943C257.661 141.391 255 138.665 255 135.302V23.9594Z" fill="#F4F4F4"/>
<path d="M260 24.1291C260 23.8706 260 23.7414 260.05 23.6426C260.095 23.5558 260.165 23.4852 260.252 23.4409C260.351 23.3906 260.48 23.3906 260.738 23.3906H307.262C307.52 23.3906 307.649 23.3906 307.748 23.4409C307.835 23.4852 307.905 23.5558 307.95 23.6426C308 23.7414 308 23.8706 308 24.1291V70.6522C308 70.9106 308 71.0399 307.95 71.1386C307.905 71.2255 307.835 71.2961 307.748 71.3403C307.649 71.3906 307.52 71.3906 307.262 71.3906H260.738C260.48 71.3906 260.351 71.3906 260.252 71.3403C260.165 71.2961 260.095 71.2255 260.05 71.1386C260 71.0399 260 70.9106 260 70.6522V24.1291Z" fill="#2F2F2F"/>
<path fill-rule="evenodd" clip-rule="evenodd" d="M283.765 89.9308C283.992 89.9308 284.176 89.747 284.176 89.5203C284.176 89.2936 283.992 89.1099 283.765 89.1099C283.539 89.1099 283.355 89.2936 283.355 89.5203C283.355 89.747 283.539 89.9308 283.765 89.9308ZM285.07 91.2231C285.297 91.2231 285.481 91.0393 285.481 90.8126C285.481 90.5859 285.297 90.4022 285.07 90.4022C284.844 90.4022 284.66 90.5859 284.66 90.8126C284.66 91.0393 284.844 91.2231 285.07 91.2231ZM286.786 92.1047C286.786 92.3314 286.602 92.5152 286.375 92.5152C286.149 92.5152 285.965 92.3314 285.965 92.1047C285.965 91.878 286.149 91.6942 286.375 91.6942C286.602 91.6942 286.786 91.878 286.786 92.1047ZM282.473 91.2231C282.7 91.2231 282.884 91.0393 282.884 90.8126C282.884 90.5859 282.7 90.4022 282.473 90.4022C282.246 90.4022 282.063 90.5859 282.063 90.8126C282.063 91.0393 282.246 91.2231 282.473 91.2231ZM281.591 92.1047C281.591 92.3314 281.408 92.5152 281.181 92.5152C280.954 92.5152 280.77 92.3314 280.77 92.1047C280.77 91.878 280.954 91.6942 281.181 91.6942C281.408 91.6942 281.591 91.878 281.591 92.1047ZM283.791 129.351C283.564 129.351 283.38 129.535 283.38 129.762C283.38 129.989 283.564 130.173 283.791 130.173C284.017 130.173 284.201 129.989 284.201 129.762C284.201 129.535 284.017 129.351 283.791 129.351ZM282.486 128.059C282.259 128.059 282.075 128.243 282.075 128.47C282.075 128.697 282.259 128.88 282.486 128.88C282.712 128.88 282.896 128.697 282.896 128.47C282.896 128.243 282.712 128.059 282.486 128.059ZM280.77 127.178C280.77 126.951 280.954 126.767 281.181 126.767C281.407 126.767 281.591 126.951 281.591 127.178C281.591 127.404 281.407 127.588 281.181 127.588C280.954 127.588 280.77 127.404 280.77 127.178ZM285.083 128.059C284.856 128.059 284.673 128.243 284.673 128.47C284.673 128.697 284.856 128.88 285.083 128.88C285.31 128.88 285.494 128.697 285.494 128.47C285.494 128.243 285.31 128.059 285.083 128.059ZM285.965 127.177C285.965 126.951 286.149 126.767 286.375 126.767C286.602 126.767 286.786 126.951 286.786 127.177C286.786 127.404 286.602 127.588 286.375 127.588C286.149 127.588 285.965 127.404 285.965 127.177ZM266.507 109.244C266.733 109.244 266.917 109.427 266.917 109.654C266.917 109.881 266.733 110.065 266.507 110.065C266.28 110.065 266.096 109.881 266.096 109.654C266.096 109.427 266.28 109.244 266.507 109.244ZM267.799 107.939C268.026 107.939 268.209 108.122 268.209 108.349C268.209 108.576 268.026 108.76 267.799 108.76C267.572 108.76 267.389 108.576 267.389 108.349C267.389 108.122 267.572 107.939 267.799 107.939ZM269.502 107.044C269.502 106.817 269.318 106.634 269.091 106.634C268.865 106.634 268.681 106.817 268.681 107.044C268.681 107.271 268.865 107.455 269.091 107.455C269.318 107.455 269.502 107.271 269.502 107.044ZM267.799 110.536C268.026 110.536 268.209 110.719 268.209 110.946C268.209 111.173 268.026 111.357 267.799 111.357C267.572 111.357 267.389 111.173 267.389 110.946C267.389 110.719 267.572 110.536 267.799 110.536ZM269.502 112.238C269.502 112.012 269.318 111.828 269.091 111.828C268.865 111.828 268.681 112.012 268.681 112.238C268.681 112.465 268.865 112.649 269.091 112.649C269.318 112.649 269.502 112.465 269.502 112.238ZM300.8 109.628C300.8 109.855 300.984 110.039 301.21 110.039C301.437 110.039 301.621 109.855 301.621 109.628C301.621 109.402 301.437 109.218 301.21 109.218C300.984 109.218 300.8 109.402 300.8 109.628ZM299.507 110.933C299.507 111.16 299.691 111.344 299.918 111.344C300.144 111.344 300.328 111.16 300.328 110.933C300.328 110.707 300.144 110.523 299.918 110.523C299.691 110.523 299.507 110.707 299.507 110.933ZM298.625 112.649C298.399 112.649 298.215 112.465 298.215 112.238C298.215 112.012 298.399 111.828 298.625 111.828C298.852 111.828 299.036 112.012 299.036 112.238C299.036 112.465 298.852 112.649 298.625 112.649ZM299.507 108.336C299.507 108.563 299.691 108.746 299.918 108.746C300.144 108.746 300.328 108.563 300.328 108.336C300.328 108.109 300.144 107.926 299.918 107.926C299.691 107.926 299.507 108.109 299.507 108.336ZM298.625 107.454C298.399 107.454 298.215 107.271 298.215 107.044C298.215 106.817 298.399 106.633 298.625 106.633C298.852 106.633 299.036 106.817 299.036 107.044C299.036 107.271 298.852 107.454 298.625 107.454Z" fill="#DDDDDD"/>
</g>
<path d="M292.352 47C292.352 52.5228 289.875 55 284.352 55C278.829 55 276.352 52.5228 276.352 47C276.352 41.4772 278.829 39 284.352 39C289.875 39 292.352 41.4772 292.352 47Z" fill="#00B812"/>
<path d="M285.075 42.3922H282.849L282.459 43.5728H283.695V46.0597H285.075V42.3922Z" fill="white"/>
<path fill-rule="evenodd" clip-rule="evenodd" d="M286.89 49.0695C286.89 50.4713 285.754 51.6076 284.352 51.6076C282.95 51.6076 281.814 50.4713 281.814 49.0695C281.814 47.6677 282.95 46.5314 284.352 46.5314C285.754 46.5314 286.89 47.6677 286.89 49.0695ZM285.738 49.0695C285.738 49.8349 285.118 50.4553 284.352 50.4553C283.587 50.4553 282.966 49.8349 282.966 49.0695C282.966 48.3041 283.587 47.6836 284.352 47.6836C285.118 47.6836 285.738 48.3041 285.738 49.0695Z" fill="white"/>
<defs>
<filter id="filter0_d" x="245" y="8" width="77.7273" height="144.391" filterUnits="userSpaceOnUse" color-interpolation-filters="sRGB">
<feFlood flood-opacity="0" result="BackgroundImageFix"/>
<feColorMatrix in="SourceAlpha" type="matrix" values="0 0 0 0 0 0 0 0 0 0 0 0 0 0 0 0 0 0 127 0" result="hardAlpha"/>
<feOffset dy="1"/>
<feGaussianBlur stdDeviation="5"/>
<feComposite in2="hardAlpha" operator="out"/>
<feColorMatrix type="matrix" values="0 0 0 0 0 0 0 0 0 0 0 0 0 0 0 0 0 0 0.15 0"/>
<feBlend mode="normal" in2="BackgroundImageFix" result="effect1_dropShadow"/>
<feBlend mode="normal" in="SourceGraphic" in2="effect1_dropShadow" result="shape"/>
</filter>
</defs>
</svg>
