<svg width="360" height="280" viewBox="0 0 360 280" fill="none" xmlns="http://www.w3.org/2000/svg">
<path d="M170.855 45.6664H300.422V220.174H170.855V45.6664Z" fill="white"/>
<path d="M299.845 46.2447V219.6H171.431V46.2447H299.843H299.845ZM300.998 45.0878H170.275V220.758H301V45.0878H300.998Z" fill="#A3A4A9"/>
<path d="M171.433 46.2452H299.845V56.4953H171.433V46.2452Z" fill="#D8D9DA"/>
<path d="M214.414 46.2472L250.459 219.596H183.383V46.2472H214.414Z" fill="#D8D9DA" fill-opacity="0.15"/>
<path d="M297.934 47.9357V217.438H173.375V47.9357H297.934ZM299.858 46.0089H171.45V219.365H299.862V46.0089H299.858Z" fill="white"/>
<path d="M59.6821 65.1543L187.13 38.6923L223.8 215.296L96.3502 241.76L59.6821 65.1543Z" fill="white"/>
<path d="M142.666 156.559C148.725 155.382 153 153.142 155.429 149.542C157.857 145.941 158.332 141.138 157.154 135.079C155.977 129.021 153.737 124.745 150.137 122.317C146.536 119.888 141.733 119.413 135.674 120.591C129.616 121.769 125.34 124.008 122.912 127.609C120.483 131.209 120.008 136.012 121.186 142.071C122.364 148.13 124.603 152.405 128.204 154.834C131.804 157.262 136.607 157.737 142.666 156.559Z" fill="#999999" stroke="#E7E7E7" stroke-width="1.39145"/>
<path d="M138.796 128.306L133.983 129.242L133.635 131.959L136.309 131.44L137.354 136.818L140.338 136.238L138.796 128.306Z" fill="#E7E7E7"/>
<path fill-rule="evenodd" clip-rule="evenodd" d="M145.529 141.984C146.119 145.016 144.139 147.951 141.107 148.54C138.076 149.129 135.14 147.15 134.551 144.118C133.962 141.086 135.942 138.151 138.973 137.562C142.005 136.973 144.94 138.952 145.529 141.984ZM143.037 142.468C143.359 144.124 142.278 145.726 140.623 146.048C138.968 146.37 137.365 145.289 137.043 143.634C136.721 141.978 137.802 140.376 139.458 140.054C141.113 139.732 142.716 140.813 143.037 142.468Z" fill="#E7E7E7"/>
<path d="M186.68 39.3684L223.125 214.84L96.8118 241.073L60.3666 65.6036L186.678 39.3684H186.68ZM187.574 38L186.444 38.2344L60.1321 64.4639L59 64.7039L59.2344 65.838L95.6796 241.31L95.914 242.441L97.0462 242.205L223.36 215.97L224.492 215.736L224.258 214.604L187.812 39.1341L187.576 38H187.574Z" fill="#A3A4A9"/>
<path d="M295.023 159.33C294.938 159.33 294.853 159.348 294.774 159.38C294.697 159.412 294.624 159.46 294.565 159.521C294.504 159.58 294.457 159.653 294.424 159.73C294.392 159.809 294.374 159.894 294.374 159.979V169.731C286.153 184.972 269.764 186.342 267.494 186.457L256.65 175.612C256.528 175.49 256.363 175.422 256.191 175.422C256.018 175.422 255.854 175.49 255.732 175.612C255.61 175.734 255.541 175.898 255.541 176.071C255.541 176.243 255.61 176.408 255.732 176.53L266.6 187.397C267.545 201.822 253.768 212.981 252.127 214.253H240.099C239.927 214.253 239.762 214.322 239.64 214.444C239.518 214.565 239.45 214.73 239.45 214.902V214.903C239.45 215.075 239.518 215.241 239.64 215.362C239.762 215.484 239.927 215.552 240.099 215.552H295.023C295.108 215.552 295.193 215.535 295.272 215.502C295.35 215.47 295.422 215.422 295.481 215.362C295.542 215.302 295.59 215.23 295.622 215.152C295.654 215.073 295.672 214.989 295.672 214.903V159.979C295.672 159.894 295.654 159.809 295.622 159.73C295.59 159.653 295.542 159.58 295.481 159.521C295.422 159.46 295.35 159.412 295.272 159.38C295.193 159.348 295.108 159.33 295.023 159.33ZM285.956 206.754C286.916 209.778 283.606 213.425 282.799 214.254H267.665C271.189 212.092 277.527 207.041 277.787 198.585L285.956 206.754ZM284.551 214.254C285.663 212.935 287.28 210.625 287.418 208.216L292.349 213.146C292.44 213.237 292.503 213.353 292.528 213.478C292.553 213.605 292.54 213.735 292.491 213.853C292.442 213.972 292.359 214.074 292.252 214.145C292.145 214.217 292.02 214.254 291.891 214.254H284.55H284.551ZM293.266 212.228L287.727 206.691C289.366 206.056 292.576 204.507 294.373 201.6V211.77C294.373 211.899 294.335 212.023 294.264 212.13C294.193 212.237 294.091 212.319 293.973 212.369C293.854 212.418 293.723 212.431 293.598 212.406C293.473 212.381 293.357 212.319 293.266 212.228ZM286.716 205.679L278.391 197.354C281.504 196.511 290.046 193.581 294.373 185.93V196.996C294.373 202.75 288.254 205.164 286.716 205.679ZM294.373 172.295V182.895C290.616 192.651 279.388 195.785 277.321 196.284L268.699 187.662C273.106 187.213 286.477 184.822 294.373 172.295ZM267.942 188.74L276.474 197.272C276.976 208.4 266.154 213.703 264.957 214.253H254.189C258.024 211.003 268 201.322 267.942 188.74Z" fill="#A3A4A9"/>
</svg>
