<svg width="22" height="42" viewBox="0 0 22 42" fill="none" xmlns="http://www.w3.org/2000/svg">
<g clip-path="url(#clip0)">
<g filter="url(#filter0_d)">
<path d="M13.9116 2.1999C13.9116 2.00401 14.0666 1.84521 14.2578 1.84521H17.2713C17.4625 1.84521 17.6175 2.00401 17.6175 2.1999V2.38768H13.9116V2.1999Z" fill="#00B812"/>
<path d="M2 4.01521C2 2.96662 2.82959 2.11658 3.85294 2.11658H18.1471C19.1704 2.11658 20 2.96662 20 4.01521V38.733C20 39.7816 19.1704 40.6316 18.1471 40.6316H3.85294C2.82959 40.6316 2 39.7816 2 38.733V4.01521Z" fill="#F4F4F4"/>
<path d="M4.07666 5.04175C4.07666 4.96719 4.07666 4.92991 4.09117 4.90143C4.10394 4.87638 4.1243 4.85601 4.14935 4.84325C4.17783 4.82874 4.21511 4.82874 4.28968 4.82874H17.7098C17.7844 4.82874 17.8216 4.82874 17.8501 4.84325C17.8752 4.85601 17.8955 4.87638 17.9083 4.90143C17.9228 4.92991 17.9228 4.96719 17.9228 5.04175V18.4619C17.9228 18.5364 17.9228 18.5737 17.9083 18.6022C17.8955 18.6272 17.8752 18.6476 17.8501 18.6604C17.8216 18.6749 17.7844 18.6749 17.7098 18.6749H4.28968C4.21511 18.6749 4.17783 18.6749 4.14935 18.6604C4.1243 18.6476 4.10394 18.6272 4.09117 18.6022C4.07666 18.5737 4.07666 18.5364 4.07666 18.4619V5.04175Z" fill="#2F2F2F"/>
<path fill-rule="evenodd" clip-rule="evenodd" d="M11.0203 24.4724C11.007 24.4633 10.9896 24.4633 10.9762 24.4724L10.2409 24.9748C10.2105 24.9955 10.1694 24.9871 10.1491 24.9559C10.1288 24.9248 10.137 24.8827 10.1674 24.8619L10.9028 24.3596C10.9606 24.3201 11.0359 24.3201 11.0937 24.3596L11.8291 24.8619C11.8595 24.8827 11.8677 24.9248 11.8475 24.9559C11.8272 24.9871 11.7861 24.9955 11.7557 24.9748L11.0203 24.4724ZM5.47616 29.7441C5.50657 29.7649 5.51479 29.807 5.49451 29.8381L5.00426 30.5917C4.99536 30.6053 4.99536 30.6231 5.00426 30.6368L5.49451 31.3903C5.51479 31.4215 5.50657 31.4636 5.47616 31.4843C5.44575 31.5051 5.40466 31.4967 5.38439 31.4655L4.89413 30.712C4.8556 30.6528 4.8556 30.5756 4.89413 30.5164L5.38439 29.7629C5.40466 29.7318 5.44575 29.7233 5.47616 29.7441ZM16.5204 29.7441C16.5508 29.7233 16.5919 29.7318 16.6122 29.7629L17.1024 30.5164C17.1409 30.5756 17.1409 30.6528 17.1024 30.712L16.6122 31.4655C16.5919 31.4967 16.5508 31.5051 16.5204 31.4843C16.49 31.4636 16.4818 31.4215 16.502 31.3903L16.9923 30.6368C17.0012 30.6231 17.0012 30.6053 16.9923 30.5917L16.502 29.8381C16.4818 29.807 16.49 29.7649 16.5204 29.7441ZM10.1491 36.2725C10.1694 36.2413 10.2105 36.2329 10.2409 36.2537L10.9762 36.756C10.9896 36.7652 11.007 36.7652 11.0203 36.756L11.7557 36.2537C11.7861 36.2329 11.8272 36.2413 11.8475 36.2725C11.8677 36.3037 11.8595 36.3458 11.8291 36.3665L11.0937 36.8689C11.0359 36.9084 10.9606 36.9084 10.9028 36.8689L10.1674 36.3665C10.137 36.3458 10.1288 36.3037 10.1491 36.2725Z" fill="#3C3C43" fill-opacity="0.2"/>
<path d="M13.9116 2.1999C13.9116 2.00401 14.0666 1.84521 14.2578 1.84521H17.2713C17.4625 1.84521 17.6175 2.00401 17.6175 2.1999V2.38768H13.9116V2.1999Z" fill="#00B812"/>
<path d="M2 4.01521C2 2.96662 2.82959 2.11658 3.85294 2.11658H18.1471C19.1704 2.11658 20 2.96662 20 4.01521V38.733C20 39.7816 19.1704 40.6316 18.1471 40.6316H3.85294C2.82959 40.6316 2 39.7816 2 38.733V4.01521Z" fill="#F4F4F4"/>
<path d="M3.55908 4.06815C3.55908 3.98755 3.55908 3.94725 3.57477 3.91647C3.58856 3.88939 3.61058 3.86737 3.63766 3.85358C3.66844 3.83789 3.70874 3.83789 3.78934 3.83789H18.2958C18.3763 3.83789 18.4166 3.83789 18.4474 3.85358C18.4745 3.86737 18.4965 3.88939 18.5103 3.91647C18.526 3.94725 18.526 3.98755 18.526 4.06815V18.5746C18.526 18.6552 18.526 18.6955 18.5103 18.7262C18.4965 18.7533 18.4745 18.7753 18.4474 18.7891C18.4166 18.8048 18.3763 18.8048 18.2958 18.8048H3.78934C3.70874 18.8048 3.66844 18.8048 3.63766 18.7891C3.61058 18.7753 3.58856 18.7533 3.57477 18.7262C3.55908 18.6955 3.55908 18.6552 3.55908 18.5746V4.06815Z" fill="#2F2F2F"/>
<path fill-rule="evenodd" clip-rule="evenodd" d="M10.9697 24.5856C11.0404 24.5856 11.0977 24.5283 11.0977 24.4576C11.0977 24.3869 11.0404 24.3296 10.9697 24.3296C10.899 24.3296 10.8417 24.3869 10.8417 24.4576C10.8417 24.5283 10.899 24.5856 10.9697 24.5856ZM11.3766 24.9884C11.4473 24.9884 11.5046 24.9311 11.5046 24.8605C11.5046 24.7898 11.4473 24.7325 11.3766 24.7325C11.3059 24.7325 11.2486 24.7898 11.2486 24.8605C11.2486 24.9311 11.3059 24.9884 11.3766 24.9884ZM11.9115 25.2633C11.9115 25.334 11.8542 25.3913 11.7835 25.3913C11.7128 25.3913 11.6555 25.334 11.6555 25.2633C11.6555 25.1926 11.7128 25.1353 11.7835 25.1353C11.8542 25.1353 11.9115 25.1926 11.9115 25.2633ZM10.567 24.9884C10.6377 24.9884 10.695 24.9311 10.695 24.8605C10.695 24.7898 10.6377 24.7325 10.567 24.7325C10.4963 24.7325 10.439 24.7898 10.439 24.8605C10.439 24.9311 10.4963 24.9884 10.567 24.9884ZM10.2917 25.2633C10.2917 25.334 10.2344 25.3913 10.1637 25.3913C10.093 25.3913 10.0357 25.334 10.0357 25.2633C10.0357 25.1926 10.093 25.1353 10.1637 25.1353C10.2344 25.1353 10.2917 25.1926 10.2917 25.2633ZM10.9766 36.8774C10.9059 36.8774 10.8486 36.9347 10.8486 37.0054C10.8486 37.0761 10.9059 37.1335 10.9766 37.1335C11.0473 37.1335 11.1046 37.0761 11.1046 37.0054C11.1046 36.9347 11.0473 36.8774 10.9766 36.8774ZM10.5697 36.4746C10.499 36.4746 10.4417 36.5319 10.4417 36.6026C10.4417 36.6733 10.499 36.7306 10.5697 36.7306C10.6404 36.7306 10.6977 36.6733 10.6977 36.6026C10.6977 36.5319 10.6404 36.4746 10.5697 36.4746ZM10.0348 36.1997C10.0348 36.129 10.0921 36.0717 10.1628 36.0717C10.2335 36.0717 10.2908 36.129 10.2908 36.1997C10.2908 36.2704 10.2335 36.3277 10.1628 36.3277C10.0921 36.3277 10.0348 36.2704 10.0348 36.1997ZM11.3793 36.4746C11.3086 36.4746 11.2513 36.5319 11.2513 36.6026C11.2513 36.6733 11.3086 36.7306 11.3793 36.7306C11.45 36.7306 11.5073 36.6733 11.5073 36.6026C11.5073 36.5319 11.45 36.4746 11.3793 36.4746ZM11.6546 36.1995C11.6546 36.1288 11.7119 36.0715 11.7826 36.0715C11.8533 36.0715 11.9106 36.1288 11.9106 36.1995C11.9106 36.2702 11.8533 36.3275 11.7826 36.3275C11.7119 36.3275 11.6546 36.2702 11.6546 36.1995ZM5.58795 30.6075C5.65864 30.6075 5.71594 30.6648 5.71594 30.7355C5.71594 30.8062 5.65864 30.8635 5.58795 30.8635C5.51726 30.8635 5.45996 30.8062 5.45996 30.7355C5.45996 30.6648 5.51726 30.6075 5.58795 30.6075ZM5.99122 30.2006C6.0619 30.2006 6.11921 30.2579 6.11921 30.3285C6.11921 30.3992 6.0619 30.4565 5.99122 30.4565C5.92053 30.4565 5.86322 30.3992 5.86322 30.3285C5.86322 30.2579 5.92053 30.2006 5.99122 30.2006ZM6.52247 29.9216C6.52247 29.851 6.46516 29.7937 6.39448 29.7937C6.32379 29.7937 6.26649 29.851 6.26649 29.9216C6.26649 29.9923 6.32379 30.0496 6.39448 30.0496C6.46516 30.0496 6.52247 29.9923 6.52247 29.9216ZM5.99122 31.0104C6.0619 31.0104 6.11921 31.0677 6.11921 31.1384C6.11921 31.2091 6.0619 31.2664 5.99122 31.2664C5.92053 31.2664 5.86322 31.2091 5.86322 31.1384C5.86322 31.0677 5.92053 31.0104 5.99122 31.0104ZM6.52247 31.5413C6.52247 31.4706 6.46516 31.4133 6.39448 31.4133C6.32379 31.4133 6.26649 31.4706 6.26649 31.5413C6.26649 31.612 6.32379 31.6693 6.39448 31.6693C6.46516 31.6693 6.52247 31.612 6.52247 31.5413ZM16.2809 30.7277C16.2809 30.7984 16.3382 30.8557 16.4089 30.8557C16.4796 30.8557 16.5369 30.7984 16.5369 30.7277C16.5369 30.657 16.4796 30.5997 16.4089 30.5997C16.3382 30.5997 16.2809 30.657 16.2809 30.7277ZM15.8777 31.1345C15.8777 31.2051 15.935 31.2624 16.0057 31.2624C16.0763 31.2624 16.1336 31.2051 16.1336 31.1345C16.1336 31.0638 16.0763 31.0065 16.0057 31.0065C15.935 31.0065 15.8777 31.0638 15.8777 31.1345ZM15.6029 31.6695C15.5322 31.6695 15.4749 31.6122 15.4749 31.5415C15.4749 31.4708 15.5322 31.4135 15.6029 31.4135C15.6736 31.4135 15.7309 31.4708 15.7309 31.5415C15.7309 31.6122 15.6736 31.6695 15.6029 31.6695ZM15.8777 30.3248C15.8777 30.3955 15.935 30.4528 16.0057 30.4528C16.0763 30.4528 16.1336 30.3955 16.1336 30.3248C16.1336 30.2541 16.0763 30.1968 16.0057 30.1968C15.935 30.1968 15.8777 30.2541 15.8777 30.3248ZM15.6029 30.0497C15.5322 30.0497 15.4749 29.9924 15.4749 29.9217C15.4749 29.851 15.5322 29.7937 15.6029 29.7937C15.6736 29.7937 15.7309 29.851 15.7309 29.9217C15.7309 29.9924 15.6736 30.0497 15.6029 30.0497Z" fill="#DDDDDD"/>
</g>
<path d="M13.6462 11.1996C13.6462 12.9217 12.8738 13.6941 11.1517 13.6941C9.42963 13.6941 8.65723 12.9217 8.65723 11.1996C8.65723 9.47748 9.42963 8.70508 11.1517 8.70508C12.8738 8.70508 13.6462 9.47748 13.6462 11.1996Z" fill="#00B812"/>
<path d="M11.3776 9.7627H10.6837L10.5619 10.1308H10.9474V10.9063H11.3776V9.7627Z" fill="white"/>
<path fill-rule="evenodd" clip-rule="evenodd" d="M11.9437 11.8447C11.9437 12.2818 11.5894 12.6362 11.1523 12.6362C10.7152 12.6362 10.3608 12.2818 10.3608 11.8447C10.3608 11.4077 10.7152 11.0533 11.1523 11.0533C11.5894 11.0533 11.9437 11.4077 11.9437 11.8447ZM11.5844 11.8447C11.5844 12.0834 11.3909 12.2769 11.1523 12.2769C10.9136 12.2769 10.7201 12.0834 10.7201 11.8447C10.7201 11.6061 10.9136 11.4126 11.1523 11.4126C11.3909 11.4126 11.5844 11.6061 11.5844 11.8447Z" fill="white"/>
</g>
<defs>
<filter id="filter0_d" x="-1.11811" y="-0.961084" width="24.2362" height="45.0226" filterUnits="userSpaceOnUse" color-interpolation-filters="sRGB">
<feFlood flood-opacity="0" result="BackgroundImageFix"/>
<feColorMatrix in="SourceAlpha" type="matrix" values="0 0 0 0 0 0 0 0 0 0 0 0 0 0 0 0 0 0 127 0" result="hardAlpha"/>
<feOffset dy="0.311811"/>
<feGaussianBlur stdDeviation="1.55905"/>
<feComposite in2="hardAlpha" operator="out"/>
<feColorMatrix type="matrix" values="0 0 0 0 0 0 0 0 0 0 0 0 0 0 0 0 0 0 0.15 0"/>
<feBlend mode="normal" in2="BackgroundImageFix" result="effect1_dropShadow"/>
<feBlend mode="normal" in="SourceGraphic" in2="effect1_dropShadow" result="shape"/>
</filter>
<clipPath id="clip0">
<rect width="22" height="42" fill="white"/>
</clipPath>
</defs>
</svg>
