<svg width="229" height="206" viewBox="0 0 229 206" fill="none" xmlns="http://www.w3.org/2000/svg">
<g clip-path="url(#clip0)">
<path d="M182.531 81.916H162.147C161.042 81.916 160.147 82.8114 160.147 83.916V104.3C160.147 105.405 161.042 106.3 162.147 106.3H182.531C183.636 106.3 184.531 105.405 184.531 104.3V83.916C184.531 82.8114 183.636 81.916 182.531 81.916Z" fill="white" stroke="#00B812" stroke-opacity="0.5" stroke-width="1.44"/>
<path d="M213.419 81.916H193.035C191.93 81.916 191.035 82.8114 191.035 83.916V104.3C191.035 105.405 191.93 106.3 193.035 106.3H213.419C214.524 106.3 215.419 105.405 215.419 104.3V83.916C215.419 82.8114 214.524 81.916 213.419 81.916Z" fill="white" stroke="#00B812" stroke-opacity="0.5" stroke-width="1.44"/>
<path d="M151.639 81.916H131.255C130.15 81.916 129.255 82.8114 129.255 83.916V104.3C129.255 105.405 130.15 106.3 131.255 106.3H151.639C152.744 106.3 153.639 105.405 153.639 104.3V83.916C153.639 82.8114 152.744 81.916 151.639 81.916Z" fill="white" stroke="#00B812" stroke-opacity="0.5" stroke-width="1.44"/>
<path d="M182.531 112.876H162.147C161.042 112.876 160.147 113.771 160.147 114.876V135.26C160.147 136.365 161.042 137.26 162.147 137.26H182.531C183.636 137.26 184.531 136.365 184.531 135.26V114.876C184.531 113.771 183.636 112.876 182.531 112.876Z" fill="white" stroke="#00B812" stroke-opacity="0.5" stroke-width="1.44"/>
<path d="M213.419 112.876H193.035C191.93 112.876 191.035 113.771 191.035 114.876V135.26C191.035 136.365 191.93 137.26 193.035 137.26H213.419C214.524 137.26 215.419 136.365 215.419 135.26V114.876C215.419 113.771 214.524 112.876 213.419 112.876Z" fill="white" stroke="#00B812" stroke-opacity="0.5" stroke-width="1.44"/>
<path d="M151.639 112.876H131.255C130.15 112.876 129.255 113.771 129.255 114.876V135.26C129.255 136.365 130.15 137.26 131.255 137.26H151.639C152.744 137.26 153.639 136.365 153.639 135.26V114.876C153.639 113.771 152.744 112.876 151.639 112.876Z" fill="white" stroke="#00B812" stroke-opacity="0.5" stroke-width="1.44"/>
<path d="M182.531 50.9601H162.147C161.042 50.9601 160.147 51.8555 160.147 52.9601V73.3441C160.147 74.4487 161.042 75.3441 162.147 75.3441H182.531C183.636 75.3441 184.531 74.4487 184.531 73.3441V52.9601C184.531 51.8555 183.636 50.9601 182.531 50.9601Z" fill="white" stroke="#00B812" stroke-opacity="0.5" stroke-width="1.44"/>
<path d="M213.419 50.9601H193.035C191.93 50.9601 191.035 51.8555 191.035 52.9601V73.3441C191.035 74.4487 191.93 75.3441 193.035 75.3441H213.419C214.524 75.3441 215.419 74.4487 215.419 73.3441V52.9601C215.419 51.8555 214.524 50.9601 213.419 50.9601Z" fill="white" stroke="#00B812" stroke-opacity="0.5" stroke-width="1.44"/>
<path d="M151.639 50.9601H131.255C130.15 50.9601 129.255 51.8555 129.255 52.9601V73.3441C129.255 74.4487 130.15 75.3441 131.255 75.3441H151.639C152.744 75.3441 153.639 74.4487 153.639 73.3441V52.9601C153.639 51.8555 152.744 50.9601 151.639 50.9601Z" fill="#D8D9DA" stroke="#00B812" stroke-width="1.44"/>
<path d="M213.425 20H131.255C130.15 20 129.255 20.8954 129.255 22V42.384C129.255 43.4886 130.15 44.384 131.255 44.384H213.425C214.53 44.384 215.425 43.4886 215.425 42.384V22C215.425 20.8954 214.53 20 213.425 20Z" fill="white" stroke="#00B812" stroke-width="1.44"/>
<path d="M213.425 143.831H131.255C130.15 143.831 129.255 144.726 129.255 145.831V166.215C129.255 167.32 130.15 168.215 131.255 168.215H213.425C214.53 168.215 215.425 167.32 215.425 166.215V145.831C215.425 144.726 214.53 143.831 213.425 143.831Z" fill="#00B812"/>
<path d="M141.442 65.955C142.99 65.955 144.245 64.7001 144.245 63.152C144.245 61.6039 142.99 60.349 141.442 60.349C139.894 60.349 138.639 61.6039 138.639 63.152C138.639 64.7001 139.894 65.955 141.442 65.955Z" fill="#7A7F80"/>
<path d="M172.335 65.955C173.883 65.955 175.138 64.7001 175.138 63.152C175.138 61.6039 173.883 60.349 172.335 60.349C170.787 60.349 169.532 61.6039 169.532 63.152C169.532 64.7001 170.787 65.955 172.335 65.955Z" fill="#7A7F80"/>
<path d="M203.227 65.955C204.775 65.955 206.03 64.7001 206.03 63.152C206.03 61.6039 204.775 60.349 203.227 60.349C201.679 60.349 200.424 61.6039 200.424 63.152C200.424 64.7001 201.679 65.955 203.227 65.955Z" fill="#7A7F80"/>
<path d="M141.442 96.9111C142.99 96.9111 144.245 95.6562 144.245 94.1081C144.245 92.56 142.99 91.3051 141.442 91.3051C139.894 91.3051 138.639 92.56 138.639 94.1081C138.639 95.6562 139.894 96.9111 141.442 96.9111Z" fill="#7A7F80"/>
<path d="M172.335 96.9111C173.883 96.9111 175.138 95.6562 175.138 94.1081C175.138 92.56 173.883 91.3051 172.335 91.3051C170.787 91.3051 169.532 92.56 169.532 94.1081C169.532 95.6562 170.787 96.9111 172.335 96.9111Z" fill="#7A7F80"/>
<path d="M203.227 96.9111C204.775 96.9111 206.03 95.6562 206.03 94.1081C206.03 92.56 204.775 91.3051 203.227 91.3051C201.679 91.3051 200.424 92.56 200.424 94.1081C200.424 95.6562 201.679 96.9111 203.227 96.9111Z" fill="#7A7F80"/>
<path d="M141.442 127.866C142.99 127.866 144.245 126.611 144.245 125.063C144.245 123.515 142.99 122.26 141.442 122.26C139.894 122.26 138.639 123.515 138.639 125.063C138.639 126.611 139.894 127.866 141.442 127.866Z" fill="#7A7F80"/>
<path d="M172.335 127.866C173.883 127.866 175.138 126.611 175.138 125.063C175.138 123.515 173.883 122.26 172.335 122.26C170.787 122.26 169.532 123.515 169.532 125.063C169.532 126.611 170.787 127.866 172.335 127.866Z" fill="#7A7F80"/>
<path d="M203.227 127.866C204.775 127.866 206.03 126.611 206.03 125.063C206.03 123.515 204.775 122.26 203.227 122.26C201.679 122.26 200.424 123.515 200.424 125.063C200.424 126.611 201.679 127.866 203.227 127.866Z" fill="#7A7F80"/>
<path d="M141.442 84.5941C153.284 84.5941 162.884 74.9942 162.884 63.1521C162.884 51.31 153.284 41.7101 141.442 41.7101C129.6 41.7101 120 51.31 120 63.1521C120 74.9942 129.6 84.5941 141.442 84.5941Z" stroke="#F9C447" stroke-width="1.92"/>
<path d="M150.975 87.772C150.501 87.7746 150.038 87.6369 149.642 87.3764C149.246 87.1159 148.937 86.7442 148.752 86.308L146.151 80.207L141.927 84.138L141.97 64.271L156.37 77.98L150.61 78.31L153.211 84.412C153.337 84.7033 153.405 85.0168 153.409 85.3342C153.414 85.6517 153.355 85.9669 153.237 86.2616C153.118 86.5563 152.943 86.8245 152.72 87.0508C152.497 87.2771 152.232 87.457 151.939 87.58C151.634 87.71 151.306 87.775 150.975 87.772Z" fill="#7A7F80"/>
<path d="M142.469 65.3891L155.242 77.5671L151.267 77.7921L149.904 77.8691L150.437 79.1271L152.775 84.5991C152.873 84.8332 152.923 85.0844 152.923 85.3381C152.923 85.5918 152.873 85.843 152.775 86.0771C152.582 86.5533 152.21 86.9345 151.738 87.1381C151.498 87.2381 151.24 87.2911 150.979 87.2921C150.599 87.2941 150.227 87.1834 149.911 86.9741C149.594 86.7648 149.346 86.4662 149.199 86.1161L146.866 80.6481L146.309 79.3911L145.306 80.3221L142.392 83.0341L142.431 65.3891H142.469ZM141.471 63.1521L141.423 85.2321L145.959 81.0081L148.291 86.4801C148.512 87.003 148.883 87.4487 149.357 87.7613C149.831 88.0739 150.387 88.2395 150.955 88.2371C151.434 88.2401 151.907 88.1235 152.329 87.8978C152.752 87.6721 153.112 87.3444 153.376 86.9445C153.64 86.5446 153.801 86.085 153.842 85.6076C153.884 85.1301 153.806 84.6497 153.615 84.2101L151.277 78.7381L157.464 78.3831L141.509 63.1531H141.471V63.1521Z" fill="white"/>
<path d="M140.935 33.0081H142.128V33.8996H140.935V35.8951H139.837V33.8996H135.923V33.2561L139.772 27.2992H140.935V33.0081ZM137.163 33.0081H139.837V28.7928L139.707 29.029L137.163 33.0081Z" fill="#00B812"/>
<g filter="url(#filter0_d)">
<path d="M73.8877 6.78321C73.8877 5.79837 74.6669 5 75.628 5H90.7788C91.7399 5 92.5191 5.79837 92.5191 6.78321V7.72726H73.8877V6.78321Z" fill="#00B812"/>
<path d="M14 15.9098C14 10.638 18.1708 6.36438 23.3157 6.36438H95.1798C100.325 6.36438 104.495 10.638 104.495 15.9098V190.454C104.495 195.726 100.325 200 95.1798 200H23.3157C18.1708 200 14 195.726 14 190.454V15.9098Z" fill="#F4F4F4"/>
<path d="M24.4419 21.0714C24.4419 20.6966 24.4419 20.5091 24.5148 20.366C24.579 20.24 24.6814 20.1376 24.8074 20.0734C24.9505 20.0005 25.138 20.0005 25.5128 20.0005H92.9829C93.3577 20.0005 93.5452 20.0005 93.6883 20.0734C93.8143 20.1376 93.9167 20.24 93.9808 20.366C94.0538 20.5091 94.0538 20.6966 94.0538 21.0714V88.5414C94.0538 88.9163 94.0538 89.1037 93.9808 89.2469C93.9167 89.3729 93.8143 89.4753 93.6883 89.5394C93.5452 89.6124 93.3577 89.6124 92.9829 89.6124H25.5128C25.138 89.6124 24.9505 89.6124 24.8074 89.5394C24.6814 89.4753 24.579 89.3729 24.5148 89.2469C24.4419 89.1037 24.4419 88.9163 24.4419 88.5414V21.0714Z" fill="#2F2F2F"/>
<path fill-rule="evenodd" clip-rule="evenodd" d="M59.35 118.758C59.283 118.713 59.1956 118.713 59.1286 118.758L55.4314 121.284C55.2785 121.388 55.0719 121.346 54.97 121.189C54.8681 121.033 54.9094 120.821 55.0623 120.717L58.7595 118.191C59.05 117.993 59.4286 117.993 59.7191 118.191L63.4163 120.717C63.5692 120.821 63.6105 121.033 63.5086 121.189C63.4066 121.346 63.2001 121.388 63.0472 121.284L59.35 118.758ZM31.4767 145.262C31.6296 145.366 31.6709 145.578 31.569 145.735L29.1042 149.523C29.0595 149.592 29.0595 149.681 29.1042 149.75L31.569 153.538C31.6709 153.695 31.6296 153.907 31.4767 154.011C31.3238 154.116 31.1173 154.073 31.0153 153.917L28.5506 150.128C28.3568 149.83 28.3568 149.443 28.5506 149.145L31.0153 145.357C31.1173 145.2 31.3238 145.158 31.4767 145.262ZM87.0019 145.262C87.1548 145.158 87.3613 145.2 87.4632 145.357L89.928 149.145C90.1217 149.443 90.1217 149.83 89.928 150.128L87.4632 153.917C87.3613 154.073 87.1548 154.116 87.0019 154.011C86.849 153.907 86.8077 153.695 86.9096 153.538L89.3744 149.75C89.4191 149.681 89.4191 149.592 89.3744 149.523L86.9096 145.735C86.8077 145.578 86.849 145.366 87.0019 145.262ZM54.97 178.084C55.0719 177.927 55.2785 177.885 55.4314 177.989L59.1286 180.515C59.1956 180.561 59.283 180.561 59.35 180.515L63.0472 177.989C63.2001 177.885 63.4066 177.927 63.5086 178.084C63.6105 178.24 63.5692 178.452 63.4163 178.556L59.7191 181.082C59.4286 181.28 59.05 181.28 58.7595 181.082L55.0623 178.556C54.9094 178.452 54.8681 178.24 54.97 178.084Z" fill="#3C3C43" fill-opacity="0.2"/>
<path d="M73.8877 6.78321C73.8877 5.79837 74.6669 5 75.628 5H90.7788C91.7399 5 92.5191 5.79837 92.5191 6.78321V7.72726H73.8877V6.78321Z" fill="#00B812"/>
<path d="M14 15.9098C14 10.638 18.1708 6.36438 23.3157 6.36438H95.1798C100.325 6.36438 104.495 10.638 104.495 15.9098V190.454C104.495 195.726 100.325 200 95.1798 200H23.3157C18.1708 200 14 195.726 14 190.454V15.9098Z" fill="#F4F4F4"/>
<path d="M21.8384 16.1757C21.8384 15.7705 21.8384 15.5679 21.9172 15.4131C21.9866 15.277 22.0973 15.1663 22.2334 15.0969C22.3882 15.0181 22.5908 15.0181 22.996 15.0181H95.9274C96.3326 15.0181 96.5352 15.0181 96.6899 15.0969C96.8261 15.1663 96.9368 15.277 97.0061 15.4131C97.085 15.5679 97.085 15.7705 97.085 16.1757V89.107C97.085 89.5123 97.085 89.7149 97.0061 89.8696C96.9368 90.0058 96.8261 90.1165 96.6899 90.1858C96.5352 90.2647 96.3326 90.2647 95.9274 90.2647H22.996C22.5908 90.2647 22.3882 90.2647 22.2334 90.1858C22.0973 90.1165 21.9866 90.0058 21.9172 89.8696C21.8384 89.7149 21.8384 89.5123 21.8384 89.107V16.1757Z" fill="#2F2F2F"/>
<path fill-rule="evenodd" clip-rule="evenodd" d="M59.0937 119.329C59.4491 119.329 59.7372 119.041 59.7372 118.686C59.7372 118.33 59.4491 118.042 59.0937 118.042C58.7383 118.042 58.4502 118.33 58.4502 118.686C58.4502 119.041 58.7383 119.329 59.0937 119.329ZM61.1394 121.355C61.4948 121.355 61.7829 121.067 61.7829 120.712C61.7829 120.356 61.4948 120.068 61.1394 120.068C60.784 120.068 60.4959 120.356 60.4959 120.712C60.4959 121.067 60.784 121.355 61.1394 121.355ZM63.829 122.737C63.829 123.092 63.5409 123.38 63.1855 123.38C62.8301 123.38 62.542 123.092 62.542 122.737C62.542 122.381 62.8301 122.093 63.1855 122.093C63.5409 122.093 63.829 122.381 63.829 122.737ZM57.0678 121.355C57.4232 121.355 57.7113 121.067 57.7113 120.712C57.7113 120.356 57.4232 120.068 57.0678 120.068C56.7125 120.068 56.4244 120.356 56.4244 120.712C56.4244 121.067 56.7125 121.355 57.0678 121.355ZM55.6854 122.737C55.6854 123.092 55.3973 123.38 55.0419 123.38C54.6866 123.38 54.3985 123.092 54.3985 122.737C54.3985 122.381 54.6866 122.093 55.0419 122.093C55.3973 122.093 55.6854 122.381 55.6854 122.737ZM59.133 181.126C58.7776 181.126 58.4895 181.415 58.4895 181.77C58.4895 182.126 58.7776 182.414 59.133 182.414C59.4884 182.414 59.7765 182.126 59.7765 181.77C59.7765 181.415 59.4884 181.126 59.133 181.126ZM57.0873 179.101C56.7319 179.101 56.4438 179.389 56.4438 179.744C56.4438 180.1 56.7319 180.388 57.0873 180.388C57.4427 180.388 57.7308 180.1 57.7308 179.744C57.7308 179.389 57.4427 179.101 57.0873 179.101ZM54.3977 177.718C54.3977 177.363 54.6858 177.075 55.0412 177.075C55.3966 177.075 55.6847 177.363 55.6847 177.718C55.6847 178.074 55.3966 178.362 55.0412 178.362C54.6858 178.362 54.3977 178.074 54.3977 177.718ZM61.1592 179.101C60.8038 179.101 60.5157 179.389 60.5157 179.744C60.5157 180.1 60.8038 180.388 61.1592 180.388C61.5146 180.388 61.8028 180.1 61.8028 179.744C61.8028 179.389 61.5146 179.101 61.1592 179.101ZM62.5417 177.718C62.5417 177.363 62.8298 177.075 63.1852 177.075C63.5406 177.075 63.8287 177.363 63.8287 177.718C63.8287 178.074 63.5406 178.362 63.1852 178.362C62.8298 178.362 62.5417 178.074 62.5417 177.718ZM32.0385 149.604C32.3939 149.604 32.682 149.893 32.682 150.248C32.682 150.603 32.3939 150.891 32.0385 150.891C31.6831 150.891 31.395 150.603 31.395 150.248C31.395 149.893 31.6831 149.604 32.0385 149.604ZM34.0644 147.559C34.4198 147.559 34.7079 147.847 34.7079 148.202C34.7079 148.558 34.4198 148.846 34.0644 148.846C33.709 148.846 33.4209 148.558 33.4209 148.202C33.4209 147.847 33.709 147.559 34.0644 147.559ZM36.7337 146.156C36.7337 145.801 36.4457 145.513 36.0903 145.513C35.7349 145.513 35.4468 145.801 35.4468 146.156C35.4468 146.512 35.7349 146.8 36.0903 146.8C36.4457 146.8 36.7337 146.512 36.7337 146.156ZM34.0644 151.63C34.4198 151.63 34.7079 151.918 34.7079 152.273C34.7079 152.629 34.4198 152.917 34.0644 152.917C33.709 152.917 33.4209 152.629 33.4209 152.273C33.4209 151.918 33.709 151.63 34.0644 151.63ZM36.7337 154.299C36.7337 153.944 36.4457 153.656 36.0903 153.656C35.7349 153.656 35.4468 153.944 35.4468 154.299C35.4468 154.655 35.7349 154.943 36.0903 154.943C36.4457 154.943 36.7337 154.655 36.7337 154.299ZM85.7974 150.207C85.7974 150.563 86.0855 150.851 86.4409 150.851C86.7963 150.851 87.0844 150.563 87.0844 150.207C87.0844 149.852 86.7963 149.564 86.4409 149.564C86.0855 149.564 85.7974 149.852 85.7974 150.207ZM83.7715 152.253C83.7715 152.609 84.0596 152.897 84.415 152.897C84.7704 152.897 85.0585 152.609 85.0585 152.253C85.0585 151.898 84.7704 151.61 84.415 151.61C84.0596 151.61 83.7715 151.898 83.7715 152.253ZM82.3891 154.943C82.0337 154.943 81.7456 154.655 81.7456 154.299C81.7456 153.944 82.0337 153.656 82.3891 153.656C82.7445 153.656 83.0326 153.944 83.0326 154.299C83.0326 154.655 82.7445 154.943 82.3891 154.943ZM83.7715 148.182C83.7715 148.537 84.0596 148.825 84.415 148.825C84.7704 148.825 85.0585 148.537 85.0585 148.182C85.0585 147.826 84.7704 147.538 84.415 147.538C84.0596 147.538 83.7715 147.826 83.7715 148.182ZM82.3891 146.799C82.0337 146.799 81.7456 146.511 81.7456 146.156C81.7456 145.801 82.0337 145.512 82.3891 145.512C82.7445 145.512 83.0326 145.801 83.0326 146.156C83.0326 146.511 82.7445 146.799 82.3891 146.799Z" fill="#DDDDDD"/>
</g>
<path d="M33.515 48C34.9039 48 36.0299 49.126 36.0299 50.5149C36.0299 51.9039 34.9039 53.0299 33.515 53.0299C32.126 53.0299 31 51.9039 31 50.5149C31 49.126 32.126 48 33.515 48Z" fill="#00B812"/>
<path d="M44.2456 48.3353C45.4493 48.3353 46.4252 49.3112 46.4252 50.5149C46.4252 51.7187 45.4493 52.6946 44.2456 52.6946C43.0418 52.6946 42.0659 51.7187 42.0659 50.5149C42.0659 49.3112 43.0418 48.3353 44.2456 48.3353Z" stroke="#00B812" stroke-width="0.670659"/>
<path d="M55.8142 50.8502H51.455C51.2698 50.8502 51.1196 50.7001 51.1196 50.5149C51.1196 50.3297 51.2698 50.1796 51.455 50.1796H55.8142C55.9994 50.1796 56.1496 50.3297 56.1496 50.5149C56.1496 50.7001 55.9994 50.8502 55.8142 50.8502Z" fill="#00B812"/>
<path d="M65.8743 50.8502H61.515C61.3298 50.8502 61.1797 50.7001 61.1797 50.5149C61.1797 50.3297 61.3298 50.1796 61.515 50.1796H65.8743C66.0595 50.1796 66.2096 50.3297 66.2096 50.5149C66.2096 50.7001 66.0595 50.8502 65.8743 50.8502Z" fill="#00B812"/>
<path d="M75.9339 50.8502H71.5746C71.3894 50.8502 71.2393 50.7001 71.2393 50.5149C71.2393 50.3297 71.3894 50.1796 71.5746 50.1796H75.9339C76.1191 50.1796 76.2692 50.3297 76.2692 50.5149C76.2692 50.7001 76.1191 50.8502 75.9339 50.8502Z" fill="#00B812"/>
<path d="M86.6648 50.8502H82.3055C82.1203 50.8502 81.9702 50.7001 81.9702 50.5149C81.9702 50.3297 82.1203 50.1796 82.3055 50.1796H86.6648C86.85 50.1796 87.0002 50.3297 87.0002 50.5149C87.0002 50.7001 86.85 50.8502 86.6648 50.8502Z" fill="#00B812"/>
</g>
<defs>
<filter id="filter0_d" x="-1.67638" y="-9.10874" width="121.848" height="226.353" filterUnits="userSpaceOnUse" color-interpolation-filters="sRGB">
<feFlood flood-opacity="0" result="BackgroundImageFix"/>
<feColorMatrix in="SourceAlpha" type="matrix" values="0 0 0 0 0 0 0 0 0 0 0 0 0 0 0 0 0 0 127 0" result="hardAlpha"/>
<feOffset dy="1.56764"/>
<feGaussianBlur stdDeviation="7.83819"/>
<feComposite in2="hardAlpha" operator="out"/>
<feColorMatrix type="matrix" values="0 0 0 0 0 0 0 0 0 0 0 0 0 0 0 0 0 0 0.15 0"/>
<feBlend mode="normal" in2="BackgroundImageFix" result="effect1_dropShadow"/>
<feBlend mode="normal" in="SourceGraphic" in2="effect1_dropShadow" result="shape"/>
</filter>
<clipPath id="clip0">
<rect width="229" height="206" fill="white"/>
</clipPath>
</defs>
</svg>
