<svg t="1618728936658" viewBox="0 0 1024 1024" version="1.1" xmlns="http://www.w3.org/2000/svg" p-id="2013" width="200" height="200"><path d="M935.59466667 189.09866667l-60.2112 47.104A446.94186667 446.94186667 0 0 0 522.58133333 64.03413333a447.6928 447.6928 0 0 0-447.8976 447.41973334A447.8976 447.8976 0 0 0 943.44533333 665.46346667a8.53333333 8.53333333 0 0 0-5.18826666-10.92266667l-60.48426667-20.82133333a8.53333333 8.53333333 0 0 0-10.78613333 5.12A364.9536 364.9536 0 0 1 782.06293333 771.41333333a364.544 364.544 0 0 1-259.2768 107.52A364.1344 364.1344 0 0 1 263.44106667 771.41333333a364.9536 364.9536 0 0 1-107.38346667-259.54986666 365.02186667 365.02186667 0 0 1 107.38346667-259.4816 364.544 364.544 0 0 1 259.2768-107.52 364.1344 364.1344 0 0 1 259.41333333 107.52c10.51306667 10.58133333 20.48 21.77706667 29.62773333 33.45066666L747.52 336.00853333a8.53333333 8.53333333 0 0 0 3.20853333 15.01866667l187.32373334 45.8752a8.53333333 8.53333333 0 0 0 10.51306666-8.192l0.88746667-192.98986667a8.6016 8.6016 0 0 0-13.85813333-6.62186666z" p-id="2014" fill="#515151"></path></svg>