<svg width="106" height="121" viewBox="0 0 106 121" fill="none" xmlns="http://www.w3.org/2000/svg">
<rect x="4" y="14" width="46" height="94" rx="4" fill="white"/>
<rect x="4.5" y="14.5" width="45" height="93" rx="3.5" stroke="#00B812" stroke-opacity="0.5"/>
<rect x="11" y="33" width="32" height="8" rx="2" fill="#EEEEEE"/>
<rect x="11" y="21" width="32" height="8" rx="2" fill="#EEEEEE"/>
<rect x="11" y="45" width="32" height="8" rx="2" fill="#EEEEEE"/>
<rect x="11" y="57" width="32" height="8" rx="2" fill="#EEEEEE"/>
<rect x="11" y="69" width="32" height="8" rx="2" fill="#EEEEEE"/>
<rect x="11" y="81" width="32" height="8" rx="2" fill="#EEEEEE"/>
<rect x="11" y="93" width="32" height="8" rx="2" fill="#EEEEEE"/>
<rect x="56" y="14" width="46" height="94" rx="4" fill="white"/>
<rect x="56.5" y="14.5" width="45" height="93" rx="3.5" stroke="#00B812" stroke-opacity="0.5"/>
<rect x="63" y="33" width="32" height="8" rx="2" fill="#EEEEEE"/>
<rect x="63" y="21" width="32" height="8" rx="2" fill="#EEEEEE"/>
<rect x="63" y="45" width="32" height="8" rx="2" fill="#EEEEEE"/>
<rect x="63" y="57" width="32" height="8" rx="2" fill="#EEEEEE"/>
<rect x="63" y="69" width="32" height="8" rx="2" fill="#EEEEEE"/>
<rect x="63" y="81" width="32" height="8" rx="2" fill="#EEEEEE"/>
<rect x="63" y="93" width="32" height="8" rx="2" fill="#EEEEEE"/>
<rect x="43.3291" width="46" height="94" rx="4" transform="rotate(15 43.3291 0)" fill="white"/>
<rect x="43.6827" y="0.612372" width="45" height="93" rx="3.5" transform="rotate(15 43.6827 0.612372)" stroke="#00B812" stroke-opacity="0.5"/>
<rect x="45.1731" y="20.1643" width="32" height="8" rx="2" transform="rotate(15 45.1731 20.1643)" fill="#EEEEEE"/>
<rect x="48.2788" y="8.57321" width="32" height="8" rx="2" transform="rotate(15 48.2788 8.57321)" fill="#EEEEEE"/>
<rect x="42.0671" y="31.7554" width="32" height="8" rx="2" transform="rotate(15 42.0671 31.7554)" fill="#EEEEEE"/>
<rect x="38.9614" y="43.3465" width="32" height="8" rx="2" transform="rotate(15 38.9614 43.3465)" fill="#EEEEEE"/>
<rect x="35.8555" y="54.9377" width="32" height="8" rx="2" transform="rotate(15 35.8555 54.9377)" fill="#EEEEEE"/>
<rect x="32.7498" y="66.5288" width="32" height="8" rx="2" transform="rotate(15 32.7498 66.5288)" fill="#EEEEEE"/>
<rect x="29.6438" y="78.1199" width="32" height="8" rx="2" transform="rotate(15 29.6438 78.1199)" fill="#EEEEEE"/>
</svg>
