<svg width="30" height="46" viewBox="0 0 30 46" fill="none" xmlns="http://www.w3.org/2000/svg">
<path fill-rule="evenodd" clip-rule="evenodd" d="M2.32352 0L26.6765 0C27.4844 0 27.7774 0.082115 28.0728 0.23631C28.3681 0.390504 28.5999 0.616779 28.7579 0.905098C28.9159 1.19342 29 1.4794 29 2.26805V43.7319C29 44.5206 28.9159 44.8066 28.7579 45.0949C28.5999 45.3832 28.3681 45.6095 28.0728 45.7637C27.7774 45.9179 27.4844 46 26.6765 46H2.32352C1.51558 46 1.2226 45.9179 0.927234 45.7637C0.631863 45.6095 0.400055 45.3832 0.242089 45.0949C0.0841232 44.8066 0 44.5206 0 43.7319L0 2.26805C0 1.4794 0.0841232 1.19342 0.242089 0.905098C0.400055 0.616779 0.631863 0.390504 0.927234 0.23631C1.2226 0.082115 1.51558 0 2.32352 0Z" fill="#525254"/>
<path d="M14.446 26.75C16.202 26.75 17.625 27.783 17.625 29.375C17.625 30.967 16.202 32 14.446 32C12.691 32 11.25 30.967 11.25 29.375C11.25 27.783 12.699 26.75 14.446 26.75ZM14.521 8.375C19.21 8.375 22.5 10.725 22.5 14.772C22.5 17.715 20.764 19.145 18.723 20.585C17.339 21.615 16.682 22.213 16.158 23.433C15.583 24.46 15.145 25.25 13.745 25.25C12.261 25.25 11.519 24.306 11.519 23.072C11.519 21.237 12.412 20.052 14.504 18.442C15.99 17.291 17.034 16.521 17.034 15.098C17.034 13.536 15.6 12.628 13.998 12.628C13.3909 12.6068 12.7879 12.7367 12.2434 13.006C11.6988 13.2753 11.2297 13.6756 10.878 14.171C10.303 14.771 9.848 15.098 9.073 15.098C7.79 15.098 7.125 14.188 7.125 13.136C7.125 12.084 7.717 10.992 8.645 10.17C9.899 9.076 11.891 8.375 14.521 8.375V8.375Z" fill="white"/>
</svg>
