<svg width="360" height="280" viewBox="0 0 360 280" fill="none" xmlns="http://www.w3.org/2000/svg">
<path d="M160.18 97.352H282.546V172.16H160.179L160.18 97.352Z" fill="white"/>
<path d="M281.638 172.096H160.363V98.375H281.638V172.096ZM282.73 97.282H159.27V173.188H282.73V97.282Z" fill="#A3A4A9"/>
<path opacity="0.5" d="M281.638 98.375V108.055H221.68L234.997 172.092H171.65V108.055H160.363V98.375H281.638Z" fill="#D8D9DA"/>
<path d="M279.817 170.276H162.183V100.195H279.817V170.276ZM281.637 98.375H160.364V172.096H281.639V98.375H281.637Z" fill="white"/>
<path d="M83.8469 113.616L204.091 88.058L220.796 166.648L100.552 192.208L83.8469 113.616Z" fill="white"/>
<path d="M219.827 166.582L100.533 191.358L84.8259 113.674L204.12 88.897L219.827 166.582ZM204.967 87.605L203.897 87.827L84.6039 112.598L83.5349 112.825L83.7569 113.895L99.4649 191.581L99.6869 192.649L100.755 192.427L220.049 167.65L221.117 167.428L220.895 166.36L205.188 88.675L204.966 87.605H204.967Z" fill="#A3A4A9"/>
</svg>
