<svg width="160" height="160" viewBox="0 0 160 160" fill="none" xmlns="http://www.w3.org/2000/svg">
<path d="M79.9402 40.636C101.646 40.636 119.242 58.233 119.242 79.939C119.242 101.645 101.646 119.241 79.9402 119.241C58.2342 119.241 40.6362 101.645 40.6362 79.94C40.6362 58.235 58.2332 40.636 79.9402 40.636ZM79.9402 70.979C79.2835 70.9798 78.654 71.241 78.1896 71.7054C77.7253 72.1697 77.464 72.7993 77.4632 73.456V98.106C77.498 98.7554 77.7865 99.3652 78.2665 99.804C78.7466 100.243 79.3798 100.475 80.0297 100.452C80.6796 100.428 81.2943 100.15 81.7412 99.6778C82.1882 99.2053 82.4317 98.5762 82.4192 97.926V73.456L82.4142 73.293C82.3721 72.6655 82.0932 72.0774 81.6339 71.6478C81.1746 71.2182 80.5692 70.9791 79.9402 70.979ZM79.9392 60.196C79.4942 60.1883 79.0522 60.2693 78.6388 60.4343C78.2254 60.5993 77.8491 60.8449 77.5317 61.1569C77.2143 61.4689 76.9622 61.8409 76.7901 62.2514C76.618 62.6618 76.5293 63.1024 76.5293 63.5475C76.5293 63.9926 76.618 64.4332 76.7901 64.8436C76.9622 65.2541 77.2143 65.6261 77.5317 65.9381C77.8491 66.2501 78.2254 66.4957 78.6388 66.6607C79.0522 66.8257 79.4942 66.9067 79.9392 66.899C80.8181 66.8838 81.6558 66.524 82.2719 65.8972C82.8881 65.2703 83.2333 64.4265 83.2333 63.5475C83.2333 62.6685 82.8881 61.8247 82.2719 61.1978C81.6558 60.571 80.8181 60.2112 79.9392 60.196Z" fill="#FFCC00"/>
</svg>
