<svg width="360" height="280" viewBox="0 0 360 280" fill="none" xmlns="http://www.w3.org/2000/svg">
<path fill-rule="evenodd" clip-rule="evenodd" d="M125.474 163.691C120.981 163.691 116.836 162.646 113.039 160.557C109.243 158.468 106.221 155.491 103.975 151.627C101.728 147.763 100.605 143.27 100.605 138.148C100.605 132.981 101.728 128.477 103.975 124.635C106.221 120.794 109.243 117.84 113.039 115.773C116.836 113.706 120.981 112.673 125.474 112.673C129.967 112.673 134.111 113.706 137.908 115.773C141.705 117.84 144.726 120.794 146.973 124.635C149.219 128.477 150.342 132.981 150.342 138.148C150.342 143.27 149.219 147.763 146.973 151.627C144.726 155.491 141.705 158.468 137.908 160.557C134.111 162.646 129.967 163.691 125.474 163.691ZM125.474 156.884C128.574 156.884 131.404 156.154 133.965 154.693C136.526 153.233 138.559 151.099 140.065 148.291C141.57 145.483 142.322 142.124 142.322 138.215C142.322 134.261 141.57 130.881 140.065 128.072C138.559 125.264 136.538 123.141 133.999 121.704C131.46 120.266 128.619 119.547 125.474 119.547C122.328 119.547 119.475 120.266 116.914 121.704C114.353 123.141 112.332 125.264 110.849 128.072C109.366 130.881 108.625 134.261 108.625 138.215C108.625 142.124 109.389 145.483 110.916 148.291C112.444 151.099 114.499 153.233 117.083 154.693C119.666 156.154 122.463 156.884 125.474 156.884ZM162.39 132.083H155.246V163.017H162.525V147.651C162.525 145.539 162.985 143.697 163.906 142.124C164.827 140.552 165.984 139.35 167.377 138.519C168.77 137.688 170.14 137.272 171.488 137.272C173.869 137.272 175.442 138.137 176.206 139.867C176.969 141.597 177.351 144.416 177.351 148.325V163.017H184.63V148.123C184.63 144.304 184.338 141.203 183.754 138.822C183.17 136.441 182.024 134.588 180.317 133.262C178.609 131.937 176.161 131.274 172.971 131.274C170.5 131.274 168.343 131.88 166.501 133.094C164.659 134.307 163.311 135.857 162.457 137.744L162.39 132.083ZM205.574 163.691C201.889 163.691 198.812 162.961 196.341 161.5C193.869 160.04 192.05 158.086 190.882 155.637C189.713 153.188 189.129 150.504 189.129 147.583C189.129 144.304 189.815 141.428 191.185 138.957C192.555 136.486 194.454 134.588 196.88 133.262C199.306 131.937 202.047 131.274 205.102 131.274C209.865 131.274 213.403 132.588 215.717 135.217C218.03 137.845 219.187 141.54 219.187 146.303C219.187 147.516 219.12 148.774 218.985 150.077H196.745C197.239 152.818 198.216 154.795 199.677 156.008C201.137 157.221 203.17 157.827 205.776 157.827C207.933 157.827 209.707 157.648 211.1 157.288C212.493 156.929 213.773 156.435 214.942 155.806L217.166 160.995C216.042 161.714 214.515 162.343 212.583 162.882C210.651 163.421 208.314 163.691 205.574 163.691ZM210.291 139.125C211.549 140.271 212.156 142.237 212.111 145.022H196.745C197.464 139.945 200.182 137.407 204.9 137.407C207.236 137.407 209.033 137.979 210.291 139.125ZM235.683 140.844L231.64 145.831V163.017H224.226V113.482H231.64V135.587L248.623 113.482H257.654L240.603 135.25L260.08 163.017H250.847L235.683 140.844ZM266.198 161.5C268.669 162.961 271.746 163.691 275.431 163.691C278.171 163.691 280.508 163.421 282.44 162.882C284.372 162.343 285.899 161.714 287.023 160.995L284.798 155.806C283.63 156.435 282.35 156.929 280.957 157.288C279.564 157.648 277.789 157.827 275.633 157.827C273.027 157.827 270.994 157.221 269.534 156.008C268.073 154.795 267.096 152.818 266.602 150.077H288.842C288.977 148.774 289.044 147.516 289.044 146.303C289.044 141.54 287.887 137.845 285.574 135.217C283.26 132.588 279.721 131.274 274.959 131.274C271.904 131.274 269.163 131.937 266.737 133.262C264.311 134.588 262.412 136.486 261.042 138.957C259.671 141.428 258.986 144.304 258.986 147.583C258.986 150.504 259.57 153.188 260.739 155.637C261.907 158.086 263.726 160.04 266.198 161.5ZM281.967 145.022C282.012 142.237 281.405 140.271 280.147 139.125C278.889 137.979 277.092 137.407 274.756 137.407C270.038 137.407 267.32 139.945 266.601 145.022H281.967ZM289.702 132.082L302.507 163.96L295.835 180H303.383L322.388 132.082H314.436L307.494 151.762L306.012 156.547L304.529 151.762L297.924 132.082H289.702Z" fill="#00B812"/>
<path d="M334.511 103.403H329.876V118.509H327.044V103.403H322.388V101H334.511V103.403Z" fill="#00B812"/>
<path d="M354.863 118.509H352.03V104.819L347.31 118.509H344.327L339.628 104.884V118.509H337.074V101H341.001L345.915 115.376L350.829 101H354.863V118.509Z" fill="#00B812"/>
<path d="M74.5968 140.663C74.5968 164.341 63.9765 174.961 40.2984 174.961C16.6203 174.961 6 164.341 6 140.663C6 116.985 16.6203 106.364 40.2984 106.364C63.9765 106.364 74.5968 116.985 74.5968 140.663Z" fill="#00B812"/>
<path d="M43.3975 120.908H33.8559L32.1819 125.97H37.4816V136.632H43.3975V120.908Z" fill="white"/>
<path fill-rule="evenodd" clip-rule="evenodd" d="M51.1806 149.535C51.1806 155.545 46.3086 160.417 40.2988 160.417C34.2889 160.417 29.417 155.545 29.417 149.535C29.417 143.526 34.2889 138.654 40.2988 138.654C46.3086 138.654 51.1806 143.526 51.1806 149.535ZM46.2403 149.535C46.2403 152.817 43.5802 155.477 40.2988 155.477C37.0173 155.477 34.3572 152.817 34.3572 149.535C34.3572 146.254 37.0173 143.594 40.2988 143.594C43.5802 143.594 46.2403 146.254 46.2403 149.535Z" fill="white"/>
</svg>
