<svg width="22" height="24" viewBox="0 0 22 24" fill="none" xmlns="http://www.w3.org/2000/svg">
<path fill-rule="evenodd" clip-rule="evenodd" d="M6.88127 1.03047e-05C6.84618 0.000369187 6.81348 0.00942306 6.78124 0.0272904C6.67538 0.0859684 6.64057 0.207611 6.6994 0.313736L7.74515 2.20291C5.73317 3.2498 4.37419 5.23931 4.37147 7.5226H17.6116C17.6089 5.23931 16.2499 3.2498 14.2379 2.20291L15.2837 0.313736C15.3425 0.207611 15.3077 0.0859684 15.2018 0.0272904C15.1696 0.00942306 15.1369 0.000344783 15.1018 1.03047e-05C15.0267 -0.000714638 14.9555 0.0368217 14.9154 0.109132L13.856 2.01877C12.9894 1.63436 12.0173 1.4186 10.9915 1.4186C9.96576 1.4186 8.9937 1.63436 8.12708 2.01877L7.06769 0.109132C7.0276 0.0368217 6.95639 -0.000710331 6.88127 1.03047e-05ZM4.37147 8.04548V17.6414C4.37147 18.528 5.08527 19.2418 5.97192 19.2418H7.03365V22.5155C7.03365 23.3422 7.69147 24 8.51817 24C9.34486 24 10.0027 23.3422 10.0027 22.5155V19.2418H11.9805V22.5155C11.9805 23.3422 12.6383 24 13.465 24C14.2917 24 14.9495 23.3422 14.9495 22.5155V19.2418H16.0111C16.8978 19.2418 17.6116 18.528 17.6116 17.6414V8.04548H4.37147ZM7.93604 3.99428C7.63379 3.99428 7.38361 4.24446 7.38361 4.54671C7.38361 4.84896 7.63379 5.09914 7.93604 5.09914C8.23828 5.09914 8.48847 4.84896 8.48847 4.54671C8.48847 4.24446 8.23828 3.99428 7.93604 3.99428ZM14.0469 3.99428C13.7446 3.99428 13.4944 4.24446 13.4944 4.54671C13.4944 4.84896 13.7446 5.09914 14.0469 5.09914C14.3491 5.09914 14.5993 4.84896 14.5993 4.54671C14.5993 4.24446 14.3491 3.99428 14.0469 3.99428ZM2.33461 7.79083C1.50791 7.79083 0.850098 8.44865 0.850098 9.27534V15.4589C0.850098 16.2856 1.50791 16.9434 2.33461 16.9434C3.16131 16.9434 3.81912 16.2856 3.81912 15.4589V9.27534C3.81912 8.44865 3.16131 7.79083 2.33461 7.79083ZM19.6486 7.79083C18.8219 7.79083 18.1641 8.44865 18.1641 9.27534V15.4589C18.1641 16.2856 18.8219 16.9434 19.6486 16.9434C20.4753 16.9434 21.1331 16.2856 21.1331 15.4589V9.27534C21.1331 8.44865 20.4753 7.79083 19.6486 7.79083Z" fill="currentColor"/>
</svg>
