<svg width="24" height="24" viewBox="0 0 24 24" fill="none" xmlns="http://www.w3.org/2000/svg">
<g clip-path="url(#clip0_8816_11069)">
<path d="M5.46997 20.299L4.85997 21.239C4.42997 21.959 3.48997 22.209 2.75997 21.789C2.01997 21.369 1.76997 20.439 2.18997 19.709L2.56997 19.149C2.70997 18.939 3.06997 18.579 3.78997 18.639C3.78997 18.639 5.47997 18.819 5.60997 19.689C5.60997 19.689 5.61997 19.969 5.42997 20.259L5.46997 20.299ZM22.46 14.169H18.84C18.59 14.149 18.48 14.059 18.44 14.009L18.43 13.999L14.97 8.38899C14.58 7.80899 13.98 9.27899 13.98 9.27899C13.25 10.919 14.08 12.779 14.36 13.349L19.08 21.199C19.5 21.919 20.44 22.169 21.17 21.749C21.9 21.329 22.15 20.399 21.73 19.669L20.38 17.359C20.35 17.299 20.3 17.149 20.58 17.149H22.4C23.24 17.149 23.93 16.469 23.93 15.629C23.93 14.789 23.24 14.109 22.39 14.109L22.46 14.169ZM13.75 16.229C13.75 16.229 13.94 17.199 13.19 17.199L1.50997 17.189C0.659971 17.189 -0.0300293 16.509 -0.0300293 15.669C-0.0300293 14.829 0.649971 14.149 1.49997 14.149H4.92997C5.47997 14.109 5.60997 13.799 5.60997 13.799L10.09 6.09899L10.08 6.08899C10.16 5.93899 10.09 5.79899 10.08 5.76899L8.58997 3.20999C8.15997 2.47999 8.40997 1.54999 9.14997 1.12999C9.87997 0.709992 10.81 0.949992 11.24 1.67999L11.92 2.84999L12.6 1.66999C13.02 0.939992 13.96 0.689992 14.693 1.10999C15.423 1.51999 15.673 2.44999 15.253 3.17999L9.01297 13.88C8.98297 13.94 8.97297 14.04 9.17297 14.06H11.213C11.213 14.06 13.363 14.12 13.663 16.12L13.75 16.229Z" fill="currentColor"/>
</g>
<defs>
<clipPath id="clip0_8816_11069">
<rect width="24" height="24" fill="white"/>
</clipPath>
</defs>
</svg>
