<svg xmlns="http://www.w3.org/2000/svg" viewBox="0 0 20 20" fill="currentColor" aria-hidden="true">
  <path fill-rule="evenodd" clip-rule="evenodd" d="M2 4.75C2 4.33579 2.33579 4 2.75 4H17.25C17.6642 4 18 4.33579 18 4.75C18 5.16421 17.6642 5.5 17.25 5.5H2.75C2.33579 5.5 2 5.16421 2 4.75ZM4 10C4 9.58579 4.33579 9.25 4.75 9.25H15.25C15.6642 9.25 16 9.58579 16 10C16 10.4142 15.6642 10.75 15.25 10.75H4.75C4.33579 10.75 4 10.4142 4 10ZM6 15.25C6 14.8358 6.33579 14.5 6.75 14.5H13.25C13.6642 14.5 14 14.8358 14 15.25C14 15.6642 13.6642 16 13.25 16H6.75C6.33579 16 6 15.6642 6 15.25Z" />
</svg>
