<svg width="26" height="24" viewBox="0 0 26 24" fill="none" xmlns="http://www.w3.org/2000/svg">
<path d="M8.20019 0.800049C7.31654 0.800049 6.60019 1.51639 6.60019 2.40005C6.60019 3.2837 7.31654 4.00005 8.20019 4.00005H17.8002C18.6839 4.00005 19.4002 3.2837 19.4002 2.40005C19.4002 1.51639 18.6839 0.800049 17.8002 0.800049H8.20019Z" fill="#4786FF"/>
<path d="M3.4002 7.20005C3.4002 6.31639 4.11654 5.60005 5.0002 5.60005H21.0002C21.8839 5.60005 22.6002 6.31639 22.6002 7.20005C22.6002 8.0837 21.8838 8.80005 21.0002 8.80005H5.00019C4.11654 8.80005 3.4002 8.0837 3.4002 7.20005Z" fill="#4786FF"/>
<path d="M0.200195 13.6C0.200195 11.8327 1.63288 10.4 3.4002 10.4H22.6002C24.3675 10.4 25.8002 11.8327 25.8002 13.6V20C25.8002 21.7674 24.3675 23.2001 22.6002 23.2001H3.4002C1.63288 23.2001 0.200195 21.7674 0.200195 20V13.6Z" fill="#4786FF"/>
</svg>
