<svg width="16" height="16" viewBox="0 0 16 16" fill="none" xmlns="http://www.w3.org/2000/svg">
<path d="M12.207 4.79279C12.3945 4.98031 12.4998 5.23462 12.4998 5.49979C12.4998 5.76495 12.3945 6.01926 12.207 6.20679L7.20698 11.2068C7.01945 11.3943 6.76514 11.4996 6.49998 11.4996C6.23482 11.4996 5.98051 11.3943 5.79298 11.2068L3.79298 9.20679C3.61082 9.01818 3.51003 8.76558 3.51231 8.50339C3.51458 8.24119 3.61975 7.99038 3.80516 7.80497C3.99057 7.61956 4.24138 7.51439 4.50358 7.51211C4.76578 7.50983 5.01838 7.61063 5.20698 7.79279L6.49998 9.08579L10.793 4.79279C10.9805 4.60532 11.2348 4.5 11.5 4.5C11.7651 4.5 12.0195 4.60532 12.207 4.79279Z" fill="currentColor"/>
</svg>
