<svg xmlns="http://www.w3.org/2000/svg" viewBox="0 0 24 24" fill="currentColor">
  <path d="M16.6602 2.00009C20.0602 2.00009 22.0002 3.92009 22.0002 7.33009V16.6701C22.0002 20.0601 20.0702 22.0001 16.6702 22.0001H7.33018C3.92018 22.0001 2.00018 20.0601 2.00018 16.6701V7.33009C2.00018 3.92009 3.92018 2.00009 7.33018 2.00009H16.6602ZM11.9902 7.51009C11.5302 7.51009 11.1602 7.88009 11.1602 8.34009V11.1601H8.33018C8.11018 11.1601 7.90018 11.2501 7.74018 11.4001C7.59018 11.5601 7.50018 11.7691 7.50018 11.9901C7.50018 12.4501 7.87018 12.8201 8.33018 12.8301H11.1602V15.6601C11.1602 16.1201 11.5302 16.4901 11.9902 16.4901C12.4502 16.4901 12.8202 16.1201 12.8202 15.6601V12.8301H15.6602C16.1202 12.8201 16.4902 12.4501 16.4902 11.9901C16.4902 11.5301 16.1202 11.1601 15.6602 11.1601H12.8202V8.34009C12.8202 7.88009 12.4502 7.51009 11.9902 7.51009Z" />
</svg>
