<svg width="20" height="20" viewBox="0 0 20 20" fill="none" xmlns="http://www.w3.org/2000/svg">
	<path fill-rule="evenodd" clip-rule="evenodd" d="M3.05049 7.39964C3.38214 7.1515 3.85217 7.21919 4.10032 7.55085L5.37164 9.24999H14.6235L15.8998 7.5499C16.1485 7.21864 16.6186 7.15169 16.9499 7.40037C17.2811 7.64905 17.3481 8.11918 17.0994 8.45044L16.4992 9.24999H18.0002C18.4145 9.24999 18.7502 9.58578 18.7502 9.99999C18.7502 10.4142 18.4145 10.75 18.0002 10.75H16.4986L17.0996 11.5495C17.3485 11.8806 17.2819 12.3507 16.9508 12.5996C16.6197 12.8485 16.1496 12.7819 15.9007 12.4508L14.622 10.75H5.37396L4.10024 12.4499C3.85186 12.7814 3.38179 12.8487 3.05031 12.6004C2.71883 12.352 2.65146 11.8819 2.89984 11.5504L3.4996 10.75H2.00024C1.58603 10.75 1.25024 10.4142 1.25024 9.99999C1.25024 9.58578 1.58603 9.24999 2.00024 9.24999H3.49824L2.89929 8.44947C2.65114 8.11782 2.71883 7.64779 3.05049 7.39964Z"/>
	<path fill-rule="evenodd" clip-rule="evenodd" d="M4.27303 14.7186C4.22395 14.3073 4.51759 13.9341 4.92889 13.885L7.03605 13.6336L11.662 5.62119L10.8278 3.66586C10.6653 3.28487 10.8424 2.84426 11.2233 2.68171C11.6043 2.51918 12.045 2.69626 12.2075 3.07725L12.5998 3.99684L13.3504 2.69688C13.5575 2.33816 14.0162 2.21525 14.3749 2.42236C14.7336 2.62947 14.8565 3.08816 14.6494 3.44688L13.8986 4.74735L14.8914 4.62657C15.3026 4.57655 15.6765 4.86934 15.7265 5.28052C15.7765 5.6917 15.4838 6.06558 15.0726 6.1156L12.9603 6.37254L8.33625 14.3816L9.17154 16.3346C9.33442 16.7154 9.15773 17.1562 8.77689 17.3191C8.39604 17.482 7.95526 17.3053 7.79238 16.9244L7.39907 16.0048L6.64939 17.3033C6.44228 17.662 5.98359 17.7849 5.62487 17.5778C5.26615 17.3707 5.14325 16.912 5.35035 16.5533L6.09935 15.256L5.1066 15.3744C4.69531 15.4235 4.3221 15.1299 4.27303 14.7186Z"/>
	<path fill-rule="evenodd" clip-rule="evenodd" d="M8.77722 2.68125C9.15795 2.84439 9.33433 3.28529 9.17119 3.66603L8.33534 5.61659L12.9613 13.629L15.0718 13.8842C15.483 13.9339 15.776 14.3076 15.7263 14.7188C15.6765 15.13 15.3029 15.4231 14.8917 15.3734L13.8991 15.2533L14.6496 16.5533C14.8568 16.912 14.7338 17.3707 14.3751 17.5778C14.0164 17.7849 13.5577 17.662 13.3506 17.3033L12.5998 16.0028L12.2079 16.9231C12.0457 17.3042 11.6052 17.4816 11.2241 17.3193C10.843 17.157 10.6656 16.7165 10.8278 16.3354L11.6615 14.3776L7.03747 6.36861L4.92846 6.11548C4.5172 6.06612 4.22382 5.69271 4.27318 5.28145C4.32254 4.87019 4.69595 4.57681 5.10721 4.62617L6.10028 4.74536L5.35061 3.44688C5.1435 3.08816 5.26641 2.62947 5.62513 2.42236C5.98385 2.21526 6.44254 2.33816 6.64965 2.69688L7.39865 3.99419L7.79244 3.07521C7.95559 2.69448 8.39649 2.5181 8.77722 2.68125Z"/>
</svg>
