<svg width="18" height="18" viewBox="0 0 18 18" fill="none" xmlns="http://www.w3.org/2000/svg">
    <path d="M12.5 12.75C13.1904 12.75 13.75 12.1904 13.75 11.5C13.75 10.8096 13.1904 10.25 12.5 10.25C11.8096 10.25 11.25 10.8096 11.25 11.5C11.25 12.1904 11.8096 12.75 12.5 12.75Z" fill="black" fill-opacity="0.447"/>
    <path fill-rule="evenodd" clip-rule="evenodd" d="M0 3.5C0 1.567 1.567 0 3.5 0H11.5882C12.9202 0 14 1.07978 14 2.41176V5H15C16.6569 5 18 6.34315 18 8V15C18 16.6569 16.6569 18 15 18H4C1.79086 18 0 16.2091 0 14V3.5ZM2 6.66318V14C2 15.1046 2.89543 16 4 16H15C15.5523 16 16 15.5523 16 15V8C16 7.44772 15.5523 7 15 7H3.5C2.9632 7 2.45463 6.87915 2 6.66318ZM2 3.5C2 4.32843 2.67157 5 3.5 5H12V2.41176C12 2.18435 11.8156 2 11.5882 2H3.5C2.67157 2 2 2.67157 2 3.5Z" fill="black" fill-opacity="0.447"/>
</svg>
