<svg width="18" height="18" viewBox="0 0 18 18" fill="none" xmlns="http://www.w3.org/2000/svg">
    <path d="M3.72949 9C3.72949 6.1005 6.08 3.75 8.97949 3.75C10.46 3.75 11.5315 4.25961 12.5693 5.25H11.25C10.8358 5.25 10.5 5.58579 10.5 6C10.5 6.41421 10.8358 6.75 11.25 6.75H13.6875C14.4124 6.75 15 6.16237 15 5.4375V3C15 2.58579 14.6642 2.25 14.25 2.25C13.8358 2.25 13.5 2.58579 13.5 3V4.06726C12.2834 2.94142 10.8931 2.25 8.97949 2.25C5.25157 2.25 2.22949 5.27208 2.22949 9C2.22949 12.7279 5.25157 15.75 8.97949 15.75C11.9197 15.75 14.4189 13.8706 15.3452 11.2499C15.4832 10.8594 15.2786 10.4309 14.888 10.2929C14.4975 10.1548 14.069 10.3595 13.931 10.7501C13.2099 12.7902 11.2642 14.25 8.97949 14.25C6.08 14.25 3.72949 11.8995 3.72949 9Z" fill="#FCFCFC"/>
</svg>
