<svg width="96" height="96" viewBox="0 0 96 96" fill="none" xmlns="http://www.w3.org/2000/svg">
<rect x="0.5" y="0.5" width="95" height="95" rx="15.5" stroke="#00B812" stroke-opacity="0.5"/>
<path d="M22.7422 14.8086H21.6406V17H20.6523V11.3125H22.6523C23.3086 11.3125 23.8151 11.4596 24.1719 11.7539C24.5286 12.0482 24.707 12.474 24.707 13.0312C24.707 13.4115 24.6146 13.7305 24.4297 13.9883C24.2474 14.2435 23.9922 14.4401 23.6641 14.5781L24.9414 16.9492V17H23.8828L22.7422 14.8086ZM21.6406 14.0156H22.6562C22.9896 14.0156 23.25 13.9323 23.4375 13.7656C23.625 13.5964 23.7188 13.3659 23.7188 13.0742C23.7188 12.7695 23.6315 12.5339 23.457 12.3672C23.2852 12.2005 23.0273 12.1146 22.6836 12.1094H21.6406V14.0156ZM28.9688 14.4609H26.6328V16.2109H29.3633V17H25.6445V11.3125H29.3359V12.1094H26.6328V13.6797H28.9688V14.4609ZM34.5078 15.1484C34.4505 15.7552 34.2266 16.2292 33.8359 16.5703C33.4453 16.9089 32.9258 17.0781 32.2773 17.0781C31.8242 17.0781 31.4245 16.9714 31.0781 16.7578C30.7344 16.5417 30.4688 16.2357 30.2812 15.8398C30.0938 15.444 29.9961 14.9844 29.9883 14.4609V13.9297C29.9883 13.3932 30.0833 12.9206 30.2734 12.5117C30.4635 12.1029 30.7357 11.7878 31.0898 11.5664C31.4466 11.3451 31.8581 11.2344 32.3242 11.2344C32.9518 11.2344 33.457 11.4049 33.8398 11.7461C34.2227 12.0872 34.4453 12.569 34.5078 13.1914H33.5234C33.4766 12.7826 33.3568 12.4883 33.1641 12.3086C32.974 12.1263 32.694 12.0352 32.3242 12.0352C31.8945 12.0352 31.5638 12.1927 31.332 12.5078C31.1029 12.8203 30.9857 13.2799 30.9805 13.8867V14.3906C30.9805 15.0052 31.0898 15.474 31.3086 15.7969C31.5299 16.1198 31.8529 16.2812 32.2773 16.2812C32.6654 16.2812 32.957 16.194 33.1523 16.0195C33.3477 15.8451 33.4714 15.5547 33.5234 15.1484H34.5078ZM39.9336 14.3047C39.9336 14.862 39.8372 15.3516 39.6445 15.7734C39.4518 16.1927 39.1758 16.5156 38.8164 16.7422C38.4596 16.9661 38.0482 17.0781 37.582 17.0781C37.1211 17.0781 36.7096 16.9661 36.3477 16.7422C35.9883 16.5156 35.7096 16.194 35.5117 15.7773C35.3164 15.3607 35.2174 14.8802 35.2148 14.3359V14.0156C35.2148 13.4609 35.3125 12.9714 35.5078 12.5469C35.7057 12.1224 35.9831 11.7982 36.3398 11.5742C36.6992 11.3477 37.1107 11.2344 37.5742 11.2344C38.0378 11.2344 38.4479 11.3464 38.8047 11.5703C39.1641 11.7917 39.4414 12.112 39.6367 12.5312C39.832 12.9479 39.931 13.4336 39.9336 13.9883V14.3047ZM38.9453 14.0078C38.9453 13.3776 38.8255 12.8945 38.5859 12.5586C38.349 12.2227 38.0117 12.0547 37.5742 12.0547C37.1471 12.0547 36.8125 12.2227 36.5703 12.5586C36.3307 12.8919 36.2083 13.3646 36.2031 13.9766V14.3047C36.2031 14.9297 36.3242 15.4128 36.5664 15.7539C36.8112 16.0951 37.1497 16.2656 37.582 16.2656C38.0195 16.2656 38.3555 16.099 38.5898 15.7656C38.8268 15.4323 38.9453 14.9453 38.9453 14.3047V14.0078ZM42.8359 15.7617L44.2812 11.3125H45.3672L43.3203 17H42.3633L40.3242 11.3125H41.4062L42.8359 15.7617ZM49.3359 14.4609H47V16.2109H49.7305V17H46.0117V11.3125H49.7031V12.1094H47V13.6797H49.3359V14.4609ZM52.3906 14.0078L53.6992 11.3125H54.793L52.8867 14.9062V17H51.8945V14.9062L49.9844 11.3125H51.082L52.3906 14.0078ZM60.375 15.5352C60.375 15.2852 60.2865 15.0924 60.1094 14.957C59.9349 14.8216 59.6185 14.6849 59.1602 14.5469C58.7018 14.4089 58.3372 14.2552 58.0664 14.0859C57.5482 13.7604 57.2891 13.3359 57.2891 12.8125C57.2891 12.3542 57.4753 11.9766 57.8477 11.6797C58.2227 11.3828 58.7083 11.2344 59.3047 11.2344C59.7005 11.2344 60.0534 11.3073 60.3633 11.4531C60.6732 11.599 60.9167 11.8073 61.0938 12.0781C61.2708 12.3464 61.3594 12.6445 61.3594 12.9727H60.375C60.375 12.6758 60.2812 12.444 60.0938 12.2773C59.9089 12.1081 59.6432 12.0234 59.2969 12.0234C58.974 12.0234 58.7227 12.0924 58.543 12.2305C58.3659 12.3685 58.2773 12.5612 58.2773 12.8086C58.2773 13.0169 58.3737 13.1914 58.5664 13.332C58.7591 13.4701 59.0768 13.6055 59.5195 13.7383C59.9622 13.8685 60.3177 14.0182 60.5859 14.1875C60.8542 14.3542 61.0508 14.5469 61.1758 14.7656C61.3008 14.9818 61.3633 15.2357 61.3633 15.5273C61.3633 16.0013 61.181 16.3789 60.8164 16.6602C60.4544 16.9388 59.9622 17.0781 59.3398 17.0781C58.9284 17.0781 58.5495 17.0026 58.2031 16.8516C57.8594 16.6979 57.5911 16.487 57.3984 16.2188C57.2083 15.9505 57.1133 15.638 57.1133 15.2812H58.1016C58.1016 15.6042 58.2083 15.8542 58.4219 16.0312C58.6354 16.2083 58.9414 16.2969 59.3398 16.2969C59.6836 16.2969 59.9414 16.2279 60.1133 16.0898C60.2878 15.9492 60.375 15.7643 60.375 15.5352ZM65.5547 14.4609H63.2188V16.2109H65.9492V17H62.2305V11.3125H65.9219V12.1094H63.2188V13.6797H65.5547V14.4609ZM70.0781 14.4609H67.7422V16.2109H70.4727V17H66.7539V11.3125H70.4453V12.1094H67.7422V13.6797H70.0781V14.4609ZM71.2773 17V11.3125H72.957C73.4596 11.3125 73.9049 11.4245 74.293 11.6484C74.6836 11.8724 74.9857 12.1901 75.1992 12.6016C75.4128 13.013 75.5195 13.4844 75.5195 14.0156V14.3008C75.5195 14.8398 75.4115 15.3138 75.1953 15.7227C74.9818 16.1315 74.6758 16.4466 74.2773 16.668C73.8815 16.8893 73.4271 17 72.9141 17H71.2773ZM72.2656 12.1094V16.2109H72.9102C73.4284 16.2109 73.8255 16.0495 74.1016 15.7266C74.3802 15.401 74.5221 14.9349 74.5273 14.3281V14.0117C74.5273 13.3945 74.3932 12.9232 74.125 12.5977C73.8568 12.2721 73.4674 12.1094 72.957 12.1094H72.2656Z" fill="#00B812"/>
<path d="M36.7475 78H32.9975V37L20.6225 41.5938V38.0938L36.1225 32.3438H36.7475V78ZM76.5338 44.2188C76.5338 46.5729 75.8463 48.6875 74.4713 50.5625C73.0963 52.4167 71.2838 53.7812 69.0338 54.6562C71.6588 55.5521 73.7629 57 75.3463 59C76.9296 61 77.7213 63.3125 77.7213 65.9375C77.7213 69.8333 76.3983 72.9271 73.7525 75.2188C71.1067 77.4896 67.6067 78.625 63.2525 78.625C58.8567 78.625 55.3358 77.4896 52.69 75.2188C50.065 72.9479 48.7525 69.8542 48.7525 65.9375C48.7525 63.3542 49.5129 61.0521 51.0338 59.0312C52.5546 57.0104 54.6379 55.5521 57.2838 54.6562C55.0338 53.7812 53.2421 52.4167 51.9088 50.5625C50.5754 48.6875 49.9088 46.5729 49.9088 44.2188C49.9088 40.4479 51.1171 37.4479 53.5338 35.2188C55.9713 32.9896 59.19 31.875 63.19 31.875C67.19 31.875 70.4088 33 72.8463 35.25C75.3046 37.5 76.5338 40.4896 76.5338 44.2188ZM73.9713 65.9688C73.9713 63.1354 72.9608 60.8125 70.94 59C68.9192 57.1667 66.3358 56.25 63.19 56.25C60.0442 56.25 57.4713 57.1458 55.4713 58.9375C53.4713 60.7292 52.4713 63.0729 52.4713 65.9688C52.4713 68.8646 53.44 71.1771 55.3775 72.9062C57.315 74.6146 59.94 75.4688 63.2525 75.4688C66.4817 75.4688 69.0754 74.6146 71.0338 72.9062C72.9921 71.1979 73.9713 68.8854 73.9713 65.9688ZM72.7838 44.1875C72.7838 41.5833 71.8775 39.4167 70.065 37.6875C68.2733 35.9375 65.9817 35.0625 63.19 35.0625C60.3567 35.0625 58.0546 35.9062 56.2838 37.5938C54.5338 39.2604 53.6588 41.4583 53.6588 44.1875C53.6588 46.8542 54.5338 49 56.2838 50.625C58.0546 52.25 60.3671 53.0625 63.2213 53.0625C66.0338 53.0625 68.3254 52.25 70.0963 50.625C71.8879 48.9792 72.7838 46.8333 72.7838 44.1875Z" fill="#00B812"/>
</svg>
