<svg width="257" height="200" viewBox="0 0 257 200" fill="none" xmlns="http://www.w3.org/2000/svg">
<g clip-path="url(#clip0)">
<rect opacity="0.3" x="68" y="126" width="32" height="48" fill="#00B812"/>
<rect opacity="0.7" x="108" y="102" width="32" height="72" fill="#00B812"/>
<rect x="148" y="78" width="32" height="96" fill="#00B812"/>
<path d="M164 70C177.255 70 188 59.2548 188 46C188 32.7452 177.255 22 164 22C150.745 22 140 32.7452 140 46C140 59.2548 150.745 70 164 70Z" fill="white"/>
<path d="M164 67.0923C175.649 67.0923 185.092 57.6488 185.092 45.9996C185.092 34.3505 175.649 24.907 164 24.907C152.351 24.907 142.908 34.3505 142.908 45.9996C142.908 57.6488 152.351 67.0923 164 67.0923Z" fill="#F9C447"/>
<path d="M164 31.375L168.501 40.7178L178.779 42.1119L171.283 49.2815L173.133 59.4862L164 54.5741L154.865 59.4862L156.715 49.2815L149.221 42.1119L159.498 40.7178L164 31.375Z" fill="white"/>
<rect x="33" y="174" width="192" height="4" fill="#00B812"/>
</g>
<defs>
<clipPath id="clip0">
<rect width="257" height="200" fill="white"/>
</clipPath>
</defs>
</svg>
