<svg width="360" height="280" viewBox="0 0 360 280" fill="none" xmlns="http://www.w3.org/2000/svg">
<path fill-rule="evenodd" clip-rule="evenodd" d="M126.256 36H233.744C237.311 36 238.604 36.3713 239.907 37.0685C241.211 37.7658 242.234 38.7889 242.931 40.0926C243.629 41.3963 244 42.6895 244 46.2555V233.744C244 237.311 243.629 238.604 242.931 239.907C242.234 241.211 241.211 242.234 239.907 242.931C238.604 243.629 237.311 244 233.744 244H126.256C122.689 244 121.396 243.629 120.093 242.931C118.789 242.234 117.766 241.211 117.069 239.907C116.371 238.604 116 237.311 116 233.744V46.2555C116 42.6895 116.371 41.3963 117.069 40.0926C117.766 38.7889 118.789 37.7658 120.093 37.0685C121.396 36.3713 122.689 36 126.256 36Z" fill="#525254"/>
<path d="M139.2 147.999C144.943 147.999 149.6 143.343 149.6 137.599C149.6 131.855 144.943 127.199 139.2 127.199C133.456 127.199 128.8 131.855 128.8 137.599C128.8 143.343 133.456 147.999 139.2 147.999Z" fill="#39393B"/>
<path d="M166.4 147.999C172.144 147.999 176.8 143.343 176.8 137.599C176.8 131.855 172.144 127.199 166.4 127.199C160.656 127.199 156 131.855 156 137.599C156 143.343 160.656 147.999 166.4 147.999Z" fill="#39393B"/>
<path d="M193.6 147.999C199.344 147.999 204 143.343 204 137.599C204 131.855 199.344 127.199 193.6 127.199C187.856 127.199 183.2 131.855 183.2 137.599C183.2 143.343 187.856 147.999 193.6 147.999Z" fill="#39393B"/>
<path d="M220.8 147.999C226.544 147.999 231.2 143.343 231.2 137.599C231.2 131.855 226.544 127.199 220.8 127.199C215.056 127.199 210.4 131.855 210.4 137.599C210.4 143.343 215.056 147.999 220.8 147.999Z" fill="#39393B"/>
<path fill-rule="evenodd" clip-rule="evenodd" d="M228.242 50.4008C228.772 50.4022 229.001 50.4165 229.217 50.5321C229.325 50.5899 229.41 50.6748 229.468 50.783C229.592 51.0145 229.6 51.2606 229.6 51.8773V114.524C229.6 115.141 229.592 115.387 229.468 115.618C229.41 115.726 229.325 115.811 229.217 115.869C228.986 115.993 228.74 116.001 228.123 116.001H131.876C131.26 116.001 131.013 115.993 130.782 115.869C130.674 115.811 130.589 115.726 130.531 115.618C130.407 115.387 130.4 115.141 130.4 114.524L130.4 51.7588C130.401 51.2278 130.416 50.999 130.531 50.783C130.589 50.6748 130.674 50.5899 130.782 50.5321C131.013 50.4083 131.26 50.4006 131.876 50.4006L228.242 50.4008Z" fill="#202021" stroke="black" stroke-width="1.5"/>
<path d="M219.73 162.46C231.179 162.46 240.46 153.179 240.46 141.73C240.46 130.281 231.179 121 219.73 121C208.281 121 199 130.281 199 141.73C199 153.179 208.281 162.46 219.73 162.46Z" fill="#00B812" fill-opacity="0.5"/>
<path d="M266.544 202.683C257.069 193.208 248.499 173.245 248.499 173.245L247.466 168.409C247.466 168.409 243.931 160.722 241.302 157.613C238.968 152.996 236.925 148.202 234.537 143.621C233.117 140.894 231.614 138.018 230.011 135.411C228.408 132.803 226.014 130.522 223.044 129.789C220.154 129.074 216.478 129.459 213.762 130.677C210.947 131.942 206.872 134.182 206.504 141.835C205.926 154.159 209.491 162.095 214.385 173.463L218.952 180.409C218.952 180.409 229.972 221.573 233.939 234.032" fill="white"/>
<path d="M266.544 202.683C257.069 193.208 248.499 173.245 248.499 173.245L247.466 168.409C247.466 168.409 243.931 160.722 241.302 157.613C238.968 152.996 236.925 148.202 234.537 143.621C233.117 140.894 231.614 138.018 230.011 135.411C228.408 132.803 226.014 130.522 223.044 129.789C220.154 129.074 216.478 129.459 213.762 130.677C210.947 131.942 206.872 134.182 206.504 141.835C205.926 154.159 209.491 162.095 214.385 173.463L218.952 180.409C218.952 180.409 229.972 221.573 233.939 234.032" stroke="#D8D9DA" stroke-width="1.661"/>
<path d="M213.36 151.56C213.383 151.053 213.787 150.652 214.172 150.322C218.398 146.727 225.953 144.88 231.5 145" stroke="#D8D9DA" stroke-width="1.107"/>
<path d="M228.904 165.068C230.152 164.88 230.73 164.747 231.976 164.558C232.621 164.462 233.95 164.356 234.545 164.093C235.507 163.694 236.307 162.984 236.818 162.076M212.6 150.845C211.001 147.754 209.972 144.404 209.559 140.955C209.466 140.181 209.765 139.417 210.33 138.879L210.459 138.757C214.257 135.137 219.55 133.539 224.718 134.451V134.451C224.897 134.482 225.054 134.59 225.149 134.745L231.84 145.708C231.591 147.43 230.18 149.149 228.726 150.101C224.923 152.592 220.287 153.796 215.788 153.146C215.052 153.082 214.345 152.827 213.737 152.407C213.253 151.972 212.865 151.44 212.6 150.845ZM219.606 166.064C223.01 163.31 226.803 160.667 231.162 160.226C232.444 160.096 233.786 160.154 234.955 159.615L219.606 166.064Z" stroke="#D8D9DA" stroke-width="1.107"/>
</svg>
