<svg width="229" height="206" viewBox="0 0 229 206" fill="none" xmlns="http://www.w3.org/2000/svg">
<path d="M194.622 82.642H174.238C173.133 82.642 172.238 83.5374 172.238 84.642V105.026C172.238 106.131 173.133 107.026 174.238 107.026H194.622C195.727 107.026 196.622 106.131 196.622 105.026V84.642C196.622 83.5374 195.727 82.642 194.622 82.642Z" fill="white" stroke="#00B812" stroke-opacity="0.5" stroke-width="1.44"/>
<path d="M225.51 82.642H205.126C204.021 82.642 203.126 83.5374 203.126 84.642V105.026C203.126 106.131 204.021 107.026 205.126 107.026H225.51C226.615 107.026 227.51 106.131 227.51 105.026V84.642C227.51 83.5374 226.615 82.642 225.51 82.642Z" fill="white" stroke="#00B812" stroke-opacity="0.5" stroke-width="1.44"/>
<path d="M163.73 82.642H143.346C142.241 82.642 141.346 83.5374 141.346 84.642V105.026C141.346 106.131 142.241 107.026 143.346 107.026H163.73C164.835 107.026 165.73 106.131 165.73 105.026V84.642C165.73 83.5374 164.835 82.642 163.73 82.642Z" fill="white" stroke="#00B812" stroke-opacity="0.5" stroke-width="1.44"/>
<path d="M194.622 113.602H174.238C173.133 113.602 172.238 114.497 172.238 115.602V135.986C172.238 137.091 173.133 137.986 174.238 137.986H194.622C195.727 137.986 196.622 137.091 196.622 135.986V115.602C196.622 114.497 195.727 113.602 194.622 113.602Z" fill="white" stroke="#00B812" stroke-opacity="0.5" stroke-width="1.44"/>
<path d="M225.51 113.602H205.126C204.021 113.602 203.126 114.497 203.126 115.602V135.986C203.126 137.091 204.021 137.986 205.126 137.986H225.51C226.615 137.986 227.51 137.091 227.51 135.986V115.602C227.51 114.497 226.615 113.602 225.51 113.602Z" fill="white" stroke="#00B812" stroke-opacity="0.5" stroke-width="1.44"/>
<path d="M163.73 113.602H143.346C142.241 113.602 141.346 114.497 141.346 115.602V135.986C141.346 137.091 142.241 137.986 143.346 137.986H163.73C164.835 137.986 165.73 137.091 165.73 135.986V115.602C165.73 114.497 164.835 113.602 163.73 113.602Z" fill="white" stroke="#00B812" stroke-opacity="0.5" stroke-width="1.44"/>
<path d="M194.622 51.686H174.238C173.133 51.686 172.238 52.5814 172.238 53.686V74.07C172.238 75.1746 173.133 76.07 174.238 76.07H194.622C195.727 76.07 196.622 75.1746 196.622 74.07V53.686C196.622 52.5814 195.727 51.686 194.622 51.686Z" fill="white" stroke="#00B812" stroke-opacity="0.5" stroke-width="1.44"/>
<path d="M225.51 51.686H205.126C204.021 51.686 203.126 52.5814 203.126 53.686V74.07C203.126 75.1746 204.021 76.07 205.126 76.07H225.51C226.615 76.07 227.51 75.1746 227.51 74.07V53.686C227.51 52.5814 226.615 51.686 225.51 51.686Z" fill="white" stroke="#00B812" stroke-opacity="0.5" stroke-width="1.44"/>
<path d="M163.73 51.686H143.346C142.241 51.686 141.346 52.5814 141.346 53.686V74.07C141.346 75.1746 142.241 76.07 143.346 76.07H163.73C164.835 76.07 165.73 75.1746 165.73 74.07V53.686C165.73 52.5814 164.835 51.686 163.73 51.686Z" fill="#D8D9DA" stroke="#00B812" stroke-width="1.44"/>
<path d="M225.516 20.726H143.346C142.241 20.726 141.346 21.6214 141.346 22.726V43.11C141.346 44.2146 142.241 45.11 143.346 45.11H225.516C226.621 45.11 227.516 44.2146 227.516 43.11V22.726C227.516 21.6214 226.621 20.726 225.516 20.726Z" fill="white" stroke="#00B812" stroke-width="1.44"/>
<path d="M225.516 144.557H143.346C142.241 144.557 141.346 145.452 141.346 146.557V166.941C141.346 168.046 142.241 168.941 143.346 168.941H225.516C226.621 168.941 227.516 168.046 227.516 166.941V146.557C227.516 145.452 226.621 144.557 225.516 144.557Z" fill="#00B812"/>
<path d="M153.533 66.681C155.081 66.681 156.336 65.4261 156.336 63.878C156.336 62.3299 155.081 61.075 153.533 61.075C151.985 61.075 150.73 62.3299 150.73 63.878C150.73 65.4261 151.985 66.681 153.533 66.681Z" fill="#7A7F80"/>
<path d="M184.426 66.681C185.974 66.681 187.229 65.4261 187.229 63.878C187.229 62.3299 185.974 61.075 184.426 61.075C182.878 61.075 181.623 62.3299 181.623 63.878C181.623 65.4261 182.878 66.681 184.426 66.681Z" fill="#7A7F80"/>
<path d="M215.318 66.681C216.866 66.681 218.121 65.4261 218.121 63.878C218.121 62.3299 216.866 61.075 215.318 61.075C213.77 61.075 212.515 62.3299 212.515 63.878C212.515 65.4261 213.77 66.681 215.318 66.681Z" fill="#7A7F80"/>
<path d="M153.533 97.637C155.081 97.637 156.336 96.3821 156.336 94.834C156.336 93.2859 155.081 92.031 153.533 92.031C151.985 92.031 150.73 93.2859 150.73 94.834C150.73 96.3821 151.985 97.637 153.533 97.637Z" fill="#7A7F80"/>
<path d="M184.426 97.637C185.974 97.637 187.229 96.3821 187.229 94.834C187.229 93.2859 185.974 92.031 184.426 92.031C182.878 92.031 181.623 93.2859 181.623 94.834C181.623 96.3821 182.878 97.637 184.426 97.637Z" fill="#7A7F80"/>
<path d="M215.318 97.637C216.866 97.637 218.121 96.3821 218.121 94.834C218.121 93.2859 216.866 92.031 215.318 92.031C213.77 92.031 212.515 93.2859 212.515 94.834C212.515 96.3821 213.77 97.637 215.318 97.637Z" fill="#7A7F80"/>
<path d="M153.533 128.592C155.081 128.592 156.336 127.337 156.336 125.789C156.336 124.241 155.081 122.986 153.533 122.986C151.985 122.986 150.73 124.241 150.73 125.789C150.73 127.337 151.985 128.592 153.533 128.592Z" fill="#7A7F80"/>
<path d="M184.426 128.592C185.974 128.592 187.229 127.337 187.229 125.789C187.229 124.241 185.974 122.986 184.426 122.986C182.878 122.986 181.623 124.241 181.623 125.789C181.623 127.337 182.878 128.592 184.426 128.592Z" fill="#7A7F80"/>
<path d="M215.318 128.592C216.866 128.592 218.121 127.337 218.121 125.789C218.121 124.241 216.866 122.986 215.318 122.986C213.77 122.986 212.515 124.241 212.515 125.789C212.515 127.337 213.77 128.592 215.318 128.592Z" fill="#7A7F80"/>
<path d="M153.533 85.32C165.375 85.32 174.975 75.7201 174.975 63.878C174.975 52.0359 165.375 42.436 153.533 42.436C141.691 42.436 132.091 52.0359 132.091 63.878C132.091 75.7201 141.691 85.32 153.533 85.32Z" stroke="#F9C447" stroke-width="1.92"/>
<path d="M163.066 88.498C162.592 88.5006 162.129 88.3629 161.733 88.1024C161.337 87.8419 161.028 87.4702 160.843 87.034L158.242 80.933L154.018 84.864L154.061 64.997L168.461 78.706L162.701 79.036L165.302 85.138C165.428 85.4293 165.496 85.7428 165.5 86.0602C165.505 86.3777 165.446 86.6929 165.328 86.9876C165.209 87.2823 165.034 87.5505 164.811 87.7768C164.588 88.0031 164.323 88.183 164.03 88.306C163.725 88.436 163.397 88.501 163.066 88.498V88.498Z" fill="#7A7F80"/>
<path d="M154.56 66.115L167.333 78.293L163.358 78.518L161.995 78.595L162.528 79.853L164.866 85.325C164.964 85.5591 165.014 85.8103 165.014 86.064C165.014 86.3177 164.964 86.5689 164.866 86.803C164.673 87.2792 164.301 87.6604 163.829 87.864C163.589 87.964 163.331 88.017 163.07 88.018C162.69 88.02 162.318 87.9093 162.002 87.7C161.685 87.4907 161.437 87.1921 161.29 86.842L158.957 81.374L158.4 80.117L157.397 81.048L154.483 83.76L154.522 66.115H154.56ZM153.562 63.878L153.514 85.958L158.05 81.734L160.382 87.206C160.603 87.7289 160.974 88.1746 161.448 88.4872C161.922 88.7998 162.478 88.9654 163.046 88.963C163.525 88.966 163.998 88.8494 164.42 88.6237C164.843 88.398 165.203 88.0703 165.467 87.6704C165.731 87.2705 165.892 86.8109 165.933 86.3335C165.975 85.856 165.897 85.3756 165.706 84.936L163.368 79.464L169.555 79.109L153.6 63.879H153.562V63.878Z" fill="white"/>
<path d="M153.026 33.734H154.219V34.6255H153.026V36.621H151.928V34.6255H148.014V33.982L151.863 28.0251H153.026V33.734ZM149.254 33.734H151.928V29.5187L151.798 29.7549L149.254 33.734Z" fill="#00B812"/>
<path fill-rule="evenodd" clip-rule="evenodd" d="M9.61457 5L110.385 5C113.729 5 114.941 5.3481 116.163 6.00175C117.385 6.6554 118.345 7.61461 118.998 8.83683C119.652 10.0591 120 11.2714 120 14.6146V190.385C120 193.729 119.652 194.941 118.998 196.163C118.345 197.385 117.385 198.345 116.163 198.998C114.941 199.652 113.729 200 110.385 200H9.61457C6.27137 200 5.05905 199.652 3.83683 198.998C2.61461 198.345 1.6554 197.385 1.00175 196.163C0.348096 194.941 0 193.729 0 190.385L0 14.6146C0 11.2714 0.348096 10.0591 1.00175 8.83683C1.6554 7.61461 2.61461 6.6554 3.83683 6.00175C5.05905 5.3481 6.27137 5 9.61457 5Z" fill="#525254"/>
<path d="M21.7495 109.999C27.1343 109.999 31.4995 105.634 31.4995 100.249C31.4995 94.8642 27.1343 90.4989 21.7495 90.4989C16.3647 90.4989 11.9995 94.8642 11.9995 100.249C11.9995 105.634 16.3647 109.999 21.7495 109.999Z" fill="#39393B"/>
<path d="M47.25 109.999C52.6348 109.999 57 105.634 57 100.249C57 94.8642 52.6348 90.4989 47.25 90.4989C41.8652 90.4989 37.5 94.8642 37.5 100.249C37.5 105.634 41.8652 109.999 47.25 109.999Z" fill="#39393B"/>
<path d="M72.7505 109.999C78.1352 109.999 82.5005 105.634 82.5005 100.249C82.5005 94.8642 78.1352 90.4989 72.7505 90.4989C67.3657 90.4989 63.0005 94.8642 63.0005 100.249C63.0005 105.634 67.3657 109.999 72.7505 109.999Z" fill="#39393B"/>
<path d="M98.2497 109.999C103.635 109.999 108 105.634 108 100.249C108 94.8642 103.635 90.4989 98.2497 90.4989C92.865 90.4989 88.4998 94.8642 88.4998 100.249C88.4998 105.634 92.865 109.999 98.2497 109.999Z" fill="#39393B"/>
<path fill-rule="evenodd" clip-rule="evenodd" d="M105.226 18.5008C105.724 18.5021 105.939 18.5155 106.141 18.6239C106.243 18.6781 106.322 18.7577 106.377 18.8591C106.493 19.0761 106.5 19.3068 106.5 19.885V78.6163C106.5 79.1944 106.493 79.4252 106.377 79.6422C106.322 79.7436 106.243 79.8232 106.141 79.8774C105.924 79.9935 105.694 80.0006 105.115 80.0006H14.8841C14.306 80.0006 14.0752 79.9935 13.8582 79.8774C13.7568 79.8232 13.6772 79.7436 13.623 79.6422C13.5069 79.4252 13.4998 79.1944 13.4998 78.6163L13.4999 19.7739C13.5012 19.2761 13.5147 19.0616 13.623 18.8591C13.6772 18.7577 13.7568 18.6781 13.8582 18.6239C14.0752 18.5078 14.306 18.5006 14.8841 18.5006L105.226 18.5008Z" fill="#202021" stroke="black" stroke-width="1.5"/>
<circle cx="22.5" cy="50" r="3.75" fill="#00B812"/>
<circle cx="38.5" cy="50" r="3.25" stroke="#00B812"/>
<rect x="48.75" y="49.5" width="7.5" height="1" rx="0.5" fill="#00B812"/>
<rect x="63.75" y="49.5" width="7.5" height="1" rx="0.5" fill="#00B812"/>
<rect x="78.75" y="49.5" width="7.5" height="1" rx="0.5" fill="#00B812"/>
<rect x="94.75" y="49.5" width="7.5" height="1" rx="0.5" fill="#00B812"/>
</svg>
