<svg width="360" height="280" viewBox="0 0 360 280" fill="none" xmlns="http://www.w3.org/2000/svg">
<path fill-rule="evenodd" clip-rule="evenodd" d="M60.6917 53H141.308C143.983 53 144.953 53.2785 145.931 53.8014C146.908 54.3243 147.676 55.0917 148.199 56.0695C148.722 57.0472 149 58.0171 149 60.6917V201.308C149 203.983 148.722 204.953 148.199 205.931C147.676 206.908 146.908 207.676 145.931 208.199C144.953 208.722 143.983 209 141.308 209H60.6917C58.0171 209 57.0472 208.722 56.0695 208.199C55.0917 207.676 54.3243 206.908 53.8014 205.931C53.2785 204.953 53 203.983 53 201.308V60.6917C53 58.0171 53.2785 57.0472 53.8014 56.0695C54.3243 55.0917 55.0917 54.3243 56.0695 53.8014C57.0472 53.2785 58.0171 53 60.6917 53Z" fill="#525254"/>
<path d="M70.4006 136.997C74.7084 136.997 78.2006 133.504 78.2006 129.197C78.2006 124.889 74.7084 121.397 70.4006 121.397C66.0928 121.397 62.6006 124.889 62.6006 129.197C62.6006 133.504 66.0928 136.997 70.4006 136.997Z" fill="#39393B"/>
<path d="M90.8 136.997C95.1078 136.997 98.6 133.504 98.6 129.197C98.6 124.889 95.1078 121.397 90.8 121.397C86.4922 121.397 83 124.889 83 129.197C83 133.504 86.4922 136.997 90.8 136.997Z" fill="#39393B"/>
<path d="M111.199 136.997C115.507 136.997 118.999 133.504 118.999 129.197C118.999 124.889 115.507 121.397 111.199 121.397C106.892 121.397 103.399 124.889 103.399 129.197C103.399 133.504 106.892 136.997 111.199 136.997Z" fill="#39393B"/>
<path d="M131.599 136.997C135.907 136.997 139.399 133.504 139.399 129.197C139.399 124.889 135.907 121.397 131.599 121.397C127.291 121.397 123.799 124.889 123.799 129.197C123.799 133.504 127.291 136.997 131.599 136.997Z" fill="#39393B"/>
<path fill-rule="evenodd" clip-rule="evenodd" d="M137.381 63.9996C137.78 64.0007 137.951 64.0115 138.113 64.0981C138.194 64.1415 138.258 64.2052 138.301 64.2863C138.394 64.4599 138.4 64.6445 138.4 65.107V112.092C138.4 112.555 138.394 112.739 138.301 112.913C138.258 112.994 138.194 113.058 138.113 113.101C137.94 113.194 137.755 113.2 137.293 113.2H65.1075C64.645 113.2 64.4604 113.194 64.2868 113.101C64.2056 113.058 64.142 112.994 64.0986 112.913C64.0057 112.739 64 112.555 64 112.092L64.0001 65.0181C64.0012 64.6199 64.0119 64.4483 64.0986 64.2863C64.142 64.2052 64.2056 64.1415 64.2868 64.0981C64.4604 64.0053 64.645 63.9995 65.1075 63.9995L137.381 63.9996Z" fill="#202021" stroke="black" stroke-width="1.5"/>
<path d="M123.5 83V95C123.5 95.8284 122.828 96.5 122 96.5H78C77.1716 96.5 76.5 95.8284 76.5 95V83C76.5 82.1716 77.1716 81.5 78 81.5H122C122.828 81.5 123.5 82.1716 123.5 83Z" stroke="#00B812" stroke-opacity="0.5"/>
<path d="M80 85H110V93H80V85Z" fill="#00B812"/>
<path d="M174.905 148.813L183.811 143.965L178.964 135.059M183.811 143.979C152.578 131.876 123.366 111.776 123.366 111.776L183.811 143.979Z" stroke="#FEC746" stroke-width="1.678"/>
<rect x="184" y="60" width="120" height="141" rx="4" fill="white"/>
<rect x="184.5" y="60.5" width="119" height="140" rx="3.5" stroke="#00B812" stroke-opacity="0.5"/>
<path d="M218.742 73.8086H217.641V76H216.652V70.3125H218.652C219.309 70.3125 219.815 70.4596 220.172 70.7539C220.529 71.0482 220.707 71.474 220.707 72.0312C220.707 72.4115 220.615 72.7305 220.43 72.9883C220.247 73.2435 219.992 73.4401 219.664 73.5781L220.941 75.9492V76H219.883L218.742 73.8086ZM217.641 73.0156H218.656C218.99 73.0156 219.25 72.9323 219.438 72.7656C219.625 72.5964 219.719 72.3659 219.719 72.0742C219.719 71.7695 219.632 71.5339 219.457 71.3672C219.285 71.2005 219.027 71.1146 218.684 71.1094H217.641V73.0156ZM224.969 73.4609H222.633V75.2109H225.363V76H221.645V70.3125H225.336V71.1094H222.633V72.6797H224.969V73.4609ZM230.508 74.1484C230.451 74.7552 230.227 75.2292 229.836 75.5703C229.445 75.9089 228.926 76.0781 228.277 76.0781C227.824 76.0781 227.424 75.9714 227.078 75.7578C226.734 75.5417 226.469 75.2357 226.281 74.8398C226.094 74.444 225.996 73.9844 225.988 73.4609V72.9297C225.988 72.3932 226.083 71.9206 226.273 71.5117C226.464 71.1029 226.736 70.7878 227.09 70.5664C227.447 70.3451 227.858 70.2344 228.324 70.2344C228.952 70.2344 229.457 70.4049 229.84 70.7461C230.223 71.0872 230.445 71.569 230.508 72.1914H229.523C229.477 71.7826 229.357 71.4883 229.164 71.3086C228.974 71.1263 228.694 71.0352 228.324 71.0352C227.895 71.0352 227.564 71.1927 227.332 71.5078C227.103 71.8203 226.986 72.2799 226.98 72.8867V73.3906C226.98 74.0052 227.09 74.474 227.309 74.7969C227.53 75.1198 227.853 75.2812 228.277 75.2812C228.665 75.2812 228.957 75.194 229.152 75.0195C229.348 74.8451 229.471 74.5547 229.523 74.1484H230.508ZM235.934 73.3047C235.934 73.862 235.837 74.3516 235.645 74.7734C235.452 75.1927 235.176 75.5156 234.816 75.7422C234.46 75.9661 234.048 76.0781 233.582 76.0781C233.121 76.0781 232.71 75.9661 232.348 75.7422C231.988 75.5156 231.71 75.194 231.512 74.7773C231.316 74.3607 231.217 73.8802 231.215 73.3359V73.0156C231.215 72.4609 231.312 71.9714 231.508 71.5469C231.706 71.1224 231.983 70.7982 232.34 70.5742C232.699 70.3477 233.111 70.2344 233.574 70.2344C234.038 70.2344 234.448 70.3464 234.805 70.5703C235.164 70.7917 235.441 71.112 235.637 71.5312C235.832 71.9479 235.931 72.4336 235.934 72.9883V73.3047ZM234.945 73.0078C234.945 72.3776 234.826 71.8945 234.586 71.5586C234.349 71.2227 234.012 71.0547 233.574 71.0547C233.147 71.0547 232.812 71.2227 232.57 71.5586C232.331 71.8919 232.208 72.3646 232.203 72.9766V73.3047C232.203 73.9297 232.324 74.4128 232.566 74.7539C232.811 75.0951 233.15 75.2656 233.582 75.2656C234.02 75.2656 234.355 75.099 234.59 74.7656C234.827 74.4323 234.945 73.9453 234.945 73.3047V73.0078ZM238.836 74.7617L240.281 70.3125H241.367L239.32 76H238.363L236.324 70.3125H237.406L238.836 74.7617ZM245.336 73.4609H243V75.2109H245.73V76H242.012V70.3125H245.703V71.1094H243V72.6797H245.336V73.4609ZM248.391 73.0078L249.699 70.3125H250.793L248.887 73.9062V76H247.895V73.9062L245.984 70.3125H247.082L248.391 73.0078ZM256.375 74.5352C256.375 74.2852 256.286 74.0924 256.109 73.957C255.935 73.8216 255.618 73.6849 255.16 73.5469C254.702 73.4089 254.337 73.2552 254.066 73.0859C253.548 72.7604 253.289 72.3359 253.289 71.8125C253.289 71.3542 253.475 70.9766 253.848 70.6797C254.223 70.3828 254.708 70.2344 255.305 70.2344C255.701 70.2344 256.053 70.3073 256.363 70.4531C256.673 70.599 256.917 70.8073 257.094 71.0781C257.271 71.3464 257.359 71.6445 257.359 71.9727H256.375C256.375 71.6758 256.281 71.444 256.094 71.2773C255.909 71.1081 255.643 71.0234 255.297 71.0234C254.974 71.0234 254.723 71.0924 254.543 71.2305C254.366 71.3685 254.277 71.5612 254.277 71.8086C254.277 72.0169 254.374 72.1914 254.566 72.332C254.759 72.4701 255.077 72.6055 255.52 72.7383C255.962 72.8685 256.318 73.0182 256.586 73.1875C256.854 73.3542 257.051 73.5469 257.176 73.7656C257.301 73.9818 257.363 74.2357 257.363 74.5273C257.363 75.0013 257.181 75.3789 256.816 75.6602C256.454 75.9388 255.962 76.0781 255.34 76.0781C254.928 76.0781 254.549 76.0026 254.203 75.8516C253.859 75.6979 253.591 75.487 253.398 75.2188C253.208 74.9505 253.113 74.638 253.113 74.2812H254.102C254.102 74.6042 254.208 74.8542 254.422 75.0312C254.635 75.2083 254.941 75.2969 255.34 75.2969C255.684 75.2969 255.941 75.2279 256.113 75.0898C256.288 74.9492 256.375 74.7643 256.375 74.5352ZM261.555 73.4609H259.219V75.2109H261.949V76H258.23V70.3125H261.922V71.1094H259.219V72.6797H261.555V73.4609ZM266.078 73.4609H263.742V75.2109H266.473V76H262.754V70.3125H266.445V71.1094H263.742V72.6797H266.078V73.4609ZM267.277 76V70.3125H268.957C269.46 70.3125 269.905 70.4245 270.293 70.6484C270.684 70.8724 270.986 71.1901 271.199 71.6016C271.413 72.013 271.52 72.4844 271.52 73.0156V73.3008C271.52 73.8398 271.411 74.3138 271.195 74.7227C270.982 75.1315 270.676 75.4466 270.277 75.668C269.882 75.8893 269.427 76 268.914 76H267.277ZM268.266 71.1094V75.2109H268.91C269.428 75.2109 269.826 75.0495 270.102 74.7266C270.38 74.401 270.522 73.9349 270.527 73.3281V73.0117C270.527 72.3945 270.393 71.9232 270.125 71.5977C269.857 71.2721 269.467 71.1094 268.957 71.1094H268.266Z" fill="#00B812"/>
<rect x="194.5" y="88.5" width="48" height="12" rx="2" fill="#EEEEEE"/>
<rect x="194.5" y="106.5" width="48" height="12" rx="2" fill="#EEEEEE"/>
<rect x="194.5" y="124.5" width="48" height="12" rx="2" fill="#EEEEEE"/>
<rect x="194.5" y="142.5" width="48" height="12" rx="2" fill="#EEEEEE"/>
<rect x="194.5" y="160.5" width="48" height="12" rx="2" fill="#EEEEEE"/>
<rect x="194.5" y="178.5" width="48" height="12" rx="2" fill="#EEEEEE"/>
<rect x="245.5" y="88.5" width="48" height="12" rx="2" fill="#EEEEEE"/>
<rect x="245.5" y="106.5" width="48" height="12" rx="2" fill="#EEEEEE"/>
<rect x="245.5" y="124.5" width="48" height="12" rx="2" fill="#EEEEEE"/>
<rect x="245.5" y="142.5" width="48" height="12" rx="2" fill="#EEEEEE"/>
<rect x="245.5" y="160.5" width="48" height="12" rx="2" fill="#EEEEEE"/>
<rect x="245.5" y="178.5" width="48" height="12" rx="2" fill="#EEEEEE"/>
<rect x="196" y="90" width="37.5" height="9" rx="1" fill="#00B812" fill-opacity="0.5"/>
<rect x="196" y="108" width="30" height="9" rx="1" fill="#00B812" fill-opacity="0.5"/>
<rect x="247" y="90" width="31.5" height="9" rx="1" fill="#00B812" fill-opacity="0.5"/>
<path d="M230.005 132.993L226 136.943Z" fill="white"/>
<path d="M230.005 132.993L226 136.943" stroke="#7A7F80" stroke-width="1.678" stroke-linecap="round"/>
<path d="M237.852 132.043L231.838 134.848L228.05 131.01L231.057 125.158L314.503 42.8076L321.298 49.6946L237.852 132.043ZM259.913 96.6796L266.707 103.567Z" fill="white"/>
<path d="M259.913 96.6796L266.707 103.567M237.852 132.043L231.838 134.848L228.05 131.01L231.057 125.158L314.503 42.8076L321.298 49.6946L237.852 132.043Z" stroke="#7A7F80" stroke-width="1.119"/>
<path d="M332.822 40.8617C333.93 39.6269 334.525 38.0156 334.486 36.3568C334.446 34.698 333.775 33.1168 332.609 31.9362C331.443 30.7556 329.87 30.0646 328.212 30.0043C326.554 29.944 324.935 30.5189 323.687 31.6117L290.26 64.5787L299.407 73.8487L332.827 40.8667L332.822 40.8617V40.8617Z" fill="white" stroke="#7A7F80" stroke-width="1.119"/>
<path d="M332.822 40.8613C333.685 41.7365 334.166 42.9187 334.158 44.148C334.15 45.3773 333.655 46.5532 332.78 47.4173L302.66 77.1433" stroke="#7A7F80" stroke-width="1.119"/>
</svg>
