<svg width="360" height="280" viewBox="0 0 360 280" fill="none" xmlns="http://www.w3.org/2000/svg">
<path fill-rule="evenodd" clip-rule="evenodd" d="M126.256 36H233.744C237.311 36 238.604 36.3713 239.907 37.0685C241.211 37.7658 242.234 38.7889 242.931 40.0926C243.629 41.3963 244 42.6895 244 46.2555V233.744C244 237.311 243.629 238.604 242.931 239.907C242.234 241.211 241.211 242.234 239.907 242.931C238.604 243.629 237.311 244 233.744 244H126.256C122.689 244 121.396 243.629 120.093 242.931C118.789 242.234 117.766 241.211 117.069 239.907C116.371 238.604 116 237.311 116 233.744V46.2555C116 42.6895 116.371 41.3963 117.069 40.0926C117.766 38.7889 118.789 37.7658 120.093 37.0685C121.396 36.3713 122.689 36 126.256 36Z" fill="#525254"/>
<path d="M139.201 147.995C144.945 147.995 149.601 143.339 149.601 137.595C149.601 131.852 144.945 127.195 139.201 127.195C133.457 127.195 128.801 131.852 128.801 137.595C128.801 143.339 133.457 147.995 139.201 147.995Z" fill="#39393B"/>
<path d="M166.4 147.995C172.144 147.995 176.8 143.339 176.8 137.595C176.8 131.852 172.144 127.195 166.4 127.195C160.656 127.195 156 131.852 156 137.595C156 143.339 160.656 147.995 166.4 147.995Z" fill="#39393B"/>
<path d="M193.599 147.995C199.343 147.995 203.999 143.339 203.999 137.595C203.999 131.852 199.343 127.195 193.599 127.195C187.855 127.195 183.199 131.852 183.199 137.595C183.199 143.339 187.855 147.995 193.599 147.995Z" fill="#39393B"/>
<path d="M220.798 147.995C226.542 147.995 231.198 143.339 231.198 137.595C231.198 131.852 226.542 127.195 220.798 127.195C215.055 127.195 210.398 131.852 210.398 137.595C210.398 143.339 215.055 147.995 220.798 147.995Z" fill="#39393B"/>
<path fill-rule="evenodd" clip-rule="evenodd" d="M228.242 50.6663C228.773 50.6677 229.002 50.6821 229.218 50.7977C229.326 50.8555 229.411 50.9404 229.469 51.0485C229.593 51.28 229.6 51.5262 229.6 52.1429V114.79C229.6 115.406 229.593 115.652 229.469 115.884C229.411 115.992 229.326 116.077 229.218 116.135C228.987 116.259 228.74 116.266 228.124 116.266H131.877C131.26 116.266 131.014 116.259 130.783 116.135C130.675 116.077 130.59 115.992 130.532 115.884C130.408 115.652 130.4 115.406 130.4 114.79L130.401 52.0244C130.402 51.4934 130.416 51.2646 130.532 51.0485C130.59 50.9404 130.675 50.8555 130.783 50.7977C131.014 50.6739 131.26 50.6662 131.877 50.6662L228.242 50.6663Z" fill="#202021" stroke="black" stroke-width="1.5"/>
<path fill-rule="evenodd" clip-rule="evenodd" d="M165.528 82.1702C165.978 81.7246 166.586 81.4746 167.219 81.4746C167.853 81.4746 168.46 81.7246 168.911 82.1702L175.872 89.0529L192.405 72.6929C192.856 72.2489 193.464 72 194.097 72C194.729 72 195.337 72.2489 195.788 72.6929C196.008 72.9115 196.183 73.1716 196.302 73.4581C196.422 73.7446 196.483 74.0519 196.483 74.3622C196.483 74.6726 196.422 74.9799 196.302 75.2664C196.183 75.5529 196.008 75.8129 195.788 76.0316L175.872 95.7369L165.528 85.5036C165.308 85.285 165.134 85.0253 165.015 84.7393C164.897 84.4533 164.835 84.1466 164.835 83.8369C164.835 83.5272 164.897 83.2205 165.015 82.9345C165.134 82.6485 165.308 82.3888 165.528 82.1702Z" fill="#00B812"/>
</svg>
