<svg width="360" height="280" viewBox="0 0 360 280" fill="none" xmlns="http://www.w3.org/2000/svg">
<path d="M183.334 219.512V256.897H177.214V219.512H183.334Z" fill="#D8D9DA"/>
<path d="M170.608 179.595H189.943V215.815H170.608V179.595ZM183.32 225.087L183.337 251.983L177.217 251.987L177.2 225.091L183.32 225.087Z" fill="#BEBDC0"/>
<path d="M173.965 206.897H186.583V243.804H173.965V206.897Z" fill="#D8D9DA"/>
<path d="M169.081 197.147H191.468V230.382H169.081V197.147Z" fill="#D8D9DA"/>
<path fill-rule="evenodd" clip-rule="evenodd" d="M139.692 24H220.308C222.983 24 223.953 24.2785 224.931 24.8014C225.908 25.3243 226.676 26.0917 227.199 27.0695C227.722 28.0472 228 29.0171 228 31.6917V172.308C228 174.983 227.722 175.953 227.199 176.931C226.676 177.908 225.908 178.676 224.931 179.199C223.953 179.722 222.983 180 220.308 180H139.692C137.017 180 136.047 179.722 135.069 179.199C134.092 178.676 133.324 177.908 132.801 176.931C132.278 175.953 132 174.983 132 172.308V31.6917C132 29.0171 132.278 28.0472 132.801 27.0695C133.324 26.0917 134.092 25.3243 135.069 24.8014C136.047 24.2785 137.017 24 139.692 24Z" fill="#525254"/>
<path d="M149.401 107.997C153.708 107.997 157.201 104.504 157.201 100.197C157.201 95.8888 153.708 92.3967 149.401 92.3967C145.093 92.3967 141.601 95.8888 141.601 100.197C141.601 104.504 145.093 107.997 149.401 107.997Z" fill="#39393B"/>
<path d="M169.8 107.997C174.108 107.997 177.6 104.504 177.6 100.197C177.6 95.8888 174.108 92.3967 169.8 92.3967C165.492 92.3967 162 95.8888 162 100.197C162 104.504 165.492 107.997 169.8 107.997Z" fill="#39393B"/>
<path d="M190.199 107.997C194.507 107.997 197.999 104.504 197.999 100.197C197.999 95.8888 194.507 92.3967 190.199 92.3967C185.892 92.3967 182.399 95.8888 182.399 100.197C182.399 104.504 185.892 107.997 190.199 107.997Z" fill="#39393B"/>
<path d="M210.599 107.997C214.907 107.997 218.399 104.504 218.399 100.197C218.399 95.8888 214.907 92.3967 210.599 92.3967C206.291 92.3967 202.799 95.8888 202.799 100.197C202.799 104.504 206.291 107.997 210.599 107.997Z" fill="#39393B"/>
<path fill-rule="evenodd" clip-rule="evenodd" d="M216.182 34.9996C216.58 35.0007 216.751 35.0114 216.914 35.0981C216.995 35.1415 217.058 35.2052 217.102 35.2863C217.195 35.4599 217.2 35.6445 217.2 36.107V83.092C217.2 83.5546 217.195 83.7392 217.102 83.9128C217.058 83.9939 216.995 84.0575 216.914 84.1009C216.74 84.1938 216.555 84.1995 216.093 84.1995H143.908C143.445 84.1995 143.261 84.1938 143.087 84.1009C143.006 84.0575 142.942 83.9939 142.899 83.9128C142.806 83.7392 142.8 83.5546 142.8 83.092L142.8 36.0181C142.801 35.6199 142.812 35.4483 142.899 35.2863C142.942 35.2052 143.006 35.1415 143.087 35.0981C143.261 35.0053 143.445 34.9995 143.908 34.9995L216.182 34.9996Z" fill="#202021" stroke="black" stroke-width="1.5"/>
<path fill-rule="evenodd" clip-rule="evenodd" d="M169.146 58.6277C169.484 58.2935 169.94 58.106 170.415 58.106C170.89 58.106 171.346 58.2935 171.683 58.6277L176.904 63.7897L189.304 51.5197C189.643 51.1867 190.098 51 190.573 51C191.047 51 191.503 51.1867 191.841 51.5197C192.006 51.6836 192.138 51.8787 192.227 52.0936C192.317 52.3085 192.363 52.5389 192.363 52.7717C192.363 53.0044 192.317 53.2349 192.227 53.4498C192.138 53.6647 192.006 53.8597 191.841 54.0237L176.904 68.8027L169.146 61.1277C168.982 60.9638 168.851 60.769 168.762 60.5545C168.673 60.34 168.627 60.11 168.627 59.8777C168.627 59.6454 168.673 59.4154 168.762 59.2009C168.851 58.9864 168.982 58.7916 169.146 58.6277Z" fill="#00B812"/>
</svg>
