<svg width="360" height="280" viewBox="0 0 360 280" fill="none" xmlns="http://www.w3.org/2000/svg">
<path d="M183.334 219.512V256.897H177.214V219.512H183.334Z" fill="#D8D9DA"/>
<path d="M170.608 179.595H189.943V215.815H170.608V179.595ZM183.32 225.087L183.337 251.983L177.217 251.987L177.2 225.091L183.32 225.087Z" fill="#BEBDC0"/>
<path d="M173.965 206.897H186.583V243.804H173.965V206.897Z" fill="#D8D9DA"/>
<path d="M169.081 197.147H191.468V230.382H169.081V197.147Z" fill="#D8D9DA"/>
<path fill-rule="evenodd" clip-rule="evenodd" d="M139.692 24H220.308C222.983 24 223.953 24.2785 224.931 24.8014C225.908 25.3243 226.676 26.0917 227.199 27.0695C227.722 28.0472 228 29.0171 228 31.6917V172.308C228 174.983 227.722 175.953 227.199 176.931C226.676 177.908 225.908 178.676 224.931 179.199C223.953 179.722 222.983 180 220.308 180H139.692C137.017 180 136.047 179.722 135.069 179.199C134.092 178.676 133.324 177.908 132.801 176.931C132.278 175.953 132 174.983 132 172.308V31.6917C132 29.0171 132.278 28.0472 132.801 27.0695C133.324 26.0917 134.092 25.3243 135.069 24.8014C136.047 24.2785 137.017 24 139.692 24Z" fill="#525254"/>
<path d="M149.401 107.997C153.708 107.997 157.201 104.504 157.201 100.197C157.201 95.8888 153.708 92.3967 149.401 92.3967C145.093 92.3967 141.601 95.8888 141.601 100.197C141.601 104.504 145.093 107.997 149.401 107.997Z" fill="#39393B"/>
<path d="M169.8 107.997C174.108 107.997 177.6 104.504 177.6 100.197C177.6 95.8888 174.108 92.3967 169.8 92.3967C165.492 92.3967 162 95.8888 162 100.197C162 104.504 165.492 107.997 169.8 107.997Z" fill="#39393B"/>
<path d="M190.199 107.997C194.507 107.997 197.999 104.504 197.999 100.197C197.999 95.8888 194.507 92.3967 190.199 92.3967C185.892 92.3967 182.399 95.8888 182.399 100.197C182.399 104.504 185.892 107.997 190.199 107.997Z" fill="#39393B"/>
<path d="M210.599 107.997C214.907 107.997 218.399 104.504 218.399 100.197C218.399 95.8888 214.907 92.3967 210.599 92.3967C206.291 92.3967 202.799 95.8888 202.799 100.197C202.799 104.504 206.291 107.997 210.599 107.997Z" fill="#39393B"/>
<path fill-rule="evenodd" clip-rule="evenodd" d="M216.182 34.9996C216.58 35.0007 216.751 35.0114 216.914 35.0981C216.995 35.1415 217.058 35.2052 217.102 35.2863C217.195 35.4599 217.2 35.6445 217.2 36.107V83.092C217.2 83.5546 217.195 83.7392 217.102 83.9128C217.058 83.9939 216.995 84.0575 216.914 84.1009C216.74 84.1938 216.555 84.1995 216.093 84.1995H143.908C143.445 84.1995 143.261 84.1938 143.087 84.1009C143.006 84.0575 142.942 83.9939 142.899 83.9128C142.806 83.7392 142.8 83.5546 142.8 83.092L142.8 36.0181C142.801 35.6199 142.812 35.4483 142.899 35.2863C142.942 35.2052 143.006 35.1415 143.087 35.0981C143.261 35.0053 143.445 34.9995 143.908 34.9995L216.182 34.9996Z" fill="#202021" stroke="black" stroke-width="1.5"/>
<path d="M164.975 47.5258C164.9 47.2166 164.805 46.9126 164.69 46.6158C164.612 46.4338 165.407 45.8478 165.33 45.7128C165.12 45.3895 164.897 45.0746 164.661 44.7688C164.555 44.6468 163.745 45.2078 163.598 45.0718C163.355 44.8659 163.098 44.6762 162.83 44.5038C162.658 44.4018 162.958 43.4648 162.816 43.3968C162.674 43.3288 161.877 43.0618 161.721 43.0268C161.565 42.9898 161.235 43.9218 161.038 43.8968C160.722 43.8721 160.405 43.8684 160.088 43.8858C159.888 43.9038 159.575 42.9688 159.423 43.0008C159.271 43.0328 158.468 43.2808 158.321 43.3438C158.174 43.4058 158.449 44.3518 158.278 44.4488C158.007 44.6148 157.748 44.7988 157.501 44.9988C157.353 45.1268 156.554 44.5538 156.444 44.6728C156.334 44.7918 155.839 45.4598 155.756 45.5988C155.673 45.7388 156.457 46.3398 156.373 46.5258C156.252 46.8168 156.15 47.1158 156.068 47.4208C156.024 47.6168 155.044 47.6198 155.021 47.7778C154.998 47.9378 154.993 48.7738 155.009 48.9298C155.024 49.0858 156.008 49.1158 156.046 49.3138C156.121 49.6238 156.216 49.9278 156.33 50.2238C156.408 50.4068 155.612 50.9928 155.69 51.1208C155.769 51.2488 156.251 51.9428 156.358 52.0648C156.466 52.1868 157.275 51.6258 157.422 51.7618C157.665 51.9678 157.922 52.1578 158.189 52.3298C158.362 52.4318 158.062 53.3688 158.204 53.4348C158.346 53.5018 159.143 53.7718 159.298 53.8078C159.452 53.8438 159.785 52.9118 159.981 52.9378C160.298 52.9618 160.616 52.9658 160.933 52.9478C161.131 52.9298 161.445 53.8648 161.597 53.8328C161.749 53.8008 162.55 53.5528 162.699 53.4898C162.847 53.4278 162.571 52.4818 162.742 52.3848C163.012 52.2188 163.272 52.0348 163.518 51.8348C163.666 51.7068 164.466 52.2798 164.576 52.1608C164.686 52.0408 165.181 51.3738 165.264 51.2348C165.347 51.0948 164.562 50.4918 164.649 50.3178C164.77 50.0268 164.872 49.7278 164.954 49.4228C164.998 49.2268 165.978 49.2238 166.001 49.0658C166.024 48.9068 166.029 48.0698 166.014 47.9138C165.999 47.7578 165.014 47.7208 164.975 47.5258ZM162.465 49.5738C162.237 49.9603 161.898 50.2703 161.494 50.4645C161.089 50.6588 160.635 50.7285 160.191 50.665C159.746 50.6015 159.33 50.4075 158.996 50.1076C158.662 49.8078 158.424 49.4155 158.312 48.9804C158.201 48.5453 158.221 48.087 158.371 47.6634C158.52 47.2398 158.792 46.8701 159.151 46.6009C159.51 46.3317 159.942 46.1751 160.39 46.1511C160.839 46.1271 161.284 46.2366 161.67 46.4658C162.188 46.7732 162.562 47.2736 162.711 47.8569C162.86 48.4403 162.771 49.0589 162.464 49.5768V49.5738H162.465ZM204.239 69.2108C204.139 68.7829 204.01 68.362 203.854 67.9508C203.748 67.6978 204.831 66.8878 204.725 66.7008C204.44 66.2529 204.137 65.8168 203.816 65.3938C203.672 65.2278 202.569 65.9998 202.369 65.8128C202.039 65.5279 201.69 65.265 201.324 65.0258C201.089 64.8838 201.499 63.5868 201.305 63.4958C200.816 63.302 200.319 63.1298 199.815 62.9798C199.602 62.9298 199.153 64.2198 198.885 64.1838C198.455 64.1499 198.022 64.1452 197.591 64.1698C197.321 64.1948 196.895 62.8998 196.688 62.9438C196.182 63.0817 195.682 63.2402 195.188 63.4188C194.988 63.5058 195.363 64.8148 195.129 64.9488C194.761 65.1798 194.409 65.4348 194.072 65.7118C193.872 65.8888 192.784 65.0948 192.634 65.2598C192.484 65.4248 191.81 66.3498 191.697 66.5428C191.584 66.7358 192.647 67.5678 192.535 67.8158C192.37 68.2196 192.231 68.6338 192.119 69.0558C192.059 69.3258 190.726 69.3288 190.694 69.5488C190.663 69.7688 190.656 70.9288 190.677 71.1438C190.697 71.3578 192.037 71.4008 192.089 71.6748C192.192 72.1038 192.321 72.5248 192.476 72.9368C192.582 73.1878 191.499 73.9908 191.605 74.1858C191.888 74.635 192.192 75.0711 192.514 75.4928C192.66 75.6618 193.761 74.8858 193.961 75.0728C194.291 75.3588 194.641 75.6208 195.006 75.8598C195.241 76.0018 194.831 77.2988 195.025 77.3928C195.218 77.4868 196.303 77.8568 196.515 77.9058C196.728 77.9558 197.177 76.6658 197.443 76.7018C197.874 76.7358 198.307 76.7398 198.739 76.7158C199.009 76.6908 199.435 77.9858 199.642 77.9418C200.149 77.8044 200.649 77.646 201.142 77.4668C201.344 77.3778 200.967 76.0708 201.201 75.9368C201.568 75.7068 201.921 75.4528 202.256 75.1768C202.458 74.9988 203.546 75.7908 203.696 75.6268C203.846 75.4608 204.52 74.5368 204.633 74.3428C204.746 74.1498 203.683 73.3178 203.795 73.0698C203.961 72.6658 204.1 72.2518 204.211 71.8298C204.271 71.5578 205.604 71.5548 205.636 71.3348C205.667 71.1148 205.674 69.9568 205.653 69.7408C205.633 69.5238 204.293 69.4768 204.239 69.2108ZM200.823 72.0458C200.621 72.3989 200.349 72.708 200.026 72.955C199.702 73.202 199.332 73.3819 198.938 73.4842C198.544 73.5864 198.133 73.609 197.73 73.5505C197.327 73.4921 196.94 73.3538 196.591 73.1438C195.124 72.2578 194.641 70.3298 195.511 68.8378C195.714 68.4847 195.985 68.1755 196.308 67.9284C196.632 67.6813 197.001 67.5012 197.395 67.3987C197.789 67.2962 198.199 67.2733 198.602 67.3313C199.005 67.3894 199.392 67.5272 199.741 67.7368C200.45 68.1662 200.96 68.8586 201.16 69.6628C201.363 70.4707 201.242 71.3259 200.823 72.0458Z" fill="#D8D9DA"/>
<path d="M185.925 63.8C186.168 63.205 186.371 62.595 186.535 61.972C186.623 61.576 188.587 61.57 188.625 61.248C188.661 60.925 188.68 59.226 188.651 58.902C188.621 58.577 186.65 58.525 186.576 58.131C186.428 57.5035 186.239 56.8863 186.011 56.283C185.854 55.913 187.444 54.736 187.286 54.451C187.128 54.166 186.166 52.781 185.953 52.535C185.74 52.288 184.123 53.425 183.829 53.15C183.346 52.732 182.836 52.3465 182.302 51.996C181.957 51.782 182.562 49.886 182.274 49.748C181.985 49.609 180.398 49.065 180.088 48.998C179.778 48.932 179.116 50.81 178.719 50.764C178.089 50.714 177.455 50.707 176.824 50.742C176.428 50.78 175.813 48.88 175.498 48.945C175.183 49.009 173.594 49.511 173.298 49.641C173.002 49.771 173.558 51.688 173.211 51.889C172.671 52.225 172.153 52.597 171.662 53.003C171.366 53.268 169.767 52.1 169.556 52.342C169.346 52.584 168.343 53.934 168.176 54.22C168.01 54.506 169.569 55.724 169.402 56.087C169.16 56.6826 168.956 57.2932 168.792 57.915C168.707 58.31 166.742 58.316 166.706 58.638C166.669 58.961 166.65 60.66 166.679 60.984C166.709 61.309 168.68 61.361 168.753 61.756C168.903 62.384 169.092 63 169.319 63.603C169.475 63.973 167.886 65.15 168.044 65.435C168.202 65.72 169.164 67.105 169.377 67.351C169.59 67.598 171.207 66.461 171.501 66.737C171.985 67.155 172.495 67.541 173.028 67.891C173.372 68.099 172.768 70.001 173.056 70.139C173.345 70.279 174.932 70.821 175.242 70.889C175.552 70.956 176.214 69.076 176.611 69.123C177.241 69.173 177.875 69.179 178.506 69.145C178.902 69.106 179.517 71.005 179.832 70.941C180.147 70.877 181.737 70.374 182.032 70.244C182.326 70.114 181.772 68.197 182.119 67.996C182.659 67.662 183.175 67.292 183.667 66.889C183.963 66.623 185.562 67.792 185.778 67.551C185.994 67.31 186.987 65.953 187.153 65.669C187.32 65.386 185.76 64.162 185.925 63.8Z" fill="#00B812" fill-opacity="0.5"/>
<path fill-rule="evenodd" clip-rule="evenodd" d="M172.889 60.1683C173.033 60.028 173.226 59.9494 173.426 59.9494C173.627 59.9494 173.82 60.028 173.963 60.1683L176.173 62.3543L181.418 57.1623C181.562 57.022 181.755 56.9434 181.955 56.9434C182.156 56.9434 182.349 57.022 182.492 57.1623C182.563 57.2317 182.619 57.3145 182.657 57.4057C182.695 57.497 182.715 57.5949 182.715 57.6938C182.715 57.7927 182.695 57.8907 182.657 57.9819C182.619 58.0732 182.563 58.1559 182.492 58.2253L176.17 64.4803L172.886 61.2303C172.816 61.1607 172.761 61.0779 172.723 60.9866C172.685 60.8954 172.665 60.7975 172.666 60.6987C172.666 60.5999 172.686 60.5021 172.724 60.4111C172.763 60.32 172.819 60.2375 172.889 60.1683Z" fill="white"/>
</svg>
