<svg width="360" height="280" viewBox="0 0 360 280" fill="none" xmlns="http://www.w3.org/2000/svg">
<path d="M227.148 212.903H238.316C239.14 212.903 239.809 213.571 239.809 214.396V219.811C239.809 220.635 239.14 221.303 238.316 221.303H227.148V212.903Z" fill="#BEBDC0"/>
<path d="M306.086 239.19C312.185 239.19 317.129 234.245 317.129 228.146C317.129 222.047 312.185 217.103 306.086 217.103H243.48" stroke="#D8D9DA" stroke-width="4.731" stroke-linecap="round"/>
<path d="M306.086 239.19H298.896C290.489 239.19 283.673 232.373 283.673 223.966V165.64" stroke="#D8D9DA" stroke-width="4.731"/>
<path d="M276.198 134.781H291.146V162.783H276.198V134.781Z" fill="#BEBDC0"/>
<path d="M278.796 155.888H288.551V184.421H278.796V155.888Z" fill="#D8D9DA"/>
<path d="M275.019 148.351H292.327V174.046H275.019V148.351Z" fill="#D8D9DA"/>
<path d="M259.202 50.394C258.669 50.394 258.153 50.204 257.746 49.86L253.596 46.35C253.179 45.9526 252.93 45.4109 252.899 44.8356C252.868 44.2604 253.058 43.6951 253.431 43.2556C253.803 42.816 254.329 42.5354 254.902 42.4711C255.474 42.4069 256.05 42.5639 256.51 42.91L260.66 46.42C261.013 46.7187 261.266 47.1188 261.385 47.566C261.503 48.0132 261.481 48.4859 261.322 48.9203C261.163 49.3547 260.875 49.7298 260.495 49.9948C260.116 50.2598 259.665 50.4019 259.202 50.402V50.394Z" fill="#D8D9DA"/>
<path d="M238.447 213.837H243.477V220.372H238.447V213.837Z" fill="#BEBDC0"/>
<path d="M54.5 108C54.5 106.067 56.067 104.5 58 104.5H218C219.933 104.5 221.5 106.067 221.5 108V211.5H54.5V108Z" fill="white" stroke="#BEBDC0"/>
<rect x="58.5" y="108.5" width="159" height="99" rx="0.5" fill="#00B812" fill-opacity="0.5" stroke="#7A7F80"/>
<path fill-rule="evenodd" clip-rule="evenodd" d="M126.536 156.673C127.244 155.973 128.384 155.973 129.092 156.673L134.348 161.873L146.828 149.523C147.169 149.188 147.628 149 148.106 149C148.585 149 149.044 149.188 149.384 149.523C149.551 149.688 149.683 149.884 149.773 150.101C149.863 150.317 149.909 150.549 149.909 150.783C149.909 151.017 149.863 151.249 149.773 151.465C149.683 151.682 149.551 151.878 149.384 152.043L134.345 166.941L126.536 159.216C126.367 159.051 126.232 158.853 126.14 158.635C126.047 158.416 126 158.182 126 157.944C126 157.707 126.047 157.473 126.14 157.254C126.232 157.036 126.367 156.838 126.536 156.673Z" fill="white"/>
<rect x="46.5" y="211.5" width="183" height="10" rx="3.5" fill="white" stroke="#BEBDC0"/>
<path fill-rule="evenodd" clip-rule="evenodd" d="M250.41 5L317.59 5C319.819 5 320.627 5.23206 321.442 5.66783C322.257 6.1036 322.896 6.74307 323.332 7.55789C323.768 8.3727 324 9.18092 324 11.4097V128.59C324 130.819 323.768 131.627 323.332 132.442C322.896 133.257 322.257 133.896 321.442 134.332C320.627 134.768 319.819 135 317.59 135H250.41C248.181 135 247.373 134.768 246.558 134.332C245.743 133.896 245.104 133.257 244.668 132.442C244.232 131.627 244 130.819 244 128.59V11.4097C244 9.18092 244.232 8.3727 244.668 7.55789C245.104 6.74307 245.743 6.1036 246.558 5.66783C247.373 5.23206 248.181 5 250.41 5Z" fill="#525254"/>
<path d="M258.498 74.9925C262.088 74.9925 264.998 72.0824 264.998 68.4926C264.998 64.9027 262.088 61.9926 258.498 61.9926C254.908 61.9926 251.998 64.9027 251.998 68.4926C251.998 72.0824 254.908 74.9925 258.498 74.9925Z" fill="#39393B"/>
<path d="M275.5 74.9925C279.09 74.9925 282 72.0824 282 68.4926C282 64.9027 279.09 61.9926 275.5 61.9926C271.91 61.9926 269 64.9027 269 68.4926C269 72.0824 271.91 74.9925 275.5 74.9925Z" fill="#39393B"/>
<path d="M292.502 74.9925C296.092 74.9925 299.002 72.0824 299.002 68.4926C299.002 64.9027 296.092 61.9926 292.502 61.9926C288.912 61.9926 286.002 64.9027 286.002 68.4926C286.002 72.0824 288.912 74.9925 292.502 74.9925Z" fill="#39393B"/>
<path d="M309.499 74.9925C313.089 74.9925 315.999 72.0824 315.999 68.4926C315.999 64.9027 313.089 61.9926 309.499 61.9926C305.909 61.9926 302.999 64.9027 302.999 68.4926C302.999 72.0824 305.909 74.9925 309.499 74.9925Z" fill="#39393B"/>
<path fill-rule="evenodd" clip-rule="evenodd" d="M314.15 14.0039C314.482 14.0047 314.625 14.0137 314.76 14.0859C314.828 14.1221 314.881 14.1752 314.917 14.2427C314.994 14.3874 314.999 14.5413 314.999 14.9267V54.0809C314.999 54.4663 314.994 54.6202 314.917 54.7648C314.881 54.8324 314.828 54.8855 314.76 54.9216C314.615 54.999 314.462 55.0038 314.076 55.0038H253.922C253.536 55.0038 253.383 54.999 253.238 54.9216C253.17 54.8855 253.117 54.8324 253.081 54.7648C253.004 54.6202 252.999 54.4663 252.999 54.0809L252.999 14.8526C253 14.5208 253.009 14.3778 253.081 14.2427C253.117 14.1752 253.17 14.1221 253.238 14.0859C253.383 14.0086 253.536 14.0038 253.922 14.0038L314.15 14.0039Z" fill="#202021" stroke="black" stroke-width="1.5"/>
</svg>
