<svg width="576" height="360" fill="none" xmlns="http://www.w3.org/2000/svg">
  <g filter="url(#a)">
    <rect x="189" y="50" width="259" height="200" rx="12" fill="#fff" />
  </g>
  <path d="M189 73h57v177h-45c-6.627 0-12-5.373-12-12V73ZM189 62c0-6.627 5.373-12 12-12h235c6.627 0 12 5.373 12 12v10H189V62Z" fill="#F9F9FB" />
  <path fill="#E7E7EE" d="M189 72h259v1H189zM209.963 87.982c0 4.13-1.852 5.981-5.981 5.981-4.13 0-5.982-1.852-5.982-5.981 0-4.13 1.852-5.982 5.982-5.982 4.129 0 5.981 1.852 5.981 5.982Z" />
  <path d="M204.522 84.536h-1.664l-.292.883h.924v1.86h1.032v-2.743Z" fill="#fff" />
  <path fill-rule="evenodd" clip-rule="evenodd" d="M205.88 89.529a1.898 1.898 0 1 1-3.796 0 1.898 1.898 0 0 1 3.796 0Zm-.862 0a1.036 1.036 0 1 1-2.073 0 1.036 1.036 0 0 1 2.073 0Z" fill="#fff" />
  <circle cx="202" cy="61" r="3" fill="#E7E7EE" />
  <circle cx="212" cy="61" r="3" fill="#E7E7EE" />
  <circle cx="222" cy="61" r="3" fill="#E7E7EE" />
  <path fill="#E7E7EE" d="M246 73h1v177h-1z" />
  <g filter="url(#b)">
    <rect x="131" y="109" width="259" height="200" rx="12" fill="#fff" />
  </g>
  <path d="M131 132h57v177h-45c-6.627 0-12-5.373-12-12V132ZM131 121c0-6.627 5.373-12 12-12h235c6.627 0 12 5.373 12 12v10H131v-10Z" fill="#F9F9FB" />
  <path fill="#E7E7EE" d="M131 131h259v1H131z" />
  <path d="M151.963 146.982c0 4.129-1.852 5.981-5.981 5.981-4.13 0-5.982-1.852-5.982-5.981 0-4.13 1.852-5.982 5.982-5.982 4.129 0 5.981 1.852 5.981 5.982Z" fill="#00B812" />
  <path d="M146.522 143.536h-1.664l-.292.883h.924v1.859h1.032v-2.742Z" fill="#fff" />
  <path fill-rule="evenodd" clip-rule="evenodd" d="M147.88 148.529a1.898 1.898 0 1 1-3.797 0 1.898 1.898 0 0 1 3.797 0Zm-.862 0a1.036 1.036 0 1 1-2.072 0 1.036 1.036 0 0 1 2.072 0Z" fill="#fff" />
  <circle cx="144" cy="120" r="3" fill="#FF3B30" />
  <circle cx="154" cy="120" r="3" fill="#FC0" />
  <circle cx="164" cy="120" r="3" fill="#00B812" />
  <path fill="#E7E7EE" d="M188 132h1v177h-1z" />
  <rect x="141" y="171" width="31" height="4" rx="2" fill="#E7E7EE" />
  <rect x="141" y="181" width="24" height="4" rx="2" fill="#E7E7EE" />
  <rect x="141" y="191" width="26" height="4" rx="2" fill="#E7E7EE" />
  <rect x="141" y="201" width="31" height="4" rx="2" fill="#E7E7EE" />
  <defs>
    <filter id="a" x="184" y="49" width="269" height="210" filterUnits="userSpaceOnUse" color-interpolation-filters="sRGB">
      <feFlood flood-opacity="0" result="BackgroundImageFix" />
      <feColorMatrix in="SourceAlpha" values="0 0 0 0 0 0 0 0 0 0 0 0 0 0 0 0 0 0 127 0" result="hardAlpha" />
      <feMorphology radius="1" operator="dilate" in="SourceAlpha" result="effect1_dropShadow_7184:26228" />
      <feOffset />
      <feColorMatrix values="0 0 0 0 0 0 0 0 0 0 0 0 0 0 0 0 0 0 0.05 0" />
      <feBlend in2="BackgroundImageFix" result="effect1_dropShadow_7184:26228" />
      <feColorMatrix in="SourceAlpha" values="0 0 0 0 0 0 0 0 0 0 0 0 0 0 0 0 0 0 127 0" result="hardAlpha" />
      <feMorphology radius="1" in="SourceAlpha" result="effect2_dropShadow_7184:26228" />
      <feOffset dy="2" />
      <feGaussianBlur stdDeviation="2" />
      <feColorMatrix values="0 0 0 0 0 0 0 0 0 0 0 0 0 0 0 0 0 0 0.06 0" />
      <feBlend in2="effect1_dropShadow_7184:26228" result="effect2_dropShadow_7184:26228" />
      <feColorMatrix in="SourceAlpha" values="0 0 0 0 0 0 0 0 0 0 0 0 0 0 0 0 0 0 127 0" result="hardAlpha" />
      <feMorphology radius="1" in="SourceAlpha" result="effect3_dropShadow_7184:26228" />
      <feOffset dy="4" />
      <feGaussianBlur stdDeviation="3" />
      <feColorMatrix values="0 0 0 0 0 0 0 0 0 0 0 0 0 0 0 0 0 0 0.1 0" />
      <feBlend in2="effect2_dropShadow_7184:26228" result="effect3_dropShadow_7184:26228" />
      <feBlend in="SourceGraphic" in2="effect3_dropShadow_7184:26228" result="shape" />
    </filter>
    <filter id="b" x="111" y="108" width="299" height="241" filterUnits="userSpaceOnUse" color-interpolation-filters="sRGB">
      <feFlood flood-opacity="0" result="BackgroundImageFix" />
      <feColorMatrix in="SourceAlpha" values="0 0 0 0 0 0 0 0 0 0 0 0 0 0 0 0 0 0 127 0" result="hardAlpha" />
      <feMorphology radius="1" operator="dilate" in="SourceAlpha" result="effect1_dropShadow_7184:26228" />
      <feOffset />
      <feColorMatrix values="0 0 0 0 0 0 0 0 0 0 0 0 0 0 0 0 0 0 0.05 0" />
      <feBlend in2="BackgroundImageFix" result="effect1_dropShadow_7184:26228" />
      <feColorMatrix in="SourceAlpha" values="0 0 0 0 0 0 0 0 0 0 0 0 0 0 0 0 0 0 127 0" result="hardAlpha" />
      <feMorphology radius="5" in="SourceAlpha" result="effect2_dropShadow_7184:26228" />
      <feOffset dy="10" />
      <feGaussianBlur stdDeviation="5" />
      <feColorMatrix values="0 0 0 0 0 0 0 0 0 0 0 0 0 0 0 0 0 0 0.04 0" />
      <feBlend in2="effect1_dropShadow_7184:26228" result="effect2_dropShadow_7184:26228" />
      <feColorMatrix in="SourceAlpha" values="0 0 0 0 0 0 0 0 0 0 0 0 0 0 0 0 0 0 127 0" result="hardAlpha" />
      <feMorphology radius="5" in="SourceAlpha" result="effect3_dropShadow_7184:26228" />
      <feOffset dy="20" />
      <feGaussianBlur stdDeviation="12.5" />
      <feColorMatrix values="0 0 0 0 0 0 0 0 0 0 0 0 0 0 0 0 0 0 0.1 0" />
      <feBlend in2="effect2_dropShadow_7184:26228" result="effect3_dropShadow_7184:26228" />
      <feBlend in="SourceGraphic" in2="effect3_dropShadow_7184:26228" result="shape" />
    </filter>
  </defs>
</svg>