<svg width="80" height="80" fill="none" xmlns="http://www.w3.org/2000/svg">
  <path d="m48 23 2 2 4-4m6 2a9 9 0 1 1-18 0 9 9 0 0 1 18 0Z" stroke="#00B812" stroke-width="2" stroke-linecap="round" stroke-linejoin="round" />
  <path d="M52 34.959v15.684c0 1.084 0 1.958-.058 2.666-.06.729-.185 1.369-.487 1.961a5 5 0 0 1-2.185 2.185c-.592.302-1.233.428-1.961.487C46.6 58 45.727 58 44.643 58h-9.286c-1.084 0-1.958 0-2.666-.058-.729-.06-1.369-.185-1.961-.487a5 5 0 0 1-2.185-2.185c-.302-.592-.428-1.233-.487-1.961C28 52.6 28 51.727 28 50.643V29.357c0-1.084 0-1.958.058-2.666.06-.729.185-1.369.487-1.961a5 5 0 0 1 2.185-2.185c.592-.302 1.232-.428 1.961-.487C33.4 22 34.273 22 35.357 22h3.684a12.16 12.16 0 0 0 0 2H35.4c-1.137 0-1.929 0-2.546.051-.605.05-.953.142-1.216.276a3 3 0 0 0-1.311 1.311c-.134.263-.226.611-.276 1.216-.05.617-.051 1.41-.051 2.546v21.2c0 1.137 0 1.929.051 2.546.05.605.142.953.276 1.216a3 3 0 0 0 1.311 1.311c.263.134.611.226 1.216.276.617.05 1.41.051 2.546.051h9.2c1.137 0 1.929 0 2.546-.051.605-.05.953-.142 1.216-.276a3 3 0 0 0 1.311-1.311c.134-.263.226-.611.276-1.216.05-.617.051-1.41.051-2.546V34.959a12.16 12.16 0 0 0 2 0Z" fill="#A0A0B0" />
  <path d="M39.378 26h-3.217c-.527 0-.982 0-1.356.03-.395.033-.789.104-1.167.297a3 3 0 0 0-1.311 1.311c-.193.378-.264.772-.296 1.167-.031.375-.031.83-.031 1.356v7.678c0 .527 0 .982.03 1.356.033.395.104.789.297 1.167a3 3 0 0 0 1.311 1.311c.378.193.772.264 1.167.296.374.031.83.031 1.356.031h7.678c.527 0 .982 0 1.356-.03.395-.033.789-.104 1.167-.297a3 3 0 0 0 1.311-1.311c.193-.378.264-.772.296-1.167.031-.374.031-.83.031-1.356v-3.217a11.903 11.903 0 0 1-2-.71V37.8c0 .577 0 .949-.024 1.232-.022.272-.06.373-.085.422a1 1 0 0 1-.437.437c-.05.025-.15.063-.422.085C44.75 40 44.377 40 43.8 40h-7.6c-.577 0-.949 0-1.232-.024-.272-.022-.373-.06-.422-.085a1 1 0 0 1-.437-.437c-.025-.05-.063-.15-.085-.422C34 38.75 34 38.377 34 37.8v-7.6c0-.577 0-.949.024-1.232.022-.272.06-.372.085-.422a1 1 0 0 1 .437-.437c.05-.025.15-.063.422-.085C35.25 28 35.623 28 36.2 28h3.888a11.903 11.903 0 0 1-.71-2Z" fill="#A0A0B0" />
</svg>