<svg width="80" height="80" viewBox="0 0 80 80" fill="none" xmlns="http://www.w3.org/2000/svg">
  <path fill-rule="evenodd" clip-rule="evenodd" d="M51 14C51.5523 14 52 14.4477 52 15V17.343C53.6494 15.3045 56.1717 14 59 14C63.5903 14 67.3767 17.4356 67.9304 21.8763C67.9988 22.4243 67.6099 22.924 67.0618 22.9923C66.5138 23.0607 66.0141 22.6718 65.9458 22.1237C65.5153 18.6717 62.5689 16 59 16C56.6223 16 54.52 17.1857 53.2544 19H56C56.5523 19 57 19.4477 57 20C57 20.5523 56.5523 21 56 21H51C50.4477 21 50 20.5523 50 20V15C50 14.4477 50.4477 14 51 14ZM50.9382 23.0077C51.4862 22.9393 51.9859 23.3282 52.0542 23.8763C52.4847 27.3283 55.4311 30 59 30C61.3777 30 63.48 28.8143 64.7456 27H62C61.4477 27 61 26.5523 61 26C61 25.4477 61.4477 25 62 25H67C67.5523 25 68 25.4477 68 26V31C68 31.5523 67.5523 32 67 32C66.4477 32 66 31.5523 66 31V28.657C64.3506 30.6955 61.8283 32 59 32C54.4097 32 50.6233 28.5644 50.0696 24.1237C50.0012 23.5757 50.3901 23.076 50.9382 23.0077Z" fill="#00B812" />
  <path fill-rule="evenodd" clip-rule="evenodd" d="M59 35V51H63V53C63 55.2091 61.2091 57 59 57H20C17.7909 57 16 55.2091 16 53V51H20V27C20 24.7909 21.7909 23 24 23H47C47 23.6814 47.0568 24.3496 47.1659 25H24C22.8954 25 22 25.8954 22 27V51H57V34.8341C57.6504 34.9432 58.3186 35 59 35ZM61 53C61 54.1046 60.1046 55 59 55H20C18.8954 55 18 54.1046 18 53H61Z" fill="#A0A0B0" />
  <path d="M47.6828 27H26C24.8954 27 24 27.8954 24 29V47C24 48.1046 24.8954 49 26 49H53C54.1046 49 55 48.1046 55 47V34.3172C54.3014 34.0702 53.6324 33.7605 53 33.3946V47H26V29H48.6054C48.2395 28.3676 47.9298 27.6986 47.6828 27Z" fill="#A0A0B0" />
</svg>
