<svg width="80" height="80" fill="none" xmlns="http://www.w3.org/2000/svg">
  <path fill-rule="evenodd" clip-rule="evenodd" d="M46 14a1 1 0 0 1 1 1v2.343A8.982 8.982 0 0 1 54 14c4.59 0 8.377 3.436 8.93 7.876a1 1 0 1 1-1.984.248A7.001 7.001 0 0 0 48.254 19H51a1 1 0 1 1 0 2h-5a1 1 0 0 1-1-1v-5a1 1 0 0 1 1-1Zm-.062 9.008a1 1 0 0 1 1.116.868A7.001 7.001 0 0 0 59.746 27H57a1 1 0 1 1 0-2h5a1 1 0 0 1 1 1v5a1 1 0 1 1-2 0v-2.343A8.982 8.982 0 0 1 54 32c-4.59 0-8.377-3.436-8.93-7.876a1 1 0 0 1 .868-1.116Z" fill="#00B812" />
  <path d="M32 31a1 1 0 0 1 1-1h4a1 1 0 1 1 0 2h-4a1 1 0 0 1-1-1ZM32 37a1 1 0 0 1 1-1h4a1 1 0 1 1 0 2h-4a1 1 0 0 1-1-1ZM42 37a1 1 0 0 1 1-1h4a1 1 0 1 1 0 2h-4a1 1 0 0 1-1-1ZM32 43a1 1 0 0 1 1-1h4a1 1 0 1 1 0 2h-4a1 1 0 0 1-1-1ZM42 43a1 1 0 0 1 1-1h4a1 1 0 1 1 0 2h-4a1 1 0 0 1-1-1ZM32 49a1 1 0 0 1 1-1h4a1 1 0 1 1 0 2h-4a1 1 0 0 1-1-1ZM42 49a1 1 0 0 1 1-1h4a1 1 0 1 1 0 2h-4a1 1 0 0 1-1-1Z" fill="#A0A0B0" />
  <path d="M42 22H30a5 5 0 0 0-5 5v26a5 5 0 0 0 5 5h20a5 5 0 0 0 5-5V35h-2v18a3 3 0 0 1-3 3H30a3 3 0 0 1-3-3V27a3 3 0 0 1 3-3h12v-2Z" fill="#A0A0B0" />
</svg>