<svg width="94" height="94" viewBox="0 0 94 94" fill="none" xmlns="http://www.w3.org/2000/svg">
<rect x="7" width="80" height="94" rx="4" fill="white"/>
<rect x="7.5" y="0.5" width="79" height="93" rx="3.5" stroke="#00B812" stroke-opacity="0.5"/>
<path d="M21.7422 10.8086H20.6406V13H19.6523V7.3125H21.6523C22.3086 7.3125 22.8151 7.45964 23.1719 7.75391C23.5286 8.04818 23.707 8.47396 23.707 9.03125C23.707 9.41146 23.6146 9.73047 23.4297 9.98828C23.2474 10.2435 22.9922 10.4401 22.6641 10.5781L23.9414 12.9492V13H22.8828L21.7422 10.8086ZM20.6406 10.0156H21.6562C21.9896 10.0156 22.25 9.93229 22.4375 9.76562C22.625 9.59635 22.7188 9.36589 22.7188 9.07422C22.7188 8.76953 22.6315 8.53385 22.457 8.36719C22.2852 8.20052 22.0273 8.11458 21.6836 8.10938H20.6406V10.0156ZM27.9688 10.4609H25.6328V12.2109H28.3633V13H24.6445V7.3125H28.3359V8.10938H25.6328V9.67969H27.9688V10.4609ZM33.5078 11.1484C33.4505 11.7552 33.2266 12.2292 32.8359 12.5703C32.4453 12.9089 31.9258 13.0781 31.2773 13.0781C30.8242 13.0781 30.4245 12.9714 30.0781 12.7578C29.7344 12.5417 29.4688 12.2357 29.2812 11.8398C29.0938 11.444 28.9961 10.9844 28.9883 10.4609V9.92969C28.9883 9.39323 29.0833 8.92057 29.2734 8.51172C29.4635 8.10286 29.7357 7.78776 30.0898 7.56641C30.4466 7.34505 30.8581 7.23438 31.3242 7.23438C31.9518 7.23438 32.457 7.40495 32.8398 7.74609C33.2227 8.08724 33.4453 8.56901 33.5078 9.19141H32.5234C32.4766 8.78255 32.3568 8.48828 32.1641 8.30859C31.974 8.1263 31.694 8.03516 31.3242 8.03516C30.8945 8.03516 30.5638 8.19271 30.332 8.50781C30.1029 8.82031 29.9857 9.27995 29.9805 9.88672V10.3906C29.9805 11.0052 30.0898 11.474 30.3086 11.7969C30.5299 12.1198 30.8529 12.2812 31.2773 12.2812C31.6654 12.2812 31.957 12.194 32.1523 12.0195C32.3477 11.8451 32.4714 11.5547 32.5234 11.1484H33.5078ZM38.9336 10.3047C38.9336 10.862 38.8372 11.3516 38.6445 11.7734C38.4518 12.1927 38.1758 12.5156 37.8164 12.7422C37.4596 12.9661 37.0482 13.0781 36.582 13.0781C36.1211 13.0781 35.7096 12.9661 35.3477 12.7422C34.9883 12.5156 34.7096 12.194 34.5117 11.7773C34.3164 11.3607 34.2174 10.8802 34.2148 10.3359V10.0156C34.2148 9.46094 34.3125 8.97135 34.5078 8.54688C34.7057 8.1224 34.9831 7.79818 35.3398 7.57422C35.6992 7.34766 36.1107 7.23438 36.5742 7.23438C37.0378 7.23438 37.4479 7.34635 37.8047 7.57031C38.1641 7.79167 38.4414 8.11198 38.6367 8.53125C38.832 8.94792 38.931 9.43359 38.9336 9.98828V10.3047ZM37.9453 10.0078C37.9453 9.3776 37.8255 8.89453 37.5859 8.55859C37.349 8.22266 37.0117 8.05469 36.5742 8.05469C36.1471 8.05469 35.8125 8.22266 35.5703 8.55859C35.3307 8.89193 35.2083 9.36458 35.2031 9.97656V10.3047C35.2031 10.9297 35.3242 11.4128 35.5664 11.7539C35.8112 12.0951 36.1497 12.2656 36.582 12.2656C37.0195 12.2656 37.3555 12.099 37.5898 11.7656C37.8268 11.4323 37.9453 10.9453 37.9453 10.3047V10.0078ZM41.8359 11.7617L43.2812 7.3125H44.3672L42.3203 13H41.3633L39.3242 7.3125H40.4062L41.8359 11.7617ZM48.3359 10.4609H46V12.2109H48.7305V13H45.0117V7.3125H48.7031V8.10938H46V9.67969H48.3359V10.4609ZM51.3906 10.0078L52.6992 7.3125H53.793L51.8867 10.9062V13H50.8945V10.9062L48.9844 7.3125H50.082L51.3906 10.0078ZM59.375 11.5352C59.375 11.2852 59.2865 11.0924 59.1094 10.957C58.9349 10.8216 58.6185 10.6849 58.1602 10.5469C57.7018 10.4089 57.3372 10.2552 57.0664 10.0859C56.5482 9.76042 56.2891 9.33594 56.2891 8.8125C56.2891 8.35417 56.4753 7.97656 56.8477 7.67969C57.2227 7.38281 57.7083 7.23438 58.3047 7.23438C58.7005 7.23438 59.0534 7.30729 59.3633 7.45312C59.6732 7.59896 59.9167 7.80729 60.0938 8.07812C60.2708 8.34635 60.3594 8.64453 60.3594 8.97266H59.375C59.375 8.67578 59.2812 8.44401 59.0938 8.27734C58.9089 8.10807 58.6432 8.02344 58.2969 8.02344C57.974 8.02344 57.7227 8.09245 57.543 8.23047C57.3659 8.36849 57.2773 8.5612 57.2773 8.80859C57.2773 9.01693 57.3737 9.19141 57.5664 9.33203C57.7591 9.47005 58.0768 9.60547 58.5195 9.73828C58.9622 9.86849 59.3177 10.0182 59.5859 10.1875C59.8542 10.3542 60.0508 10.5469 60.1758 10.7656C60.3008 10.9818 60.3633 11.2357 60.3633 11.5273C60.3633 12.0013 60.181 12.3789 59.8164 12.6602C59.4544 12.9388 58.9622 13.0781 58.3398 13.0781C57.9284 13.0781 57.5495 13.0026 57.2031 12.8516C56.8594 12.6979 56.5911 12.487 56.3984 12.2188C56.2083 11.9505 56.1133 11.638 56.1133 11.2812H57.1016C57.1016 11.6042 57.2083 11.8542 57.4219 12.0312C57.6354 12.2083 57.9414 12.2969 58.3398 12.2969C58.6836 12.2969 58.9414 12.2279 59.1133 12.0898C59.2878 11.9492 59.375 11.7643 59.375 11.5352ZM64.5547 10.4609H62.2188V12.2109H64.9492V13H61.2305V7.3125H64.9219V8.10938H62.2188V9.67969H64.5547V10.4609ZM69.0781 10.4609H66.7422V12.2109H69.4727V13H65.7539V7.3125H69.4453V8.10938H66.7422V9.67969H69.0781V10.4609ZM70.2773 13V7.3125H71.957C72.4596 7.3125 72.9049 7.42448 73.293 7.64844C73.6836 7.8724 73.9857 8.1901 74.1992 8.60156C74.4128 9.01302 74.5195 9.48438 74.5195 10.0156V10.3008C74.5195 10.8398 74.4115 11.3138 74.1953 11.7227C73.9818 12.1315 73.6758 12.4466 73.2773 12.668C72.8815 12.8893 72.4271 13 71.9141 13H70.2773ZM71.2656 8.10938V12.2109H71.9102C72.4284 12.2109 72.8255 12.0495 73.1016 11.7266C73.3802 11.401 73.5221 10.9349 73.5273 10.3281V10.0117C73.5273 9.39453 73.3932 8.92318 73.125 8.59766C72.8568 8.27214 72.4674 8.10938 71.957 8.10938H71.2656Z" fill="#00B812"/>
<rect x="14" y="19" width="32" height="8" rx="2" fill="#EEEEEE"/>
<rect x="14" y="31" width="32" height="8" rx="2" fill="#EEEEEE"/>
<rect x="14" y="43" width="32" height="8" rx="2" fill="#EEEEEE"/>
<rect x="14" y="55" width="32" height="8" rx="2" fill="#EEEEEE"/>
<rect x="14" y="67" width="32" height="8" rx="2" fill="#EEEEEE"/>
<rect x="14" y="79" width="32" height="8" rx="2" fill="#EEEEEE"/>
<rect x="48" y="19" width="32" height="8" rx="2" fill="#EEEEEE"/>
<rect x="48" y="31" width="32" height="8" rx="2" fill="#EEEEEE"/>
<rect x="48" y="43" width="32" height="8" rx="2" fill="#EEEEEE"/>
<rect x="48" y="55" width="32" height="8" rx="2" fill="#EEEEEE"/>
<rect x="48" y="67" width="32" height="8" rx="2" fill="#EEEEEE"/>
<rect x="48" y="79" width="32" height="8" rx="2" fill="#EEEEEE"/>
<rect x="15" y="20" width="25" height="6" rx="1" fill="#00B812" fill-opacity="0.5"/>
<rect x="49" y="56" width="25" height="6" rx="1" fill="#00B812" fill-opacity="0.5"/>
<rect x="15" y="32" width="20" height="6" rx="1" fill="#00B812" fill-opacity="0.5"/>
<rect x="49" y="80" width="20" height="6" rx="1" fill="#00B812" fill-opacity="0.5"/>
<rect x="15" y="44" width="30" height="6" rx="1" fill="#00B812" fill-opacity="0.5"/>
<rect x="49" y="68" width="30" height="6" rx="1" fill="#00B812" fill-opacity="0.5"/>
<rect x="15" y="56" width="21" height="6" rx="1" fill="#00B812" fill-opacity="0.5"/>
<rect x="49" y="20" width="21" height="6" rx="1" fill="#00B812" fill-opacity="0.5"/>
<rect x="15" y="68" width="25" height="6" rx="1" fill="#00B812" fill-opacity="0.5"/>
<rect x="49" y="44" width="25" height="6" rx="1" fill="#00B812" fill-opacity="0.5"/>
<rect x="15" y="80" width="28" height="6" rx="1" fill="#00B812" fill-opacity="0.5"/>
<rect x="49" y="32" width="28" height="6" rx="1" fill="#00B812" fill-opacity="0.5"/>
</svg>
