<svg width="160" height="160" viewBox="0 0 160 160" fill="none" xmlns="http://www.w3.org/2000/svg">
<path d="M78.5902 36.8208L37.6772 107.691C37.5739 107.87 37.5195 108.073 37.5195 108.28C37.5195 108.487 37.574 108.69 37.6773 108.869C37.7806 109.048 37.9293 109.197 38.1083 109.3C38.2873 109.404 38.4904 109.459 38.6972 109.459H120.527C120.734 109.459 120.937 109.404 121.116 109.301C121.295 109.198 121.444 109.049 121.547 108.87C121.651 108.691 121.705 108.488 121.705 108.281C121.705 108.074 121.651 107.871 121.547 107.692L80.6322 36.8218C80.5294 36.6416 80.3808 36.4918 80.2014 36.3876C80.022 36.2834 79.8182 36.2285 79.6107 36.2285C79.4032 36.2285 79.1994 36.2834 79.02 36.3876C78.8406 36.4918 78.692 36.6416 78.5892 36.8218L78.5902 36.8208Z" fill="#FF3B30" stroke="#D57A70" stroke-width="0.543"/>
<path d="M79.6143 98.9288C81.4567 98.9288 82.9503 97.4353 82.9503 95.5928C82.9503 93.7504 81.4567 92.2568 79.6143 92.2568C77.7719 92.2568 76.2783 93.7504 76.2783 95.5928C76.2783 97.4353 77.7719 98.9288 79.6143 98.9288Z" fill="white" stroke="#D57A70" stroke-width="0.543"/>
<path fill-rule="evenodd" clip-rule="evenodd" d="M79.614 88.1938C80.2678 88.1936 80.8948 87.9337 81.3571 87.4712C81.8193 87.0088 82.079 86.3817 82.079 85.7278V61.3718C82.0567 60.7326 81.7871 60.1269 81.3269 59.6826C80.8668 59.2382 80.2522 58.9899 79.6125 58.9899C78.9728 58.9899 78.3582 59.2382 77.898 59.6826C77.4379 60.1269 77.1683 60.7326 77.146 61.3718V85.7278C77.146 86.0518 77.2098 86.3727 77.3339 86.672C77.4579 86.9713 77.6398 87.2433 77.869 87.4723C78.0982 87.7013 78.3703 87.8829 78.6697 88.0067C78.9691 88.1305 79.29 88.1941 79.614 88.1938Z" fill="white" stroke="#D57A70" stroke-width="0.543"/>
</svg>
