<svg width="160" height="160" viewBox="0 0 160 160" fill="none" xmlns="http://www.w3.org/2000/svg">
<path d="M79.509 119.018C101.329 119.018 119.018 101.329 119.018 79.509C119.018 57.6888 101.329 40 79.509 40C57.6888 40 40 57.6888 40 79.509C40 101.329 57.6888 119.018 79.509 119.018Z" fill="#00B812"/>
<path fill-rule="evenodd" clip-rule="evenodd" d="M63.948 77.6391C64.4408 77.1522 65.1057 76.8791 65.7985 76.8791C66.4913 76.8791 67.1562 77.1522 67.649 77.6391L75.254 85.1631L93.309 67.2901C93.8016 66.8027 94.4666 66.5293 95.1595 66.5293C95.8525 66.5293 96.5174 66.8027 97.01 67.2901C97.2523 67.529 97.4447 67.8136 97.576 68.1275C97.7073 68.4414 97.7749 68.7783 97.7749 69.1185C97.7749 69.4588 97.7073 69.7957 97.576 70.1096C97.4447 70.4235 97.2523 70.7081 97.01 70.9471L75.247 92.4771L63.948 81.2971C63.7056 81.0581 63.5131 80.7734 63.3817 80.4594C63.2503 80.1454 63.1826 79.8084 63.1826 79.468C63.1826 79.1277 63.2503 78.7907 63.3817 78.4767C63.5131 78.1627 63.7056 77.878 63.948 77.6391V77.6391Z" fill="white"/>
</svg>
