<svg width="250" height="250" viewBox="0 0 250 250" fill="none" xmlns="http://www.w3.org/2000/svg">
<path d="M0 31.25C0 13.9911 13.9911 0 31.25 0H218.75C236.009 0 250 13.9911 250 31.25V218.75C250 236.009 236.009 250 218.75 250H31.25C13.9911 250 0 236.009 0 218.75V31.25Z" fill="#FDD85D"/>
<path d="M106.651 48.3903C95.9343 52.6302 90.9412 65.5674 96.1778 75.678C101.536 86.1147 113.836 90.0285 124.675 84.9189C128.45 83.0707 129.18 83.0707 129.18 84.3753C129.18 85.6799 130.764 86.006 136.487 86.006H143.794V47.9554H136.487C131.007 47.9554 129.18 48.3903 129.18 49.4774C129.18 50.6733 128.206 50.5646 124.675 48.9339C119.438 46.5421 111.888 46.3247 106.651 48.3903ZM124.187 59.3706C127.963 61.0013 129.18 62.9582 129.18 66.9807C129.18 71.0032 127.963 72.9601 124.066 74.6996C117.611 77.6349 109.696 73.7211 109.696 67.633C109.696 63.9367 112.375 60.0229 115.663 58.9357C120.047 57.5224 120.29 57.5224 124.187 59.3706Z" fill="black"/>
<path d="M180.572 49.0469C175.823 51.6561 175.457 51.6561 175.457 49.5905C175.457 48.2859 173.874 47.9597 168.15 47.9597H160.843V105.579H175.457V82.9663L179.963 85.0319C188.244 88.8369 198.474 87.2062 204.928 81.0094C213.331 72.9644 212.844 59.4836 203.954 52.0909C197.256 46.5464 187.635 45.2418 180.572 49.0469ZM189.949 59.3749C193.724 61.1144 194.942 62.9625 194.942 67.0937C194.942 71.2249 192.994 73.7254 188.853 74.9213C177.04 78.6176 170.099 64.5933 180.937 59.0488C184.225 57.418 185.93 57.418 189.949 59.3749Z" fill="black"/>
<path d="M42.7159 57.6345L59.8871 58.2868L49.4139 71.7675C43.6902 79.2689 39.0625 85.4658 39.0625 85.6832C39.0625 85.9006 48.9268 86.0093 60.9831 86.0093H82.9037V76.2249H73.7701C68.7771 76.2249 64.6365 75.79 64.6365 75.3552C64.6365 74.8116 69.0206 68.7235 74.379 61.6569C79.7374 54.6991 84.1215 48.7197 84.1215 48.5023C84.1215 48.1762 74.8661 47.9587 63.4187 47.9587H42.7159V57.6345Z" fill="black"/>
<path d="M99.3441 141.671C81.9294 160.262 70.7255 173.199 70.7255 174.612C70.7255 179.178 72.5523 179.504 96.6649 179.504C117.977 179.504 119.56 179.613 118.951 181.353C118.707 182.44 117.489 190.485 116.272 199.291C114.567 212.554 114.445 215.598 115.785 217.011C119.925 221.469 122.726 219.186 152.075 187.875C170.342 168.307 180.328 156.783 180.328 155.152C180.328 150.477 178.624 150.151 155.363 150.151C143.185 150.151 132.956 149.934 132.712 149.607C132.347 149.39 133.199 141.345 134.539 131.778C137.096 112.861 136.731 111.013 130.885 111.013C128.572 111.013 121.995 117.319 99.3441 141.671ZM121.265 144.172C118.951 160.37 118.22 159.827 143.063 160.153L163.036 160.479L145.986 178.743C136.609 188.745 128.693 196.899 128.572 196.681C128.328 196.464 128.815 191.463 129.789 185.484C132.103 169.285 132.834 169.829 107.991 169.502L88.0184 169.176L105.068 150.912C114.567 140.91 122.361 132.865 122.604 132.974C122.726 133.191 122.239 138.192 121.265 144.172Z" fill="black"/>
</svg>
