<svg width="296" height="296" viewBox="0 0 296 296" fill="none" xmlns="http://www.w3.org/2000/svg">
<g clip-path="url(#clip0_46422_442)">
<path d="M296 148C296 250.173 250.173 296 148 296C45.8273 296 0 250.173 0 148C0 45.8273 45.8273 0 148 0C250.173 0 296 45.8273 296 148Z" fill="#0F0F0F"/>
<path d="M296 148C296 250.173 250.173 296 148 296C45.8273 296 0 250.173 0 148C0 45.8273 45.8273 0 148 0C250.173 0 296 45.8273 296 148Z" fill="url(#paint0_radial_46422_442)"/>
<path d="M296 148C296 250.173 250.173 296 148 296C45.8273 296 0 250.173 0 148C0 45.8273 45.8273 0 148 0C250.173 0 296 45.8273 296 148Z" fill="url(#paint1_radial_46422_442)"/>
<path d="M296 148C296 250.173 250.173 296 148 296C45.8273 296 0 250.173 0 148C0 45.8273 45.8273 0 148 0C250.173 0 296 45.8273 296 148Z" fill="url(#paint2_linear_46422_442)"/>
<g style="mix-blend-mode:screen">
<path d="M296 148C296 250.173 250.173 296 148 296C45.8273 296 0 250.173 0 148C0 45.8273 45.8273 0 148 0C250.173 0 296 45.8273 296 148Z" fill="black"/>
</g>
<g opacity="0.2">
<path d="M296 148C296 250.173 250.173 296 148 296C45.8273 296 0 250.173 0 148C0 45.8273 45.8273 0 148 0C250.173 0 296 45.8273 296 148Z" fill="#1B1B1B"/>
<path d="M296 148C296 250.173 250.173 296 148 296C45.8273 296 0 250.173 0 148C0 45.8273 45.8273 0 148 0C250.173 0 296 45.8273 296 148Z" fill="url(#paint3_radial_46422_442)"/>
<path d="M296 148C296 250.173 250.173 296 148 296C45.8273 296 0 250.173 0 148C0 45.8273 45.8273 0 148 0C250.173 0 296 45.8273 296 148Z" fill="url(#paint4_radial_46422_442)"/>
</g>
<g clip-path="url(#clip1_46422_442)">
<g filter="url(#filter0_dddi_46422_442)">
<path d="M161.499 63.0156H120.326L113.103 84.8571L114.709 88.3259H135.971V130.864L137.172 132.599H160.32L161.499 130.864V63.0156Z" fill="url(#paint5_linear_46422_442)"/>
<path d="M161.499 63.0156H120.326L113.103 84.8571L114.709 88.3259H135.971V130.864L137.172 132.599H160.32L161.499 130.864V63.0156Z" fill="url(#paint6_linear_46422_442)" fill-opacity="0.6"/>
<path d="M161.499 63.0156H120.326L113.103 84.8571L114.709 88.3259H135.971V130.864L137.172 132.599H160.32L161.499 130.864V63.0156Z" fill="url(#paint7_linear_46422_442)" fill-opacity="0.4"/>
</g>
<g filter="url(#filter1_dddi_46422_442)">
<path fill-rule="evenodd" clip-rule="evenodd" d="M189.302 182.498C189.302 208.431 174.06 229.453 148.127 229.453C122.195 229.453 106.953 208.431 106.953 182.498C106.953 156.565 122.195 147.105 148.127 147.105C174.06 147.105 189.302 156.565 189.302 182.498ZM173.766 182.498C173.766 196.658 162.287 208.136 148.127 208.136C133.968 208.136 122.489 196.658 122.489 182.498C122.489 168.338 133.968 156.86 148.127 156.86C162.287 156.86 173.766 168.338 173.766 182.498Z" fill="url(#paint8_linear_46422_442)"/>
<path fill-rule="evenodd" clip-rule="evenodd" d="M189.302 182.498C189.302 208.431 174.06 229.453 148.127 229.453C122.195 229.453 106.953 208.431 106.953 182.498C106.953 156.565 122.195 147.105 148.127 147.105C174.06 147.105 189.302 156.565 189.302 182.498ZM173.766 182.498C173.766 196.658 162.287 208.136 148.127 208.136C133.968 208.136 122.489 196.658 122.489 182.498C122.489 168.338 133.968 156.86 148.127 156.86C162.287 156.86 173.766 168.338 173.766 182.498Z" fill="url(#paint9_linear_46422_442)"/>
<path fill-rule="evenodd" clip-rule="evenodd" d="M189.302 182.498C189.302 208.431 174.06 229.453 148.127 229.453C122.195 229.453 106.953 208.431 106.953 182.498C106.953 156.565 122.195 147.105 148.127 147.105C174.06 147.105 189.302 156.565 189.302 182.498ZM173.766 182.498C173.766 196.658 162.287 208.136 148.127 208.136C133.968 208.136 122.489 196.658 122.489 182.498C122.489 168.338 133.968 156.86 148.127 156.86C162.287 156.86 173.766 168.338 173.766 182.498Z" fill="url(#paint10_linear_46422_442)"/>
</g>
<g filter="url(#filter2_d_46422_442)">
<g filter="url(#filter3_f_46422_442)">
<path fill-rule="evenodd" clip-rule="evenodd" d="M122.639 66.4844H163.811V134.333L135.859 132.969L138.284 88.3259H114.703L113.023 84.6953L122.639 66.4844ZM150.44 236.969C176.373 236.969 197.396 215.947 197.396 190.014C197.396 164.081 176.373 143.058 150.44 143.058C124.507 143.058 103.484 164.081 103.484 190.014C103.484 215.947 124.507 236.969 150.44 236.969ZM150.44 215.652C164.599 215.652 176.078 204.174 176.078 190.014C176.078 175.854 164.599 164.376 150.44 164.376C136.28 164.376 119.672 175.176 119.672 189.336C119.672 203.496 136.28 215.652 150.44 215.652Z" fill="black"/>
</g>
<g filter="url(#filter4_i_46422_442)">
<path fill-rule="evenodd" clip-rule="evenodd" d="M120.326 63.0156H161.499V130.864H135.971V84.8571H113.102L120.326 63.0156ZM148.127 233.5C174.06 233.5 195.083 212.478 195.083 186.545C195.083 160.612 174.06 139.59 148.127 139.59C122.195 139.59 101.172 160.612 101.172 186.545C101.172 212.478 122.195 233.5 148.127 233.5ZM148.127 212.183C162.287 212.183 173.766 200.705 173.766 186.545C173.766 172.385 162.287 160.907 148.127 160.907C133.968 160.907 122.489 172.385 122.489 186.545C122.489 200.705 133.968 212.183 148.127 212.183Z" fill="url(#paint11_linear_46422_442)"/>
</g>
<mask id="path-9-inside-1_46422_442" fill="white">
<path fill-rule="evenodd" clip-rule="evenodd" d="M120.326 63.0156H161.499V130.864H135.971V84.8571H113.102L120.326 63.0156ZM148.127 233.5C174.06 233.5 195.083 212.478 195.083 186.545C195.083 160.612 174.06 139.59 148.127 139.59C122.195 139.59 101.172 160.612 101.172 186.545C101.172 212.478 122.195 233.5 148.127 233.5ZM148.127 212.183C162.287 212.183 173.766 200.705 173.766 186.545C173.766 172.385 162.287 160.907 148.127 160.907C133.968 160.907 122.489 172.385 122.489 186.545C122.489 200.705 133.968 212.183 148.127 212.183Z"/>
</mask>
<path d="M161.499 63.0156H162.366V62.1484H161.499V63.0156ZM120.326 63.0156V62.1484H119.699L119.503 62.7433L120.326 63.0156ZM161.499 130.864V131.732H162.366V130.864H161.499ZM135.971 130.864H135.104V131.732H135.971V130.864ZM135.971 84.8571H136.838V83.9899H135.971V84.8571ZM113.102 84.8571L112.279 84.5848L111.902 85.7243H113.102V84.8571ZM161.499 62.1484H120.326V63.8828H161.499V62.1484ZM162.366 130.864V63.0156H160.631V130.864H162.366ZM135.971 131.732H161.499V129.997H135.971V131.732ZM135.104 84.8571V130.864H136.838V84.8571H135.104ZM113.102 85.7243H135.971V83.9899H113.102V85.7243ZM119.503 62.7433L112.279 84.5848L113.926 85.1294L121.149 63.2879L119.503 62.7433ZM194.216 186.545C194.216 211.999 173.581 232.633 148.127 232.633V234.367C174.539 234.367 195.95 212.957 195.95 186.545H194.216ZM148.127 140.457C173.581 140.457 194.216 161.091 194.216 186.545H195.95C195.95 160.134 174.539 138.722 148.127 138.722V140.457ZM102.039 186.545C102.039 161.091 122.674 140.457 148.127 140.457V138.722C121.716 138.722 100.305 160.134 100.305 186.545H102.039ZM148.127 232.633C122.673 232.633 102.039 211.999 102.039 186.545H100.305C100.305 212.957 121.716 234.367 148.127 234.367V232.633ZM172.899 186.545C172.899 200.226 161.808 211.316 148.127 211.316V213.051C162.766 213.051 174.633 201.184 174.633 186.545H172.899ZM148.127 161.774C161.808 161.774 172.899 172.864 172.899 186.545H174.633C174.633 171.906 162.766 160.04 148.127 160.04V161.774ZM123.356 186.545C123.356 172.864 134.446 161.774 148.127 161.774V160.04C133.489 160.04 121.622 171.906 121.622 186.545H123.356ZM148.127 211.316C134.446 211.316 123.356 200.226 123.356 186.545H121.622C121.622 201.184 133.489 213.051 148.127 213.051V211.316Z" fill="url(#paint12_linear_46422_442)" mask="url(#path-9-inside-1_46422_442)"/>
</g>
</g>
</g>
<defs>
<filter id="filter0_dddi_46422_442" x="75.2421" y="49.2482" width="124.117" height="152.188" filterUnits="userSpaceOnUse" color-interpolation-filters="sRGB">
<feFlood flood-opacity="0" result="BackgroundImageFix"/>
<feColorMatrix in="SourceAlpha" type="matrix" values="0 0 0 0 0 0 0 0 0 0 0 0 0 0 0 0 0 0 127 0" result="hardAlpha"/>
<feOffset dy="6.88372"/>
<feGaussianBlur stdDeviation="8.60465"/>
<feColorMatrix type="matrix" values="0 0 0 0 0 0 0 0 0 0 0 0 0 0 0 0 0 0 0.14 0"/>
<feBlend mode="normal" in2="BackgroundImageFix" result="effect1_dropShadow_46422_442"/>
<feColorMatrix in="SourceAlpha" type="matrix" values="0 0 0 0 0 0 0 0 0 0 0 0 0 0 0 0 0 0 127 0" result="hardAlpha"/>
<feOffset dy="30.9767"/>
<feGaussianBlur stdDeviation="18.9302"/>
<feColorMatrix type="matrix" values="0 0 0 0 0 0 0 0 0 0 0 0 0 0 0 0 0 0 0.34 0"/>
<feBlend mode="normal" in2="effect1_dropShadow_46422_442" result="effect2_dropShadow_46422_442"/>
<feColorMatrix in="SourceAlpha" type="matrix" values="0 0 0 0 0 0 0 0 0 0 0 0 0 0 0 0 0 0 127 0" result="hardAlpha"/>
<feOffset dy="6.88372"/>
<feGaussianBlur stdDeviation="10.3256"/>
<feColorMatrix type="matrix" values="0 0 0 0 0 0 0 0 0 0 0 0 0 0 0 0 0 0 0.25 0"/>
<feBlend mode="normal" in2="effect2_dropShadow_46422_442" result="effect3_dropShadow_46422_442"/>
<feBlend mode="normal" in="SourceGraphic" in2="effect3_dropShadow_46422_442" result="shape"/>
<feColorMatrix in="SourceAlpha" type="matrix" values="0 0 0 0 0 0 0 0 0 0 0 0 0 0 0 0 0 0 127 0" result="hardAlpha"/>
<feOffset dy="-3.44186"/>
<feGaussianBlur stdDeviation="6.88372"/>
<feComposite in2="hardAlpha" operator="arithmetic" k2="-1" k3="1"/>
<feColorMatrix type="matrix" values="0 0 0 0 1 0 0 0 0 1 0 0 0 0 1 0 0 0 0.55 0"/>
<feBlend mode="normal" in2="shape" result="effect4_innerShadow_46422_442"/>
</filter>
<filter id="filter1_dddi_46422_442" x="69.0927" y="133.338" width="158.07" height="164.953" filterUnits="userSpaceOnUse" color-interpolation-filters="sRGB">
<feFlood flood-opacity="0" result="BackgroundImageFix"/>
<feColorMatrix in="SourceAlpha" type="matrix" values="0 0 0 0 0 0 0 0 0 0 0 0 0 0 0 0 0 0 127 0" result="hardAlpha"/>
<feOffset dy="6.88372"/>
<feGaussianBlur stdDeviation="8.60465"/>
<feColorMatrix type="matrix" values="0 0 0 0 0 0 0 0 0 0 0 0 0 0 0 0 0 0 0.14 0"/>
<feBlend mode="normal" in2="BackgroundImageFix" result="effect1_dropShadow_46422_442"/>
<feColorMatrix in="SourceAlpha" type="matrix" values="0 0 0 0 0 0 0 0 0 0 0 0 0 0 0 0 0 0 127 0" result="hardAlpha"/>
<feOffset dy="30.9767"/>
<feGaussianBlur stdDeviation="18.9302"/>
<feColorMatrix type="matrix" values="0 0 0 0 0 0 0 0 0 0 0 0 0 0 0 0 0 0 0.34 0"/>
<feBlend mode="normal" in2="effect1_dropShadow_46422_442" result="effect2_dropShadow_46422_442"/>
<feColorMatrix in="SourceAlpha" type="matrix" values="0 0 0 0 0 0 0 0 0 0 0 0 0 0 0 0 0 0 127 0" result="hardAlpha"/>
<feOffset dy="6.88372"/>
<feGaussianBlur stdDeviation="10.3256"/>
<feColorMatrix type="matrix" values="0 0 0 0 0 0 0 0 0 0 0 0 0 0 0 0 0 0 0.25 0"/>
<feBlend mode="normal" in2="effect2_dropShadow_46422_442" result="effect3_dropShadow_46422_442"/>
<feBlend mode="normal" in="SourceGraphic" in2="effect3_dropShadow_46422_442" result="shape"/>
<feColorMatrix in="SourceAlpha" type="matrix" values="0 0 0 0 0 0 0 0 0 0 0 0 0 0 0 0 0 0 127 0" result="hardAlpha"/>
<feOffset dy="-3.44186"/>
<feGaussianBlur stdDeviation="6.88372"/>
<feComposite in2="hardAlpha" operator="arithmetic" k2="-1" k3="1"/>
<feColorMatrix type="matrix" values="0 0 0 0 1 0 0 0 0 1 0 0 0 0 1 0 0 0 0.55 0"/>
<feBlend mode="normal" in2="shape" result="effect4_innerShadow_46422_442"/>
</filter>
<filter id="filter2_d_46422_442" x="62.2245" y="43.5419" width="174.118" height="251.848" filterUnits="userSpaceOnUse" color-interpolation-filters="sRGB">
<feFlood flood-opacity="0" result="BackgroundImageFix"/>
<feColorMatrix in="SourceAlpha" type="matrix" values="0 0 0 0 0 0 0 0 0 0 0 0 0 0 0 0 0 0 127 0" result="hardAlpha"/>
<feOffset dy="19.4737"/>
<feGaussianBlur stdDeviation="19.4737"/>
<feComposite in2="hardAlpha" operator="out"/>
<feColorMatrix type="matrix" values="0 0 0 0 0 0 0 0 0 0 0 0 0 0 0 0 0 0 0.6 0"/>
<feBlend mode="normal" in2="BackgroundImageFix" result="effect1_dropShadow_46422_442"/>
<feBlend mode="normal" in="SourceGraphic" in2="effect1_dropShadow_46422_442" result="shape"/>
</filter>
<filter id="filter3_f_46422_442" x="93.0781" y="56.0781" width="114.724" height="191.297" filterUnits="userSpaceOnUse" color-interpolation-filters="sRGB">
<feFlood flood-opacity="0" result="BackgroundImageFix"/>
<feBlend mode="normal" in="SourceGraphic" in2="BackgroundImageFix" result="shape"/>
<feGaussianBlur stdDeviation="5.20312" result="effect1_foregroundBlur_46422_442"/>
</filter>
<filter id="filter4_i_46422_442" x="101.172" y="63.0156" width="95.0674" height="171.641" filterUnits="userSpaceOnUse" color-interpolation-filters="sRGB">
<feFlood flood-opacity="0" result="BackgroundImageFix"/>
<feBlend mode="normal" in="SourceGraphic" in2="BackgroundImageFix" result="shape"/>
<feColorMatrix in="SourceAlpha" type="matrix" values="0 0 0 0 0 0 0 0 0 0 0 0 0 0 0 0 0 0 127 0" result="hardAlpha"/>
<feOffset dx="1.15625" dy="1.15625"/>
<feGaussianBlur stdDeviation="1.15625"/>
<feComposite in2="hardAlpha" operator="arithmetic" k2="-1" k3="1"/>
<feColorMatrix type="matrix" values="0 0 0 0 1 0 0 0 0 1 0 0 0 0 1 0 0 0 0.25 0"/>
<feBlend mode="normal" in2="shape" result="effect1_innerShadow_46422_442"/>
</filter>
<radialGradient id="paint0_radial_46422_442" cx="0" cy="0" r="1" gradientUnits="userSpaceOnUse" gradientTransform="translate(148 185.638) rotate(90) scale(120.853 157.152)">
<stop stop-opacity="0.35"/>
<stop offset="1" stop-opacity="0"/>
</radialGradient>
<radialGradient id="paint1_radial_46422_442" cx="0" cy="0" r="1" gradientUnits="userSpaceOnUse" gradientTransform="translate(148) rotate(90) scale(296)">
<stop stop-color="white" stop-opacity="0.05"/>
<stop offset="1" stop-color="white" stop-opacity="0"/>
</radialGradient>
<linearGradient id="paint2_linear_46422_442" x1="-3.47161" y1="5.04839e-07" x2="58.5373" y2="255.542" gradientUnits="userSpaceOnUse">
<stop stop-color="white" stop-opacity="0.26"/>
<stop offset="0.471233" stop-color="white" stop-opacity="0.0781197"/>
<stop offset="1" stop-color="white" stop-opacity="0"/>
</linearGradient>
<radialGradient id="paint3_radial_46422_442" cx="0" cy="0" r="1" gradientUnits="userSpaceOnUse" gradientTransform="translate(148 185.638) rotate(90) scale(120.853 157.152)">
<stop stop-opacity="0.35"/>
<stop offset="1" stop-opacity="0"/>
</radialGradient>
<radialGradient id="paint4_radial_46422_442" cx="0" cy="0" r="1" gradientUnits="userSpaceOnUse" gradientTransform="translate(148) rotate(90) scale(296)">
<stop stop-color="white" stop-opacity="0.05"/>
<stop offset="1" stop-color="white" stop-opacity="0"/>
</radialGradient>
<linearGradient id="paint5_linear_46422_442" x1="137.863" y1="77.6647" x2="136.374" y2="132.574" gradientUnits="userSpaceOnUse">
<stop stop-color="#F2F6F7"/>
<stop offset="0.473473" stop-color="#DADADA"/>
<stop offset="1" stop-color="#BCBCBC"/>
</linearGradient>
<linearGradient id="paint6_linear_46422_442" x1="137.235" y1="83.0724" x2="136.117" y2="132.572" gradientUnits="userSpaceOnUse">
<stop stop-opacity="0"/>
<stop offset="1"/>
</linearGradient>
<linearGradient id="paint7_linear_46422_442" x1="137.863" y1="107.878" x2="136.377" y2="132.543" gradientUnits="userSpaceOnUse">
<stop offset="0.329728" stop-opacity="0"/>
<stop offset="1"/>
</linearGradient>
<linearGradient id="paint8_linear_46422_442" x1="149.085" y1="164.441" x2="147.859" y2="229.448" gradientUnits="userSpaceOnUse">
<stop stop-color="#F2F6F7"/>
<stop offset="0.473473" stop-color="#DADADA"/>
<stop offset="1" stop-color="#BCBCBC"/>
</linearGradient>
<linearGradient id="paint9_linear_46422_442" x1="148.016" y1="170.841" x2="147.095" y2="229.437" gradientUnits="userSpaceOnUse">
<stop stop-opacity="0"/>
<stop offset="1"/>
</linearGradient>
<linearGradient id="paint10_linear_46422_442" x1="148" y1="207.836" x2="147.913" y2="217.374" gradientUnits="userSpaceOnUse">
<stop offset="0.329728" stop-opacity="0"/>
<stop offset="1"/>
</linearGradient>
<linearGradient id="paint11_linear_46422_442" x1="115.047" y1="56.6563" x2="188.477" y2="236.161" gradientUnits="userSpaceOnUse">
<stop stop-color="white"/>
<stop offset="1" stop-color="#565656"/>
</linearGradient>
<linearGradient id="paint12_linear_46422_442" x1="125.076" y1="49.5319" x2="246.383" y2="169.067" gradientUnits="userSpaceOnUse">
<stop stop-color="white"/>
<stop offset="1" stop-color="white" stop-opacity="0.06"/>
</linearGradient>
<clipPath id="clip0_46422_442">
<rect width="296" height="296" fill="white"/>
</clipPath>
<clipPath id="clip1_46422_442">
<rect width="296" height="296" fill="white"/>
</clipPath>
</defs>
</svg>
